%TF.GenerationSoftware,KiCad,Pcbnew,8.0.2-1*%
%TF.CreationDate,2024-05-13T14:31:14+01:00*%
%TF.ProjectId,Daisy V2 - STM32,44616973-7920-4563-9220-2d2053544d33,rev?*%
%TF.SameCoordinates,Original*%
%TF.FileFunction,Paste,Bot*%
%TF.FilePolarity,Positive*%
%FSLAX46Y46*%
G04 Gerber Fmt 4.6, Leading zero omitted, Abs format (unit mm)*
G04 Created by KiCad (PCBNEW 8.0.2-1) date 2024-05-13 14:31:14*
%MOMM*%
%LPD*%
G01*
G04 APERTURE LIST*
G04 Aperture macros list*
%AMRoundRect*
0 Rectangle with rounded corners*
0 $1 Rounding radius*
0 $2 $3 $4 $5 $6 $7 $8 $9 X,Y pos of 4 corners*
0 Add a 4 corners polygon primitive as box body*
4,1,4,$2,$3,$4,$5,$6,$7,$8,$9,$2,$3,0*
0 Add four circle primitives for the rounded corners*
1,1,$1+$1,$2,$3*
1,1,$1+$1,$4,$5*
1,1,$1+$1,$6,$7*
1,1,$1+$1,$8,$9*
0 Add four rect primitives between the rounded corners*
20,1,$1+$1,$2,$3,$4,$5,0*
20,1,$1+$1,$4,$5,$6,$7,0*
20,1,$1+$1,$6,$7,$8,$9,0*
20,1,$1+$1,$8,$9,$2,$3,0*%
G04 Aperture macros list end*
%ADD10RoundRect,0.140000X0.170000X-0.140000X0.170000X0.140000X-0.170000X0.140000X-0.170000X-0.140000X0*%
%ADD11RoundRect,0.075000X0.075000X-0.662500X0.075000X0.662500X-0.075000X0.662500X-0.075000X-0.662500X0*%
%ADD12RoundRect,0.075000X0.662500X-0.075000X0.662500X0.075000X-0.662500X0.075000X-0.662500X-0.075000X0*%
%ADD13RoundRect,0.225000X0.375000X-0.225000X0.375000X0.225000X-0.375000X0.225000X-0.375000X-0.225000X0*%
%ADD14R,1.500000X0.900000*%
%ADD15RoundRect,0.140000X-0.140000X-0.170000X0.140000X-0.170000X0.140000X0.170000X-0.140000X0.170000X0*%
%ADD16R,1.000000X1.700000*%
%ADD17R,0.700000X1.000000*%
%ADD18R,0.700000X0.600000*%
%ADD19RoundRect,0.140000X-0.170000X0.140000X-0.170000X-0.140000X0.170000X-0.140000X0.170000X0.140000X0*%
%ADD20RoundRect,0.225000X0.225000X0.375000X-0.225000X0.375000X-0.225000X-0.375000X0.225000X-0.375000X0*%
%ADD21RoundRect,0.150000X-0.150000X0.587500X-0.150000X-0.587500X0.150000X-0.587500X0.150000X0.587500X0*%
%ADD22RoundRect,0.150000X0.150000X-0.512500X0.150000X0.512500X-0.150000X0.512500X-0.150000X-0.512500X0*%
%ADD23RoundRect,0.135000X-0.135000X-0.185000X0.135000X-0.185000X0.135000X0.185000X-0.135000X0.185000X0*%
%ADD24RoundRect,0.250000X-0.375000X-0.625000X0.375000X-0.625000X0.375000X0.625000X-0.375000X0.625000X0*%
%ADD25RoundRect,0.135000X-0.185000X0.135000X-0.185000X-0.135000X0.185000X-0.135000X0.185000X0.135000X0*%
%ADD26RoundRect,0.140000X0.140000X0.170000X-0.140000X0.170000X-0.140000X-0.170000X0.140000X-0.170000X0*%
%ADD27RoundRect,0.135000X0.135000X0.185000X-0.135000X0.185000X-0.135000X-0.185000X0.135000X-0.185000X0*%
%ADD28R,0.600000X1.450000*%
%ADD29R,0.300000X1.450000*%
%ADD30RoundRect,0.225000X0.250000X-0.225000X0.250000X0.225000X-0.250000X0.225000X-0.250000X-0.225000X0*%
G04 APERTURE END LIST*
D10*
%TO.C,C4*%
X106282500Y-44332500D03*
X106282500Y-43372500D03*
%TD*%
D11*
%TO.C,U1*%
X113532500Y-52265000D03*
X113032500Y-52265000D03*
X112532500Y-52265000D03*
X112032500Y-52265000D03*
X111532500Y-52265000D03*
X111032500Y-52265000D03*
X110532500Y-52265000D03*
X110032500Y-52265000D03*
X109532500Y-52265000D03*
X109032500Y-52265000D03*
X108532500Y-52265000D03*
X108032500Y-52265000D03*
D12*
X106620000Y-50852500D03*
X106620000Y-50352500D03*
X106620000Y-49852500D03*
X106620000Y-49352500D03*
X106620000Y-48852500D03*
X106620000Y-48352500D03*
X106620000Y-47852500D03*
X106620000Y-47352500D03*
X106620000Y-46852500D03*
X106620000Y-46352500D03*
X106620000Y-45852500D03*
X106620000Y-45352500D03*
D11*
X108032500Y-43940000D03*
X108532500Y-43940000D03*
X109032500Y-43940000D03*
X109532500Y-43940000D03*
X110032500Y-43940000D03*
X110532500Y-43940000D03*
X111032500Y-43940000D03*
X111532500Y-43940000D03*
X112032500Y-43940000D03*
X112532500Y-43940000D03*
X113032500Y-43940000D03*
X113532500Y-43940000D03*
D12*
X114945000Y-45352500D03*
X114945000Y-45852500D03*
X114945000Y-46352500D03*
X114945000Y-46852500D03*
X114945000Y-47352500D03*
X114945000Y-47852500D03*
X114945000Y-48352500D03*
X114945000Y-48852500D03*
X114945000Y-49352500D03*
X114945000Y-49852500D03*
X114945000Y-50352500D03*
X114945000Y-50852500D03*
%TD*%
D13*
%TO.C,D2*%
X58394375Y-55168125D03*
X58394375Y-51868125D03*
%TD*%
D14*
%TO.C,LED4*%
X90080000Y-63502500D03*
X90080000Y-66802500D03*
X85180000Y-66802500D03*
X85180000Y-63502500D03*
%TD*%
D13*
%TO.C,D7*%
X77444375Y-74218125D03*
X77444375Y-70918125D03*
%TD*%
D15*
%TO.C,C3*%
X114552500Y-43602500D03*
X115512500Y-43602500D03*
%TD*%
D14*
%TO.C,LED1*%
X90080000Y-43350000D03*
X90080000Y-46650000D03*
X85180000Y-46650000D03*
X85180000Y-43350000D03*
%TD*%
D13*
%TO.C,D8*%
X96494375Y-74218125D03*
X96494375Y-70918125D03*
%TD*%
D16*
%TO.C,BOOT1*%
X111912500Y-60370000D03*
X111912500Y-66670000D03*
X115712500Y-60370000D03*
X115712500Y-66670000D03*
%TD*%
D13*
%TO.C,D4*%
X96494375Y-55168125D03*
X96494375Y-51868125D03*
%TD*%
D17*
%TO.C,U2*%
X65285000Y-35600000D03*
D18*
X65285000Y-33900000D03*
X67285000Y-33900000D03*
X67285000Y-35800000D03*
%TD*%
D19*
%TO.C,C5*%
X115282500Y-51872500D03*
X115282500Y-52832500D03*
%TD*%
D13*
%TO.C,D6*%
X58394375Y-74218125D03*
X58394375Y-70918125D03*
%TD*%
D16*
%TO.C,RST1*%
X109712500Y-66670000D03*
X109712500Y-60370000D03*
X105912500Y-66670000D03*
X105912500Y-60370000D03*
%TD*%
D13*
%TO.C,D1*%
X39344375Y-55168125D03*
X39344375Y-51868125D03*
%TD*%
D14*
%TO.C,LED3*%
X51980000Y-63502500D03*
X51980000Y-66802500D03*
X47080000Y-66802500D03*
X47080000Y-63502500D03*
%TD*%
D20*
%TO.C,D9*%
X49649375Y-30376875D03*
X46349375Y-30376875D03*
%TD*%
D21*
%TO.C,U3*%
X79679375Y-30129375D03*
X81579375Y-30129375D03*
X80629375Y-32004375D03*
%TD*%
D15*
%TO.C,C6*%
X114302500Y-53852500D03*
X115262500Y-53852500D03*
%TD*%
D22*
%TO.C,U5*%
X105971875Y-41914375D03*
X105021875Y-41914375D03*
X104071875Y-41914375D03*
X104071875Y-39639375D03*
X105971875Y-39639375D03*
%TD*%
D23*
%TO.C,R1*%
X64369375Y-32506875D03*
X65389375Y-32506875D03*
%TD*%
D19*
%TO.C,C10*%
X83029375Y-32881875D03*
X83029375Y-33841875D03*
%TD*%
D24*
%TO.C,F1*%
X73199375Y-33136875D03*
X75999375Y-33136875D03*
%TD*%
D25*
%TO.C,R6*%
X27438125Y-34701250D03*
X27438125Y-35721250D03*
%TD*%
D13*
%TO.C,D5*%
X39344375Y-74218125D03*
X39344375Y-70918125D03*
%TD*%
D26*
%TO.C,C9*%
X78449375Y-31996875D03*
X77489375Y-31996875D03*
%TD*%
%TO.C,C1*%
X109749077Y-55839077D03*
X108789077Y-55839077D03*
%TD*%
D27*
%TO.C,R4*%
X110042500Y-58102500D03*
X109022500Y-58102500D03*
%TD*%
D15*
%TO.C,C7*%
X108789077Y-54589077D03*
X109749077Y-54589077D03*
%TD*%
D14*
%TO.C,LED2*%
X51980000Y-43350000D03*
X51980000Y-46650000D03*
X47080000Y-46650000D03*
X47080000Y-43350000D03*
%TD*%
D23*
%TO.C,R2*%
X68775000Y-33600000D03*
X69795000Y-33600000D03*
%TD*%
D28*
%TO.C,J1*%
X65330000Y-30667000D03*
X66130000Y-30667000D03*
D29*
X67330000Y-30667000D03*
X68330000Y-30667000D03*
X68830000Y-30667000D03*
X69830000Y-30667000D03*
D28*
X71030000Y-30667000D03*
X71830000Y-30667000D03*
X71830000Y-30667000D03*
X71030000Y-30667000D03*
D29*
X70330000Y-30667000D03*
X69330000Y-30667000D03*
X67830000Y-30667000D03*
X66830000Y-30667000D03*
D28*
X66130000Y-30667000D03*
X65330000Y-30667000D03*
%TD*%
D27*
%TO.C,R3*%
X112542500Y-58102500D03*
X111522500Y-58102500D03*
%TD*%
D30*
%TO.C,C2*%
X83279375Y-31386875D03*
X83279375Y-29836875D03*
%TD*%
D26*
%TO.C,C8*%
X75999375Y-31456875D03*
X75039375Y-31456875D03*
%TD*%
D13*
%TO.C,D3*%
X77444375Y-55168125D03*
X77444375Y-51868125D03*
%TD*%
D25*
%TO.C,R5*%
X27438125Y-30335625D03*
X27438125Y-31355625D03*
%TD*%
M02*
