%TF.GenerationSoftware,KiCad,Pcbnew,8.0.2-1*%
%TF.CreationDate,2024-05-13T14:31:14+01:00*%
%TF.ProjectId,Daisy V2 - STM32,44616973-7920-4563-9220-2d2053544d33,rev?*%
%TF.SameCoordinates,Original*%
%TF.FileFunction,Legend,Bot*%
%TF.FilePolarity,Positive*%
%FSLAX46Y46*%
G04 Gerber Fmt 4.6, Leading zero omitted, Abs format (unit mm)*
G04 Created by KiCad (PCBNEW 8.0.2-1) date 2024-05-13 14:31:14*
%MOMM*%
%LPD*%
G01*
G04 APERTURE LIST*
G04 Aperture macros list*
%AMRoundRect*
0 Rectangle with rounded corners*
0 $1 Rounding radius*
0 $2 $3 $4 $5 $6 $7 $8 $9 X,Y pos of 4 corners*
0 Add a 4 corners polygon primitive as box body*
4,1,4,$2,$3,$4,$5,$6,$7,$8,$9,$2,$3,0*
0 Add four circle primitives for the rounded corners*
1,1,$1+$1,$2,$3*
1,1,$1+$1,$4,$5*
1,1,$1+$1,$6,$7*
1,1,$1+$1,$8,$9*
0 Add four rect primitives between the rounded corners*
20,1,$1+$1,$2,$3,$4,$5,0*
20,1,$1+$1,$4,$5,$6,$7,0*
20,1,$1+$1,$6,$7,$8,$9,0*
20,1,$1+$1,$8,$9,$2,$3,0*%
G04 Aperture macros list end*
%ADD10C,0.150000*%
%ADD11C,0.120000*%
%ADD12C,0.010000*%
%ADD13R,1.700000X1.700000*%
%ADD14O,1.700000X1.700000*%
%ADD15C,4.200000*%
%ADD16R,2.000000X2.000000*%
%ADD17C,2.000000*%
%ADD18R,3.200000X2.000000*%
%ADD19C,1.750000*%
%ADD20C,3.987800*%
%ADD21C,2.300000*%
%ADD22RoundRect,0.140000X0.170000X-0.140000X0.170000X0.140000X-0.170000X0.140000X-0.170000X-0.140000X0*%
%ADD23RoundRect,0.075000X0.075000X-0.662500X0.075000X0.662500X-0.075000X0.662500X-0.075000X-0.662500X0*%
%ADD24RoundRect,0.075000X0.662500X-0.075000X0.662500X0.075000X-0.662500X0.075000X-0.662500X-0.075000X0*%
%ADD25RoundRect,0.225000X0.375000X-0.225000X0.375000X0.225000X-0.375000X0.225000X-0.375000X-0.225000X0*%
%ADD26R,1.500000X0.900000*%
%ADD27RoundRect,0.140000X-0.140000X-0.170000X0.140000X-0.170000X0.140000X0.170000X-0.140000X0.170000X0*%
%ADD28R,1.000000X1.700000*%
%ADD29R,0.700000X1.000000*%
%ADD30R,0.700000X0.600000*%
%ADD31RoundRect,0.140000X-0.170000X0.140000X-0.170000X-0.140000X0.170000X-0.140000X0.170000X0.140000X0*%
%ADD32RoundRect,0.225000X0.225000X0.375000X-0.225000X0.375000X-0.225000X-0.375000X0.225000X-0.375000X0*%
%ADD33RoundRect,0.150000X-0.150000X0.587500X-0.150000X-0.587500X0.150000X-0.587500X0.150000X0.587500X0*%
%ADD34RoundRect,0.150000X0.150000X-0.512500X0.150000X0.512500X-0.150000X0.512500X-0.150000X-0.512500X0*%
%ADD35RoundRect,0.135000X-0.135000X-0.185000X0.135000X-0.185000X0.135000X0.185000X-0.135000X0.185000X0*%
%ADD36RoundRect,0.250000X-0.375000X-0.625000X0.375000X-0.625000X0.375000X0.625000X-0.375000X0.625000X0*%
%ADD37RoundRect,0.135000X-0.185000X0.135000X-0.185000X-0.135000X0.185000X-0.135000X0.185000X0.135000X0*%
%ADD38RoundRect,0.140000X0.140000X0.170000X-0.140000X0.170000X-0.140000X-0.170000X0.140000X-0.170000X0*%
%ADD39RoundRect,0.135000X0.135000X0.185000X-0.135000X0.185000X-0.135000X-0.185000X0.135000X-0.185000X0*%
%ADD40C,0.650000*%
%ADD41R,0.600000X1.450000*%
%ADD42R,0.300000X1.450000*%
%ADD43O,1.000000X1.600000*%
%ADD44O,1.000000X2.100000*%
%ADD45RoundRect,0.225000X0.250000X-0.225000X0.250000X0.225000X-0.250000X0.225000X-0.250000X-0.225000X0*%
G04 APERTURE END LIST*
D10*
X105392080Y-43685833D02*
X105439700Y-43638214D01*
X105439700Y-43638214D02*
X105487319Y-43495357D01*
X105487319Y-43495357D02*
X105487319Y-43400119D01*
X105487319Y-43400119D02*
X105439700Y-43257262D01*
X105439700Y-43257262D02*
X105344461Y-43162024D01*
X105344461Y-43162024D02*
X105249223Y-43114405D01*
X105249223Y-43114405D02*
X105058747Y-43066786D01*
X105058747Y-43066786D02*
X104915890Y-43066786D01*
X104915890Y-43066786D02*
X104725414Y-43114405D01*
X104725414Y-43114405D02*
X104630176Y-43162024D01*
X104630176Y-43162024D02*
X104534938Y-43257262D01*
X104534938Y-43257262D02*
X104487319Y-43400119D01*
X104487319Y-43400119D02*
X104487319Y-43495357D01*
X104487319Y-43495357D02*
X104534938Y-43638214D01*
X104534938Y-43638214D02*
X104582557Y-43685833D01*
X104820652Y-44542976D02*
X105487319Y-44542976D01*
X104439700Y-44304881D02*
X105153985Y-44066786D01*
X105153985Y-44066786D02*
X105153985Y-44685833D01*
X116087319Y-47340595D02*
X116896842Y-47340595D01*
X116896842Y-47340595D02*
X116992080Y-47388214D01*
X116992080Y-47388214D02*
X117039700Y-47435833D01*
X117039700Y-47435833D02*
X117087319Y-47531071D01*
X117087319Y-47531071D02*
X117087319Y-47721547D01*
X117087319Y-47721547D02*
X117039700Y-47816785D01*
X117039700Y-47816785D02*
X116992080Y-47864404D01*
X116992080Y-47864404D02*
X116896842Y-47912023D01*
X116896842Y-47912023D02*
X116087319Y-47912023D01*
X117087319Y-48912023D02*
X117087319Y-48340595D01*
X117087319Y-48626309D02*
X116087319Y-48626309D01*
X116087319Y-48626309D02*
X116230176Y-48531071D01*
X116230176Y-48531071D02*
X116325414Y-48435833D01*
X116325414Y-48435833D02*
X116373033Y-48340595D01*
X58849194Y-56414405D02*
X57849194Y-56414405D01*
X57849194Y-56414405D02*
X57849194Y-56652500D01*
X57849194Y-56652500D02*
X57896813Y-56795357D01*
X57896813Y-56795357D02*
X57992051Y-56890595D01*
X57992051Y-56890595D02*
X58087289Y-56938214D01*
X58087289Y-56938214D02*
X58277765Y-56985833D01*
X58277765Y-56985833D02*
X58420622Y-56985833D01*
X58420622Y-56985833D02*
X58611098Y-56938214D01*
X58611098Y-56938214D02*
X58706336Y-56890595D01*
X58706336Y-56890595D02*
X58801575Y-56795357D01*
X58801575Y-56795357D02*
X58849194Y-56652500D01*
X58849194Y-56652500D02*
X58849194Y-56414405D01*
X57944432Y-57366786D02*
X57896813Y-57414405D01*
X57896813Y-57414405D02*
X57849194Y-57509643D01*
X57849194Y-57509643D02*
X57849194Y-57747738D01*
X57849194Y-57747738D02*
X57896813Y-57842976D01*
X57896813Y-57842976D02*
X57944432Y-57890595D01*
X57944432Y-57890595D02*
X58039670Y-57938214D01*
X58039670Y-57938214D02*
X58134908Y-57938214D01*
X58134908Y-57938214D02*
X58277765Y-57890595D01*
X58277765Y-57890595D02*
X58849194Y-57319167D01*
X58849194Y-57319167D02*
X58849194Y-57938214D01*
X88749047Y-62107319D02*
X89225237Y-62107319D01*
X89225237Y-62107319D02*
X89225237Y-61107319D01*
X88415713Y-61583509D02*
X88082380Y-61583509D01*
X87939523Y-62107319D02*
X88415713Y-62107319D01*
X88415713Y-62107319D02*
X88415713Y-61107319D01*
X88415713Y-61107319D02*
X87939523Y-61107319D01*
X87510951Y-62107319D02*
X87510951Y-61107319D01*
X87510951Y-61107319D02*
X87272856Y-61107319D01*
X87272856Y-61107319D02*
X87129999Y-61154938D01*
X87129999Y-61154938D02*
X87034761Y-61250176D01*
X87034761Y-61250176D02*
X86987142Y-61345414D01*
X86987142Y-61345414D02*
X86939523Y-61535890D01*
X86939523Y-61535890D02*
X86939523Y-61678747D01*
X86939523Y-61678747D02*
X86987142Y-61869223D01*
X86987142Y-61869223D02*
X87034761Y-61964461D01*
X87034761Y-61964461D02*
X87129999Y-62059700D01*
X87129999Y-62059700D02*
X87272856Y-62107319D01*
X87272856Y-62107319D02*
X87510951Y-62107319D01*
X86082380Y-61440652D02*
X86082380Y-62107319D01*
X86320475Y-61059700D02*
X86558570Y-61773985D01*
X86558570Y-61773985D02*
X85939523Y-61773985D01*
X91494285Y-64007319D02*
X92065713Y-64007319D01*
X91779999Y-64007319D02*
X91779999Y-63007319D01*
X91779999Y-63007319D02*
X91875237Y-63150176D01*
X91875237Y-63150176D02*
X91970475Y-63245414D01*
X91970475Y-63245414D02*
X92065713Y-63293033D01*
X77899194Y-75464405D02*
X76899194Y-75464405D01*
X76899194Y-75464405D02*
X76899194Y-75702500D01*
X76899194Y-75702500D02*
X76946813Y-75845357D01*
X76946813Y-75845357D02*
X77042051Y-75940595D01*
X77042051Y-75940595D02*
X77137289Y-75988214D01*
X77137289Y-75988214D02*
X77327765Y-76035833D01*
X77327765Y-76035833D02*
X77470622Y-76035833D01*
X77470622Y-76035833D02*
X77661098Y-75988214D01*
X77661098Y-75988214D02*
X77756336Y-75940595D01*
X77756336Y-75940595D02*
X77851575Y-75845357D01*
X77851575Y-75845357D02*
X77899194Y-75702500D01*
X77899194Y-75702500D02*
X77899194Y-75464405D01*
X76899194Y-76369167D02*
X76899194Y-77035833D01*
X76899194Y-77035833D02*
X77899194Y-76607262D01*
X114949166Y-42712080D02*
X114996785Y-42759700D01*
X114996785Y-42759700D02*
X115139642Y-42807319D01*
X115139642Y-42807319D02*
X115234880Y-42807319D01*
X115234880Y-42807319D02*
X115377737Y-42759700D01*
X115377737Y-42759700D02*
X115472975Y-42664461D01*
X115472975Y-42664461D02*
X115520594Y-42569223D01*
X115520594Y-42569223D02*
X115568213Y-42378747D01*
X115568213Y-42378747D02*
X115568213Y-42235890D01*
X115568213Y-42235890D02*
X115520594Y-42045414D01*
X115520594Y-42045414D02*
X115472975Y-41950176D01*
X115472975Y-41950176D02*
X115377737Y-41854938D01*
X115377737Y-41854938D02*
X115234880Y-41807319D01*
X115234880Y-41807319D02*
X115139642Y-41807319D01*
X115139642Y-41807319D02*
X114996785Y-41854938D01*
X114996785Y-41854938D02*
X114949166Y-41902557D01*
X114615832Y-41807319D02*
X113996785Y-41807319D01*
X113996785Y-41807319D02*
X114330118Y-42188271D01*
X114330118Y-42188271D02*
X114187261Y-42188271D01*
X114187261Y-42188271D02*
X114092023Y-42235890D01*
X114092023Y-42235890D02*
X114044404Y-42283509D01*
X114044404Y-42283509D02*
X113996785Y-42378747D01*
X113996785Y-42378747D02*
X113996785Y-42616842D01*
X113996785Y-42616842D02*
X114044404Y-42712080D01*
X114044404Y-42712080D02*
X114092023Y-42759700D01*
X114092023Y-42759700D02*
X114187261Y-42807319D01*
X114187261Y-42807319D02*
X114472975Y-42807319D01*
X114472975Y-42807319D02*
X114568213Y-42759700D01*
X114568213Y-42759700D02*
X114615832Y-42712080D01*
X88749047Y-41954819D02*
X89225237Y-41954819D01*
X89225237Y-41954819D02*
X89225237Y-40954819D01*
X88415713Y-41431009D02*
X88082380Y-41431009D01*
X87939523Y-41954819D02*
X88415713Y-41954819D01*
X88415713Y-41954819D02*
X88415713Y-40954819D01*
X88415713Y-40954819D02*
X87939523Y-40954819D01*
X87510951Y-41954819D02*
X87510951Y-40954819D01*
X87510951Y-40954819D02*
X87272856Y-40954819D01*
X87272856Y-40954819D02*
X87129999Y-41002438D01*
X87129999Y-41002438D02*
X87034761Y-41097676D01*
X87034761Y-41097676D02*
X86987142Y-41192914D01*
X86987142Y-41192914D02*
X86939523Y-41383390D01*
X86939523Y-41383390D02*
X86939523Y-41526247D01*
X86939523Y-41526247D02*
X86987142Y-41716723D01*
X86987142Y-41716723D02*
X87034761Y-41811961D01*
X87034761Y-41811961D02*
X87129999Y-41907200D01*
X87129999Y-41907200D02*
X87272856Y-41954819D01*
X87272856Y-41954819D02*
X87510951Y-41954819D01*
X85987142Y-41954819D02*
X86558570Y-41954819D01*
X86272856Y-41954819D02*
X86272856Y-40954819D01*
X86272856Y-40954819D02*
X86368094Y-41097676D01*
X86368094Y-41097676D02*
X86463332Y-41192914D01*
X86463332Y-41192914D02*
X86558570Y-41240533D01*
X91494285Y-43854819D02*
X92065713Y-43854819D01*
X91779999Y-43854819D02*
X91779999Y-42854819D01*
X91779999Y-42854819D02*
X91875237Y-42997676D01*
X91875237Y-42997676D02*
X91970475Y-43092914D01*
X91970475Y-43092914D02*
X92065713Y-43140533D01*
X96949194Y-75464405D02*
X95949194Y-75464405D01*
X95949194Y-75464405D02*
X95949194Y-75702500D01*
X95949194Y-75702500D02*
X95996813Y-75845357D01*
X95996813Y-75845357D02*
X96092051Y-75940595D01*
X96092051Y-75940595D02*
X96187289Y-75988214D01*
X96187289Y-75988214D02*
X96377765Y-76035833D01*
X96377765Y-76035833D02*
X96520622Y-76035833D01*
X96520622Y-76035833D02*
X96711098Y-75988214D01*
X96711098Y-75988214D02*
X96806336Y-75940595D01*
X96806336Y-75940595D02*
X96901575Y-75845357D01*
X96901575Y-75845357D02*
X96949194Y-75702500D01*
X96949194Y-75702500D02*
X96949194Y-75464405D01*
X96377765Y-76607262D02*
X96330146Y-76512024D01*
X96330146Y-76512024D02*
X96282527Y-76464405D01*
X96282527Y-76464405D02*
X96187289Y-76416786D01*
X96187289Y-76416786D02*
X96139670Y-76416786D01*
X96139670Y-76416786D02*
X96044432Y-76464405D01*
X96044432Y-76464405D02*
X95996813Y-76512024D01*
X95996813Y-76512024D02*
X95949194Y-76607262D01*
X95949194Y-76607262D02*
X95949194Y-76797738D01*
X95949194Y-76797738D02*
X95996813Y-76892976D01*
X95996813Y-76892976D02*
X96044432Y-76940595D01*
X96044432Y-76940595D02*
X96139670Y-76988214D01*
X96139670Y-76988214D02*
X96187289Y-76988214D01*
X96187289Y-76988214D02*
X96282527Y-76940595D01*
X96282527Y-76940595D02*
X96330146Y-76892976D01*
X96330146Y-76892976D02*
X96377765Y-76797738D01*
X96377765Y-76797738D02*
X96377765Y-76607262D01*
X96377765Y-76607262D02*
X96425384Y-76512024D01*
X96425384Y-76512024D02*
X96473003Y-76464405D01*
X96473003Y-76464405D02*
X96568241Y-76416786D01*
X96568241Y-76416786D02*
X96758717Y-76416786D01*
X96758717Y-76416786D02*
X96853955Y-76464405D01*
X96853955Y-76464405D02*
X96901575Y-76512024D01*
X96901575Y-76512024D02*
X96949194Y-76607262D01*
X96949194Y-76607262D02*
X96949194Y-76797738D01*
X96949194Y-76797738D02*
X96901575Y-76892976D01*
X96901575Y-76892976D02*
X96853955Y-76940595D01*
X96853955Y-76940595D02*
X96758717Y-76988214D01*
X96758717Y-76988214D02*
X96568241Y-76988214D01*
X96568241Y-76988214D02*
X96473003Y-76940595D01*
X96473003Y-76940595D02*
X96425384Y-76892976D01*
X96425384Y-76892976D02*
X96377765Y-76797738D01*
X117413509Y-61676666D02*
X117461128Y-61819523D01*
X117461128Y-61819523D02*
X117508747Y-61867142D01*
X117508747Y-61867142D02*
X117603985Y-61914761D01*
X117603985Y-61914761D02*
X117746842Y-61914761D01*
X117746842Y-61914761D02*
X117842080Y-61867142D01*
X117842080Y-61867142D02*
X117889700Y-61819523D01*
X117889700Y-61819523D02*
X117937319Y-61724285D01*
X117937319Y-61724285D02*
X117937319Y-61343333D01*
X117937319Y-61343333D02*
X116937319Y-61343333D01*
X116937319Y-61343333D02*
X116937319Y-61676666D01*
X116937319Y-61676666D02*
X116984938Y-61771904D01*
X116984938Y-61771904D02*
X117032557Y-61819523D01*
X117032557Y-61819523D02*
X117127795Y-61867142D01*
X117127795Y-61867142D02*
X117223033Y-61867142D01*
X117223033Y-61867142D02*
X117318271Y-61819523D01*
X117318271Y-61819523D02*
X117365890Y-61771904D01*
X117365890Y-61771904D02*
X117413509Y-61676666D01*
X117413509Y-61676666D02*
X117413509Y-61343333D01*
X116937319Y-62533809D02*
X116937319Y-62724285D01*
X116937319Y-62724285D02*
X116984938Y-62819523D01*
X116984938Y-62819523D02*
X117080176Y-62914761D01*
X117080176Y-62914761D02*
X117270652Y-62962380D01*
X117270652Y-62962380D02*
X117603985Y-62962380D01*
X117603985Y-62962380D02*
X117794461Y-62914761D01*
X117794461Y-62914761D02*
X117889700Y-62819523D01*
X117889700Y-62819523D02*
X117937319Y-62724285D01*
X117937319Y-62724285D02*
X117937319Y-62533809D01*
X117937319Y-62533809D02*
X117889700Y-62438571D01*
X117889700Y-62438571D02*
X117794461Y-62343333D01*
X117794461Y-62343333D02*
X117603985Y-62295714D01*
X117603985Y-62295714D02*
X117270652Y-62295714D01*
X117270652Y-62295714D02*
X117080176Y-62343333D01*
X117080176Y-62343333D02*
X116984938Y-62438571D01*
X116984938Y-62438571D02*
X116937319Y-62533809D01*
X116937319Y-63581428D02*
X116937319Y-63771904D01*
X116937319Y-63771904D02*
X116984938Y-63867142D01*
X116984938Y-63867142D02*
X117080176Y-63962380D01*
X117080176Y-63962380D02*
X117270652Y-64009999D01*
X117270652Y-64009999D02*
X117603985Y-64009999D01*
X117603985Y-64009999D02*
X117794461Y-63962380D01*
X117794461Y-63962380D02*
X117889700Y-63867142D01*
X117889700Y-63867142D02*
X117937319Y-63771904D01*
X117937319Y-63771904D02*
X117937319Y-63581428D01*
X117937319Y-63581428D02*
X117889700Y-63486190D01*
X117889700Y-63486190D02*
X117794461Y-63390952D01*
X117794461Y-63390952D02*
X117603985Y-63343333D01*
X117603985Y-63343333D02*
X117270652Y-63343333D01*
X117270652Y-63343333D02*
X117080176Y-63390952D01*
X117080176Y-63390952D02*
X116984938Y-63486190D01*
X116984938Y-63486190D02*
X116937319Y-63581428D01*
X116937319Y-64295714D02*
X116937319Y-64867142D01*
X117937319Y-64581428D02*
X116937319Y-64581428D01*
X117937319Y-65724285D02*
X117937319Y-65152857D01*
X117937319Y-65438571D02*
X116937319Y-65438571D01*
X116937319Y-65438571D02*
X117080176Y-65343333D01*
X117080176Y-65343333D02*
X117175414Y-65248095D01*
X117175414Y-65248095D02*
X117223033Y-65152857D01*
X96949194Y-56414405D02*
X95949194Y-56414405D01*
X95949194Y-56414405D02*
X95949194Y-56652500D01*
X95949194Y-56652500D02*
X95996813Y-56795357D01*
X95996813Y-56795357D02*
X96092051Y-56890595D01*
X96092051Y-56890595D02*
X96187289Y-56938214D01*
X96187289Y-56938214D02*
X96377765Y-56985833D01*
X96377765Y-56985833D02*
X96520622Y-56985833D01*
X96520622Y-56985833D02*
X96711098Y-56938214D01*
X96711098Y-56938214D02*
X96806336Y-56890595D01*
X96806336Y-56890595D02*
X96901575Y-56795357D01*
X96901575Y-56795357D02*
X96949194Y-56652500D01*
X96949194Y-56652500D02*
X96949194Y-56414405D01*
X96282527Y-57842976D02*
X96949194Y-57842976D01*
X95901575Y-57604881D02*
X96615860Y-57366786D01*
X96615860Y-57366786D02*
X96615860Y-57985833D01*
X82524404Y-17294819D02*
X82524404Y-18104342D01*
X82524404Y-18104342D02*
X82476785Y-18199580D01*
X82476785Y-18199580D02*
X82429166Y-18247200D01*
X82429166Y-18247200D02*
X82333928Y-18294819D01*
X82333928Y-18294819D02*
X82143452Y-18294819D01*
X82143452Y-18294819D02*
X82048214Y-18247200D01*
X82048214Y-18247200D02*
X82000595Y-18199580D01*
X82000595Y-18199580D02*
X81952976Y-18104342D01*
X81952976Y-18104342D02*
X81952976Y-17294819D01*
X81524404Y-17390057D02*
X81476785Y-17342438D01*
X81476785Y-17342438D02*
X81381547Y-17294819D01*
X81381547Y-17294819D02*
X81143452Y-17294819D01*
X81143452Y-17294819D02*
X81048214Y-17342438D01*
X81048214Y-17342438D02*
X81000595Y-17390057D01*
X81000595Y-17390057D02*
X80952976Y-17485295D01*
X80952976Y-17485295D02*
X80952976Y-17580533D01*
X80952976Y-17580533D02*
X81000595Y-17723390D01*
X81000595Y-17723390D02*
X81572023Y-18294819D01*
X81572023Y-18294819D02*
X80952976Y-18294819D01*
X116892080Y-52185833D02*
X116939700Y-52138214D01*
X116939700Y-52138214D02*
X116987319Y-51995357D01*
X116987319Y-51995357D02*
X116987319Y-51900119D01*
X116987319Y-51900119D02*
X116939700Y-51757262D01*
X116939700Y-51757262D02*
X116844461Y-51662024D01*
X116844461Y-51662024D02*
X116749223Y-51614405D01*
X116749223Y-51614405D02*
X116558747Y-51566786D01*
X116558747Y-51566786D02*
X116415890Y-51566786D01*
X116415890Y-51566786D02*
X116225414Y-51614405D01*
X116225414Y-51614405D02*
X116130176Y-51662024D01*
X116130176Y-51662024D02*
X116034938Y-51757262D01*
X116034938Y-51757262D02*
X115987319Y-51900119D01*
X115987319Y-51900119D02*
X115987319Y-51995357D01*
X115987319Y-51995357D02*
X116034938Y-52138214D01*
X116034938Y-52138214D02*
X116082557Y-52185833D01*
X115987319Y-53090595D02*
X115987319Y-52614405D01*
X115987319Y-52614405D02*
X116463509Y-52566786D01*
X116463509Y-52566786D02*
X116415890Y-52614405D01*
X116415890Y-52614405D02*
X116368271Y-52709643D01*
X116368271Y-52709643D02*
X116368271Y-52947738D01*
X116368271Y-52947738D02*
X116415890Y-53042976D01*
X116415890Y-53042976D02*
X116463509Y-53090595D01*
X116463509Y-53090595D02*
X116558747Y-53138214D01*
X116558747Y-53138214D02*
X116796842Y-53138214D01*
X116796842Y-53138214D02*
X116892080Y-53090595D01*
X116892080Y-53090595D02*
X116939700Y-53042976D01*
X116939700Y-53042976D02*
X116987319Y-52947738D01*
X116987319Y-52947738D02*
X116987319Y-52709643D01*
X116987319Y-52709643D02*
X116939700Y-52614405D01*
X116939700Y-52614405D02*
X116892080Y-52566786D01*
X58849194Y-75464405D02*
X57849194Y-75464405D01*
X57849194Y-75464405D02*
X57849194Y-75702500D01*
X57849194Y-75702500D02*
X57896813Y-75845357D01*
X57896813Y-75845357D02*
X57992051Y-75940595D01*
X57992051Y-75940595D02*
X58087289Y-75988214D01*
X58087289Y-75988214D02*
X58277765Y-76035833D01*
X58277765Y-76035833D02*
X58420622Y-76035833D01*
X58420622Y-76035833D02*
X58611098Y-75988214D01*
X58611098Y-75988214D02*
X58706336Y-75940595D01*
X58706336Y-75940595D02*
X58801575Y-75845357D01*
X58801575Y-75845357D02*
X58849194Y-75702500D01*
X58849194Y-75702500D02*
X58849194Y-75464405D01*
X57849194Y-76892976D02*
X57849194Y-76702500D01*
X57849194Y-76702500D02*
X57896813Y-76607262D01*
X57896813Y-76607262D02*
X57944432Y-76559643D01*
X57944432Y-76559643D02*
X58087289Y-76464405D01*
X58087289Y-76464405D02*
X58277765Y-76416786D01*
X58277765Y-76416786D02*
X58658717Y-76416786D01*
X58658717Y-76416786D02*
X58753955Y-76464405D01*
X58753955Y-76464405D02*
X58801575Y-76512024D01*
X58801575Y-76512024D02*
X58849194Y-76607262D01*
X58849194Y-76607262D02*
X58849194Y-76797738D01*
X58849194Y-76797738D02*
X58801575Y-76892976D01*
X58801575Y-76892976D02*
X58753955Y-76940595D01*
X58753955Y-76940595D02*
X58658717Y-76988214D01*
X58658717Y-76988214D02*
X58420622Y-76988214D01*
X58420622Y-76988214D02*
X58325384Y-76940595D01*
X58325384Y-76940595D02*
X58277765Y-76892976D01*
X58277765Y-76892976D02*
X58230146Y-76797738D01*
X58230146Y-76797738D02*
X58230146Y-76607262D01*
X58230146Y-76607262D02*
X58277765Y-76512024D01*
X58277765Y-76512024D02*
X58325384Y-76464405D01*
X58325384Y-76464405D02*
X58420622Y-76416786D01*
X104457319Y-62496190D02*
X103981128Y-62162857D01*
X104457319Y-61924762D02*
X103457319Y-61924762D01*
X103457319Y-61924762D02*
X103457319Y-62305714D01*
X103457319Y-62305714D02*
X103504938Y-62400952D01*
X103504938Y-62400952D02*
X103552557Y-62448571D01*
X103552557Y-62448571D02*
X103647795Y-62496190D01*
X103647795Y-62496190D02*
X103790652Y-62496190D01*
X103790652Y-62496190D02*
X103885890Y-62448571D01*
X103885890Y-62448571D02*
X103933509Y-62400952D01*
X103933509Y-62400952D02*
X103981128Y-62305714D01*
X103981128Y-62305714D02*
X103981128Y-61924762D01*
X104409700Y-62877143D02*
X104457319Y-63020000D01*
X104457319Y-63020000D02*
X104457319Y-63258095D01*
X104457319Y-63258095D02*
X104409700Y-63353333D01*
X104409700Y-63353333D02*
X104362080Y-63400952D01*
X104362080Y-63400952D02*
X104266842Y-63448571D01*
X104266842Y-63448571D02*
X104171604Y-63448571D01*
X104171604Y-63448571D02*
X104076366Y-63400952D01*
X104076366Y-63400952D02*
X104028747Y-63353333D01*
X104028747Y-63353333D02*
X103981128Y-63258095D01*
X103981128Y-63258095D02*
X103933509Y-63067619D01*
X103933509Y-63067619D02*
X103885890Y-62972381D01*
X103885890Y-62972381D02*
X103838271Y-62924762D01*
X103838271Y-62924762D02*
X103743033Y-62877143D01*
X103743033Y-62877143D02*
X103647795Y-62877143D01*
X103647795Y-62877143D02*
X103552557Y-62924762D01*
X103552557Y-62924762D02*
X103504938Y-62972381D01*
X103504938Y-62972381D02*
X103457319Y-63067619D01*
X103457319Y-63067619D02*
X103457319Y-63305714D01*
X103457319Y-63305714D02*
X103504938Y-63448571D01*
X103457319Y-63734286D02*
X103457319Y-64305714D01*
X104457319Y-64020000D02*
X103457319Y-64020000D01*
X104457319Y-65162857D02*
X104457319Y-64591429D01*
X104457319Y-64877143D02*
X103457319Y-64877143D01*
X103457319Y-64877143D02*
X103600176Y-64781905D01*
X103600176Y-64781905D02*
X103695414Y-64686667D01*
X103695414Y-64686667D02*
X103743033Y-64591429D01*
X39799194Y-56414405D02*
X38799194Y-56414405D01*
X38799194Y-56414405D02*
X38799194Y-56652500D01*
X38799194Y-56652500D02*
X38846813Y-56795357D01*
X38846813Y-56795357D02*
X38942051Y-56890595D01*
X38942051Y-56890595D02*
X39037289Y-56938214D01*
X39037289Y-56938214D02*
X39227765Y-56985833D01*
X39227765Y-56985833D02*
X39370622Y-56985833D01*
X39370622Y-56985833D02*
X39561098Y-56938214D01*
X39561098Y-56938214D02*
X39656336Y-56890595D01*
X39656336Y-56890595D02*
X39751575Y-56795357D01*
X39751575Y-56795357D02*
X39799194Y-56652500D01*
X39799194Y-56652500D02*
X39799194Y-56414405D01*
X39799194Y-57938214D02*
X39799194Y-57366786D01*
X39799194Y-57652500D02*
X38799194Y-57652500D01*
X38799194Y-57652500D02*
X38942051Y-57557262D01*
X38942051Y-57557262D02*
X39037289Y-57462024D01*
X39037289Y-57462024D02*
X39084908Y-57366786D01*
X50649047Y-62107319D02*
X51125237Y-62107319D01*
X51125237Y-62107319D02*
X51125237Y-61107319D01*
X50315713Y-61583509D02*
X49982380Y-61583509D01*
X49839523Y-62107319D02*
X50315713Y-62107319D01*
X50315713Y-62107319D02*
X50315713Y-61107319D01*
X50315713Y-61107319D02*
X49839523Y-61107319D01*
X49410951Y-62107319D02*
X49410951Y-61107319D01*
X49410951Y-61107319D02*
X49172856Y-61107319D01*
X49172856Y-61107319D02*
X49029999Y-61154938D01*
X49029999Y-61154938D02*
X48934761Y-61250176D01*
X48934761Y-61250176D02*
X48887142Y-61345414D01*
X48887142Y-61345414D02*
X48839523Y-61535890D01*
X48839523Y-61535890D02*
X48839523Y-61678747D01*
X48839523Y-61678747D02*
X48887142Y-61869223D01*
X48887142Y-61869223D02*
X48934761Y-61964461D01*
X48934761Y-61964461D02*
X49029999Y-62059700D01*
X49029999Y-62059700D02*
X49172856Y-62107319D01*
X49172856Y-62107319D02*
X49410951Y-62107319D01*
X48506189Y-61107319D02*
X47887142Y-61107319D01*
X47887142Y-61107319D02*
X48220475Y-61488271D01*
X48220475Y-61488271D02*
X48077618Y-61488271D01*
X48077618Y-61488271D02*
X47982380Y-61535890D01*
X47982380Y-61535890D02*
X47934761Y-61583509D01*
X47934761Y-61583509D02*
X47887142Y-61678747D01*
X47887142Y-61678747D02*
X47887142Y-61916842D01*
X47887142Y-61916842D02*
X47934761Y-62012080D01*
X47934761Y-62012080D02*
X47982380Y-62059700D01*
X47982380Y-62059700D02*
X48077618Y-62107319D01*
X48077618Y-62107319D02*
X48363332Y-62107319D01*
X48363332Y-62107319D02*
X48458570Y-62059700D01*
X48458570Y-62059700D02*
X48506189Y-62012080D01*
X53394285Y-64007319D02*
X53965713Y-64007319D01*
X53679999Y-64007319D02*
X53679999Y-63007319D01*
X53679999Y-63007319D02*
X53775237Y-63150176D01*
X53775237Y-63150176D02*
X53870475Y-63245414D01*
X53870475Y-63245414D02*
X53965713Y-63293033D01*
X52309344Y-30831694D02*
X52309344Y-29831694D01*
X52309344Y-29831694D02*
X52071249Y-29831694D01*
X52071249Y-29831694D02*
X51928392Y-29879313D01*
X51928392Y-29879313D02*
X51833154Y-29974551D01*
X51833154Y-29974551D02*
X51785535Y-30069789D01*
X51785535Y-30069789D02*
X51737916Y-30260265D01*
X51737916Y-30260265D02*
X51737916Y-30403122D01*
X51737916Y-30403122D02*
X51785535Y-30593598D01*
X51785535Y-30593598D02*
X51833154Y-30688836D01*
X51833154Y-30688836D02*
X51928392Y-30784075D01*
X51928392Y-30784075D02*
X52071249Y-30831694D01*
X52071249Y-30831694D02*
X52309344Y-30831694D01*
X51261725Y-30831694D02*
X51071249Y-30831694D01*
X51071249Y-30831694D02*
X50976011Y-30784075D01*
X50976011Y-30784075D02*
X50928392Y-30736455D01*
X50928392Y-30736455D02*
X50833154Y-30593598D01*
X50833154Y-30593598D02*
X50785535Y-30403122D01*
X50785535Y-30403122D02*
X50785535Y-30022170D01*
X50785535Y-30022170D02*
X50833154Y-29926932D01*
X50833154Y-29926932D02*
X50880773Y-29879313D01*
X50880773Y-29879313D02*
X50976011Y-29831694D01*
X50976011Y-29831694D02*
X51166487Y-29831694D01*
X51166487Y-29831694D02*
X51261725Y-29879313D01*
X51261725Y-29879313D02*
X51309344Y-29926932D01*
X51309344Y-29926932D02*
X51356963Y-30022170D01*
X51356963Y-30022170D02*
X51356963Y-30260265D01*
X51356963Y-30260265D02*
X51309344Y-30355503D01*
X51309344Y-30355503D02*
X51261725Y-30403122D01*
X51261725Y-30403122D02*
X51166487Y-30450741D01*
X51166487Y-30450741D02*
X50976011Y-30450741D01*
X50976011Y-30450741D02*
X50880773Y-30403122D01*
X50880773Y-30403122D02*
X50833154Y-30355503D01*
X50833154Y-30355503D02*
X50785535Y-30260265D01*
X77584194Y-29554970D02*
X78393717Y-29554970D01*
X78393717Y-29554970D02*
X78488955Y-29602589D01*
X78488955Y-29602589D02*
X78536575Y-29650208D01*
X78536575Y-29650208D02*
X78584194Y-29745446D01*
X78584194Y-29745446D02*
X78584194Y-29935922D01*
X78584194Y-29935922D02*
X78536575Y-30031160D01*
X78536575Y-30031160D02*
X78488955Y-30078779D01*
X78488955Y-30078779D02*
X78393717Y-30126398D01*
X78393717Y-30126398D02*
X77584194Y-30126398D01*
X77584194Y-30507351D02*
X77584194Y-31126398D01*
X77584194Y-31126398D02*
X77965146Y-30793065D01*
X77965146Y-30793065D02*
X77965146Y-30935922D01*
X77965146Y-30935922D02*
X78012765Y-31031160D01*
X78012765Y-31031160D02*
X78060384Y-31078779D01*
X78060384Y-31078779D02*
X78155622Y-31126398D01*
X78155622Y-31126398D02*
X78393717Y-31126398D01*
X78393717Y-31126398D02*
X78488955Y-31078779D01*
X78488955Y-31078779D02*
X78536575Y-31031160D01*
X78536575Y-31031160D02*
X78584194Y-30935922D01*
X78584194Y-30935922D02*
X78584194Y-30650208D01*
X78584194Y-30650208D02*
X78536575Y-30554970D01*
X78536575Y-30554970D02*
X78488955Y-30507351D01*
X113949166Y-55372080D02*
X113996785Y-55419700D01*
X113996785Y-55419700D02*
X114139642Y-55467319D01*
X114139642Y-55467319D02*
X114234880Y-55467319D01*
X114234880Y-55467319D02*
X114377737Y-55419700D01*
X114377737Y-55419700D02*
X114472975Y-55324461D01*
X114472975Y-55324461D02*
X114520594Y-55229223D01*
X114520594Y-55229223D02*
X114568213Y-55038747D01*
X114568213Y-55038747D02*
X114568213Y-54895890D01*
X114568213Y-54895890D02*
X114520594Y-54705414D01*
X114520594Y-54705414D02*
X114472975Y-54610176D01*
X114472975Y-54610176D02*
X114377737Y-54514938D01*
X114377737Y-54514938D02*
X114234880Y-54467319D01*
X114234880Y-54467319D02*
X114139642Y-54467319D01*
X114139642Y-54467319D02*
X113996785Y-54514938D01*
X113996785Y-54514938D02*
X113949166Y-54562557D01*
X113092023Y-54467319D02*
X113282499Y-54467319D01*
X113282499Y-54467319D02*
X113377737Y-54514938D01*
X113377737Y-54514938D02*
X113425356Y-54562557D01*
X113425356Y-54562557D02*
X113520594Y-54705414D01*
X113520594Y-54705414D02*
X113568213Y-54895890D01*
X113568213Y-54895890D02*
X113568213Y-55276842D01*
X113568213Y-55276842D02*
X113520594Y-55372080D01*
X113520594Y-55372080D02*
X113472975Y-55419700D01*
X113472975Y-55419700D02*
X113377737Y-55467319D01*
X113377737Y-55467319D02*
X113187261Y-55467319D01*
X113187261Y-55467319D02*
X113092023Y-55419700D01*
X113092023Y-55419700D02*
X113044404Y-55372080D01*
X113044404Y-55372080D02*
X112996785Y-55276842D01*
X112996785Y-55276842D02*
X112996785Y-55038747D01*
X112996785Y-55038747D02*
X113044404Y-54943509D01*
X113044404Y-54943509D02*
X113092023Y-54895890D01*
X113092023Y-54895890D02*
X113187261Y-54848271D01*
X113187261Y-54848271D02*
X113377737Y-54848271D01*
X113377737Y-54848271D02*
X113472975Y-54895890D01*
X113472975Y-54895890D02*
X113520594Y-54943509D01*
X113520594Y-54943509D02*
X113568213Y-55038747D01*
X106876694Y-40014970D02*
X107686217Y-40014970D01*
X107686217Y-40014970D02*
X107781455Y-40062589D01*
X107781455Y-40062589D02*
X107829075Y-40110208D01*
X107829075Y-40110208D02*
X107876694Y-40205446D01*
X107876694Y-40205446D02*
X107876694Y-40395922D01*
X107876694Y-40395922D02*
X107829075Y-40491160D01*
X107829075Y-40491160D02*
X107781455Y-40538779D01*
X107781455Y-40538779D02*
X107686217Y-40586398D01*
X107686217Y-40586398D02*
X106876694Y-40586398D01*
X106876694Y-41538779D02*
X106876694Y-41062589D01*
X106876694Y-41062589D02*
X107352884Y-41014970D01*
X107352884Y-41014970D02*
X107305265Y-41062589D01*
X107305265Y-41062589D02*
X107257646Y-41157827D01*
X107257646Y-41157827D02*
X107257646Y-41395922D01*
X107257646Y-41395922D02*
X107305265Y-41491160D01*
X107305265Y-41491160D02*
X107352884Y-41538779D01*
X107352884Y-41538779D02*
X107448122Y-41586398D01*
X107448122Y-41586398D02*
X107686217Y-41586398D01*
X107686217Y-41586398D02*
X107781455Y-41538779D01*
X107781455Y-41538779D02*
X107829075Y-41491160D01*
X107829075Y-41491160D02*
X107876694Y-41395922D01*
X107876694Y-41395922D02*
X107876694Y-41157827D01*
X107876694Y-41157827D02*
X107829075Y-41062589D01*
X107829075Y-41062589D02*
X107781455Y-41014970D01*
X63046041Y-32961694D02*
X63379374Y-32485503D01*
X63617469Y-32961694D02*
X63617469Y-31961694D01*
X63617469Y-31961694D02*
X63236517Y-31961694D01*
X63236517Y-31961694D02*
X63141279Y-32009313D01*
X63141279Y-32009313D02*
X63093660Y-32056932D01*
X63093660Y-32056932D02*
X63046041Y-32152170D01*
X63046041Y-32152170D02*
X63046041Y-32295027D01*
X63046041Y-32295027D02*
X63093660Y-32390265D01*
X63093660Y-32390265D02*
X63141279Y-32437884D01*
X63141279Y-32437884D02*
X63236517Y-32485503D01*
X63236517Y-32485503D02*
X63617469Y-32485503D01*
X62093660Y-32961694D02*
X62665088Y-32961694D01*
X62379374Y-32961694D02*
X62379374Y-31961694D01*
X62379374Y-31961694D02*
X62474612Y-32104551D01*
X62474612Y-32104551D02*
X62569850Y-32199789D01*
X62569850Y-32199789D02*
X62665088Y-32247408D01*
X85662232Y-33706455D02*
X85709851Y-33754075D01*
X85709851Y-33754075D02*
X85852708Y-33801694D01*
X85852708Y-33801694D02*
X85947946Y-33801694D01*
X85947946Y-33801694D02*
X86090803Y-33754075D01*
X86090803Y-33754075D02*
X86186041Y-33658836D01*
X86186041Y-33658836D02*
X86233660Y-33563598D01*
X86233660Y-33563598D02*
X86281279Y-33373122D01*
X86281279Y-33373122D02*
X86281279Y-33230265D01*
X86281279Y-33230265D02*
X86233660Y-33039789D01*
X86233660Y-33039789D02*
X86186041Y-32944551D01*
X86186041Y-32944551D02*
X86090803Y-32849313D01*
X86090803Y-32849313D02*
X85947946Y-32801694D01*
X85947946Y-32801694D02*
X85852708Y-32801694D01*
X85852708Y-32801694D02*
X85709851Y-32849313D01*
X85709851Y-32849313D02*
X85662232Y-32896932D01*
X84709851Y-33801694D02*
X85281279Y-33801694D01*
X84995565Y-33801694D02*
X84995565Y-32801694D01*
X84995565Y-32801694D02*
X85090803Y-32944551D01*
X85090803Y-32944551D02*
X85186041Y-33039789D01*
X85186041Y-33039789D02*
X85281279Y-33087408D01*
X84090803Y-32801694D02*
X83995565Y-32801694D01*
X83995565Y-32801694D02*
X83900327Y-32849313D01*
X83900327Y-32849313D02*
X83852708Y-32896932D01*
X83852708Y-32896932D02*
X83805089Y-32992170D01*
X83805089Y-32992170D02*
X83757470Y-33182646D01*
X83757470Y-33182646D02*
X83757470Y-33420741D01*
X83757470Y-33420741D02*
X83805089Y-33611217D01*
X83805089Y-33611217D02*
X83852708Y-33706455D01*
X83852708Y-33706455D02*
X83900327Y-33754075D01*
X83900327Y-33754075D02*
X83995565Y-33801694D01*
X83995565Y-33801694D02*
X84090803Y-33801694D01*
X84090803Y-33801694D02*
X84186041Y-33754075D01*
X84186041Y-33754075D02*
X84233660Y-33706455D01*
X84233660Y-33706455D02*
X84281279Y-33611217D01*
X84281279Y-33611217D02*
X84328898Y-33420741D01*
X84328898Y-33420741D02*
X84328898Y-33182646D01*
X84328898Y-33182646D02*
X84281279Y-32992170D01*
X84281279Y-32992170D02*
X84233660Y-32896932D01*
X84233660Y-32896932D02*
X84186041Y-32849313D01*
X84186041Y-32849313D02*
X84090803Y-32801694D01*
X74932708Y-35077884D02*
X75266041Y-35077884D01*
X75266041Y-35601694D02*
X75266041Y-34601694D01*
X75266041Y-34601694D02*
X74789851Y-34601694D01*
X73885089Y-35601694D02*
X74456517Y-35601694D01*
X74170803Y-35601694D02*
X74170803Y-34601694D01*
X74170803Y-34601694D02*
X74266041Y-34744551D01*
X74266041Y-34744551D02*
X74361279Y-34839789D01*
X74361279Y-34839789D02*
X74456517Y-34887408D01*
X27892944Y-37142083D02*
X27416753Y-36808750D01*
X27892944Y-36570655D02*
X26892944Y-36570655D01*
X26892944Y-36570655D02*
X26892944Y-36951607D01*
X26892944Y-36951607D02*
X26940563Y-37046845D01*
X26940563Y-37046845D02*
X26988182Y-37094464D01*
X26988182Y-37094464D02*
X27083420Y-37142083D01*
X27083420Y-37142083D02*
X27226277Y-37142083D01*
X27226277Y-37142083D02*
X27321515Y-37094464D01*
X27321515Y-37094464D02*
X27369134Y-37046845D01*
X27369134Y-37046845D02*
X27416753Y-36951607D01*
X27416753Y-36951607D02*
X27416753Y-36570655D01*
X26892944Y-37999226D02*
X26892944Y-37808750D01*
X26892944Y-37808750D02*
X26940563Y-37713512D01*
X26940563Y-37713512D02*
X26988182Y-37665893D01*
X26988182Y-37665893D02*
X27131039Y-37570655D01*
X27131039Y-37570655D02*
X27321515Y-37523036D01*
X27321515Y-37523036D02*
X27702467Y-37523036D01*
X27702467Y-37523036D02*
X27797705Y-37570655D01*
X27797705Y-37570655D02*
X27845325Y-37618274D01*
X27845325Y-37618274D02*
X27892944Y-37713512D01*
X27892944Y-37713512D02*
X27892944Y-37903988D01*
X27892944Y-37903988D02*
X27845325Y-37999226D01*
X27845325Y-37999226D02*
X27797705Y-38046845D01*
X27797705Y-38046845D02*
X27702467Y-38094464D01*
X27702467Y-38094464D02*
X27464372Y-38094464D01*
X27464372Y-38094464D02*
X27369134Y-38046845D01*
X27369134Y-38046845D02*
X27321515Y-37999226D01*
X27321515Y-37999226D02*
X27273896Y-37903988D01*
X27273896Y-37903988D02*
X27273896Y-37713512D01*
X27273896Y-37713512D02*
X27321515Y-37618274D01*
X27321515Y-37618274D02*
X27369134Y-37570655D01*
X27369134Y-37570655D02*
X27464372Y-37523036D01*
X39799194Y-75464405D02*
X38799194Y-75464405D01*
X38799194Y-75464405D02*
X38799194Y-75702500D01*
X38799194Y-75702500D02*
X38846813Y-75845357D01*
X38846813Y-75845357D02*
X38942051Y-75940595D01*
X38942051Y-75940595D02*
X39037289Y-75988214D01*
X39037289Y-75988214D02*
X39227765Y-76035833D01*
X39227765Y-76035833D02*
X39370622Y-76035833D01*
X39370622Y-76035833D02*
X39561098Y-75988214D01*
X39561098Y-75988214D02*
X39656336Y-75940595D01*
X39656336Y-75940595D02*
X39751575Y-75845357D01*
X39751575Y-75845357D02*
X39799194Y-75702500D01*
X39799194Y-75702500D02*
X39799194Y-75464405D01*
X38799194Y-76940595D02*
X38799194Y-76464405D01*
X38799194Y-76464405D02*
X39275384Y-76416786D01*
X39275384Y-76416786D02*
X39227765Y-76464405D01*
X39227765Y-76464405D02*
X39180146Y-76559643D01*
X39180146Y-76559643D02*
X39180146Y-76797738D01*
X39180146Y-76797738D02*
X39227765Y-76892976D01*
X39227765Y-76892976D02*
X39275384Y-76940595D01*
X39275384Y-76940595D02*
X39370622Y-76988214D01*
X39370622Y-76988214D02*
X39608717Y-76988214D01*
X39608717Y-76988214D02*
X39703955Y-76940595D01*
X39703955Y-76940595D02*
X39751575Y-76892976D01*
X39751575Y-76892976D02*
X39799194Y-76797738D01*
X39799194Y-76797738D02*
X39799194Y-76559643D01*
X39799194Y-76559643D02*
X39751575Y-76464405D01*
X39751575Y-76464405D02*
X39703955Y-76416786D01*
X78146041Y-33628955D02*
X78193660Y-33676575D01*
X78193660Y-33676575D02*
X78336517Y-33724194D01*
X78336517Y-33724194D02*
X78431755Y-33724194D01*
X78431755Y-33724194D02*
X78574612Y-33676575D01*
X78574612Y-33676575D02*
X78669850Y-33581336D01*
X78669850Y-33581336D02*
X78717469Y-33486098D01*
X78717469Y-33486098D02*
X78765088Y-33295622D01*
X78765088Y-33295622D02*
X78765088Y-33152765D01*
X78765088Y-33152765D02*
X78717469Y-32962289D01*
X78717469Y-32962289D02*
X78669850Y-32867051D01*
X78669850Y-32867051D02*
X78574612Y-32771813D01*
X78574612Y-32771813D02*
X78431755Y-32724194D01*
X78431755Y-32724194D02*
X78336517Y-32724194D01*
X78336517Y-32724194D02*
X78193660Y-32771813D01*
X78193660Y-32771813D02*
X78146041Y-32819432D01*
X77669850Y-33724194D02*
X77479374Y-33724194D01*
X77479374Y-33724194D02*
X77384136Y-33676575D01*
X77384136Y-33676575D02*
X77336517Y-33628955D01*
X77336517Y-33628955D02*
X77241279Y-33486098D01*
X77241279Y-33486098D02*
X77193660Y-33295622D01*
X77193660Y-33295622D02*
X77193660Y-32914670D01*
X77193660Y-32914670D02*
X77241279Y-32819432D01*
X77241279Y-32819432D02*
X77288898Y-32771813D01*
X77288898Y-32771813D02*
X77384136Y-32724194D01*
X77384136Y-32724194D02*
X77574612Y-32724194D01*
X77574612Y-32724194D02*
X77669850Y-32771813D01*
X77669850Y-32771813D02*
X77717469Y-32819432D01*
X77717469Y-32819432D02*
X77765088Y-32914670D01*
X77765088Y-32914670D02*
X77765088Y-33152765D01*
X77765088Y-33152765D02*
X77717469Y-33248003D01*
X77717469Y-33248003D02*
X77669850Y-33295622D01*
X77669850Y-33295622D02*
X77574612Y-33343241D01*
X77574612Y-33343241D02*
X77384136Y-33343241D01*
X77384136Y-33343241D02*
X77288898Y-33295622D01*
X77288898Y-33295622D02*
X77241279Y-33248003D01*
X77241279Y-33248003D02*
X77193660Y-33152765D01*
X111449166Y-55962080D02*
X111496785Y-56009700D01*
X111496785Y-56009700D02*
X111639642Y-56057319D01*
X111639642Y-56057319D02*
X111734880Y-56057319D01*
X111734880Y-56057319D02*
X111877737Y-56009700D01*
X111877737Y-56009700D02*
X111972975Y-55914461D01*
X111972975Y-55914461D02*
X112020594Y-55819223D01*
X112020594Y-55819223D02*
X112068213Y-55628747D01*
X112068213Y-55628747D02*
X112068213Y-55485890D01*
X112068213Y-55485890D02*
X112020594Y-55295414D01*
X112020594Y-55295414D02*
X111972975Y-55200176D01*
X111972975Y-55200176D02*
X111877737Y-55104938D01*
X111877737Y-55104938D02*
X111734880Y-55057319D01*
X111734880Y-55057319D02*
X111639642Y-55057319D01*
X111639642Y-55057319D02*
X111496785Y-55104938D01*
X111496785Y-55104938D02*
X111449166Y-55152557D01*
X110496785Y-56057319D02*
X111068213Y-56057319D01*
X110782499Y-56057319D02*
X110782499Y-55057319D01*
X110782499Y-55057319D02*
X110877737Y-55200176D01*
X110877737Y-55200176D02*
X110972975Y-55295414D01*
X110972975Y-55295414D02*
X111068213Y-55343033D01*
X109699166Y-57387319D02*
X110032499Y-56911128D01*
X110270594Y-57387319D02*
X110270594Y-56387319D01*
X110270594Y-56387319D02*
X109889642Y-56387319D01*
X109889642Y-56387319D02*
X109794404Y-56434938D01*
X109794404Y-56434938D02*
X109746785Y-56482557D01*
X109746785Y-56482557D02*
X109699166Y-56577795D01*
X109699166Y-56577795D02*
X109699166Y-56720652D01*
X109699166Y-56720652D02*
X109746785Y-56815890D01*
X109746785Y-56815890D02*
X109794404Y-56863509D01*
X109794404Y-56863509D02*
X109889642Y-56911128D01*
X109889642Y-56911128D02*
X110270594Y-56911128D01*
X108842023Y-56720652D02*
X108842023Y-57387319D01*
X109080118Y-56339700D02*
X109318213Y-57053985D01*
X109318213Y-57053985D02*
X108699166Y-57053985D01*
X111449166Y-54462080D02*
X111496785Y-54509700D01*
X111496785Y-54509700D02*
X111639642Y-54557319D01*
X111639642Y-54557319D02*
X111734880Y-54557319D01*
X111734880Y-54557319D02*
X111877737Y-54509700D01*
X111877737Y-54509700D02*
X111972975Y-54414461D01*
X111972975Y-54414461D02*
X112020594Y-54319223D01*
X112020594Y-54319223D02*
X112068213Y-54128747D01*
X112068213Y-54128747D02*
X112068213Y-53985890D01*
X112068213Y-53985890D02*
X112020594Y-53795414D01*
X112020594Y-53795414D02*
X111972975Y-53700176D01*
X111972975Y-53700176D02*
X111877737Y-53604938D01*
X111877737Y-53604938D02*
X111734880Y-53557319D01*
X111734880Y-53557319D02*
X111639642Y-53557319D01*
X111639642Y-53557319D02*
X111496785Y-53604938D01*
X111496785Y-53604938D02*
X111449166Y-53652557D01*
X111115832Y-53557319D02*
X110449166Y-53557319D01*
X110449166Y-53557319D02*
X110877737Y-54557319D01*
X50649047Y-41954819D02*
X51125237Y-41954819D01*
X51125237Y-41954819D02*
X51125237Y-40954819D01*
X50315713Y-41431009D02*
X49982380Y-41431009D01*
X49839523Y-41954819D02*
X50315713Y-41954819D01*
X50315713Y-41954819D02*
X50315713Y-40954819D01*
X50315713Y-40954819D02*
X49839523Y-40954819D01*
X49410951Y-41954819D02*
X49410951Y-40954819D01*
X49410951Y-40954819D02*
X49172856Y-40954819D01*
X49172856Y-40954819D02*
X49029999Y-41002438D01*
X49029999Y-41002438D02*
X48934761Y-41097676D01*
X48934761Y-41097676D02*
X48887142Y-41192914D01*
X48887142Y-41192914D02*
X48839523Y-41383390D01*
X48839523Y-41383390D02*
X48839523Y-41526247D01*
X48839523Y-41526247D02*
X48887142Y-41716723D01*
X48887142Y-41716723D02*
X48934761Y-41811961D01*
X48934761Y-41811961D02*
X49029999Y-41907200D01*
X49029999Y-41907200D02*
X49172856Y-41954819D01*
X49172856Y-41954819D02*
X49410951Y-41954819D01*
X48458570Y-41050057D02*
X48410951Y-41002438D01*
X48410951Y-41002438D02*
X48315713Y-40954819D01*
X48315713Y-40954819D02*
X48077618Y-40954819D01*
X48077618Y-40954819D02*
X47982380Y-41002438D01*
X47982380Y-41002438D02*
X47934761Y-41050057D01*
X47934761Y-41050057D02*
X47887142Y-41145295D01*
X47887142Y-41145295D02*
X47887142Y-41240533D01*
X47887142Y-41240533D02*
X47934761Y-41383390D01*
X47934761Y-41383390D02*
X48506189Y-41954819D01*
X48506189Y-41954819D02*
X47887142Y-41954819D01*
X53394285Y-43854819D02*
X53965713Y-43854819D01*
X53679999Y-43854819D02*
X53679999Y-42854819D01*
X53679999Y-42854819D02*
X53775237Y-42997676D01*
X53775237Y-42997676D02*
X53870475Y-43092914D01*
X53870475Y-43092914D02*
X53965713Y-43140533D01*
X71451666Y-34054819D02*
X71784999Y-33578628D01*
X72023094Y-34054819D02*
X72023094Y-33054819D01*
X72023094Y-33054819D02*
X71642142Y-33054819D01*
X71642142Y-33054819D02*
X71546904Y-33102438D01*
X71546904Y-33102438D02*
X71499285Y-33150057D01*
X71499285Y-33150057D02*
X71451666Y-33245295D01*
X71451666Y-33245295D02*
X71451666Y-33388152D01*
X71451666Y-33388152D02*
X71499285Y-33483390D01*
X71499285Y-33483390D02*
X71546904Y-33531009D01*
X71546904Y-33531009D02*
X71642142Y-33578628D01*
X71642142Y-33578628D02*
X72023094Y-33578628D01*
X71070713Y-33150057D02*
X71023094Y-33102438D01*
X71023094Y-33102438D02*
X70927856Y-33054819D01*
X70927856Y-33054819D02*
X70689761Y-33054819D01*
X70689761Y-33054819D02*
X70594523Y-33102438D01*
X70594523Y-33102438D02*
X70546904Y-33150057D01*
X70546904Y-33150057D02*
X70499285Y-33245295D01*
X70499285Y-33245295D02*
X70499285Y-33340533D01*
X70499285Y-33340533D02*
X70546904Y-33483390D01*
X70546904Y-33483390D02*
X71118332Y-34054819D01*
X71118332Y-34054819D02*
X70499285Y-34054819D01*
X68913333Y-31721819D02*
X68913333Y-32436104D01*
X68913333Y-32436104D02*
X68960952Y-32578961D01*
X68960952Y-32578961D02*
X69056190Y-32674200D01*
X69056190Y-32674200D02*
X69199047Y-32721819D01*
X69199047Y-32721819D02*
X69294285Y-32721819D01*
X67913333Y-32721819D02*
X68484761Y-32721819D01*
X68199047Y-32721819D02*
X68199047Y-31721819D01*
X68199047Y-31721819D02*
X68294285Y-31864676D01*
X68294285Y-31864676D02*
X68389523Y-31959914D01*
X68389523Y-31959914D02*
X68484761Y-32007533D01*
X112199166Y-57387319D02*
X112532499Y-56911128D01*
X112770594Y-57387319D02*
X112770594Y-56387319D01*
X112770594Y-56387319D02*
X112389642Y-56387319D01*
X112389642Y-56387319D02*
X112294404Y-56434938D01*
X112294404Y-56434938D02*
X112246785Y-56482557D01*
X112246785Y-56482557D02*
X112199166Y-56577795D01*
X112199166Y-56577795D02*
X112199166Y-56720652D01*
X112199166Y-56720652D02*
X112246785Y-56815890D01*
X112246785Y-56815890D02*
X112294404Y-56863509D01*
X112294404Y-56863509D02*
X112389642Y-56911128D01*
X112389642Y-56911128D02*
X112770594Y-56911128D01*
X111865832Y-56387319D02*
X111246785Y-56387319D01*
X111246785Y-56387319D02*
X111580118Y-56768271D01*
X111580118Y-56768271D02*
X111437261Y-56768271D01*
X111437261Y-56768271D02*
X111342023Y-56815890D01*
X111342023Y-56815890D02*
X111294404Y-56863509D01*
X111294404Y-56863509D02*
X111246785Y-56958747D01*
X111246785Y-56958747D02*
X111246785Y-57196842D01*
X111246785Y-57196842D02*
X111294404Y-57292080D01*
X111294404Y-57292080D02*
X111342023Y-57339700D01*
X111342023Y-57339700D02*
X111437261Y-57387319D01*
X111437261Y-57387319D02*
X111722975Y-57387319D01*
X111722975Y-57387319D02*
X111818213Y-57339700D01*
X111818213Y-57339700D02*
X111865832Y-57292080D01*
X85118955Y-30432708D02*
X85166575Y-30385089D01*
X85166575Y-30385089D02*
X85214194Y-30242232D01*
X85214194Y-30242232D02*
X85214194Y-30146994D01*
X85214194Y-30146994D02*
X85166575Y-30004137D01*
X85166575Y-30004137D02*
X85071336Y-29908899D01*
X85071336Y-29908899D02*
X84976098Y-29861280D01*
X84976098Y-29861280D02*
X84785622Y-29813661D01*
X84785622Y-29813661D02*
X84642765Y-29813661D01*
X84642765Y-29813661D02*
X84452289Y-29861280D01*
X84452289Y-29861280D02*
X84357051Y-29908899D01*
X84357051Y-29908899D02*
X84261813Y-30004137D01*
X84261813Y-30004137D02*
X84214194Y-30146994D01*
X84214194Y-30146994D02*
X84214194Y-30242232D01*
X84214194Y-30242232D02*
X84261813Y-30385089D01*
X84261813Y-30385089D02*
X84309432Y-30432708D01*
X84309432Y-30813661D02*
X84261813Y-30861280D01*
X84261813Y-30861280D02*
X84214194Y-30956518D01*
X84214194Y-30956518D02*
X84214194Y-31194613D01*
X84214194Y-31194613D02*
X84261813Y-31289851D01*
X84261813Y-31289851D02*
X84309432Y-31337470D01*
X84309432Y-31337470D02*
X84404670Y-31385089D01*
X84404670Y-31385089D02*
X84499908Y-31385089D01*
X84499908Y-31385089D02*
X84642765Y-31337470D01*
X84642765Y-31337470D02*
X85214194Y-30766042D01*
X85214194Y-30766042D02*
X85214194Y-31385089D01*
X75686041Y-30566455D02*
X75733660Y-30614075D01*
X75733660Y-30614075D02*
X75876517Y-30661694D01*
X75876517Y-30661694D02*
X75971755Y-30661694D01*
X75971755Y-30661694D02*
X76114612Y-30614075D01*
X76114612Y-30614075D02*
X76209850Y-30518836D01*
X76209850Y-30518836D02*
X76257469Y-30423598D01*
X76257469Y-30423598D02*
X76305088Y-30233122D01*
X76305088Y-30233122D02*
X76305088Y-30090265D01*
X76305088Y-30090265D02*
X76257469Y-29899789D01*
X76257469Y-29899789D02*
X76209850Y-29804551D01*
X76209850Y-29804551D02*
X76114612Y-29709313D01*
X76114612Y-29709313D02*
X75971755Y-29661694D01*
X75971755Y-29661694D02*
X75876517Y-29661694D01*
X75876517Y-29661694D02*
X75733660Y-29709313D01*
X75733660Y-29709313D02*
X75686041Y-29756932D01*
X75114612Y-30090265D02*
X75209850Y-30042646D01*
X75209850Y-30042646D02*
X75257469Y-29995027D01*
X75257469Y-29995027D02*
X75305088Y-29899789D01*
X75305088Y-29899789D02*
X75305088Y-29852170D01*
X75305088Y-29852170D02*
X75257469Y-29756932D01*
X75257469Y-29756932D02*
X75209850Y-29709313D01*
X75209850Y-29709313D02*
X75114612Y-29661694D01*
X75114612Y-29661694D02*
X74924136Y-29661694D01*
X74924136Y-29661694D02*
X74828898Y-29709313D01*
X74828898Y-29709313D02*
X74781279Y-29756932D01*
X74781279Y-29756932D02*
X74733660Y-29852170D01*
X74733660Y-29852170D02*
X74733660Y-29899789D01*
X74733660Y-29899789D02*
X74781279Y-29995027D01*
X74781279Y-29995027D02*
X74828898Y-30042646D01*
X74828898Y-30042646D02*
X74924136Y-30090265D01*
X74924136Y-30090265D02*
X75114612Y-30090265D01*
X75114612Y-30090265D02*
X75209850Y-30137884D01*
X75209850Y-30137884D02*
X75257469Y-30185503D01*
X75257469Y-30185503D02*
X75305088Y-30280741D01*
X75305088Y-30280741D02*
X75305088Y-30471217D01*
X75305088Y-30471217D02*
X75257469Y-30566455D01*
X75257469Y-30566455D02*
X75209850Y-30614075D01*
X75209850Y-30614075D02*
X75114612Y-30661694D01*
X75114612Y-30661694D02*
X74924136Y-30661694D01*
X74924136Y-30661694D02*
X74828898Y-30614075D01*
X74828898Y-30614075D02*
X74781279Y-30566455D01*
X74781279Y-30566455D02*
X74733660Y-30471217D01*
X74733660Y-30471217D02*
X74733660Y-30280741D01*
X74733660Y-30280741D02*
X74781279Y-30185503D01*
X74781279Y-30185503D02*
X74828898Y-30137884D01*
X74828898Y-30137884D02*
X74924136Y-30090265D01*
X77899194Y-56414405D02*
X76899194Y-56414405D01*
X76899194Y-56414405D02*
X76899194Y-56652500D01*
X76899194Y-56652500D02*
X76946813Y-56795357D01*
X76946813Y-56795357D02*
X77042051Y-56890595D01*
X77042051Y-56890595D02*
X77137289Y-56938214D01*
X77137289Y-56938214D02*
X77327765Y-56985833D01*
X77327765Y-56985833D02*
X77470622Y-56985833D01*
X77470622Y-56985833D02*
X77661098Y-56938214D01*
X77661098Y-56938214D02*
X77756336Y-56890595D01*
X77756336Y-56890595D02*
X77851575Y-56795357D01*
X77851575Y-56795357D02*
X77899194Y-56652500D01*
X77899194Y-56652500D02*
X77899194Y-56414405D01*
X76899194Y-57319167D02*
X76899194Y-57938214D01*
X76899194Y-57938214D02*
X77280146Y-57604881D01*
X77280146Y-57604881D02*
X77280146Y-57747738D01*
X77280146Y-57747738D02*
X77327765Y-57842976D01*
X77327765Y-57842976D02*
X77375384Y-57890595D01*
X77375384Y-57890595D02*
X77470622Y-57938214D01*
X77470622Y-57938214D02*
X77708717Y-57938214D01*
X77708717Y-57938214D02*
X77803955Y-57890595D01*
X77803955Y-57890595D02*
X77851575Y-57842976D01*
X77851575Y-57842976D02*
X77899194Y-57747738D01*
X77899194Y-57747738D02*
X77899194Y-57462024D01*
X77899194Y-57462024D02*
X77851575Y-57366786D01*
X77851575Y-57366786D02*
X77803955Y-57319167D01*
X27892944Y-28410833D02*
X27416753Y-28077500D01*
X27892944Y-27839405D02*
X26892944Y-27839405D01*
X26892944Y-27839405D02*
X26892944Y-28220357D01*
X26892944Y-28220357D02*
X26940563Y-28315595D01*
X26940563Y-28315595D02*
X26988182Y-28363214D01*
X26988182Y-28363214D02*
X27083420Y-28410833D01*
X27083420Y-28410833D02*
X27226277Y-28410833D01*
X27226277Y-28410833D02*
X27321515Y-28363214D01*
X27321515Y-28363214D02*
X27369134Y-28315595D01*
X27369134Y-28315595D02*
X27416753Y-28220357D01*
X27416753Y-28220357D02*
X27416753Y-27839405D01*
X26892944Y-29315595D02*
X26892944Y-28839405D01*
X26892944Y-28839405D02*
X27369134Y-28791786D01*
X27369134Y-28791786D02*
X27321515Y-28839405D01*
X27321515Y-28839405D02*
X27273896Y-28934643D01*
X27273896Y-28934643D02*
X27273896Y-29172738D01*
X27273896Y-29172738D02*
X27321515Y-29267976D01*
X27321515Y-29267976D02*
X27369134Y-29315595D01*
X27369134Y-29315595D02*
X27464372Y-29363214D01*
X27464372Y-29363214D02*
X27702467Y-29363214D01*
X27702467Y-29363214D02*
X27797705Y-29315595D01*
X27797705Y-29315595D02*
X27845325Y-29267976D01*
X27845325Y-29267976D02*
X27892944Y-29172738D01*
X27892944Y-29172738D02*
X27892944Y-28934643D01*
X27892944Y-28934643D02*
X27845325Y-28839405D01*
X27845325Y-28839405D02*
X27797705Y-28791786D01*
D11*
%TO.C,C4*%
X105922500Y-43744664D02*
X105922500Y-43960336D01*
X106642500Y-43744664D02*
X106642500Y-43960336D01*
%TO.C,U1*%
X107172500Y-44492500D02*
X107172500Y-44942500D01*
X107172500Y-51712500D02*
X107172500Y-51262500D01*
X107622500Y-44492500D02*
X107172500Y-44492500D01*
X107622500Y-51712500D02*
X107172500Y-51712500D01*
X113942500Y-44492500D02*
X114392500Y-44492500D01*
X113942500Y-51712500D02*
X114392500Y-51712500D01*
X113942500Y-53002500D02*
X113942500Y-51712500D01*
X114392500Y-44492500D02*
X114392500Y-44942500D01*
X114392500Y-51712500D02*
X114392500Y-51262500D01*
%TO.C,D2*%
X57394375Y-51868125D02*
X57394375Y-55878125D01*
X57394375Y-55878125D02*
X59394375Y-55878125D01*
X59394375Y-51868125D02*
X59394375Y-55878125D01*
%TO.C,LED4*%
X83980000Y-62402500D02*
X91280000Y-62402500D01*
X83980000Y-66752500D02*
X83980000Y-67902500D01*
X83980000Y-67902500D02*
X91280000Y-67902500D01*
%TO.C,D7*%
X76444375Y-70918125D02*
X76444375Y-74928125D01*
X76444375Y-74928125D02*
X78444375Y-74928125D01*
X78444375Y-70918125D02*
X78444375Y-74928125D01*
%TO.C,C3*%
X115140336Y-43242500D02*
X114924664Y-43242500D01*
X115140336Y-43962500D02*
X114924664Y-43962500D01*
%TO.C,LED1*%
X83980000Y-42250000D02*
X91280000Y-42250000D01*
X83980000Y-46600000D02*
X83980000Y-47750000D01*
X83980000Y-47750000D02*
X91280000Y-47750000D01*
%TO.C,D8*%
X95494375Y-70918125D02*
X95494375Y-74928125D01*
X95494375Y-74928125D02*
X97494375Y-74928125D01*
X97494375Y-70918125D02*
X97494375Y-74928125D01*
%TO.C,BOOT1*%
X111062500Y-62270000D02*
X111512500Y-61820000D01*
X111062500Y-64770000D02*
X111062500Y-62270000D01*
X111062500Y-64770000D02*
X111512500Y-65220000D01*
X114812500Y-60770000D02*
X112812500Y-60770000D01*
X114812500Y-66270000D02*
X112812500Y-66270000D01*
X116562500Y-62270000D02*
X116112500Y-61820000D01*
X116562500Y-64770000D02*
X116112500Y-65220000D01*
X116562500Y-64770000D02*
X116562500Y-62270000D01*
%TO.C,D4*%
X95494375Y-51868125D02*
X95494375Y-55878125D01*
X95494375Y-55878125D02*
X97494375Y-55878125D01*
X97494375Y-51868125D02*
X97494375Y-55878125D01*
%TO.C,U2*%
X64935000Y-36410000D02*
X66935000Y-36410000D01*
X66935000Y-33290000D02*
X65635000Y-33290000D01*
%TO.C,C5*%
X114922500Y-52460336D02*
X114922500Y-52244664D01*
X115642500Y-52460336D02*
X115642500Y-52244664D01*
%TO.C,D6*%
X57394375Y-70918125D02*
X57394375Y-74928125D01*
X57394375Y-74928125D02*
X59394375Y-74928125D01*
X59394375Y-70918125D02*
X59394375Y-74928125D01*
%TO.C,RST1*%
X105062500Y-62270000D02*
X105062500Y-64770000D01*
X105062500Y-62270000D02*
X105512500Y-61820000D01*
X105062500Y-64770000D02*
X105512500Y-65220000D01*
X106812500Y-60770000D02*
X108812500Y-60770000D01*
X106812500Y-66270000D02*
X108812500Y-66270000D01*
X110562500Y-62270000D02*
X110112500Y-61820000D01*
X110562500Y-62270000D02*
X110562500Y-64770000D01*
X110562500Y-64770000D02*
X110112500Y-65220000D01*
%TO.C,D1*%
X38344375Y-51868125D02*
X38344375Y-55878125D01*
X38344375Y-55878125D02*
X40344375Y-55878125D01*
X40344375Y-51868125D02*
X40344375Y-55878125D01*
%TO.C,LED3*%
X45880000Y-62402500D02*
X53180000Y-62402500D01*
X45880000Y-66752500D02*
X45880000Y-67902500D01*
X45880000Y-67902500D02*
X53180000Y-67902500D01*
D12*
%TO.C,G\u002A\u002A\u002A*%
X72324222Y-39351384D02*
X72406294Y-39364314D01*
X72477967Y-39402812D01*
X72546853Y-39470855D01*
X72581265Y-39512200D01*
X72581829Y-39440556D01*
X72581837Y-39439526D01*
X72585092Y-39393310D01*
X72597514Y-39369824D01*
X72624725Y-39358287D01*
X72658309Y-39354063D01*
X72709392Y-39358287D01*
X72751725Y-39368912D01*
X72751725Y-40418134D01*
X72565459Y-40418134D01*
X72565459Y-39745881D01*
X72516481Y-39678270D01*
X72494987Y-39649432D01*
X72443254Y-39590746D01*
X72394482Y-39556783D01*
X72340555Y-39543103D01*
X72273359Y-39545267D01*
X72175992Y-39556215D01*
X72175992Y-39464053D01*
X72176985Y-39422012D01*
X72184950Y-39383118D01*
X72206647Y-39361917D01*
X72248771Y-39353093D01*
X72318021Y-39351334D01*
X72324222Y-39351384D01*
G36*
X72324222Y-39351384D02*
G01*
X72406294Y-39364314D01*
X72477967Y-39402812D01*
X72546853Y-39470855D01*
X72581265Y-39512200D01*
X72581829Y-39440556D01*
X72581837Y-39439526D01*
X72585092Y-39393310D01*
X72597514Y-39369824D01*
X72624725Y-39358287D01*
X72658309Y-39354063D01*
X72709392Y-39358287D01*
X72751725Y-39368912D01*
X72751725Y-40418134D01*
X72565459Y-40418134D01*
X72565459Y-39745881D01*
X72516481Y-39678270D01*
X72494987Y-39649432D01*
X72443254Y-39590746D01*
X72394482Y-39556783D01*
X72340555Y-39543103D01*
X72273359Y-39545267D01*
X72175992Y-39556215D01*
X72175992Y-39464053D01*
X72176985Y-39422012D01*
X72184950Y-39383118D01*
X72206647Y-39361917D01*
X72248771Y-39353093D01*
X72318021Y-39351334D01*
X72324222Y-39351384D01*
G37*
X72070496Y-39941706D02*
X72057233Y-40056212D01*
X72021586Y-40179924D01*
X71964462Y-40278307D01*
X71885274Y-40352305D01*
X71783433Y-40402863D01*
X71720453Y-40419728D01*
X71598666Y-40433089D01*
X71467713Y-40427467D01*
X71339452Y-40402862D01*
X71318103Y-40396798D01*
X71254750Y-40375073D01*
X71217111Y-40352206D01*
X71199036Y-40323102D01*
X71194377Y-40282667D01*
X71195261Y-40256205D01*
X71204061Y-40221946D01*
X71226899Y-40207761D01*
X71269365Y-40211652D01*
X71337044Y-40231618D01*
X71410559Y-40251017D01*
X71510100Y-40263991D01*
X71605462Y-40263220D01*
X71687625Y-40248929D01*
X71747566Y-40221344D01*
X71782975Y-40189901D01*
X71836562Y-40108965D01*
X71864924Y-40006380D01*
X71875699Y-39927768D01*
X71168459Y-39918600D01*
X71163347Y-39820121D01*
X71162713Y-39791600D01*
X71358788Y-39791600D01*
X71873883Y-39791600D01*
X71862393Y-39736567D01*
X71842490Y-39671489D01*
X71793592Y-39591648D01*
X71724689Y-39536436D01*
X71638867Y-39508995D01*
X71596869Y-39506078D01*
X71509990Y-39520469D01*
X71440406Y-39562207D01*
X71391637Y-39628598D01*
X71367202Y-39716947D01*
X71358788Y-39791600D01*
X71162713Y-39791600D01*
X71162475Y-39780874D01*
X71177460Y-39655381D01*
X71219573Y-39546868D01*
X71287839Y-39458170D01*
X71293602Y-39452701D01*
X71355761Y-39403782D01*
X71422806Y-39372683D01*
X71504029Y-39356315D01*
X71608725Y-39351593D01*
X71709899Y-39360603D01*
X71822384Y-39396997D01*
X71915638Y-39459777D01*
X71988369Y-39547289D01*
X72039284Y-39657883D01*
X72067091Y-39789906D01*
X72067129Y-39791600D01*
X72070496Y-39941706D01*
G36*
X72070496Y-39941706D02*
G01*
X72057233Y-40056212D01*
X72021586Y-40179924D01*
X71964462Y-40278307D01*
X71885274Y-40352305D01*
X71783433Y-40402863D01*
X71720453Y-40419728D01*
X71598666Y-40433089D01*
X71467713Y-40427467D01*
X71339452Y-40402862D01*
X71318103Y-40396798D01*
X71254750Y-40375073D01*
X71217111Y-40352206D01*
X71199036Y-40323102D01*
X71194377Y-40282667D01*
X71195261Y-40256205D01*
X71204061Y-40221946D01*
X71226899Y-40207761D01*
X71269365Y-40211652D01*
X71337044Y-40231618D01*
X71410559Y-40251017D01*
X71510100Y-40263991D01*
X71605462Y-40263220D01*
X71687625Y-40248929D01*
X71747566Y-40221344D01*
X71782975Y-40189901D01*
X71836562Y-40108965D01*
X71864924Y-40006380D01*
X71875699Y-39927768D01*
X71168459Y-39918600D01*
X71163347Y-39820121D01*
X71162713Y-39791600D01*
X71358788Y-39791600D01*
X71873883Y-39791600D01*
X71862393Y-39736567D01*
X71842490Y-39671489D01*
X71793592Y-39591648D01*
X71724689Y-39536436D01*
X71638867Y-39508995D01*
X71596869Y-39506078D01*
X71509990Y-39520469D01*
X71440406Y-39562207D01*
X71391637Y-39628598D01*
X71367202Y-39716947D01*
X71358788Y-39791600D01*
X71162713Y-39791600D01*
X71162475Y-39780874D01*
X71177460Y-39655381D01*
X71219573Y-39546868D01*
X71287839Y-39458170D01*
X71293602Y-39452701D01*
X71355761Y-39403782D01*
X71422806Y-39372683D01*
X71504029Y-39356315D01*
X71608725Y-39351593D01*
X71709899Y-39360603D01*
X71822384Y-39396997D01*
X71915638Y-39459777D01*
X71988369Y-39547289D01*
X72039284Y-39657883D01*
X72067091Y-39789906D01*
X72067129Y-39791600D01*
X72070496Y-39941706D01*
G37*
X62390876Y-38992690D02*
X62399254Y-38999241D01*
X62428078Y-39029312D01*
X62472474Y-39079903D01*
X62529137Y-39147133D01*
X62594761Y-39227117D01*
X62666042Y-39315973D01*
X62913459Y-39627747D01*
X62913459Y-38996379D01*
X62955903Y-38985726D01*
X62956833Y-38985499D01*
X63003981Y-38981466D01*
X63057503Y-38986170D01*
X63116659Y-38997268D01*
X63116659Y-39696412D01*
X63116600Y-39765553D01*
X63116073Y-39911948D01*
X63115048Y-40046135D01*
X63113588Y-40164504D01*
X63111753Y-40263445D01*
X63109604Y-40339349D01*
X63107202Y-40388606D01*
X63104609Y-40407605D01*
X63095039Y-40411489D01*
X63058557Y-40415324D01*
X63007243Y-40414661D01*
X62921925Y-40409667D01*
X62912765Y-39704631D01*
X62394131Y-40409667D01*
X62289728Y-40414708D01*
X62279304Y-40415204D01*
X62226438Y-40416646D01*
X62198375Y-40412831D01*
X62187282Y-40401046D01*
X62185325Y-40378582D01*
X62193363Y-40354913D01*
X62222584Y-40304139D01*
X62272598Y-40229231D01*
X62342797Y-40131091D01*
X62432574Y-40010623D01*
X62480583Y-39946982D01*
X62545513Y-39860277D01*
X62601580Y-39784653D01*
X62645871Y-39724075D01*
X62675470Y-39682509D01*
X62687463Y-39663920D01*
X62687277Y-39661194D01*
X62673497Y-39636411D01*
X62641590Y-39591266D01*
X62594683Y-39529883D01*
X62535903Y-39456388D01*
X62468375Y-39374905D01*
X62442849Y-39344586D01*
X62362208Y-39248221D01*
X62301044Y-39173494D01*
X62257316Y-39117223D01*
X62228981Y-39076225D01*
X62213998Y-39047317D01*
X62210327Y-39027317D01*
X62215925Y-39013041D01*
X62228751Y-39001307D01*
X62231798Y-38999230D01*
X62278156Y-38983630D01*
X62337018Y-38981140D01*
X62390876Y-38992690D01*
G36*
X62390876Y-38992690D02*
G01*
X62399254Y-38999241D01*
X62428078Y-39029312D01*
X62472474Y-39079903D01*
X62529137Y-39147133D01*
X62594761Y-39227117D01*
X62666042Y-39315973D01*
X62913459Y-39627747D01*
X62913459Y-38996379D01*
X62955903Y-38985726D01*
X62956833Y-38985499D01*
X63003981Y-38981466D01*
X63057503Y-38986170D01*
X63116659Y-38997268D01*
X63116659Y-39696412D01*
X63116600Y-39765553D01*
X63116073Y-39911948D01*
X63115048Y-40046135D01*
X63113588Y-40164504D01*
X63111753Y-40263445D01*
X63109604Y-40339349D01*
X63107202Y-40388606D01*
X63104609Y-40407605D01*
X63095039Y-40411489D01*
X63058557Y-40415324D01*
X63007243Y-40414661D01*
X62921925Y-40409667D01*
X62912765Y-39704631D01*
X62394131Y-40409667D01*
X62289728Y-40414708D01*
X62279304Y-40415204D01*
X62226438Y-40416646D01*
X62198375Y-40412831D01*
X62187282Y-40401046D01*
X62185325Y-40378582D01*
X62193363Y-40354913D01*
X62222584Y-40304139D01*
X62272598Y-40229231D01*
X62342797Y-40131091D01*
X62432574Y-40010623D01*
X62480583Y-39946982D01*
X62545513Y-39860277D01*
X62601580Y-39784653D01*
X62645871Y-39724075D01*
X62675470Y-39682509D01*
X62687463Y-39663920D01*
X62687277Y-39661194D01*
X62673497Y-39636411D01*
X62641590Y-39591266D01*
X62594683Y-39529883D01*
X62535903Y-39456388D01*
X62468375Y-39374905D01*
X62442849Y-39344586D01*
X62362208Y-39248221D01*
X62301044Y-39173494D01*
X62257316Y-39117223D01*
X62228981Y-39076225D01*
X62213998Y-39047317D01*
X62210327Y-39027317D01*
X62215925Y-39013041D01*
X62228751Y-39001307D01*
X62231798Y-38999230D01*
X62278156Y-38983630D01*
X62337018Y-38981140D01*
X62390876Y-38992690D01*
G37*
X77696259Y-39715965D02*
X77696223Y-39768369D01*
X77695739Y-39913661D01*
X77694737Y-40047068D01*
X77693282Y-40164927D01*
X77691438Y-40263573D01*
X77689269Y-40339344D01*
X77686838Y-40388576D01*
X77684209Y-40407605D01*
X77674639Y-40411489D01*
X77638157Y-40415324D01*
X77586843Y-40414661D01*
X77501525Y-40409667D01*
X77492199Y-39876267D01*
X77350640Y-39876267D01*
X77225523Y-39869427D01*
X77118280Y-39846179D01*
X77028277Y-39804189D01*
X76948612Y-39741138D01*
X76918721Y-39709175D01*
X76856343Y-39609692D01*
X76823412Y-39494482D01*
X76821908Y-39427534D01*
X77044325Y-39427534D01*
X77046039Y-39474024D01*
X77061633Y-39548033D01*
X77098071Y-39607467D01*
X77160901Y-39663554D01*
X77177596Y-39674468D01*
X77216216Y-39689750D01*
X77270835Y-39699100D01*
X77350355Y-39704438D01*
X77493059Y-39710409D01*
X77493059Y-39165067D01*
X77361825Y-39165093D01*
X77332973Y-39165535D01*
X77224243Y-39178102D01*
X77142820Y-39209093D01*
X77086896Y-39259999D01*
X77054667Y-39332315D01*
X77044325Y-39427534D01*
X76821908Y-39427534D01*
X76820509Y-39365244D01*
X76822885Y-39343932D01*
X76853010Y-39231033D01*
X76909982Y-39138139D01*
X76992446Y-39066934D01*
X77099043Y-39019107D01*
X77125206Y-39013117D01*
X77186623Y-39005073D01*
X77264518Y-38999356D01*
X77351711Y-38996004D01*
X77441025Y-38995056D01*
X77525282Y-38996548D01*
X77597306Y-39000520D01*
X77649917Y-39007009D01*
X77675939Y-39016054D01*
X77679409Y-39022996D01*
X77684266Y-39049301D01*
X77688200Y-39096132D01*
X77691273Y-39165711D01*
X77693551Y-39260261D01*
X77695098Y-39382004D01*
X77695979Y-39533165D01*
X77696251Y-39710409D01*
X77696259Y-39715965D01*
G36*
X77696259Y-39715965D02*
G01*
X77696223Y-39768369D01*
X77695739Y-39913661D01*
X77694737Y-40047068D01*
X77693282Y-40164927D01*
X77691438Y-40263573D01*
X77689269Y-40339344D01*
X77686838Y-40388576D01*
X77684209Y-40407605D01*
X77674639Y-40411489D01*
X77638157Y-40415324D01*
X77586843Y-40414661D01*
X77501525Y-40409667D01*
X77492199Y-39876267D01*
X77350640Y-39876267D01*
X77225523Y-39869427D01*
X77118280Y-39846179D01*
X77028277Y-39804189D01*
X76948612Y-39741138D01*
X76918721Y-39709175D01*
X76856343Y-39609692D01*
X76823412Y-39494482D01*
X76821908Y-39427534D01*
X77044325Y-39427534D01*
X77046039Y-39474024D01*
X77061633Y-39548033D01*
X77098071Y-39607467D01*
X77160901Y-39663554D01*
X77177596Y-39674468D01*
X77216216Y-39689750D01*
X77270835Y-39699100D01*
X77350355Y-39704438D01*
X77493059Y-39710409D01*
X77493059Y-39165067D01*
X77361825Y-39165093D01*
X77332973Y-39165535D01*
X77224243Y-39178102D01*
X77142820Y-39209093D01*
X77086896Y-39259999D01*
X77054667Y-39332315D01*
X77044325Y-39427534D01*
X76821908Y-39427534D01*
X76820509Y-39365244D01*
X76822885Y-39343932D01*
X76853010Y-39231033D01*
X76909982Y-39138139D01*
X76992446Y-39066934D01*
X77099043Y-39019107D01*
X77125206Y-39013117D01*
X77186623Y-39005073D01*
X77264518Y-38999356D01*
X77351711Y-38996004D01*
X77441025Y-38995056D01*
X77525282Y-38996548D01*
X77597306Y-39000520D01*
X77649917Y-39007009D01*
X77675939Y-39016054D01*
X77679409Y-39022996D01*
X77684266Y-39049301D01*
X77688200Y-39096132D01*
X77691273Y-39165711D01*
X77693551Y-39260261D01*
X77695098Y-39382004D01*
X77695979Y-39533165D01*
X77696251Y-39710409D01*
X77696259Y-39715965D01*
G37*
X73932036Y-39869895D02*
X73922979Y-40018175D01*
X73914172Y-40069423D01*
X73877916Y-40189537D01*
X73822235Y-40283726D01*
X73745364Y-40354441D01*
X73645541Y-40404136D01*
X73639036Y-40406364D01*
X73554684Y-40424101D01*
X73451534Y-40431008D01*
X73341622Y-40427425D01*
X73236985Y-40413691D01*
X73149659Y-40390145D01*
X73111653Y-40374928D01*
X73079718Y-40356059D01*
X73065240Y-40331759D01*
X73059604Y-40292706D01*
X73058083Y-40257474D01*
X73065052Y-40222101D01*
X73087716Y-40207475D01*
X73131088Y-40211423D01*
X73200181Y-40231774D01*
X73276463Y-40251641D01*
X73374897Y-40264030D01*
X73469205Y-40263102D01*
X73550294Y-40249073D01*
X73609071Y-40222155D01*
X73655543Y-40174852D01*
X73700244Y-40094824D01*
X73726775Y-39999383D01*
X73738075Y-39927767D01*
X73384600Y-39923183D01*
X73031125Y-39918600D01*
X73031938Y-39791600D01*
X73205156Y-39791600D01*
X73734504Y-39791600D01*
X73723599Y-39745034D01*
X73694693Y-39658789D01*
X73642800Y-39580870D01*
X73571962Y-39530878D01*
X73481929Y-39508569D01*
X73457583Y-39507410D01*
X73370094Y-39521514D01*
X73299353Y-39564193D01*
X73247528Y-39633654D01*
X73216787Y-39728100D01*
X73205156Y-39791600D01*
X73031938Y-39791600D01*
X73032046Y-39774667D01*
X73039096Y-39666149D01*
X73061421Y-39578465D01*
X73102372Y-39505702D01*
X73165314Y-39439394D01*
X73218748Y-39400132D01*
X73291179Y-39369091D01*
X73379392Y-39354294D01*
X73491316Y-39353657D01*
X73554457Y-39357747D01*
X73612248Y-39366804D01*
X73659695Y-39383483D01*
X73709788Y-39411208D01*
X73734914Y-39428124D01*
X73816387Y-39507864D01*
X73877334Y-39610739D01*
X73916352Y-39732749D01*
X73923083Y-39791600D01*
X73932036Y-39869895D01*
G36*
X73932036Y-39869895D02*
G01*
X73922979Y-40018175D01*
X73914172Y-40069423D01*
X73877916Y-40189537D01*
X73822235Y-40283726D01*
X73745364Y-40354441D01*
X73645541Y-40404136D01*
X73639036Y-40406364D01*
X73554684Y-40424101D01*
X73451534Y-40431008D01*
X73341622Y-40427425D01*
X73236985Y-40413691D01*
X73149659Y-40390145D01*
X73111653Y-40374928D01*
X73079718Y-40356059D01*
X73065240Y-40331759D01*
X73059604Y-40292706D01*
X73058083Y-40257474D01*
X73065052Y-40222101D01*
X73087716Y-40207475D01*
X73131088Y-40211423D01*
X73200181Y-40231774D01*
X73276463Y-40251641D01*
X73374897Y-40264030D01*
X73469205Y-40263102D01*
X73550294Y-40249073D01*
X73609071Y-40222155D01*
X73655543Y-40174852D01*
X73700244Y-40094824D01*
X73726775Y-39999383D01*
X73738075Y-39927767D01*
X73384600Y-39923183D01*
X73031125Y-39918600D01*
X73031938Y-39791600D01*
X73205156Y-39791600D01*
X73734504Y-39791600D01*
X73723599Y-39745034D01*
X73694693Y-39658789D01*
X73642800Y-39580870D01*
X73571962Y-39530878D01*
X73481929Y-39508569D01*
X73457583Y-39507410D01*
X73370094Y-39521514D01*
X73299353Y-39564193D01*
X73247528Y-39633654D01*
X73216787Y-39728100D01*
X73205156Y-39791600D01*
X73031938Y-39791600D01*
X73032046Y-39774667D01*
X73039096Y-39666149D01*
X73061421Y-39578465D01*
X73102372Y-39505702D01*
X73165314Y-39439394D01*
X73218748Y-39400132D01*
X73291179Y-39369091D01*
X73379392Y-39354294D01*
X73491316Y-39353657D01*
X73554457Y-39357747D01*
X73612248Y-39366804D01*
X73659695Y-39383483D01*
X73709788Y-39411208D01*
X73734914Y-39428124D01*
X73816387Y-39507864D01*
X73877334Y-39610739D01*
X73916352Y-39732749D01*
X73923083Y-39791600D01*
X73932036Y-39869895D01*
G37*
X76678028Y-39926611D02*
X76663592Y-40070350D01*
X76624158Y-40192079D01*
X76560002Y-40291297D01*
X76471402Y-40367507D01*
X76358635Y-40420209D01*
X76351450Y-40422070D01*
X76307623Y-40427366D01*
X76244186Y-40430026D01*
X76172259Y-40429495D01*
X76081378Y-40422006D01*
X75971766Y-40394840D01*
X75882298Y-40346345D01*
X75807785Y-40274311D01*
X75753678Y-40188514D01*
X75711064Y-40072489D01*
X75688696Y-39944194D01*
X75688018Y-39881748D01*
X75894978Y-39881748D01*
X75895150Y-39946435D01*
X75900220Y-40005401D01*
X75912802Y-40053688D01*
X75935192Y-40103987D01*
X75952763Y-40135141D01*
X75989375Y-40186620D01*
X76023865Y-40221423D01*
X76037072Y-40229869D01*
X76102777Y-40253800D01*
X76180729Y-40263004D01*
X76257007Y-40256851D01*
X76317694Y-40234711D01*
X76379776Y-40185089D01*
X76430092Y-40111924D01*
X76461120Y-40015412D01*
X76465470Y-39992216D01*
X76473832Y-39878475D01*
X76461621Y-39771217D01*
X76430710Y-39676630D01*
X76382974Y-39600904D01*
X76320286Y-39550228D01*
X76277401Y-39532852D01*
X76190653Y-39518425D01*
X76103308Y-39525604D01*
X76028853Y-39554208D01*
X75988762Y-39585586D01*
X75937785Y-39658061D01*
X75906671Y-39756421D01*
X75894978Y-39881748D01*
X75688018Y-39881748D01*
X75687261Y-39812007D01*
X75707449Y-39684307D01*
X75749944Y-39569469D01*
X75775773Y-39528501D01*
X75836978Y-39461723D01*
X75910322Y-39405760D01*
X75983595Y-39370986D01*
X75987946Y-39369737D01*
X76053181Y-39358247D01*
X76135682Y-39352618D01*
X76222794Y-39352850D01*
X76301863Y-39358948D01*
X76360232Y-39370912D01*
X76448606Y-39411744D01*
X76539622Y-39485853D01*
X76608416Y-39584474D01*
X76654156Y-39706344D01*
X76676011Y-39850198D01*
X76676758Y-39878475D01*
X76678028Y-39926611D01*
G36*
X76678028Y-39926611D02*
G01*
X76663592Y-40070350D01*
X76624158Y-40192079D01*
X76560002Y-40291297D01*
X76471402Y-40367507D01*
X76358635Y-40420209D01*
X76351450Y-40422070D01*
X76307623Y-40427366D01*
X76244186Y-40430026D01*
X76172259Y-40429495D01*
X76081378Y-40422006D01*
X75971766Y-40394840D01*
X75882298Y-40346345D01*
X75807785Y-40274311D01*
X75753678Y-40188514D01*
X75711064Y-40072489D01*
X75688696Y-39944194D01*
X75688018Y-39881748D01*
X75894978Y-39881748D01*
X75895150Y-39946435D01*
X75900220Y-40005401D01*
X75912802Y-40053688D01*
X75935192Y-40103987D01*
X75952763Y-40135141D01*
X75989375Y-40186620D01*
X76023865Y-40221423D01*
X76037072Y-40229869D01*
X76102777Y-40253800D01*
X76180729Y-40263004D01*
X76257007Y-40256851D01*
X76317694Y-40234711D01*
X76379776Y-40185089D01*
X76430092Y-40111924D01*
X76461120Y-40015412D01*
X76465470Y-39992216D01*
X76473832Y-39878475D01*
X76461621Y-39771217D01*
X76430710Y-39676630D01*
X76382974Y-39600904D01*
X76320286Y-39550228D01*
X76277401Y-39532852D01*
X76190653Y-39518425D01*
X76103308Y-39525604D01*
X76028853Y-39554208D01*
X75988762Y-39585586D01*
X75937785Y-39658061D01*
X75906671Y-39756421D01*
X75894978Y-39881748D01*
X75688018Y-39881748D01*
X75687261Y-39812007D01*
X75707449Y-39684307D01*
X75749944Y-39569469D01*
X75775773Y-39528501D01*
X75836978Y-39461723D01*
X75910322Y-39405760D01*
X75983595Y-39370986D01*
X75987946Y-39369737D01*
X76053181Y-39358247D01*
X76135682Y-39352618D01*
X76222794Y-39352850D01*
X76301863Y-39358948D01*
X76360232Y-39370912D01*
X76448606Y-39411744D01*
X76539622Y-39485853D01*
X76608416Y-39584474D01*
X76654156Y-39706344D01*
X76676011Y-39850198D01*
X76676758Y-39878475D01*
X76678028Y-39926611D01*
G37*
X70952130Y-39990813D02*
X70930591Y-40131098D01*
X70887508Y-40245293D01*
X70822868Y-40333429D01*
X70736659Y-40395537D01*
X70669009Y-40421519D01*
X70563889Y-40434590D01*
X70563300Y-40434593D01*
X70490428Y-40430894D01*
X70428835Y-40416251D01*
X70366689Y-40386419D01*
X70292159Y-40337155D01*
X70211725Y-40279782D01*
X70211725Y-40419989D01*
X70050859Y-40409667D01*
X70050859Y-39897634D01*
X70245592Y-39897634D01*
X70245592Y-40089527D01*
X70309092Y-40150364D01*
X70329819Y-40169161D01*
X70381470Y-40209849D01*
X70426785Y-40238468D01*
X70448488Y-40248155D01*
X70527602Y-40263108D01*
X70601218Y-40246562D01*
X70664583Y-40200380D01*
X70712942Y-40126423D01*
X70724486Y-40096815D01*
X70736764Y-40044749D01*
X70743238Y-39977245D01*
X70745125Y-39885172D01*
X70744879Y-39838792D01*
X70742423Y-39770416D01*
X70736061Y-39721723D01*
X70724245Y-39683401D01*
X70705429Y-39646142D01*
X70676986Y-39603755D01*
X70614251Y-39547123D01*
X70542050Y-39522659D01*
X70462343Y-39530807D01*
X70377089Y-39572007D01*
X70329307Y-39605535D01*
X70291226Y-39640572D01*
X70266793Y-39679923D01*
X70253029Y-39730966D01*
X70246955Y-39801078D01*
X70245592Y-39897634D01*
X70050859Y-39897634D01*
X70050859Y-38902600D01*
X70237125Y-38902600D01*
X70245592Y-39188900D01*
X70246469Y-39218034D01*
X70249806Y-39314708D01*
X70253249Y-39382544D01*
X70257311Y-39425560D01*
X70262503Y-39447778D01*
X70269337Y-39453217D01*
X70278326Y-39445895D01*
X70285445Y-39437849D01*
X70349660Y-39391630D01*
X70436105Y-39361973D01*
X70537018Y-39351705D01*
X70537802Y-39351709D01*
X70657719Y-39365958D01*
X70757495Y-39407388D01*
X70837026Y-39475876D01*
X70896208Y-39571302D01*
X70934940Y-39693542D01*
X70953117Y-39842476D01*
X70952832Y-39885172D01*
X70952130Y-39990813D01*
G36*
X70952130Y-39990813D02*
G01*
X70930591Y-40131098D01*
X70887508Y-40245293D01*
X70822868Y-40333429D01*
X70736659Y-40395537D01*
X70669009Y-40421519D01*
X70563889Y-40434590D01*
X70563300Y-40434593D01*
X70490428Y-40430894D01*
X70428835Y-40416251D01*
X70366689Y-40386419D01*
X70292159Y-40337155D01*
X70211725Y-40279782D01*
X70211725Y-40419989D01*
X70050859Y-40409667D01*
X70050859Y-39897634D01*
X70245592Y-39897634D01*
X70245592Y-40089527D01*
X70309092Y-40150364D01*
X70329819Y-40169161D01*
X70381470Y-40209849D01*
X70426785Y-40238468D01*
X70448488Y-40248155D01*
X70527602Y-40263108D01*
X70601218Y-40246562D01*
X70664583Y-40200380D01*
X70712942Y-40126423D01*
X70724486Y-40096815D01*
X70736764Y-40044749D01*
X70743238Y-39977245D01*
X70745125Y-39885172D01*
X70744879Y-39838792D01*
X70742423Y-39770416D01*
X70736061Y-39721723D01*
X70724245Y-39683401D01*
X70705429Y-39646142D01*
X70676986Y-39603755D01*
X70614251Y-39547123D01*
X70542050Y-39522659D01*
X70462343Y-39530807D01*
X70377089Y-39572007D01*
X70329307Y-39605535D01*
X70291226Y-39640572D01*
X70266793Y-39679923D01*
X70253029Y-39730966D01*
X70246955Y-39801078D01*
X70245592Y-39897634D01*
X70050859Y-39897634D01*
X70050859Y-38902600D01*
X70237125Y-38902600D01*
X70245592Y-39188900D01*
X70246469Y-39218034D01*
X70249806Y-39314708D01*
X70253249Y-39382544D01*
X70257311Y-39425560D01*
X70262503Y-39447778D01*
X70269337Y-39453217D01*
X70278326Y-39445895D01*
X70285445Y-39437849D01*
X70349660Y-39391630D01*
X70436105Y-39361973D01*
X70537018Y-39351705D01*
X70537802Y-39351709D01*
X70657719Y-39365958D01*
X70757495Y-39407388D01*
X70837026Y-39475876D01*
X70896208Y-39571302D01*
X70934940Y-39693542D01*
X70953117Y-39842476D01*
X70952832Y-39885172D01*
X70952130Y-39990813D01*
G37*
X68118569Y-39358328D02*
X68125694Y-39359762D01*
X68166490Y-39372003D01*
X68188338Y-39385437D01*
X68187344Y-39393698D01*
X68177051Y-39429722D01*
X68157562Y-39489739D01*
X68130582Y-39569035D01*
X68097812Y-39662899D01*
X68060954Y-39766621D01*
X68021712Y-39875486D01*
X67981789Y-39984785D01*
X67942886Y-40089805D01*
X67906706Y-40185835D01*
X67874953Y-40268162D01*
X67849328Y-40332075D01*
X67831534Y-40372862D01*
X67829482Y-40377219D01*
X67821344Y-40400673D01*
X67820495Y-40426631D01*
X67828411Y-40462265D01*
X67846565Y-40514748D01*
X67876433Y-40591252D01*
X67898089Y-40648073D01*
X67919944Y-40712313D01*
X67933206Y-40760351D01*
X67935580Y-40784690D01*
X67934514Y-40786811D01*
X67909902Y-40800581D01*
X67865968Y-40807220D01*
X67815025Y-40806741D01*
X67769382Y-40799158D01*
X67741354Y-40784483D01*
X67733769Y-40767932D01*
X67715878Y-40723074D01*
X67689369Y-40654149D01*
X67655730Y-40565203D01*
X67616450Y-40460287D01*
X67573018Y-40343447D01*
X67526922Y-40218733D01*
X67479650Y-40090191D01*
X67432692Y-39961872D01*
X67387535Y-39837823D01*
X67345668Y-39722091D01*
X67308579Y-39618726D01*
X67277758Y-39531776D01*
X67254692Y-39465289D01*
X67240870Y-39423313D01*
X67237769Y-39411005D01*
X67242927Y-39385806D01*
X67274745Y-39367905D01*
X67321916Y-39358837D01*
X67376007Y-39361033D01*
X67431709Y-39371482D01*
X67564417Y-39759241D01*
X67591172Y-39836914D01*
X67626164Y-39936893D01*
X67656693Y-40022260D01*
X67681168Y-40088647D01*
X67697998Y-40131684D01*
X67705592Y-40147001D01*
X67709762Y-40139786D01*
X67724109Y-40105195D01*
X67746786Y-40045971D01*
X67776158Y-39966494D01*
X67810589Y-39871144D01*
X67848445Y-39764302D01*
X67882220Y-39668509D01*
X67920909Y-39561649D01*
X67952490Y-39480998D01*
X67979211Y-39423178D01*
X68003319Y-39384812D01*
X68027061Y-39362521D01*
X68052686Y-39352929D01*
X68082439Y-39352657D01*
X68118569Y-39358328D01*
G36*
X68118569Y-39358328D02*
G01*
X68125694Y-39359762D01*
X68166490Y-39372003D01*
X68188338Y-39385437D01*
X68187344Y-39393698D01*
X68177051Y-39429722D01*
X68157562Y-39489739D01*
X68130582Y-39569035D01*
X68097812Y-39662899D01*
X68060954Y-39766621D01*
X68021712Y-39875486D01*
X67981789Y-39984785D01*
X67942886Y-40089805D01*
X67906706Y-40185835D01*
X67874953Y-40268162D01*
X67849328Y-40332075D01*
X67831534Y-40372862D01*
X67829482Y-40377219D01*
X67821344Y-40400673D01*
X67820495Y-40426631D01*
X67828411Y-40462265D01*
X67846565Y-40514748D01*
X67876433Y-40591252D01*
X67898089Y-40648073D01*
X67919944Y-40712313D01*
X67933206Y-40760351D01*
X67935580Y-40784690D01*
X67934514Y-40786811D01*
X67909902Y-40800581D01*
X67865968Y-40807220D01*
X67815025Y-40806741D01*
X67769382Y-40799158D01*
X67741354Y-40784483D01*
X67733769Y-40767932D01*
X67715878Y-40723074D01*
X67689369Y-40654149D01*
X67655730Y-40565203D01*
X67616450Y-40460287D01*
X67573018Y-40343447D01*
X67526922Y-40218733D01*
X67479650Y-40090191D01*
X67432692Y-39961872D01*
X67387535Y-39837823D01*
X67345668Y-39722091D01*
X67308579Y-39618726D01*
X67277758Y-39531776D01*
X67254692Y-39465289D01*
X67240870Y-39423313D01*
X67237769Y-39411005D01*
X67242927Y-39385806D01*
X67274745Y-39367905D01*
X67321916Y-39358837D01*
X67376007Y-39361033D01*
X67431709Y-39371482D01*
X67564417Y-39759241D01*
X67591172Y-39836914D01*
X67626164Y-39936893D01*
X67656693Y-40022260D01*
X67681168Y-40088647D01*
X67697998Y-40131684D01*
X67705592Y-40147001D01*
X67709762Y-40139786D01*
X67724109Y-40105195D01*
X67746786Y-40045971D01*
X67776158Y-39966494D01*
X67810589Y-39871144D01*
X67848445Y-39764302D01*
X67882220Y-39668509D01*
X67920909Y-39561649D01*
X67952490Y-39480998D01*
X67979211Y-39423178D01*
X68003319Y-39384812D01*
X68027061Y-39362521D01*
X68052686Y-39352929D01*
X68082439Y-39352657D01*
X68118569Y-39358328D01*
G37*
X69221126Y-40409667D02*
X69136459Y-40409667D01*
X69092617Y-40408994D01*
X69063174Y-40402978D01*
X69049922Y-40385489D01*
X69043216Y-40350400D01*
X69041687Y-40340760D01*
X69032313Y-40310123D01*
X69020832Y-40312653D01*
X69006484Y-40326690D01*
X68968941Y-40353842D01*
X68919341Y-40384461D01*
X68827001Y-40423112D01*
X68719034Y-40437178D01*
X68612945Y-40420887D01*
X68514809Y-40375271D01*
X68430696Y-40301363D01*
X68377439Y-40224346D01*
X68338181Y-40127278D01*
X68316143Y-40010220D01*
X68309835Y-39867940D01*
X68511401Y-39867940D01*
X68517160Y-39982947D01*
X68542057Y-40085277D01*
X68584347Y-40168862D01*
X68642284Y-40227634D01*
X68651842Y-40233831D01*
X68720439Y-40260466D01*
X68792549Y-40256617D01*
X68870564Y-40221733D01*
X68956875Y-40155264D01*
X69026392Y-40092459D01*
X69026392Y-39694313D01*
X68950062Y-39623955D01*
X68922369Y-39599348D01*
X68857831Y-39552490D01*
X68797454Y-39527836D01*
X68731240Y-39520667D01*
X68706095Y-39522507D01*
X68639030Y-39548792D01*
X68584150Y-39604486D01*
X68543191Y-39687359D01*
X68517887Y-39795176D01*
X68511401Y-39867940D01*
X68309835Y-39867940D01*
X68309829Y-39867800D01*
X68315843Y-39751137D01*
X68338323Y-39630595D01*
X68378615Y-39532783D01*
X68437981Y-39453623D01*
X68455292Y-39436697D01*
X68524705Y-39386729D01*
X68604512Y-39359547D01*
X68704659Y-39351333D01*
X68706270Y-39351335D01*
X68808274Y-39360337D01*
X68892642Y-39389648D01*
X68971359Y-39443406D01*
X69026392Y-39489811D01*
X69026392Y-39193784D01*
X69026396Y-39179438D01*
X69026864Y-39074521D01*
X69028389Y-38998288D01*
X69031378Y-38946103D01*
X69036235Y-38913331D01*
X69043366Y-38895334D01*
X69053177Y-38887479D01*
X69098337Y-38878118D01*
X69156185Y-38881200D01*
X69201170Y-38898367D01*
X69204896Y-38901598D01*
X69211167Y-38911133D01*
X69216249Y-38927493D01*
X69220237Y-38953683D01*
X69223228Y-38992705D01*
X69225316Y-39047566D01*
X69226598Y-39121270D01*
X69227169Y-39216821D01*
X69227124Y-39337223D01*
X69226561Y-39485481D01*
X69225573Y-39664600D01*
X69225395Y-39694313D01*
X69221126Y-40409667D01*
G36*
X69221126Y-40409667D02*
G01*
X69136459Y-40409667D01*
X69092617Y-40408994D01*
X69063174Y-40402978D01*
X69049922Y-40385489D01*
X69043216Y-40350400D01*
X69041687Y-40340760D01*
X69032313Y-40310123D01*
X69020832Y-40312653D01*
X69006484Y-40326690D01*
X68968941Y-40353842D01*
X68919341Y-40384461D01*
X68827001Y-40423112D01*
X68719034Y-40437178D01*
X68612945Y-40420887D01*
X68514809Y-40375271D01*
X68430696Y-40301363D01*
X68377439Y-40224346D01*
X68338181Y-40127278D01*
X68316143Y-40010220D01*
X68309835Y-39867940D01*
X68511401Y-39867940D01*
X68517160Y-39982947D01*
X68542057Y-40085277D01*
X68584347Y-40168862D01*
X68642284Y-40227634D01*
X68651842Y-40233831D01*
X68720439Y-40260466D01*
X68792549Y-40256617D01*
X68870564Y-40221733D01*
X68956875Y-40155264D01*
X69026392Y-40092459D01*
X69026392Y-39694313D01*
X68950062Y-39623955D01*
X68922369Y-39599348D01*
X68857831Y-39552490D01*
X68797454Y-39527836D01*
X68731240Y-39520667D01*
X68706095Y-39522507D01*
X68639030Y-39548792D01*
X68584150Y-39604486D01*
X68543191Y-39687359D01*
X68517887Y-39795176D01*
X68511401Y-39867940D01*
X68309835Y-39867940D01*
X68309829Y-39867800D01*
X68315843Y-39751137D01*
X68338323Y-39630595D01*
X68378615Y-39532783D01*
X68437981Y-39453623D01*
X68455292Y-39436697D01*
X68524705Y-39386729D01*
X68604512Y-39359547D01*
X68704659Y-39351333D01*
X68706270Y-39351335D01*
X68808274Y-39360337D01*
X68892642Y-39389648D01*
X68971359Y-39443406D01*
X69026392Y-39489811D01*
X69026392Y-39193784D01*
X69026396Y-39179438D01*
X69026864Y-39074521D01*
X69028389Y-38998288D01*
X69031378Y-38946103D01*
X69036235Y-38913331D01*
X69043366Y-38895334D01*
X69053177Y-38887479D01*
X69098337Y-38878118D01*
X69156185Y-38881200D01*
X69201170Y-38898367D01*
X69204896Y-38901598D01*
X69211167Y-38911133D01*
X69216249Y-38927493D01*
X69220237Y-38953683D01*
X69223228Y-38992705D01*
X69225316Y-39047566D01*
X69226598Y-39121270D01*
X69227169Y-39216821D01*
X69227124Y-39337223D01*
X69226561Y-39485481D01*
X69225573Y-39664600D01*
X69225395Y-39694313D01*
X69221126Y-40409667D01*
G37*
X64904401Y-38995837D02*
X64956539Y-38997701D01*
X64986657Y-39003869D01*
X65002950Y-39016854D01*
X65013611Y-39039169D01*
X65013888Y-39039993D01*
X65017357Y-39067771D01*
X65020452Y-39123835D01*
X65023155Y-39203744D01*
X65025448Y-39303061D01*
X65027316Y-39417345D01*
X65028741Y-39542159D01*
X65029706Y-39673062D01*
X65030194Y-39805616D01*
X65030189Y-39935382D01*
X65029672Y-40057921D01*
X65028629Y-40168794D01*
X65027040Y-40263562D01*
X65024890Y-40337786D01*
X65022161Y-40387026D01*
X65018837Y-40406845D01*
X65007815Y-40411119D01*
X64970085Y-40416166D01*
X64917448Y-40418134D01*
X64827348Y-40418134D01*
X64822903Y-39809540D01*
X64818459Y-39200947D01*
X64667924Y-39593640D01*
X64648106Y-39645319D01*
X64599499Y-39771921D01*
X64550672Y-39898920D01*
X64504705Y-40018310D01*
X64464680Y-40122083D01*
X64433678Y-40202234D01*
X64349968Y-40418134D01*
X64170594Y-40418134D01*
X63927260Y-39815620D01*
X63683925Y-39213107D01*
X63675459Y-39811387D01*
X63666992Y-40409667D01*
X63480725Y-40409667D01*
X63476298Y-39725836D01*
X63476070Y-39689035D01*
X63475337Y-39506683D01*
X63475501Y-39356118D01*
X63476600Y-39235590D01*
X63478669Y-39143351D01*
X63481747Y-39077651D01*
X63485869Y-39036740D01*
X63491072Y-39018869D01*
X63504756Y-39009583D01*
X63552605Y-38999158D01*
X63632247Y-38995733D01*
X63690104Y-38996728D01*
X63735882Y-39001833D01*
X63765603Y-39013419D01*
X63788911Y-39033833D01*
X63795956Y-39044423D01*
X63817101Y-39085283D01*
X63848007Y-39151176D01*
X63886870Y-39238040D01*
X63931886Y-39341813D01*
X63981251Y-39458435D01*
X64033163Y-39583841D01*
X64065787Y-39663284D01*
X64114158Y-39780096D01*
X64157629Y-39883912D01*
X64194635Y-39971054D01*
X64223608Y-40037844D01*
X64242983Y-40080607D01*
X64251192Y-40095664D01*
X64255102Y-40089092D01*
X64270252Y-40055275D01*
X64295156Y-39995984D01*
X64328309Y-39914912D01*
X64368207Y-39815750D01*
X64413344Y-39702192D01*
X64462215Y-39577929D01*
X64493285Y-39498854D01*
X64550610Y-39355297D01*
X64597937Y-39240559D01*
X64636195Y-39152550D01*
X64666307Y-39089182D01*
X64689200Y-39048364D01*
X64705798Y-39028006D01*
X64714378Y-39021785D01*
X64748955Y-39006094D01*
X64798346Y-38998019D01*
X64871962Y-38995733D01*
X64904401Y-38995837D01*
G36*
X64904401Y-38995837D02*
G01*
X64956539Y-38997701D01*
X64986657Y-39003869D01*
X65002950Y-39016854D01*
X65013611Y-39039169D01*
X65013888Y-39039993D01*
X65017357Y-39067771D01*
X65020452Y-39123835D01*
X65023155Y-39203744D01*
X65025448Y-39303061D01*
X65027316Y-39417345D01*
X65028741Y-39542159D01*
X65029706Y-39673062D01*
X65030194Y-39805616D01*
X65030189Y-39935382D01*
X65029672Y-40057921D01*
X65028629Y-40168794D01*
X65027040Y-40263562D01*
X65024890Y-40337786D01*
X65022161Y-40387026D01*
X65018837Y-40406845D01*
X65007815Y-40411119D01*
X64970085Y-40416166D01*
X64917448Y-40418134D01*
X64827348Y-40418134D01*
X64822903Y-39809540D01*
X64818459Y-39200947D01*
X64667924Y-39593640D01*
X64648106Y-39645319D01*
X64599499Y-39771921D01*
X64550672Y-39898920D01*
X64504705Y-40018310D01*
X64464680Y-40122083D01*
X64433678Y-40202234D01*
X64349968Y-40418134D01*
X64170594Y-40418134D01*
X63927260Y-39815620D01*
X63683925Y-39213107D01*
X63675459Y-39811387D01*
X63666992Y-40409667D01*
X63480725Y-40409667D01*
X63476298Y-39725836D01*
X63476070Y-39689035D01*
X63475337Y-39506683D01*
X63475501Y-39356118D01*
X63476600Y-39235590D01*
X63478669Y-39143351D01*
X63481747Y-39077651D01*
X63485869Y-39036740D01*
X63491072Y-39018869D01*
X63504756Y-39009583D01*
X63552605Y-38999158D01*
X63632247Y-38995733D01*
X63690104Y-38996728D01*
X63735882Y-39001833D01*
X63765603Y-39013419D01*
X63788911Y-39033833D01*
X63795956Y-39044423D01*
X63817101Y-39085283D01*
X63848007Y-39151176D01*
X63886870Y-39238040D01*
X63931886Y-39341813D01*
X63981251Y-39458435D01*
X64033163Y-39583841D01*
X64065787Y-39663284D01*
X64114158Y-39780096D01*
X64157629Y-39883912D01*
X64194635Y-39971054D01*
X64223608Y-40037844D01*
X64242983Y-40080607D01*
X64251192Y-40095664D01*
X64255102Y-40089092D01*
X64270252Y-40055275D01*
X64295156Y-39995984D01*
X64328309Y-39914912D01*
X64368207Y-39815750D01*
X64413344Y-39702192D01*
X64462215Y-39577929D01*
X64493285Y-39498854D01*
X64550610Y-39355297D01*
X64597937Y-39240559D01*
X64636195Y-39152550D01*
X64666307Y-39089182D01*
X64689200Y-39048364D01*
X64705798Y-39028006D01*
X64714378Y-39021785D01*
X64748955Y-39006094D01*
X64798346Y-38998019D01*
X64871962Y-38995733D01*
X64904401Y-38995837D01*
G37*
X66588741Y-39905363D02*
X66556692Y-40044143D01*
X66506537Y-40167353D01*
X66438451Y-40268358D01*
X66433223Y-40274154D01*
X66352938Y-40338683D01*
X66249847Y-40387931D01*
X66131523Y-40420403D01*
X66005539Y-40434604D01*
X65879468Y-40429036D01*
X65760884Y-40402205D01*
X65653442Y-40365890D01*
X65577497Y-40428121D01*
X65572926Y-40431804D01*
X65517176Y-40471592D01*
X65446482Y-40515914D01*
X65374995Y-40555842D01*
X65312430Y-40586626D01*
X65245492Y-40612891D01*
X65199444Y-40619743D01*
X65170536Y-40607535D01*
X65155016Y-40576622D01*
X65153672Y-40570899D01*
X65154032Y-40506721D01*
X65185965Y-40452297D01*
X65250259Y-40406219D01*
X65267524Y-40396955D01*
X65327627Y-40362171D01*
X65386779Y-40324781D01*
X65437855Y-40289618D01*
X65473734Y-40261519D01*
X65487293Y-40245319D01*
X65485927Y-40240238D01*
X65471405Y-40212454D01*
X65446120Y-40172652D01*
X65418600Y-40128995D01*
X65387656Y-40065564D01*
X65366150Y-39995979D01*
X65352649Y-39913364D01*
X65345725Y-39810841D01*
X65344731Y-39738659D01*
X65542475Y-39738659D01*
X65557734Y-39861546D01*
X65589141Y-39975528D01*
X65635671Y-40074916D01*
X65696300Y-40154027D01*
X65770003Y-40207173D01*
X65775177Y-40209608D01*
X65879452Y-40243200D01*
X65987895Y-40252494D01*
X66092687Y-40238489D01*
X66186010Y-40202183D01*
X66260045Y-40144576D01*
X66292349Y-40101941D01*
X66338275Y-40006259D01*
X66368894Y-39892047D01*
X66383980Y-39766903D01*
X66383313Y-39638428D01*
X66366668Y-39514219D01*
X66333823Y-39401877D01*
X66284555Y-39309000D01*
X66231717Y-39249479D01*
X66146107Y-39190876D01*
X66049715Y-39157156D01*
X65948524Y-39147960D01*
X65848515Y-39162927D01*
X65755669Y-39201699D01*
X65675970Y-39263915D01*
X65615398Y-39349217D01*
X65603834Y-39373419D01*
X65564501Y-39488909D01*
X65544389Y-39612551D01*
X65542475Y-39738659D01*
X65344731Y-39738659D01*
X65343945Y-39681534D01*
X65344406Y-39601394D01*
X65346267Y-39520023D01*
X65350333Y-39459405D01*
X65357453Y-39412086D01*
X65368475Y-39370613D01*
X65384247Y-39327534D01*
X65422738Y-39250548D01*
X65499109Y-39150385D01*
X65593717Y-39068836D01*
X65698992Y-39013457D01*
X65738376Y-39001215D01*
X65842077Y-38982306D01*
X65957220Y-38974979D01*
X66069601Y-38979736D01*
X66165018Y-38997074D01*
X66221837Y-39017537D01*
X66317776Y-39068497D01*
X66403256Y-39133064D01*
X66466614Y-39203266D01*
X66471244Y-39210105D01*
X66532360Y-39327224D01*
X66574492Y-39461943D01*
X66597817Y-39607629D01*
X66602508Y-39757647D01*
X66601645Y-39766903D01*
X66588741Y-39905363D01*
G36*
X66588741Y-39905363D02*
G01*
X66556692Y-40044143D01*
X66506537Y-40167353D01*
X66438451Y-40268358D01*
X66433223Y-40274154D01*
X66352938Y-40338683D01*
X66249847Y-40387931D01*
X66131523Y-40420403D01*
X66005539Y-40434604D01*
X65879468Y-40429036D01*
X65760884Y-40402205D01*
X65653442Y-40365890D01*
X65577497Y-40428121D01*
X65572926Y-40431804D01*
X65517176Y-40471592D01*
X65446482Y-40515914D01*
X65374995Y-40555842D01*
X65312430Y-40586626D01*
X65245492Y-40612891D01*
X65199444Y-40619743D01*
X65170536Y-40607535D01*
X65155016Y-40576622D01*
X65153672Y-40570899D01*
X65154032Y-40506721D01*
X65185965Y-40452297D01*
X65250259Y-40406219D01*
X65267524Y-40396955D01*
X65327627Y-40362171D01*
X65386779Y-40324781D01*
X65437855Y-40289618D01*
X65473734Y-40261519D01*
X65487293Y-40245319D01*
X65485927Y-40240238D01*
X65471405Y-40212454D01*
X65446120Y-40172652D01*
X65418600Y-40128995D01*
X65387656Y-40065564D01*
X65366150Y-39995979D01*
X65352649Y-39913364D01*
X65345725Y-39810841D01*
X65344731Y-39738659D01*
X65542475Y-39738659D01*
X65557734Y-39861546D01*
X65589141Y-39975528D01*
X65635671Y-40074916D01*
X65696300Y-40154027D01*
X65770003Y-40207173D01*
X65775177Y-40209608D01*
X65879452Y-40243200D01*
X65987895Y-40252494D01*
X66092687Y-40238489D01*
X66186010Y-40202183D01*
X66260045Y-40144576D01*
X66292349Y-40101941D01*
X66338275Y-40006259D01*
X66368894Y-39892047D01*
X66383980Y-39766903D01*
X66383313Y-39638428D01*
X66366668Y-39514219D01*
X66333823Y-39401877D01*
X66284555Y-39309000D01*
X66231717Y-39249479D01*
X66146107Y-39190876D01*
X66049715Y-39157156D01*
X65948524Y-39147960D01*
X65848515Y-39162927D01*
X65755669Y-39201699D01*
X65675970Y-39263915D01*
X65615398Y-39349217D01*
X65603834Y-39373419D01*
X65564501Y-39488909D01*
X65544389Y-39612551D01*
X65542475Y-39738659D01*
X65344731Y-39738659D01*
X65343945Y-39681534D01*
X65344406Y-39601394D01*
X65346267Y-39520023D01*
X65350333Y-39459405D01*
X65357453Y-39412086D01*
X65368475Y-39370613D01*
X65384247Y-39327534D01*
X65422738Y-39250548D01*
X65499109Y-39150385D01*
X65593717Y-39068836D01*
X65698992Y-39013457D01*
X65738376Y-39001215D01*
X65842077Y-38982306D01*
X65957220Y-38974979D01*
X66069601Y-38979736D01*
X66165018Y-38997074D01*
X66221837Y-39017537D01*
X66317776Y-39068497D01*
X66403256Y-39133064D01*
X66466614Y-39203266D01*
X66471244Y-39210105D01*
X66532360Y-39327224D01*
X66574492Y-39461943D01*
X66597817Y-39607629D01*
X66602508Y-39757647D01*
X66601645Y-39766903D01*
X66588741Y-39905363D01*
G37*
X75494782Y-39356053D02*
X75531232Y-39377478D01*
X75545726Y-39410752D01*
X75542038Y-39429559D01*
X75529663Y-39477051D01*
X75510031Y-39547449D01*
X75484652Y-39635726D01*
X75455037Y-39736854D01*
X75422697Y-39845806D01*
X75389142Y-39957554D01*
X75355883Y-40067071D01*
X75324431Y-40169329D01*
X75296297Y-40259301D01*
X75272990Y-40331960D01*
X75256023Y-40382277D01*
X75246904Y-40405226D01*
X75228974Y-40413228D01*
X75186941Y-40417849D01*
X75132645Y-40418143D01*
X75077353Y-40414499D01*
X75032330Y-40407311D01*
X75008841Y-40396967D01*
X75008638Y-40396685D01*
X74999199Y-40373130D01*
X74983119Y-40322444D01*
X74962004Y-40250119D01*
X74937458Y-40161651D01*
X74911090Y-40062534D01*
X74910034Y-40058486D01*
X74884001Y-39959719D01*
X74860319Y-39871800D01*
X74840505Y-39800217D01*
X74826079Y-39750458D01*
X74818559Y-39728013D01*
X74816338Y-39728179D01*
X74805352Y-39749957D01*
X74787438Y-39798185D01*
X74764063Y-39868528D01*
X74736696Y-39956649D01*
X74706803Y-40058213D01*
X74605926Y-40409667D01*
X74497579Y-40414773D01*
X74444613Y-40415147D01*
X74396920Y-40410898D01*
X74372076Y-40402724D01*
X74371833Y-40402450D01*
X74362355Y-40381098D01*
X74344746Y-40332475D01*
X74320550Y-40261482D01*
X74291312Y-40173022D01*
X74258576Y-40071996D01*
X74223886Y-39963308D01*
X74188787Y-39851860D01*
X74154823Y-39742552D01*
X74123539Y-39640288D01*
X74096478Y-39549970D01*
X74075186Y-39476500D01*
X74061207Y-39424780D01*
X74056085Y-39399712D01*
X74063527Y-39379507D01*
X74094517Y-39359536D01*
X74139608Y-39350560D01*
X74187870Y-39354306D01*
X74228368Y-39372500D01*
X74232731Y-39378241D01*
X74248559Y-39413055D01*
X74271001Y-39474169D01*
X74298541Y-39557091D01*
X74329659Y-39657328D01*
X74362838Y-39770387D01*
X74381168Y-39834083D01*
X74410702Y-39934665D01*
X74436736Y-40020805D01*
X74457861Y-40087961D01*
X74472666Y-40131592D01*
X74479744Y-40147154D01*
X74482870Y-40141725D01*
X74494651Y-40109207D01*
X74513341Y-40051279D01*
X74537532Y-39972481D01*
X74565811Y-39877352D01*
X74596770Y-39770434D01*
X74613739Y-39711944D01*
X74645272Y-39607639D01*
X74674448Y-39516549D01*
X74699624Y-39443538D01*
X74719161Y-39393471D01*
X74731419Y-39371210D01*
X74735612Y-39368394D01*
X74771201Y-39358940D01*
X74820146Y-39356743D01*
X74866927Y-39361603D01*
X74896024Y-39373321D01*
X74899685Y-39382686D01*
X74911430Y-39420771D01*
X74929671Y-39483806D01*
X74953112Y-39567217D01*
X74980457Y-39666427D01*
X75010409Y-39776861D01*
X75116892Y-40172500D01*
X75144140Y-40087883D01*
X75155433Y-40051446D01*
X75175314Y-39985115D01*
X75200563Y-39899451D01*
X75229096Y-39801540D01*
X75258824Y-39698467D01*
X75287273Y-39602871D01*
X75315224Y-39515663D01*
X75340129Y-39444501D01*
X75360046Y-39394932D01*
X75373030Y-39372500D01*
X75398206Y-39358093D01*
X75446925Y-39348812D01*
X75494782Y-39356053D01*
G36*
X75494782Y-39356053D02*
G01*
X75531232Y-39377478D01*
X75545726Y-39410752D01*
X75542038Y-39429559D01*
X75529663Y-39477051D01*
X75510031Y-39547449D01*
X75484652Y-39635726D01*
X75455037Y-39736854D01*
X75422697Y-39845806D01*
X75389142Y-39957554D01*
X75355883Y-40067071D01*
X75324431Y-40169329D01*
X75296297Y-40259301D01*
X75272990Y-40331960D01*
X75256023Y-40382277D01*
X75246904Y-40405226D01*
X75228974Y-40413228D01*
X75186941Y-40417849D01*
X75132645Y-40418143D01*
X75077353Y-40414499D01*
X75032330Y-40407311D01*
X75008841Y-40396967D01*
X75008638Y-40396685D01*
X74999199Y-40373130D01*
X74983119Y-40322444D01*
X74962004Y-40250119D01*
X74937458Y-40161651D01*
X74911090Y-40062534D01*
X74910034Y-40058486D01*
X74884001Y-39959719D01*
X74860319Y-39871800D01*
X74840505Y-39800217D01*
X74826079Y-39750458D01*
X74818559Y-39728013D01*
X74816338Y-39728179D01*
X74805352Y-39749957D01*
X74787438Y-39798185D01*
X74764063Y-39868528D01*
X74736696Y-39956649D01*
X74706803Y-40058213D01*
X74605926Y-40409667D01*
X74497579Y-40414773D01*
X74444613Y-40415147D01*
X74396920Y-40410898D01*
X74372076Y-40402724D01*
X74371833Y-40402450D01*
X74362355Y-40381098D01*
X74344746Y-40332475D01*
X74320550Y-40261482D01*
X74291312Y-40173022D01*
X74258576Y-40071996D01*
X74223886Y-39963308D01*
X74188787Y-39851860D01*
X74154823Y-39742552D01*
X74123539Y-39640288D01*
X74096478Y-39549970D01*
X74075186Y-39476500D01*
X74061207Y-39424780D01*
X74056085Y-39399712D01*
X74063527Y-39379507D01*
X74094517Y-39359536D01*
X74139608Y-39350560D01*
X74187870Y-39354306D01*
X74228368Y-39372500D01*
X74232731Y-39378241D01*
X74248559Y-39413055D01*
X74271001Y-39474169D01*
X74298541Y-39557091D01*
X74329659Y-39657328D01*
X74362838Y-39770387D01*
X74381168Y-39834083D01*
X74410702Y-39934665D01*
X74436736Y-40020805D01*
X74457861Y-40087961D01*
X74472666Y-40131592D01*
X74479744Y-40147154D01*
X74482870Y-40141725D01*
X74494651Y-40109207D01*
X74513341Y-40051279D01*
X74537532Y-39972481D01*
X74565811Y-39877352D01*
X74596770Y-39770434D01*
X74613739Y-39711944D01*
X74645272Y-39607639D01*
X74674448Y-39516549D01*
X74699624Y-39443538D01*
X74719161Y-39393471D01*
X74731419Y-39371210D01*
X74735612Y-39368394D01*
X74771201Y-39358940D01*
X74820146Y-39356743D01*
X74866927Y-39361603D01*
X74896024Y-39373321D01*
X74899685Y-39382686D01*
X74911430Y-39420771D01*
X74929671Y-39483806D01*
X74953112Y-39567217D01*
X74980457Y-39666427D01*
X75010409Y-39776861D01*
X75116892Y-40172500D01*
X75144140Y-40087883D01*
X75155433Y-40051446D01*
X75175314Y-39985115D01*
X75200563Y-39899451D01*
X75229096Y-39801540D01*
X75258824Y-39698467D01*
X75287273Y-39602871D01*
X75315224Y-39515663D01*
X75340129Y-39444501D01*
X75360046Y-39394932D01*
X75373030Y-39372500D01*
X75398206Y-39358093D01*
X75446925Y-39348812D01*
X75494782Y-39356053D01*
G37*
X81667126Y-39105800D02*
X81518959Y-39110693D01*
X81370792Y-39115585D01*
X81370792Y-39265348D01*
X81518959Y-39270241D01*
X81667126Y-39275133D01*
X81667126Y-39444467D01*
X81518959Y-39449359D01*
X81370792Y-39454252D01*
X81370792Y-39622267D01*
X81675592Y-39622267D01*
X81675592Y-39791600D01*
X81370792Y-39791600D01*
X81370792Y-39959615D01*
X81518959Y-39964508D01*
X81667126Y-39969400D01*
X81667126Y-40138734D01*
X81518959Y-40143626D01*
X81370792Y-40148519D01*
X81370792Y-40299600D01*
X81502025Y-40299859D01*
X81513823Y-40299939D01*
X81578104Y-40302359D01*
X81628700Y-40307440D01*
X81655524Y-40314238D01*
X81656603Y-40314975D01*
X81670892Y-40345072D01*
X81672457Y-40402878D01*
X81667126Y-40477400D01*
X81518959Y-40482293D01*
X81370792Y-40487185D01*
X81370792Y-40554803D01*
X81369983Y-40578322D01*
X81347645Y-40677791D01*
X81298284Y-40763750D01*
X81226731Y-40831332D01*
X81137813Y-40875669D01*
X81036359Y-40891895D01*
X80964392Y-40892267D01*
X80964392Y-41036514D01*
X80963185Y-41108931D01*
X80958729Y-41154813D01*
X80949696Y-41181345D01*
X80934759Y-41195710D01*
X80933856Y-41196232D01*
X80873257Y-41212702D01*
X80810879Y-41196471D01*
X80805672Y-41193424D01*
X80791346Y-41178656D01*
X80782990Y-41152396D01*
X80779089Y-41107194D01*
X80778126Y-41035604D01*
X80778126Y-40892267D01*
X80625726Y-40892267D01*
X80625726Y-41026524D01*
X80625528Y-41049691D01*
X80619853Y-41128100D01*
X80604841Y-41178722D01*
X80578475Y-41205905D01*
X80538736Y-41214000D01*
X80503389Y-41211644D01*
X80470713Y-41198380D01*
X80451258Y-41168377D01*
X80441886Y-41115997D01*
X80439459Y-41035604D01*
X80439459Y-40892267D01*
X80270125Y-40892267D01*
X80270125Y-41194376D01*
X80219706Y-41205450D01*
X80209198Y-41207683D01*
X80160845Y-41213771D01*
X80129326Y-41205161D01*
X80111142Y-41177092D01*
X80102797Y-41124801D01*
X80100792Y-41043526D01*
X80100792Y-40892267D01*
X79931459Y-40892267D01*
X79931459Y-41036563D01*
X79931115Y-41096300D01*
X79928654Y-41144595D01*
X79922062Y-41172949D01*
X79909328Y-41189019D01*
X79888443Y-41200459D01*
X79860317Y-41209520D01*
X79799543Y-41203966D01*
X79778116Y-41195008D01*
X79764010Y-41181293D01*
X79755936Y-41155806D01*
X79751616Y-41111186D01*
X79748766Y-41040071D01*
X79743874Y-40892267D01*
X79592792Y-40892267D01*
X79592792Y-41026524D01*
X79588770Y-41114452D01*
X79574792Y-41172737D01*
X79548010Y-41204711D01*
X79505571Y-41213774D01*
X79444625Y-41203327D01*
X79428787Y-41197634D01*
X79416554Y-41185166D01*
X79409875Y-41159857D01*
X79407086Y-41114702D01*
X79406525Y-41042692D01*
X79406525Y-40892267D01*
X79338248Y-40892267D01*
X79243168Y-40879567D01*
X79151591Y-40837753D01*
X79077258Y-40769634D01*
X79023299Y-40678165D01*
X78992846Y-40566300D01*
X78981117Y-40485867D01*
X78838544Y-40485867D01*
X78773002Y-40485496D01*
X78728498Y-40482957D01*
X78703808Y-40476131D01*
X78691653Y-40462903D01*
X78684749Y-40441156D01*
X78681159Y-40403299D01*
X78689019Y-40352256D01*
X78695767Y-40335494D01*
X78708625Y-40319959D01*
X78732520Y-40310999D01*
X78775059Y-40306199D01*
X78843852Y-40303149D01*
X78983192Y-40298231D01*
X78983192Y-40147200D01*
X78848321Y-40147200D01*
X78793630Y-40146132D01*
X78734546Y-40138763D01*
X78699497Y-40121284D01*
X78682705Y-40090104D01*
X78678392Y-40041633D01*
X78679419Y-40023135D01*
X78691002Y-39992111D01*
X78719854Y-39973096D01*
X78771411Y-39963551D01*
X78851112Y-39960934D01*
X78983192Y-39960934D01*
X78983192Y-39791600D01*
X78839581Y-39791600D01*
X78776827Y-39791248D01*
X78730714Y-39788824D01*
X78704913Y-39782340D01*
X78692198Y-39769816D01*
X78685346Y-39749267D01*
X78681122Y-39715683D01*
X78685346Y-39664600D01*
X78691175Y-39646127D01*
X78702768Y-39632714D01*
X78726550Y-39625588D01*
X78769746Y-39622767D01*
X78839581Y-39622267D01*
X78983192Y-39622267D01*
X78983192Y-39452934D01*
X78851112Y-39452934D01*
X78811521Y-39452454D01*
X78745121Y-39447042D01*
X78704424Y-39433561D01*
X78683994Y-39409472D01*
X78678392Y-39372234D01*
X78680112Y-39338257D01*
X78691973Y-39301552D01*
X78720110Y-39279778D01*
X78770300Y-39269346D01*
X78848321Y-39266667D01*
X78983192Y-39266667D01*
X78983192Y-39114267D01*
X78848321Y-39114267D01*
X78793630Y-39113199D01*
X78734546Y-39105830D01*
X78699497Y-39088350D01*
X78682705Y-39057170D01*
X78679651Y-39022848D01*
X79516592Y-39022848D01*
X79517798Y-39352191D01*
X79517955Y-39385625D01*
X79519592Y-39511730D01*
X79523482Y-39610834D01*
X79530567Y-39688507D01*
X79541785Y-39750314D01*
X79558076Y-39801824D01*
X79580380Y-39848605D01*
X79609638Y-39896223D01*
X79662700Y-39962490D01*
X79757473Y-40037378D01*
X79876186Y-40090128D01*
X80020359Y-40121574D01*
X80100792Y-40132342D01*
X80100792Y-40418134D01*
X80270125Y-40418134D01*
X80270125Y-40135230D01*
X80390121Y-40115413D01*
X80430429Y-40107771D01*
X80563477Y-40065525D01*
X80672325Y-40001648D01*
X80755643Y-39917096D01*
X80812101Y-39812822D01*
X80821384Y-39786004D01*
X80830609Y-39750573D01*
X80837217Y-39708854D01*
X80841627Y-39655334D01*
X80844258Y-39584497D01*
X80845528Y-39490827D01*
X80845859Y-39368809D01*
X80845859Y-39015022D01*
X80807759Y-39009482D01*
X80773421Y-39007405D01*
X80723092Y-39010226D01*
X80676526Y-39016511D01*
X80676526Y-39342660D01*
X80676483Y-39375839D01*
X80675016Y-39504213D01*
X80670715Y-39604955D01*
X80662577Y-39683125D01*
X80649596Y-39743783D01*
X80630768Y-39791989D01*
X80605087Y-39832803D01*
X80571549Y-39871284D01*
X80553350Y-39888005D01*
X80481728Y-39933423D01*
X80397887Y-39965630D01*
X80317909Y-39977867D01*
X80270125Y-39977867D01*
X80270125Y-39016511D01*
X80223559Y-39010226D01*
X80185793Y-39007516D01*
X80138892Y-39009482D01*
X80100792Y-39015022D01*
X80100792Y-39977867D01*
X80054225Y-39977772D01*
X80003837Y-39973667D01*
X79905102Y-39943856D01*
X79820064Y-39889763D01*
X79816159Y-39886326D01*
X79780570Y-39853259D01*
X79753271Y-39821544D01*
X79733027Y-39786151D01*
X79718602Y-39742048D01*
X79708761Y-39684205D01*
X79702270Y-39607590D01*
X79697892Y-39507172D01*
X79694392Y-39377921D01*
X79685925Y-39023508D01*
X79643592Y-39012657D01*
X79609951Y-39008276D01*
X79558925Y-39012327D01*
X79516592Y-39022848D01*
X78679651Y-39022848D01*
X78678392Y-39008700D01*
X78679327Y-38990983D01*
X78690691Y-38959594D01*
X78719311Y-38940338D01*
X78770626Y-38930658D01*
X78850075Y-38928000D01*
X78981117Y-38928000D01*
X78992846Y-38847567D01*
X79019329Y-38745544D01*
X79071180Y-38652001D01*
X79143704Y-38581526D01*
X79233770Y-38537074D01*
X79338248Y-38521600D01*
X79406525Y-38521600D01*
X79406525Y-38216800D01*
X79489380Y-38216800D01*
X79510326Y-38216989D01*
X79549235Y-38221028D01*
X79573479Y-38234955D01*
X79586514Y-38264762D01*
X79591799Y-38316442D01*
X79592792Y-38395985D01*
X79592792Y-38521600D01*
X79743874Y-38521600D01*
X79748766Y-38373434D01*
X79753659Y-38225267D01*
X79922992Y-38225267D01*
X79927885Y-38373434D01*
X79932777Y-38521600D01*
X80100792Y-38521600D01*
X80100792Y-38216800D01*
X80270125Y-38216800D01*
X80270125Y-38521600D01*
X80438140Y-38521600D01*
X80443033Y-38373434D01*
X80447925Y-38225267D01*
X80522447Y-38219935D01*
X80526080Y-38219691D01*
X80582537Y-38221936D01*
X80611088Y-38236868D01*
X80612349Y-38239376D01*
X80618916Y-38271047D01*
X80623604Y-38324739D01*
X80625466Y-38390367D01*
X80625726Y-38521600D01*
X80776807Y-38521600D01*
X80781700Y-38373434D01*
X80786592Y-38225267D01*
X80955925Y-38225267D01*
X80960818Y-38373434D01*
X80965711Y-38521600D01*
X81037663Y-38521600D01*
X81134811Y-38537385D01*
X81221938Y-38581581D01*
X81293295Y-38649089D01*
X81343498Y-38734810D01*
X81367161Y-38833644D01*
X81374881Y-38926741D01*
X81521003Y-38931604D01*
X81667126Y-38936467D01*
X81667126Y-39015022D01*
X81667126Y-39105800D01*
G36*
X81667126Y-39105800D02*
G01*
X81518959Y-39110693D01*
X81370792Y-39115585D01*
X81370792Y-39265348D01*
X81518959Y-39270241D01*
X81667126Y-39275133D01*
X81667126Y-39444467D01*
X81518959Y-39449359D01*
X81370792Y-39454252D01*
X81370792Y-39622267D01*
X81675592Y-39622267D01*
X81675592Y-39791600D01*
X81370792Y-39791600D01*
X81370792Y-39959615D01*
X81518959Y-39964508D01*
X81667126Y-39969400D01*
X81667126Y-40138734D01*
X81518959Y-40143626D01*
X81370792Y-40148519D01*
X81370792Y-40299600D01*
X81502025Y-40299859D01*
X81513823Y-40299939D01*
X81578104Y-40302359D01*
X81628700Y-40307440D01*
X81655524Y-40314238D01*
X81656603Y-40314975D01*
X81670892Y-40345072D01*
X81672457Y-40402878D01*
X81667126Y-40477400D01*
X81518959Y-40482293D01*
X81370792Y-40487185D01*
X81370792Y-40554803D01*
X81369983Y-40578322D01*
X81347645Y-40677791D01*
X81298284Y-40763750D01*
X81226731Y-40831332D01*
X81137813Y-40875669D01*
X81036359Y-40891895D01*
X80964392Y-40892267D01*
X80964392Y-41036514D01*
X80963185Y-41108931D01*
X80958729Y-41154813D01*
X80949696Y-41181345D01*
X80934759Y-41195710D01*
X80933856Y-41196232D01*
X80873257Y-41212702D01*
X80810879Y-41196471D01*
X80805672Y-41193424D01*
X80791346Y-41178656D01*
X80782990Y-41152396D01*
X80779089Y-41107194D01*
X80778126Y-41035604D01*
X80778126Y-40892267D01*
X80625726Y-40892267D01*
X80625726Y-41026524D01*
X80625528Y-41049691D01*
X80619853Y-41128100D01*
X80604841Y-41178722D01*
X80578475Y-41205905D01*
X80538736Y-41214000D01*
X80503389Y-41211644D01*
X80470713Y-41198380D01*
X80451258Y-41168377D01*
X80441886Y-41115997D01*
X80439459Y-41035604D01*
X80439459Y-40892267D01*
X80270125Y-40892267D01*
X80270125Y-41194376D01*
X80219706Y-41205450D01*
X80209198Y-41207683D01*
X80160845Y-41213771D01*
X80129326Y-41205161D01*
X80111142Y-41177092D01*
X80102797Y-41124801D01*
X80100792Y-41043526D01*
X80100792Y-40892267D01*
X79931459Y-40892267D01*
X79931459Y-41036563D01*
X79931115Y-41096300D01*
X79928654Y-41144595D01*
X79922062Y-41172949D01*
X79909328Y-41189019D01*
X79888443Y-41200459D01*
X79860317Y-41209520D01*
X79799543Y-41203966D01*
X79778116Y-41195008D01*
X79764010Y-41181293D01*
X79755936Y-41155806D01*
X79751616Y-41111186D01*
X79748766Y-41040071D01*
X79743874Y-40892267D01*
X79592792Y-40892267D01*
X79592792Y-41026524D01*
X79588770Y-41114452D01*
X79574792Y-41172737D01*
X79548010Y-41204711D01*
X79505571Y-41213774D01*
X79444625Y-41203327D01*
X79428787Y-41197634D01*
X79416554Y-41185166D01*
X79409875Y-41159857D01*
X79407086Y-41114702D01*
X79406525Y-41042692D01*
X79406525Y-40892267D01*
X79338248Y-40892267D01*
X79243168Y-40879567D01*
X79151591Y-40837753D01*
X79077258Y-40769634D01*
X79023299Y-40678165D01*
X78992846Y-40566300D01*
X78981117Y-40485867D01*
X78838544Y-40485867D01*
X78773002Y-40485496D01*
X78728498Y-40482957D01*
X78703808Y-40476131D01*
X78691653Y-40462903D01*
X78684749Y-40441156D01*
X78681159Y-40403299D01*
X78689019Y-40352256D01*
X78695767Y-40335494D01*
X78708625Y-40319959D01*
X78732520Y-40310999D01*
X78775059Y-40306199D01*
X78843852Y-40303149D01*
X78983192Y-40298231D01*
X78983192Y-40147200D01*
X78848321Y-40147200D01*
X78793630Y-40146132D01*
X78734546Y-40138763D01*
X78699497Y-40121284D01*
X78682705Y-40090104D01*
X78678392Y-40041633D01*
X78679419Y-40023135D01*
X78691002Y-39992111D01*
X78719854Y-39973096D01*
X78771411Y-39963551D01*
X78851112Y-39960934D01*
X78983192Y-39960934D01*
X78983192Y-39791600D01*
X78839581Y-39791600D01*
X78776827Y-39791248D01*
X78730714Y-39788824D01*
X78704913Y-39782340D01*
X78692198Y-39769816D01*
X78685346Y-39749267D01*
X78681122Y-39715683D01*
X78685346Y-39664600D01*
X78691175Y-39646127D01*
X78702768Y-39632714D01*
X78726550Y-39625588D01*
X78769746Y-39622767D01*
X78839581Y-39622267D01*
X78983192Y-39622267D01*
X78983192Y-39452934D01*
X78851112Y-39452934D01*
X78811521Y-39452454D01*
X78745121Y-39447042D01*
X78704424Y-39433561D01*
X78683994Y-39409472D01*
X78678392Y-39372234D01*
X78680112Y-39338257D01*
X78691973Y-39301552D01*
X78720110Y-39279778D01*
X78770300Y-39269346D01*
X78848321Y-39266667D01*
X78983192Y-39266667D01*
X78983192Y-39114267D01*
X78848321Y-39114267D01*
X78793630Y-39113199D01*
X78734546Y-39105830D01*
X78699497Y-39088350D01*
X78682705Y-39057170D01*
X78679651Y-39022848D01*
X79516592Y-39022848D01*
X79517798Y-39352191D01*
X79517955Y-39385625D01*
X79519592Y-39511730D01*
X79523482Y-39610834D01*
X79530567Y-39688507D01*
X79541785Y-39750314D01*
X79558076Y-39801824D01*
X79580380Y-39848605D01*
X79609638Y-39896223D01*
X79662700Y-39962490D01*
X79757473Y-40037378D01*
X79876186Y-40090128D01*
X80020359Y-40121574D01*
X80100792Y-40132342D01*
X80100792Y-40418134D01*
X80270125Y-40418134D01*
X80270125Y-40135230D01*
X80390121Y-40115413D01*
X80430429Y-40107771D01*
X80563477Y-40065525D01*
X80672325Y-40001648D01*
X80755643Y-39917096D01*
X80812101Y-39812822D01*
X80821384Y-39786004D01*
X80830609Y-39750573D01*
X80837217Y-39708854D01*
X80841627Y-39655334D01*
X80844258Y-39584497D01*
X80845528Y-39490827D01*
X80845859Y-39368809D01*
X80845859Y-39015022D01*
X80807759Y-39009482D01*
X80773421Y-39007405D01*
X80723092Y-39010226D01*
X80676526Y-39016511D01*
X80676526Y-39342660D01*
X80676483Y-39375839D01*
X80675016Y-39504213D01*
X80670715Y-39604955D01*
X80662577Y-39683125D01*
X80649596Y-39743783D01*
X80630768Y-39791989D01*
X80605087Y-39832803D01*
X80571549Y-39871284D01*
X80553350Y-39888005D01*
X80481728Y-39933423D01*
X80397887Y-39965630D01*
X80317909Y-39977867D01*
X80270125Y-39977867D01*
X80270125Y-39016511D01*
X80223559Y-39010226D01*
X80185793Y-39007516D01*
X80138892Y-39009482D01*
X80100792Y-39015022D01*
X80100792Y-39977867D01*
X80054225Y-39977772D01*
X80003837Y-39973667D01*
X79905102Y-39943856D01*
X79820064Y-39889763D01*
X79816159Y-39886326D01*
X79780570Y-39853259D01*
X79753271Y-39821544D01*
X79733027Y-39786151D01*
X79718602Y-39742048D01*
X79708761Y-39684205D01*
X79702270Y-39607590D01*
X79697892Y-39507172D01*
X79694392Y-39377921D01*
X79685925Y-39023508D01*
X79643592Y-39012657D01*
X79609951Y-39008276D01*
X79558925Y-39012327D01*
X79516592Y-39022848D01*
X78679651Y-39022848D01*
X78678392Y-39008700D01*
X78679327Y-38990983D01*
X78690691Y-38959594D01*
X78719311Y-38940338D01*
X78770626Y-38930658D01*
X78850075Y-38928000D01*
X78981117Y-38928000D01*
X78992846Y-38847567D01*
X79019329Y-38745544D01*
X79071180Y-38652001D01*
X79143704Y-38581526D01*
X79233770Y-38537074D01*
X79338248Y-38521600D01*
X79406525Y-38521600D01*
X79406525Y-38216800D01*
X79489380Y-38216800D01*
X79510326Y-38216989D01*
X79549235Y-38221028D01*
X79573479Y-38234955D01*
X79586514Y-38264762D01*
X79591799Y-38316442D01*
X79592792Y-38395985D01*
X79592792Y-38521600D01*
X79743874Y-38521600D01*
X79748766Y-38373434D01*
X79753659Y-38225267D01*
X79922992Y-38225267D01*
X79927885Y-38373434D01*
X79932777Y-38521600D01*
X80100792Y-38521600D01*
X80100792Y-38216800D01*
X80270125Y-38216800D01*
X80270125Y-38521600D01*
X80438140Y-38521600D01*
X80443033Y-38373434D01*
X80447925Y-38225267D01*
X80522447Y-38219935D01*
X80526080Y-38219691D01*
X80582537Y-38221936D01*
X80611088Y-38236868D01*
X80612349Y-38239376D01*
X80618916Y-38271047D01*
X80623604Y-38324739D01*
X80625466Y-38390367D01*
X80625726Y-38521600D01*
X80776807Y-38521600D01*
X80781700Y-38373434D01*
X80786592Y-38225267D01*
X80955925Y-38225267D01*
X80960818Y-38373434D01*
X80965711Y-38521600D01*
X81037663Y-38521600D01*
X81134811Y-38537385D01*
X81221938Y-38581581D01*
X81293295Y-38649089D01*
X81343498Y-38734810D01*
X81367161Y-38833644D01*
X81374881Y-38926741D01*
X81521003Y-38931604D01*
X81667126Y-38936467D01*
X81667126Y-39015022D01*
X81667126Y-39105800D01*
G37*
D11*
%TO.C,D9*%
X46349375Y-29376875D02*
X50359375Y-29376875D01*
X46349375Y-31376875D02*
X50359375Y-31376875D01*
X50359375Y-31376875D02*
X50359375Y-29376875D01*
%TO.C,U3*%
X79069375Y-29391875D02*
X79069375Y-31066875D01*
X79069375Y-31716875D02*
X79069375Y-31066875D01*
X82189375Y-30416875D02*
X82189375Y-31066875D01*
X82189375Y-31716875D02*
X82189375Y-31066875D01*
%TO.C,C6*%
X114890336Y-53492500D02*
X114674664Y-53492500D01*
X114890336Y-54212500D02*
X114674664Y-54212500D01*
%TO.C,U5*%
X103461875Y-39976875D02*
X103461875Y-40776875D01*
X103461875Y-41576875D02*
X103461875Y-40776875D01*
X106581875Y-39976875D02*
X106581875Y-40776875D01*
X106581875Y-41576875D02*
X106581875Y-40776875D01*
X106861875Y-42316875D02*
X106531875Y-42076875D01*
X106861875Y-41836875D01*
X106861875Y-42316875D01*
G36*
X106861875Y-42316875D02*
G01*
X106531875Y-42076875D01*
X106861875Y-41836875D01*
X106861875Y-42316875D01*
G37*
%TO.C,R1*%
X65033016Y-32126875D02*
X64725734Y-32126875D01*
X65033016Y-32886875D02*
X64725734Y-32886875D01*
%TO.C,C10*%
X82669375Y-33469711D02*
X82669375Y-33254039D01*
X83389375Y-33469711D02*
X83389375Y-33254039D01*
%TO.C,F1*%
X75201439Y-32226875D02*
X73997311Y-32226875D01*
X75201439Y-34046875D02*
X73997311Y-34046875D01*
%TO.C,R6*%
X27058125Y-35364891D02*
X27058125Y-35057609D01*
X27818125Y-35364891D02*
X27818125Y-35057609D01*
%TO.C,D5*%
X38344375Y-70918125D02*
X38344375Y-74928125D01*
X38344375Y-74928125D02*
X40344375Y-74928125D01*
X40344375Y-70918125D02*
X40344375Y-74928125D01*
%TO.C,C9*%
X77861539Y-31636875D02*
X78077211Y-31636875D01*
X77861539Y-32356875D02*
X78077211Y-32356875D01*
%TO.C,C1*%
X109161241Y-55479077D02*
X109376913Y-55479077D01*
X109161241Y-56199077D02*
X109376913Y-56199077D01*
%TO.C,R4*%
X109378859Y-57722500D02*
X109686141Y-57722500D01*
X109378859Y-58482500D02*
X109686141Y-58482500D01*
%TO.C,C7*%
X109376913Y-54229077D02*
X109161241Y-54229077D01*
X109376913Y-54949077D02*
X109161241Y-54949077D01*
%TO.C,LED2*%
X45880000Y-42250000D02*
X53180000Y-42250000D01*
X45880000Y-46600000D02*
X45880000Y-47750000D01*
X45880000Y-47750000D02*
X53180000Y-47750000D01*
%TO.C,R2*%
X69438641Y-33220000D02*
X69131359Y-33220000D01*
X69438641Y-33980000D02*
X69131359Y-33980000D01*
%TO.C,J1*%
X63880000Y-26522000D02*
X63880000Y-28522000D01*
X73280000Y-26522000D02*
X73280000Y-28522000D01*
%TO.C,R3*%
X111878859Y-57722500D02*
X112186141Y-57722500D01*
X111878859Y-58482500D02*
X112186141Y-58482500D01*
%TO.C,C2*%
X82769375Y-30471295D02*
X82769375Y-30752455D01*
X83789375Y-30471295D02*
X83789375Y-30752455D01*
%TO.C,C8*%
X75411539Y-31096875D02*
X75627211Y-31096875D01*
X75411539Y-31816875D02*
X75627211Y-31816875D01*
%TO.C,D3*%
X76444375Y-51868125D02*
X76444375Y-55878125D01*
X76444375Y-55878125D02*
X78444375Y-55878125D01*
X78444375Y-51868125D02*
X78444375Y-55878125D01*
%TO.C,R5*%
X27058125Y-30999266D02*
X27058125Y-30691984D01*
X27818125Y-30999266D02*
X27818125Y-30691984D01*
%TD*%
%LPC*%
D13*
%TO.C,OL1*%
X114632500Y-73021250D03*
D14*
X112092500Y-73021250D03*
X109552500Y-73021250D03*
X107012500Y-73021250D03*
%TD*%
D15*
%TO.C,REF\u002A\u002A*%
X113650000Y-38546000D03*
%TD*%
%TO.C,REF\u002A\u002A*%
X23650000Y-38546000D03*
%TD*%
D16*
%TO.C,RE1*%
X29686250Y-30403125D03*
D17*
X29686250Y-35403125D03*
X29686250Y-32903125D03*
D18*
X37186250Y-27303125D03*
X37186250Y-38503125D03*
D17*
X44186250Y-35403125D03*
X44186250Y-30403125D03*
%TD*%
D15*
%TO.C,REF\u002A\u002A*%
X23650000Y-78546000D03*
%TD*%
D19*
%TO.C,MX4*%
X88239375Y-52786875D03*
D20*
X93319375Y-52786875D03*
D19*
X98399375Y-52786875D03*
D21*
X89509375Y-50246875D03*
X95859375Y-47706875D03*
%TD*%
D19*
%TO.C,MX8*%
X88239375Y-71836875D03*
D20*
X93319375Y-71836875D03*
D19*
X98399375Y-71836875D03*
D21*
X89509375Y-69296875D03*
X95859375Y-66756875D03*
%TD*%
D19*
%TO.C,MX7*%
X69189375Y-71836875D03*
D20*
X74269375Y-71836875D03*
D19*
X79349375Y-71836875D03*
D21*
X70459375Y-69296875D03*
X76809375Y-66756875D03*
%TD*%
D19*
%TO.C,MX3*%
X69189375Y-52786875D03*
D20*
X74269375Y-52786875D03*
D19*
X79349375Y-52786875D03*
D21*
X70459375Y-50246875D03*
X76809375Y-47706875D03*
%TD*%
D19*
%TO.C,MX6*%
X50139375Y-71836875D03*
D20*
X55219375Y-71836875D03*
D19*
X60299375Y-71836875D03*
D21*
X51409375Y-69296875D03*
X57759375Y-66756875D03*
%TD*%
D19*
%TO.C,MX1*%
X31089375Y-52786875D03*
D20*
X36169375Y-52786875D03*
D19*
X41249375Y-52786875D03*
D21*
X32359375Y-50246875D03*
X38709375Y-47706875D03*
%TD*%
D15*
%TO.C,REF\u002A\u002A*%
X113650000Y-78546000D03*
%TD*%
D19*
%TO.C,MX2*%
X50139375Y-52786875D03*
D20*
X55219375Y-52786875D03*
D19*
X60299375Y-52786875D03*
D21*
X51409375Y-50246875D03*
X57759375Y-47706875D03*
%TD*%
D15*
%TO.C,REF\u002A\u002A*%
X23650000Y-28546000D03*
%TD*%
D19*
%TO.C,MX5*%
X31089375Y-71836875D03*
D20*
X36169375Y-71836875D03*
D19*
X41249375Y-71836875D03*
D21*
X32359375Y-69296875D03*
X38709375Y-66756875D03*
%TD*%
D15*
%TO.C,REF\u002A\u002A*%
X113650000Y-28546000D03*
%TD*%
D22*
%TO.C,C4*%
X106282500Y-44332500D03*
X106282500Y-43372500D03*
%TD*%
D23*
%TO.C,U1*%
X113532500Y-52265000D03*
X113032500Y-52265000D03*
X112532500Y-52265000D03*
X112032500Y-52265000D03*
X111532500Y-52265000D03*
X111032500Y-52265000D03*
X110532500Y-52265000D03*
X110032500Y-52265000D03*
X109532500Y-52265000D03*
X109032500Y-52265000D03*
X108532500Y-52265000D03*
X108032500Y-52265000D03*
D24*
X106620000Y-50852500D03*
X106620000Y-50352500D03*
X106620000Y-49852500D03*
X106620000Y-49352500D03*
X106620000Y-48852500D03*
X106620000Y-48352500D03*
X106620000Y-47852500D03*
X106620000Y-47352500D03*
X106620000Y-46852500D03*
X106620000Y-46352500D03*
X106620000Y-45852500D03*
X106620000Y-45352500D03*
D23*
X108032500Y-43940000D03*
X108532500Y-43940000D03*
X109032500Y-43940000D03*
X109532500Y-43940000D03*
X110032500Y-43940000D03*
X110532500Y-43940000D03*
X111032500Y-43940000D03*
X111532500Y-43940000D03*
X112032500Y-43940000D03*
X112532500Y-43940000D03*
X113032500Y-43940000D03*
X113532500Y-43940000D03*
D24*
X114945000Y-45352500D03*
X114945000Y-45852500D03*
X114945000Y-46352500D03*
X114945000Y-46852500D03*
X114945000Y-47352500D03*
X114945000Y-47852500D03*
X114945000Y-48352500D03*
X114945000Y-48852500D03*
X114945000Y-49352500D03*
X114945000Y-49852500D03*
X114945000Y-50352500D03*
X114945000Y-50852500D03*
%TD*%
D25*
%TO.C,D2*%
X58394375Y-55168125D03*
X58394375Y-51868125D03*
%TD*%
D26*
%TO.C,LED4*%
X90080000Y-63502500D03*
X90080000Y-66802500D03*
X85180000Y-66802500D03*
X85180000Y-63502500D03*
%TD*%
D25*
%TO.C,D7*%
X77444375Y-74218125D03*
X77444375Y-70918125D03*
%TD*%
D27*
%TO.C,C3*%
X114552500Y-43602500D03*
X115512500Y-43602500D03*
%TD*%
D26*
%TO.C,LED1*%
X90080000Y-43350000D03*
X90080000Y-46650000D03*
X85180000Y-46650000D03*
X85180000Y-43350000D03*
%TD*%
D25*
%TO.C,D8*%
X96494375Y-74218125D03*
X96494375Y-70918125D03*
%TD*%
D28*
%TO.C,BOOT1*%
X111912500Y-60370000D03*
X111912500Y-66670000D03*
X115712500Y-60370000D03*
X115712500Y-66670000D03*
%TD*%
D25*
%TO.C,D4*%
X96494375Y-55168125D03*
X96494375Y-51868125D03*
%TD*%
D29*
%TO.C,U2*%
X65285000Y-35600000D03*
D30*
X65285000Y-33900000D03*
X67285000Y-33900000D03*
X67285000Y-35800000D03*
%TD*%
D31*
%TO.C,C5*%
X115282500Y-51872500D03*
X115282500Y-52832500D03*
%TD*%
D25*
%TO.C,D6*%
X58394375Y-74218125D03*
X58394375Y-70918125D03*
%TD*%
D28*
%TO.C,RST1*%
X109712500Y-66670000D03*
X109712500Y-60370000D03*
X105912500Y-66670000D03*
X105912500Y-60370000D03*
%TD*%
D25*
%TO.C,D1*%
X39344375Y-55168125D03*
X39344375Y-51868125D03*
%TD*%
D26*
%TO.C,LED3*%
X51980000Y-63502500D03*
X51980000Y-66802500D03*
X47080000Y-66802500D03*
X47080000Y-63502500D03*
%TD*%
D32*
%TO.C,D9*%
X49649375Y-30376875D03*
X46349375Y-30376875D03*
%TD*%
D33*
%TO.C,U3*%
X79679375Y-30129375D03*
X81579375Y-30129375D03*
X80629375Y-32004375D03*
%TD*%
D27*
%TO.C,C6*%
X114302500Y-53852500D03*
X115262500Y-53852500D03*
%TD*%
D34*
%TO.C,U5*%
X105971875Y-41914375D03*
X105021875Y-41914375D03*
X104071875Y-41914375D03*
X104071875Y-39639375D03*
X105971875Y-39639375D03*
%TD*%
D35*
%TO.C,R1*%
X64369375Y-32506875D03*
X65389375Y-32506875D03*
%TD*%
D31*
%TO.C,C10*%
X83029375Y-32881875D03*
X83029375Y-33841875D03*
%TD*%
D36*
%TO.C,F1*%
X73199375Y-33136875D03*
X75999375Y-33136875D03*
%TD*%
D37*
%TO.C,R6*%
X27438125Y-34701250D03*
X27438125Y-35721250D03*
%TD*%
D25*
%TO.C,D5*%
X39344375Y-74218125D03*
X39344375Y-70918125D03*
%TD*%
D38*
%TO.C,C9*%
X78449375Y-31996875D03*
X77489375Y-31996875D03*
%TD*%
%TO.C,C1*%
X109749077Y-55839077D03*
X108789077Y-55839077D03*
%TD*%
D39*
%TO.C,R4*%
X110042500Y-58102500D03*
X109022500Y-58102500D03*
%TD*%
D27*
%TO.C,C7*%
X108789077Y-54589077D03*
X109749077Y-54589077D03*
%TD*%
D26*
%TO.C,LED2*%
X51980000Y-43350000D03*
X51980000Y-46650000D03*
X47080000Y-46650000D03*
X47080000Y-43350000D03*
%TD*%
D35*
%TO.C,R2*%
X68775000Y-33600000D03*
X69795000Y-33600000D03*
%TD*%
D40*
%TO.C,J1*%
X65690000Y-29222000D03*
X71470000Y-29222000D03*
D41*
X65330000Y-30667000D03*
X66130000Y-30667000D03*
D42*
X67330000Y-30667000D03*
X68330000Y-30667000D03*
X68830000Y-30667000D03*
X69830000Y-30667000D03*
D41*
X71030000Y-30667000D03*
X71830000Y-30667000D03*
X71830000Y-30667000D03*
X71030000Y-30667000D03*
D42*
X70330000Y-30667000D03*
X69330000Y-30667000D03*
X67830000Y-30667000D03*
X66830000Y-30667000D03*
D41*
X66130000Y-30667000D03*
X65330000Y-30667000D03*
D43*
X64260000Y-25572000D03*
D44*
X64260000Y-29752000D03*
D43*
X72900000Y-25572000D03*
D44*
X72900000Y-29752000D03*
%TD*%
D39*
%TO.C,R3*%
X112542500Y-58102500D03*
X111522500Y-58102500D03*
%TD*%
D45*
%TO.C,C2*%
X83279375Y-31386875D03*
X83279375Y-29836875D03*
%TD*%
D38*
%TO.C,C8*%
X75999375Y-31456875D03*
X75039375Y-31456875D03*
%TD*%
D25*
%TO.C,D3*%
X77444375Y-55168125D03*
X77444375Y-51868125D03*
%TD*%
D37*
%TO.C,R5*%
X27438125Y-30335625D03*
X27438125Y-31355625D03*
%TD*%
%LPD*%
M02*
