%TF.GenerationSoftware,KiCad,Pcbnew,8.0.2-1*%
%TF.CreationDate,2024-05-13T14:31:14+01:00*%
%TF.ProjectId,Daisy V2 - STM32,44616973-7920-4563-9220-2d2053544d33,rev?*%
%TF.SameCoordinates,Original*%
%TF.FileFunction,Soldermask,Top*%
%TF.FilePolarity,Negative*%
%FSLAX46Y46*%
G04 Gerber Fmt 4.6, Leading zero omitted, Abs format (unit mm)*
G04 Created by KiCad (PCBNEW 8.0.2-1) date 2024-05-13 14:31:14*
%MOMM*%
%LPD*%
G01*
G04 APERTURE LIST*
%ADD10C,0.000000*%
%ADD11R,1.700000X1.700000*%
%ADD12O,1.700000X1.700000*%
%ADD13C,4.200000*%
%ADD14R,2.000000X2.000000*%
%ADD15C,2.000000*%
%ADD16R,3.200000X2.000000*%
%ADD17C,1.750000*%
%ADD18C,3.987800*%
%ADD19C,0.650000*%
%ADD20O,1.000000X1.600000*%
%ADD21O,1.000000X2.100000*%
G04 APERTURE END LIST*
D10*
%TO.C,G\u002A\u002A\u002A*%
G36*
X103381349Y-29717043D02*
G01*
X103433960Y-29720777D01*
X103474059Y-29728985D01*
X103510790Y-29743289D01*
X103538270Y-29757200D01*
X103643151Y-29829442D01*
X103724722Y-29921767D01*
X103782431Y-30033466D01*
X103802066Y-30095974D01*
X103817859Y-30216121D01*
X103804651Y-30332810D01*
X103764265Y-30442267D01*
X103698525Y-30540717D01*
X103609252Y-30624386D01*
X103520536Y-30678933D01*
X103452204Y-30702615D01*
X103366850Y-30717467D01*
X103277282Y-30722425D01*
X103196308Y-30716424D01*
X103162112Y-30708699D01*
X103099046Y-30681856D01*
X103029226Y-30640496D01*
X102963994Y-30592285D01*
X102914691Y-30544889D01*
X102908632Y-30537362D01*
X102842731Y-30427846D01*
X102805356Y-30311188D01*
X102797287Y-30190952D01*
X102811969Y-30096468D01*
X102857613Y-29975201D01*
X102927289Y-29873108D01*
X103020537Y-29790783D01*
X103075892Y-29757200D01*
X103115516Y-29737866D01*
X103152339Y-29725723D01*
X103195505Y-29719150D01*
X103254160Y-29716521D01*
X103307081Y-29716159D01*
X103381349Y-29717043D01*
G37*
G36*
X107985767Y-25581699D02*
G01*
X108053845Y-25700138D01*
X108116800Y-25810797D01*
X108173004Y-25910726D01*
X108220825Y-25996975D01*
X108258633Y-26066595D01*
X108284798Y-26116633D01*
X108297690Y-26144142D01*
X108298769Y-26148113D01*
X108291075Y-26164835D01*
X108269058Y-26206100D01*
X108233906Y-26269814D01*
X108186808Y-26353884D01*
X108128953Y-26456213D01*
X108061529Y-26574710D01*
X107985725Y-26707278D01*
X107902730Y-26851824D01*
X107813732Y-27006254D01*
X107719921Y-27168473D01*
X107703872Y-27196171D01*
X107109809Y-28221111D01*
X106888206Y-28225355D01*
X106666602Y-28229600D01*
X105880774Y-29587705D01*
X105771335Y-29776887D01*
X105665879Y-29959271D01*
X105565479Y-30132996D01*
X105471210Y-30296200D01*
X105384145Y-30447020D01*
X105305359Y-30583593D01*
X105235925Y-30704057D01*
X105176918Y-30806550D01*
X105129412Y-30889209D01*
X105094482Y-30950172D01*
X105073200Y-30987576D01*
X105067098Y-30998558D01*
X105039250Y-31051305D01*
X105140307Y-31236119D01*
X105177295Y-31304885D01*
X105208207Y-31364496D01*
X105230306Y-31409508D01*
X105240853Y-31434475D01*
X105241365Y-31437033D01*
X105233831Y-31452625D01*
X105212014Y-31492812D01*
X105177093Y-31555522D01*
X105130248Y-31638681D01*
X105072657Y-31740217D01*
X105005500Y-31858059D01*
X104929955Y-31990133D01*
X104847201Y-32134367D01*
X104758418Y-32288689D01*
X104664784Y-32451026D01*
X104645599Y-32484239D01*
X104049833Y-33515346D01*
X103307138Y-33515346D01*
X102564443Y-33515346D01*
X102081288Y-32679212D01*
X101991929Y-32524579D01*
X101903702Y-32371928D01*
X101818410Y-32224376D01*
X101737858Y-32085042D01*
X101663847Y-31957044D01*
X101598180Y-31843499D01*
X101542660Y-31747526D01*
X101499091Y-31672243D01*
X101471000Y-31623744D01*
X101343866Y-31404410D01*
X101459512Y-31228096D01*
X101575157Y-31051782D01*
X101547187Y-30998796D01*
X101535689Y-30978280D01*
X101509819Y-30932950D01*
X101470650Y-30864671D01*
X101419257Y-30775304D01*
X101356715Y-30666714D01*
X101284098Y-30540761D01*
X101202479Y-30399310D01*
X101112934Y-30244224D01*
X101016536Y-30077364D01*
X100914361Y-29900594D01*
X100807481Y-29715777D01*
X100733389Y-29587705D01*
X99947560Y-28229600D01*
X99725767Y-28225355D01*
X99503974Y-28221111D01*
X98910133Y-27196171D01*
X98815664Y-27032848D01*
X98725809Y-26876965D01*
X98641755Y-26730617D01*
X98564691Y-26595899D01*
X98495807Y-26474904D01*
X98436289Y-26369729D01*
X98387327Y-26282467D01*
X98350110Y-26215212D01*
X98325826Y-26170060D01*
X98315663Y-26149105D01*
X98315426Y-26148113D01*
X98322728Y-26130129D01*
X98343936Y-26088472D01*
X98377420Y-26026091D01*
X98421549Y-25945936D01*
X98440962Y-25911242D01*
X99292093Y-25911242D01*
X99299672Y-25925156D01*
X99321889Y-25964361D01*
X99357964Y-26027510D01*
X99407117Y-26113251D01*
X99468568Y-26220235D01*
X99541537Y-26347111D01*
X99625245Y-26492532D01*
X99718911Y-26655145D01*
X99821755Y-26833603D01*
X99932999Y-27026554D01*
X100051860Y-27232650D01*
X100177561Y-27450540D01*
X100309320Y-27678874D01*
X100446359Y-27916303D01*
X100587896Y-28161477D01*
X100733153Y-28413047D01*
X100881348Y-28669662D01*
X101031703Y-28929972D01*
X101183437Y-29192628D01*
X101335771Y-29456281D01*
X101487924Y-29719579D01*
X101639117Y-29981175D01*
X101788570Y-30239716D01*
X101935502Y-30493855D01*
X102079134Y-30742241D01*
X102218686Y-30983524D01*
X102353378Y-31216355D01*
X102482431Y-31439383D01*
X102605063Y-31651260D01*
X102720496Y-31850634D01*
X102827949Y-32036157D01*
X102926642Y-32206479D01*
X103015796Y-32360249D01*
X103094631Y-32496119D01*
X103162367Y-32612738D01*
X103218223Y-32708756D01*
X103261420Y-32782824D01*
X103291178Y-32833591D01*
X103306717Y-32859709D01*
X103308919Y-32863101D01*
X103316726Y-32849696D01*
X103339315Y-32810713D01*
X103376044Y-32747263D01*
X103426271Y-32660458D01*
X103489354Y-32551408D01*
X103564650Y-32421224D01*
X103651517Y-32271017D01*
X103749313Y-32101897D01*
X103857395Y-31914976D01*
X103975122Y-31711365D01*
X104101849Y-31492174D01*
X104236937Y-31258514D01*
X104379741Y-31011496D01*
X104529621Y-30752231D01*
X104685933Y-30481831D01*
X104848035Y-30201405D01*
X105015285Y-29912064D01*
X105187040Y-29614920D01*
X105310352Y-29401581D01*
X105485005Y-29099388D01*
X105655642Y-28804091D01*
X105821618Y-28516810D01*
X105982287Y-28238661D01*
X106137006Y-27970764D01*
X106285128Y-27714237D01*
X106426008Y-27470198D01*
X106559002Y-27239765D01*
X106683465Y-27024058D01*
X106798751Y-26824193D01*
X106904214Y-26641290D01*
X106999211Y-26476466D01*
X107083096Y-26330841D01*
X107155224Y-26205532D01*
X107214949Y-26101657D01*
X107261627Y-26020336D01*
X107294613Y-25962686D01*
X107313261Y-25929826D01*
X107317435Y-25922182D01*
X107314299Y-25919998D01*
X107302479Y-25917968D01*
X107280963Y-25916085D01*
X107248740Y-25914346D01*
X107204798Y-25912745D01*
X107148125Y-25911275D01*
X107077709Y-25909934D01*
X106992537Y-25908714D01*
X106891599Y-25907611D01*
X106773882Y-25906619D01*
X106638375Y-25905734D01*
X106484064Y-25904950D01*
X106309940Y-25904262D01*
X106114988Y-25903665D01*
X105898199Y-25903153D01*
X105658559Y-25902722D01*
X105395057Y-25902366D01*
X105106681Y-25902079D01*
X104792420Y-25901857D01*
X104451260Y-25901695D01*
X104082190Y-25901586D01*
X103684199Y-25901527D01*
X103308730Y-25901511D01*
X102959033Y-25901548D01*
X102617465Y-25901657D01*
X102285303Y-25901833D01*
X101963825Y-25902076D01*
X101654311Y-25902380D01*
X101358037Y-25902744D01*
X101076283Y-25903164D01*
X100810326Y-25903637D01*
X100561445Y-25904159D01*
X100330918Y-25904729D01*
X100120024Y-25905342D01*
X99930039Y-25905996D01*
X99762243Y-25906688D01*
X99617914Y-25907413D01*
X99498330Y-25908171D01*
X99404769Y-25908956D01*
X99338510Y-25909766D01*
X99300830Y-25910599D01*
X99292093Y-25911242D01*
X98440962Y-25911242D01*
X98474694Y-25850958D01*
X98535224Y-25744108D01*
X98601508Y-25628335D01*
X98628395Y-25581699D01*
X98942232Y-25038405D01*
X100153661Y-25038536D01*
X101365091Y-25038668D01*
X101470176Y-25223488D01*
X101575261Y-25408307D01*
X103307827Y-25408307D01*
X105040392Y-25408307D01*
X105164302Y-25223356D01*
X105288212Y-25038405D01*
X106480071Y-25038405D01*
X107671931Y-25038405D01*
X107985767Y-25581699D01*
G37*
G36*
X21257398Y-59196629D02*
G01*
X21257398Y-59436360D01*
X21188904Y-59436360D01*
X21120410Y-59436360D01*
X21120410Y-59196629D01*
X21120410Y-58956899D01*
X21188904Y-58956899D01*
X21257398Y-58956899D01*
X21257398Y-59196629D01*
G37*
G36*
X21668365Y-67775750D02*
G01*
X21668365Y-67827320D01*
X21385825Y-67824267D01*
X21103286Y-67821214D01*
X21099776Y-67772697D01*
X21096265Y-67724180D01*
X21382315Y-67724180D01*
X21668365Y-67724180D01*
X21668365Y-67775750D01*
G37*
G36*
X21668365Y-70481278D02*
G01*
X21668365Y-70532848D01*
X21385825Y-70529795D01*
X21103286Y-70526742D01*
X21099776Y-70478225D01*
X21096265Y-70429708D01*
X21382315Y-70429708D01*
X21668365Y-70429708D01*
X21668365Y-70481278D01*
G37*
G36*
X23369309Y-56588135D02*
G01*
X23369309Y-57381528D01*
X23232320Y-57381528D01*
X23095331Y-57381528D01*
X23095331Y-56588135D01*
X23095331Y-55794742D01*
X23232320Y-55794742D01*
X23369309Y-55794742D01*
X23369309Y-56588135D01*
G37*
G36*
X23369309Y-61319955D02*
G01*
X23369309Y-62107641D01*
X23232320Y-62107641D01*
X23095331Y-62107641D01*
X23095331Y-61319955D01*
X23095331Y-60532270D01*
X23232320Y-60532270D01*
X23369309Y-60532270D01*
X23369309Y-61319955D01*
G37*
G36*
X23643286Y-59744584D02*
G01*
X23643286Y-60532270D01*
X23506297Y-60532270D01*
X23369309Y-60532270D01*
X23369309Y-59744584D01*
X23369309Y-58956899D01*
X23506297Y-58956899D01*
X23643286Y-58956899D01*
X23643286Y-59744584D01*
G37*
G36*
X23837353Y-65081438D02*
G01*
X23837353Y-65132809D01*
X23551960Y-65132809D01*
X23266567Y-65132809D01*
X23266567Y-65081438D01*
X23266567Y-65030068D01*
X23551960Y-65030068D01*
X23837353Y-65030068D01*
X23837353Y-65081438D01*
G37*
G36*
X23837353Y-71451416D02*
G01*
X23837353Y-71502787D01*
X23551960Y-71502787D01*
X23266567Y-71502787D01*
X23266567Y-71451416D01*
X23266567Y-71400045D01*
X23551960Y-71400045D01*
X23837353Y-71400045D01*
X23837353Y-71451416D01*
G37*
G36*
X23549106Y-65797576D02*
G01*
X23831646Y-65800629D01*
X23835156Y-65849146D01*
X23838666Y-65897663D01*
X23552617Y-65897663D01*
X23266567Y-65897663D01*
X23266567Y-65846093D01*
X23266567Y-65794523D01*
X23549106Y-65797576D01*
G37*
G36*
X24191241Y-61319955D02*
G01*
X24191241Y-62107641D01*
X24054252Y-62107641D01*
X23917264Y-62107641D01*
X23917264Y-61319955D01*
X23917264Y-60532270D01*
X24054252Y-60532270D01*
X24191241Y-60532270D01*
X24191241Y-61319955D01*
G37*
G36*
X25287151Y-61319955D02*
G01*
X25287151Y-62107641D01*
X25144455Y-62107641D01*
X25001758Y-62107641D01*
X25001758Y-61319955D01*
X25001758Y-60532270D01*
X25144455Y-60532270D01*
X25287151Y-60532270D01*
X25287151Y-61319955D01*
G37*
G36*
X21223151Y-71828732D02*
G01*
X21223151Y-71892115D01*
X21163219Y-71888664D01*
X21103286Y-71885214D01*
X21099906Y-71833418D01*
X21099522Y-71800575D01*
X21102487Y-71777952D01*
X21104662Y-71773485D01*
X21120018Y-71768709D01*
X21149813Y-71765782D01*
X21167975Y-71765348D01*
X21223151Y-71765348D01*
X21223151Y-71828732D01*
G37*
G36*
X21668365Y-65435326D02*
G01*
X21668365Y-65486697D01*
X21434342Y-65486697D01*
X21200320Y-65486697D01*
X21200320Y-65612926D01*
X21200320Y-65739156D01*
X21151803Y-65735645D01*
X21103286Y-65732135D01*
X21100135Y-65558045D01*
X21096984Y-65383955D01*
X21382674Y-65383955D01*
X21668365Y-65383955D01*
X21668365Y-65435326D01*
G37*
G36*
X22718612Y-61548270D02*
G01*
X22718612Y-61628180D01*
X22410387Y-61628180D01*
X22102162Y-61628180D01*
X22102162Y-61799416D01*
X22102162Y-61970652D01*
X22027960Y-61970652D01*
X21953758Y-61970652D01*
X21953758Y-61719506D01*
X21953758Y-61468360D01*
X22336185Y-61468360D01*
X22718612Y-61468360D01*
X22718612Y-61548270D01*
G37*
G36*
X24633601Y-64028138D02*
G01*
X24916140Y-64031191D01*
X24919650Y-64079708D01*
X24923161Y-64128225D01*
X24682774Y-64128225D01*
X24442387Y-64128225D01*
X24442387Y-64253798D01*
X24442387Y-64379371D01*
X24396724Y-64379371D01*
X24351061Y-64379371D01*
X24351061Y-64202228D01*
X24351061Y-64025084D01*
X24633601Y-64028138D01*
G37*
G36*
X21668365Y-63483236D02*
G01*
X21668365Y-63534607D01*
X21382971Y-63534607D01*
X21097578Y-63534607D01*
X21097578Y-63490847D01*
X21099402Y-63460679D01*
X21103914Y-63441368D01*
X21105189Y-63439476D01*
X21118266Y-63437362D01*
X21150963Y-63435475D01*
X21200065Y-63433898D01*
X21262362Y-63432718D01*
X21334640Y-63432021D01*
X21390582Y-63431865D01*
X21668365Y-63431865D01*
X21668365Y-63483236D01*
G37*
G36*
X21668365Y-66810922D02*
G01*
X21668365Y-67016405D01*
X21622702Y-67016405D01*
X21577039Y-67016405D01*
X21577039Y-66942202D01*
X21577039Y-66868000D01*
X21337309Y-66868000D01*
X21097578Y-66868000D01*
X21097578Y-66816629D01*
X21097578Y-66765259D01*
X21337309Y-66765259D01*
X21577039Y-66765259D01*
X21577039Y-66685348D01*
X21577039Y-66605438D01*
X21622702Y-66605438D01*
X21668365Y-66605438D01*
X21668365Y-66810922D01*
G37*
G36*
X22718612Y-58545933D02*
G01*
X22718612Y-58831326D01*
X22644410Y-58831326D01*
X22570207Y-58831326D01*
X22570207Y-58728584D01*
X22570207Y-58625843D01*
X22261983Y-58625843D01*
X21953758Y-58625843D01*
X21953758Y-58545933D01*
X21953758Y-58466023D01*
X22261983Y-58466023D01*
X22570207Y-58466023D01*
X22570207Y-58363281D01*
X22570207Y-58260539D01*
X22644410Y-58260539D01*
X22718612Y-58260539D01*
X22718612Y-58545933D01*
G37*
G36*
X22752859Y-71565573D02*
G01*
X22752859Y-71765348D01*
X22701488Y-71765348D01*
X22650117Y-71765348D01*
X22650117Y-71691146D01*
X22650117Y-71616944D01*
X22416095Y-71616944D01*
X22182073Y-71616944D01*
X22182073Y-71565573D01*
X22182073Y-71514202D01*
X22416095Y-71514202D01*
X22650117Y-71514202D01*
X22650117Y-71440000D01*
X22650117Y-71365798D01*
X22701488Y-71365798D01*
X22752859Y-71365798D01*
X22752859Y-71565573D01*
G37*
G36*
X23837353Y-64699011D02*
G01*
X23837353Y-64904495D01*
X23785983Y-64904495D01*
X23734612Y-64904495D01*
X23734612Y-64830292D01*
X23734612Y-64756090D01*
X23500589Y-64756090D01*
X23266567Y-64756090D01*
X23266567Y-64704719D01*
X23266567Y-64653348D01*
X23500589Y-64653348D01*
X23734612Y-64653348D01*
X23734612Y-64573438D01*
X23734612Y-64493528D01*
X23785983Y-64493528D01*
X23837353Y-64493528D01*
X23837353Y-64699011D01*
G37*
G36*
X23837353Y-67575119D02*
G01*
X23837353Y-67781259D01*
X23785983Y-67781259D01*
X23734612Y-67781259D01*
X23734612Y-67707056D01*
X23734612Y-67632854D01*
X23500589Y-67632854D01*
X23266567Y-67632854D01*
X23266567Y-67581483D01*
X23266567Y-67530113D01*
X23500068Y-67530113D01*
X23733569Y-67530113D01*
X23736944Y-67453056D01*
X23740320Y-67376000D01*
X23788837Y-67372490D01*
X23837353Y-67368980D01*
X23837353Y-67575119D01*
G37*
G36*
X22162234Y-44776537D02*
G01*
X22209086Y-44805821D01*
X22218151Y-44814770D01*
X22249528Y-44862943D01*
X22261441Y-44915293D01*
X22255569Y-44967383D01*
X22233596Y-45014780D01*
X22197200Y-45053048D01*
X22148064Y-45077754D01*
X22116114Y-45083963D01*
X22056224Y-45079721D01*
X22005250Y-45057198D01*
X21966156Y-45019960D01*
X21941903Y-44971575D01*
X21935455Y-44915610D01*
X21942715Y-44875167D01*
X21968084Y-44826401D01*
X22007691Y-44791065D01*
X22056566Y-44770249D01*
X22109737Y-44765043D01*
X22162234Y-44776537D01*
G37*
G36*
X22156458Y-46214319D02*
G01*
X22201777Y-46238126D01*
X22236877Y-46277552D01*
X22243644Y-46290197D01*
X22260353Y-46348125D01*
X22257178Y-46403695D01*
X22236475Y-46453034D01*
X22200598Y-46492271D01*
X22151901Y-46517531D01*
X22100815Y-46525126D01*
X22042516Y-46515062D01*
X21994004Y-46487580D01*
X21958233Y-46446585D01*
X21938158Y-46395985D01*
X21936735Y-46339684D01*
X21942308Y-46315605D01*
X21967692Y-46267303D01*
X22006535Y-46232624D01*
X22054101Y-46211968D01*
X22105654Y-46205733D01*
X22156458Y-46214319D01*
G37*
G36*
X23837353Y-65480989D02*
G01*
X23837353Y-65657933D01*
X23785983Y-65657933D01*
X23734612Y-65657933D01*
X23734612Y-65532360D01*
X23734612Y-65406787D01*
X23666117Y-65406787D01*
X23597623Y-65406787D01*
X23597623Y-65527308D01*
X23597623Y-65647830D01*
X23549106Y-65644319D01*
X23500589Y-65640809D01*
X23497336Y-65523798D01*
X23494083Y-65406787D01*
X23380325Y-65406787D01*
X23266567Y-65406787D01*
X23266567Y-65355416D01*
X23266567Y-65304045D01*
X23551960Y-65304045D01*
X23837353Y-65304045D01*
X23837353Y-65480989D01*
G37*
G36*
X23837353Y-70583820D02*
G01*
X23837353Y-70760764D01*
X23785983Y-70760764D01*
X23734612Y-70760764D01*
X23734612Y-70635191D01*
X23734612Y-70509618D01*
X23666117Y-70509618D01*
X23597623Y-70509618D01*
X23597623Y-70623775D01*
X23597623Y-70737933D01*
X23546252Y-70737933D01*
X23494882Y-70737933D01*
X23494882Y-70623775D01*
X23494882Y-70509618D01*
X23380724Y-70509618D01*
X23266567Y-70509618D01*
X23266567Y-70458247D01*
X23266567Y-70406877D01*
X23551960Y-70406877D01*
X23837353Y-70406877D01*
X23837353Y-70583820D01*
G37*
G36*
X23837353Y-71081061D02*
G01*
X23837353Y-71264369D01*
X23788837Y-71260859D01*
X23740320Y-71257348D01*
X23737092Y-71128922D01*
X23733864Y-71000495D01*
X23665744Y-71000495D01*
X23597623Y-71000495D01*
X23597623Y-71120360D01*
X23597623Y-71240225D01*
X23546252Y-71240225D01*
X23494882Y-71240225D01*
X23494882Y-71120360D01*
X23494882Y-71000495D01*
X23380724Y-71000495D01*
X23266567Y-71000495D01*
X23266567Y-70949124D01*
X23266567Y-70897753D01*
X23551960Y-70897753D01*
X23837353Y-70897753D01*
X23837353Y-71081061D01*
G37*
G36*
X24098593Y-44773615D02*
G01*
X24141736Y-44797117D01*
X24175987Y-44833726D01*
X24197359Y-44882791D01*
X24202539Y-44926966D01*
X24192274Y-44986018D01*
X24163687Y-45034233D01*
X24119968Y-45068419D01*
X24064306Y-45085388D01*
X24042837Y-45086669D01*
X23983918Y-45076818D01*
X23935646Y-45049687D01*
X23900755Y-45009028D01*
X23881980Y-44958596D01*
X23882055Y-44902142D01*
X23889030Y-44875596D01*
X23916834Y-44823757D01*
X23955679Y-44788293D01*
X24001578Y-44768550D01*
X24050545Y-44763876D01*
X24098593Y-44773615D01*
G37*
G36*
X24102840Y-47654400D02*
G01*
X24150336Y-47683180D01*
X24184250Y-47726917D01*
X24201223Y-47782198D01*
X24202539Y-47803731D01*
X24192513Y-47864051D01*
X24164181Y-47912750D01*
X24120284Y-47947057D01*
X24063563Y-47964199D01*
X24042491Y-47965617D01*
X23986792Y-47956206D01*
X23939672Y-47929187D01*
X23904251Y-47888819D01*
X23883654Y-47839365D01*
X23881004Y-47785083D01*
X23888189Y-47755105D01*
X23916206Y-47699977D01*
X23955755Y-47664216D01*
X24008689Y-47646506D01*
X24045124Y-47643985D01*
X24102840Y-47654400D01*
G37*
G36*
X24104507Y-46215658D02*
G01*
X24152172Y-46243982D01*
X24185420Y-46287805D01*
X24201550Y-46344388D01*
X24202657Y-46365348D01*
X24192758Y-46425920D01*
X24164731Y-46474211D01*
X24121078Y-46507721D01*
X24064302Y-46523947D01*
X24042837Y-46525083D01*
X23984581Y-46515268D01*
X23936454Y-46488375D01*
X23901295Y-46448233D01*
X23881948Y-46398671D01*
X23881254Y-46343517D01*
X23888189Y-46316723D01*
X23916202Y-46261601D01*
X23955749Y-46225837D01*
X24008694Y-46208111D01*
X24045124Y-46205571D01*
X24104507Y-46215658D01*
G37*
G36*
X24921848Y-63517131D02*
G01*
X24921848Y-63568149D01*
X24736342Y-63662681D01*
X24550837Y-63757214D01*
X24736342Y-63760350D01*
X24921848Y-63763487D01*
X24921848Y-63814575D01*
X24921848Y-63865663D01*
X24636455Y-63865663D01*
X24351061Y-63865663D01*
X24351061Y-63810246D01*
X24351061Y-63754829D01*
X24525151Y-63664695D01*
X24699241Y-63574562D01*
X24525151Y-63571411D01*
X24351061Y-63568259D01*
X24351061Y-63517186D01*
X24351061Y-63466113D01*
X24636455Y-63466113D01*
X24921848Y-63466113D01*
X24921848Y-63517131D01*
G37*
G36*
X24633601Y-71277127D02*
G01*
X24916140Y-71280180D01*
X24916140Y-71457124D01*
X24916140Y-71634068D01*
X24867623Y-71637578D01*
X24819106Y-71641088D01*
X24819106Y-71509151D01*
X24819106Y-71377214D01*
X24750612Y-71377214D01*
X24682117Y-71377214D01*
X24682117Y-71497079D01*
X24682117Y-71616944D01*
X24630747Y-71616944D01*
X24579376Y-71616944D01*
X24579376Y-71497079D01*
X24579376Y-71377214D01*
X24465219Y-71377214D01*
X24351061Y-71377214D01*
X24351061Y-71325643D01*
X24351061Y-71274073D01*
X24633601Y-71277127D01*
G37*
G36*
X24633601Y-68183464D02*
G01*
X24916140Y-68186517D01*
X24919395Y-68237888D01*
X24922649Y-68289259D01*
X24731035Y-68388909D01*
X24539421Y-68488559D01*
X24731291Y-68488796D01*
X24923161Y-68489034D01*
X24919650Y-68537551D01*
X24916140Y-68586068D01*
X24632997Y-68589122D01*
X24349854Y-68592177D01*
X24353312Y-68533538D01*
X24356769Y-68474898D01*
X24539421Y-68379405D01*
X24722073Y-68283912D01*
X24536567Y-68283732D01*
X24351061Y-68283551D01*
X24351061Y-68231981D01*
X24351061Y-68180410D01*
X24633601Y-68183464D01*
G37*
G36*
X22127565Y-68094080D02*
G01*
X22156665Y-68106194D01*
X22195047Y-68123314D01*
X22237097Y-68142924D01*
X22277204Y-68162513D01*
X22282751Y-68165318D01*
X22281882Y-68175878D01*
X22276292Y-68199403D01*
X22268445Y-68227188D01*
X22260805Y-68250525D01*
X22255837Y-68260708D01*
X22255750Y-68260719D01*
X22244935Y-68256253D01*
X22218823Y-68244469D01*
X22182763Y-68227788D01*
X22177646Y-68225396D01*
X22102162Y-68190073D01*
X22102162Y-68139778D01*
X22104432Y-68109516D01*
X22110160Y-68091590D01*
X22113362Y-68089483D01*
X22127565Y-68094080D01*
G37*
G36*
X22161354Y-47654035D02*
G01*
X22208608Y-47682745D01*
X22241803Y-47727545D01*
X22258295Y-47785937D01*
X22258820Y-47791197D01*
X22254444Y-47849584D01*
X22232953Y-47897717D01*
X22198259Y-47934227D01*
X22154278Y-47957747D01*
X22104924Y-47966908D01*
X22054112Y-47960343D01*
X22005757Y-47936685D01*
X21963772Y-47894564D01*
X21963618Y-47894351D01*
X21945618Y-47855858D01*
X21936386Y-47808785D01*
X21938372Y-47766087D01*
X21938947Y-47763775D01*
X21963615Y-47712652D01*
X22004810Y-47673480D01*
X22057887Y-47649658D01*
X22102688Y-47643910D01*
X22161354Y-47654035D01*
G37*
G36*
X23118874Y-44772299D02*
G01*
X23161634Y-44795499D01*
X23200291Y-44837893D01*
X23206634Y-44846940D01*
X23227498Y-44896244D01*
X23228297Y-44948893D01*
X23210250Y-44999969D01*
X23174577Y-45044555D01*
X23153575Y-45060874D01*
X23103795Y-45082854D01*
X23053488Y-45085953D01*
X23005740Y-45073084D01*
X22963640Y-45047163D01*
X22930273Y-45011102D01*
X22908726Y-44967815D01*
X22902087Y-44920217D01*
X22913443Y-44871222D01*
X22926949Y-44846940D01*
X22965431Y-44801088D01*
X23007155Y-44774932D01*
X23057340Y-44765424D01*
X23066792Y-44765244D01*
X23118874Y-44772299D01*
G37*
G36*
X23127843Y-47657613D02*
G01*
X23169944Y-47683534D01*
X23203310Y-47719595D01*
X23224857Y-47762882D01*
X23231496Y-47810479D01*
X23220141Y-47859475D01*
X23206634Y-47883757D01*
X23168152Y-47929609D01*
X23126428Y-47955765D01*
X23076243Y-47965273D01*
X23066792Y-47965453D01*
X23014710Y-47958398D01*
X22971950Y-47935197D01*
X22933292Y-47892804D01*
X22926949Y-47883757D01*
X22904895Y-47833192D01*
X22905410Y-47779372D01*
X22921259Y-47735464D01*
X22944814Y-47701984D01*
X22976047Y-47672600D01*
X22980008Y-47669823D01*
X23029788Y-47647843D01*
X23080096Y-47644744D01*
X23127843Y-47657613D01*
G37*
G36*
X21668365Y-67204764D02*
G01*
X21668365Y-67256135D01*
X21554207Y-67256135D01*
X21440050Y-67256135D01*
X21440050Y-67353169D01*
X21440050Y-67450202D01*
X21554207Y-67450202D01*
X21668365Y-67450202D01*
X21668365Y-67501573D01*
X21668365Y-67552944D01*
X21382315Y-67552944D01*
X21096265Y-67552944D01*
X21099776Y-67504427D01*
X21103286Y-67455910D01*
X21220297Y-67452657D01*
X21337309Y-67449404D01*
X21337309Y-67353169D01*
X21337309Y-67256934D01*
X21220297Y-67253680D01*
X21103286Y-67250427D01*
X21099776Y-67201910D01*
X21096265Y-67153393D01*
X21382315Y-67153393D01*
X21668365Y-67153393D01*
X21668365Y-67204764D01*
G37*
G36*
X21668365Y-69556405D02*
G01*
X21668365Y-69733348D01*
X21622702Y-69733348D01*
X21577039Y-69733348D01*
X21577039Y-69607775D01*
X21577039Y-69482202D01*
X21508944Y-69482202D01*
X21440849Y-69482202D01*
X21437596Y-69599214D01*
X21434342Y-69716225D01*
X21385825Y-69719735D01*
X21337309Y-69723246D01*
X21337309Y-69602724D01*
X21337309Y-69482202D01*
X21268814Y-69482202D01*
X21200320Y-69482202D01*
X21200320Y-69607775D01*
X21200320Y-69733348D01*
X21148949Y-69733348D01*
X21097578Y-69733348D01*
X21097578Y-69556405D01*
X21097578Y-69379461D01*
X21382971Y-69379461D01*
X21668365Y-69379461D01*
X21668365Y-69556405D01*
G37*
G36*
X21668365Y-71428584D02*
G01*
X21668365Y-71605528D01*
X21622702Y-71605528D01*
X21577039Y-71605528D01*
X21577039Y-71479955D01*
X21577039Y-71354382D01*
X21508544Y-71354382D01*
X21440050Y-71354382D01*
X21440050Y-71468539D01*
X21440050Y-71582697D01*
X21388679Y-71582697D01*
X21337309Y-71582697D01*
X21337309Y-71468539D01*
X21337309Y-71354382D01*
X21268814Y-71354382D01*
X21200320Y-71354382D01*
X21200320Y-71479955D01*
X21200320Y-71605528D01*
X21148949Y-71605528D01*
X21097578Y-71605528D01*
X21097578Y-71428584D01*
X21097578Y-71251641D01*
X21382971Y-71251641D01*
X21668365Y-71251641D01*
X21668365Y-71428584D01*
G37*
G36*
X22752859Y-72079281D02*
G01*
X22752859Y-72256225D01*
X22701488Y-72256225D01*
X22650117Y-72256225D01*
X22650117Y-72130652D01*
X22650117Y-72005079D01*
X22581623Y-72005079D01*
X22513129Y-72005079D01*
X22513129Y-72124944D01*
X22513129Y-72244809D01*
X22467466Y-72244809D01*
X22421803Y-72244809D01*
X22421803Y-72124944D01*
X22421803Y-72005079D01*
X22353309Y-72005079D01*
X22284814Y-72005079D01*
X22284814Y-72130652D01*
X22284814Y-72256225D01*
X22233443Y-72256225D01*
X22182073Y-72256225D01*
X22182073Y-72079281D01*
X22182073Y-71902337D01*
X22467466Y-71902337D01*
X22752859Y-71902337D01*
X22752859Y-72079281D01*
G37*
G36*
X22752859Y-66640342D02*
G01*
X22752859Y-66823650D01*
X22704342Y-66820140D01*
X22655825Y-66816629D01*
X22652598Y-66688202D01*
X22649370Y-66559775D01*
X22581249Y-66559775D01*
X22513129Y-66559775D01*
X22513129Y-66679641D01*
X22513129Y-66799506D01*
X22467466Y-66799506D01*
X22421803Y-66799506D01*
X22421803Y-66679641D01*
X22421803Y-66559775D01*
X22353309Y-66559775D01*
X22284814Y-66559775D01*
X22284814Y-66691056D01*
X22284814Y-66822337D01*
X22233443Y-66822337D01*
X22182073Y-66822337D01*
X22182073Y-66639686D01*
X22182073Y-66457034D01*
X22467466Y-66457034D01*
X22752859Y-66457034D01*
X22752859Y-66640342D01*
G37*
G36*
X22752859Y-69973735D02*
G01*
X22752859Y-70157043D01*
X22704342Y-70153533D01*
X22655825Y-70150023D01*
X22652598Y-70021596D01*
X22649370Y-69893169D01*
X22581249Y-69893169D01*
X22513129Y-69893169D01*
X22513129Y-70013034D01*
X22513129Y-70132899D01*
X22467466Y-70132899D01*
X22421803Y-70132899D01*
X22421803Y-70013034D01*
X22421803Y-69893169D01*
X22353309Y-69893169D01*
X22284814Y-69893169D01*
X22284814Y-70024450D01*
X22284814Y-70155731D01*
X22233443Y-70155731D01*
X22182073Y-70155731D01*
X22182073Y-69973079D01*
X22182073Y-69790427D01*
X22467466Y-69790427D01*
X22752859Y-69790427D01*
X22752859Y-69973735D01*
G37*
G36*
X23835156Y-69039843D02*
G01*
X23831646Y-69088360D01*
X23714634Y-69091613D01*
X23597623Y-69094866D01*
X23597623Y-69191101D01*
X23597623Y-69287336D01*
X23714634Y-69290590D01*
X23831646Y-69293843D01*
X23835156Y-69342360D01*
X23838666Y-69390877D01*
X23552617Y-69390877D01*
X23266567Y-69390877D01*
X23266567Y-69339506D01*
X23266567Y-69288135D01*
X23380724Y-69288135D01*
X23494882Y-69288135D01*
X23494882Y-69191101D01*
X23494882Y-69094068D01*
X23380724Y-69094068D01*
X23266567Y-69094068D01*
X23266567Y-69042697D01*
X23266567Y-68991326D01*
X23552617Y-68991326D01*
X23838666Y-68991326D01*
X23835156Y-69039843D01*
G37*
G36*
X23837353Y-63608809D02*
G01*
X23837353Y-63785753D01*
X23785983Y-63785753D01*
X23734612Y-63785753D01*
X23734612Y-63660180D01*
X23734612Y-63534607D01*
X23666117Y-63534607D01*
X23597623Y-63534607D01*
X23597623Y-63648764D01*
X23597623Y-63762922D01*
X23546252Y-63762922D01*
X23494882Y-63762922D01*
X23494882Y-63648764D01*
X23494882Y-63534607D01*
X23432095Y-63534607D01*
X23369309Y-63534607D01*
X23369309Y-63660180D01*
X23369309Y-63785753D01*
X23317938Y-63785753D01*
X23266567Y-63785753D01*
X23266567Y-63608809D01*
X23266567Y-63431865D01*
X23551960Y-63431865D01*
X23837353Y-63431865D01*
X23837353Y-63608809D01*
G37*
G36*
X23837353Y-66245843D02*
G01*
X23837353Y-66422787D01*
X23785983Y-66422787D01*
X23734612Y-66422787D01*
X23734612Y-66297214D01*
X23734612Y-66171641D01*
X23666117Y-66171641D01*
X23597623Y-66171641D01*
X23597623Y-66292162D01*
X23597623Y-66412684D01*
X23549106Y-66409173D01*
X23500589Y-66405663D01*
X23497336Y-66288652D01*
X23494083Y-66171641D01*
X23431696Y-66171641D01*
X23369309Y-66171641D01*
X23369309Y-66297214D01*
X23369309Y-66422787D01*
X23317938Y-66422787D01*
X23266567Y-66422787D01*
X23266567Y-66245843D01*
X23266567Y-66068899D01*
X23551960Y-66068899D01*
X23837353Y-66068899D01*
X23837353Y-66245843D01*
G37*
G36*
X23837353Y-72398922D02*
G01*
X23837353Y-72575865D01*
X23785983Y-72575865D01*
X23734612Y-72575865D01*
X23734612Y-72450292D01*
X23734612Y-72324719D01*
X23666117Y-72324719D01*
X23597623Y-72324719D01*
X23597623Y-72445241D01*
X23597623Y-72565762D01*
X23549106Y-72562252D01*
X23500589Y-72558742D01*
X23497336Y-72441731D01*
X23494083Y-72324719D01*
X23431696Y-72324719D01*
X23369309Y-72324719D01*
X23369309Y-72450292D01*
X23369309Y-72575865D01*
X23317938Y-72575865D01*
X23266567Y-72575865D01*
X23266567Y-72398922D01*
X23266567Y-72221978D01*
X23551960Y-72221978D01*
X23837353Y-72221978D01*
X23837353Y-72398922D01*
G37*
G36*
X24921848Y-70184270D02*
G01*
X24921848Y-70235641D01*
X24801983Y-70235641D01*
X24682117Y-70235641D01*
X24682117Y-70338382D01*
X24682117Y-70441124D01*
X24802639Y-70441124D01*
X24923161Y-70441124D01*
X24919650Y-70489641D01*
X24916140Y-70538157D01*
X24633601Y-70541211D01*
X24351061Y-70544264D01*
X24351061Y-70492694D01*
X24351061Y-70441124D01*
X24465219Y-70441124D01*
X24579376Y-70441124D01*
X24579376Y-70338382D01*
X24579376Y-70235641D01*
X24465219Y-70235641D01*
X24351061Y-70235641D01*
X24351061Y-70184270D01*
X24351061Y-70132899D01*
X24636455Y-70132899D01*
X24921848Y-70132899D01*
X24921848Y-70184270D01*
G37*
G36*
X23107661Y-46207719D02*
G01*
X23136299Y-46216803D01*
X23164048Y-46236552D01*
X23168995Y-46240834D01*
X23208568Y-46288664D01*
X23227617Y-46343028D01*
X23225080Y-46400573D01*
X23222570Y-46409953D01*
X23204069Y-46447910D01*
X23175260Y-46484008D01*
X23168995Y-46489863D01*
X23140406Y-46511613D01*
X23112621Y-46522112D01*
X23074776Y-46525128D01*
X23067270Y-46525169D01*
X23025331Y-46522631D01*
X22995361Y-46512813D01*
X22969082Y-46494308D01*
X22927120Y-46446545D01*
X22906021Y-46392855D01*
X22906530Y-46336012D01*
X22917321Y-46301996D01*
X22936402Y-46271430D01*
X22963859Y-46240998D01*
X22969121Y-46236356D01*
X22997376Y-46216846D01*
X23027873Y-46207674D01*
X23067270Y-46205528D01*
X23107661Y-46207719D01*
G37*
G36*
X25281443Y-56588135D02*
G01*
X25281443Y-57375820D01*
X25147309Y-57379037D01*
X25013174Y-57382253D01*
X25013174Y-58169576D01*
X25013174Y-58956899D01*
X24870477Y-58956899D01*
X24727780Y-58956899D01*
X24727780Y-58171116D01*
X24727888Y-58039215D01*
X24728200Y-57914042D01*
X24728697Y-57797464D01*
X24729362Y-57691347D01*
X24730178Y-57597558D01*
X24731125Y-57517961D01*
X24732186Y-57454423D01*
X24733344Y-57408810D01*
X24734581Y-57382988D01*
X24735391Y-57377723D01*
X24749221Y-57374687D01*
X24780976Y-57372227D01*
X24825753Y-57370614D01*
X24872301Y-57370113D01*
X25001601Y-57370113D01*
X25004533Y-56585281D01*
X25007466Y-55800450D01*
X25144455Y-55800450D01*
X25281443Y-55800450D01*
X25281443Y-56588135D01*
G37*
G36*
X24919988Y-64401034D02*
G01*
X24921593Y-64427111D01*
X24921848Y-64445203D01*
X24921848Y-64499619D01*
X24812418Y-64563348D01*
X24702988Y-64627077D01*
X24809564Y-64688909D01*
X24916140Y-64750740D01*
X24919680Y-64806270D01*
X24921129Y-64828794D01*
X24920470Y-64844348D01*
X24915129Y-64852295D01*
X24902532Y-64851997D01*
X24880104Y-64842817D01*
X24845272Y-64824117D01*
X24795460Y-64795260D01*
X24737504Y-64761140D01*
X24593115Y-64676180D01*
X24472088Y-64676180D01*
X24351061Y-64676180D01*
X24351061Y-64624809D01*
X24351061Y-64573438D01*
X24476083Y-64573438D01*
X24601104Y-64573438D01*
X24757022Y-64482113D01*
X24810318Y-64451052D01*
X24856348Y-64424522D01*
X24891676Y-64404480D01*
X24912870Y-64392881D01*
X24917394Y-64390787D01*
X24919988Y-64401034D01*
G37*
G36*
X23462889Y-50192713D02*
G01*
X23469247Y-50205389D01*
X23471751Y-50232735D01*
X23472050Y-50258113D01*
X23472050Y-50326607D01*
X23705476Y-50326607D01*
X23938902Y-50326607D01*
X23942352Y-50266674D01*
X23945319Y-50231566D01*
X23951238Y-50213188D01*
X23963494Y-50205444D01*
X23977671Y-50203084D01*
X24009539Y-50199426D01*
X24006210Y-50294410D01*
X24002882Y-50389393D01*
X23737466Y-50392458D01*
X23472050Y-50395522D01*
X23472050Y-50458098D01*
X23471303Y-50493982D01*
X23467362Y-50512639D01*
X23457674Y-50519666D01*
X23443511Y-50520674D01*
X23414971Y-50520674D01*
X23414971Y-50362757D01*
X23415494Y-50304875D01*
X23416927Y-50255387D01*
X23419071Y-50218668D01*
X23421722Y-50199097D01*
X23422582Y-50197229D01*
X23439369Y-50190691D01*
X23451121Y-50189618D01*
X23462889Y-50192713D01*
G37*
G36*
X21668365Y-66046068D02*
G01*
X21668365Y-66228719D01*
X21623076Y-66228719D01*
X21577787Y-66228719D01*
X21574559Y-66100292D01*
X21571331Y-65971865D01*
X21505691Y-65968442D01*
X21440050Y-65965018D01*
X21440050Y-66085453D01*
X21440050Y-66205888D01*
X21388679Y-66205888D01*
X21337309Y-66205888D01*
X21337309Y-66086023D01*
X21337309Y-65966157D01*
X21268814Y-65966157D01*
X21200320Y-65966157D01*
X21200320Y-66098095D01*
X21200320Y-66230032D01*
X21151803Y-66226522D01*
X21103286Y-66223011D01*
X21100147Y-66051110D01*
X21099550Y-65990620D01*
X21099995Y-65938376D01*
X21101372Y-65898558D01*
X21103570Y-65875347D01*
X21104903Y-65871312D01*
X21118063Y-65869119D01*
X21150837Y-65867160D01*
X21200008Y-65865524D01*
X21262361Y-65864300D01*
X21334678Y-65863577D01*
X21390582Y-65863416D01*
X21668365Y-65863416D01*
X21668365Y-66046068D01*
G37*
G36*
X21652375Y-46680330D02*
G01*
X21706079Y-46708267D01*
X21736859Y-46736195D01*
X21765398Y-46766738D01*
X21765398Y-47085269D01*
X21765398Y-47403799D01*
X21723682Y-47445515D01*
X21691559Y-47473085D01*
X21659971Y-47486956D01*
X21626649Y-47492001D01*
X21564184Y-47487690D01*
X21512146Y-47463874D01*
X21472602Y-47421554D01*
X21468978Y-47415596D01*
X21461606Y-47401377D01*
X21455918Y-47385210D01*
X21451656Y-47363988D01*
X21448564Y-47334601D01*
X21446384Y-47293941D01*
X21444861Y-47238902D01*
X21443736Y-47166374D01*
X21443030Y-47101663D01*
X21442431Y-47007135D01*
X21442808Y-46932775D01*
X21444269Y-46875938D01*
X21446923Y-46833976D01*
X21450877Y-46804245D01*
X21455991Y-46784768D01*
X21473880Y-46743717D01*
X21494949Y-46717091D01*
X21526194Y-46696807D01*
X21536480Y-46691748D01*
X21595507Y-46674750D01*
X21652375Y-46680330D01*
G37*
G36*
X23517290Y-67909024D02*
G01*
X23563612Y-67909469D01*
X23831646Y-67912539D01*
X23834789Y-68092337D01*
X23837933Y-68272135D01*
X23786273Y-68272135D01*
X23734612Y-68272135D01*
X23734612Y-68146562D01*
X23734612Y-68020989D01*
X23666117Y-68020989D01*
X23597623Y-68020989D01*
X23597623Y-68135146D01*
X23597623Y-68249304D01*
X23546252Y-68249304D01*
X23494882Y-68249304D01*
X23494882Y-68135146D01*
X23494882Y-68020989D01*
X23432481Y-68020989D01*
X23370081Y-68020989D01*
X23366841Y-68143708D01*
X23363601Y-68266427D01*
X23315084Y-68269937D01*
X23266567Y-68273448D01*
X23266567Y-68095489D01*
X23267074Y-68023029D01*
X23268725Y-67970898D01*
X23271717Y-67936613D01*
X23276246Y-67917693D01*
X23281073Y-67911964D01*
X23296200Y-67910514D01*
X23330770Y-67909465D01*
X23381398Y-67908847D01*
X23444700Y-67908690D01*
X23517290Y-67909024D01*
G37*
G36*
X22752859Y-62930327D02*
G01*
X22752859Y-62988160D01*
X22615437Y-63053985D01*
X22478016Y-63119809D01*
X22615437Y-63184821D01*
X22752859Y-63249833D01*
X22752859Y-63306602D01*
X22752859Y-63363371D01*
X22467466Y-63363371D01*
X22182073Y-63363371D01*
X22182073Y-63312000D01*
X22182073Y-63260629D01*
X22367578Y-63259915D01*
X22553084Y-63259200D01*
X22436073Y-63203595D01*
X22384932Y-63178778D01*
X22351175Y-63160595D01*
X22331290Y-63146481D01*
X22321766Y-63133869D01*
X22319089Y-63120194D01*
X22319061Y-63118103D01*
X22321075Y-63104083D01*
X22329458Y-63091478D01*
X22347721Y-63077720D01*
X22379376Y-63060243D01*
X22427936Y-63036483D01*
X22436073Y-63032609D01*
X22553084Y-62977002D01*
X22367578Y-62976119D01*
X22182073Y-62975236D01*
X22182073Y-62923865D01*
X22182073Y-62872495D01*
X22467466Y-62872495D01*
X22752859Y-62872495D01*
X22752859Y-62930327D01*
G37*
G36*
X23462516Y-49701627D02*
G01*
X23468871Y-49713570D01*
X23471577Y-49739504D01*
X23472050Y-49772944D01*
X23472050Y-49847146D01*
X23705503Y-49847146D01*
X23938956Y-49847146D01*
X23942379Y-49781506D01*
X23945064Y-49744494D01*
X23949931Y-49724854D01*
X23959638Y-49717133D01*
X23974342Y-49715865D01*
X23988497Y-49716839D01*
X23996972Y-49722864D01*
X24001224Y-49738599D01*
X24002708Y-49768703D01*
X24002882Y-49807191D01*
X24002882Y-49898517D01*
X23737466Y-49901581D01*
X23472050Y-49904646D01*
X23472050Y-49967222D01*
X23471303Y-50003106D01*
X23467362Y-50021763D01*
X23457674Y-50028790D01*
X23443511Y-50029798D01*
X23414971Y-50029798D01*
X23414971Y-49871880D01*
X23415494Y-49813999D01*
X23416927Y-49764510D01*
X23419071Y-49727792D01*
X23421722Y-49708221D01*
X23422582Y-49706352D01*
X23439369Y-49699814D01*
X23451121Y-49698742D01*
X23462516Y-49701627D01*
G37*
G36*
X23462122Y-51654438D02*
G01*
X23469031Y-51668497D01*
X23472923Y-51697864D01*
X23474359Y-51722180D01*
X23477758Y-51793528D01*
X23708350Y-51796617D01*
X23938942Y-51799705D01*
X23942372Y-51733830D01*
X23945052Y-51696737D01*
X23949895Y-51677024D01*
X23959544Y-51669248D01*
X23974342Y-51667955D01*
X23988497Y-51668928D01*
X23996972Y-51674954D01*
X24001224Y-51690689D01*
X24002708Y-51720793D01*
X24002882Y-51759281D01*
X24002882Y-51850607D01*
X23737466Y-51853671D01*
X23472050Y-51856736D01*
X23472050Y-51919312D01*
X23471303Y-51955196D01*
X23467362Y-51973853D01*
X23457674Y-51980880D01*
X23443511Y-51981888D01*
X23414971Y-51981888D01*
X23414971Y-51823970D01*
X23415494Y-51766089D01*
X23416927Y-51716600D01*
X23419071Y-51679882D01*
X23421722Y-51660311D01*
X23422582Y-51658442D01*
X23439417Y-51651848D01*
X23450577Y-51650832D01*
X23462122Y-51654438D01*
G37*
G36*
X22287668Y-49700802D02*
G01*
X22301925Y-49705147D01*
X22310169Y-49716727D01*
X22314523Y-49741011D01*
X22316752Y-49775798D01*
X22320151Y-49847146D01*
X22553629Y-49847146D01*
X22787106Y-49847146D01*
X22787106Y-49778652D01*
X22787711Y-49740691D01*
X22791013Y-49720197D01*
X22799246Y-49711806D01*
X22814645Y-49710159D01*
X22815646Y-49710157D01*
X22829466Y-49711048D01*
X22837900Y-49716735D01*
X22842279Y-49731737D01*
X22843930Y-49760574D01*
X22844185Y-49807191D01*
X22844185Y-49904225D01*
X22581623Y-49904225D01*
X22319061Y-49904225D01*
X22319061Y-49967011D01*
X22318320Y-50002971D01*
X22314405Y-50021694D01*
X22304775Y-50028769D01*
X22290522Y-50029798D01*
X22261983Y-50029798D01*
X22261983Y-49863476D01*
X22262075Y-49798858D01*
X22262709Y-49753694D01*
X22264418Y-49724607D01*
X22267734Y-49708219D01*
X22273191Y-49701153D01*
X22281322Y-49700032D01*
X22287668Y-49700802D01*
G37*
G36*
X24048615Y-43739731D02*
G01*
X24162765Y-43739731D01*
X24930441Y-44507470D01*
X25698117Y-45275209D01*
X25698117Y-46365348D01*
X25698117Y-47455488D01*
X24930441Y-48223227D01*
X24162765Y-48990966D01*
X23072500Y-48990966D01*
X21982234Y-48990966D01*
X21214558Y-48223227D01*
X20446882Y-47455488D01*
X20446882Y-46365285D01*
X20446882Y-45389233D01*
X20720859Y-45389233D01*
X20720859Y-46365278D01*
X20720859Y-47341323D01*
X21408621Y-48029156D01*
X22096384Y-48716989D01*
X23072429Y-48716989D01*
X24048474Y-48716989D01*
X24736307Y-48029227D01*
X25424140Y-47341464D01*
X25424140Y-46365419D01*
X25424140Y-45389374D01*
X24736378Y-44701541D01*
X24048615Y-44013708D01*
X23072570Y-44013708D01*
X22096525Y-44013708D01*
X21408692Y-44701470D01*
X20720859Y-45389233D01*
X20446882Y-45389233D01*
X20446882Y-45275083D01*
X21214621Y-44507407D01*
X21982360Y-43739731D01*
X23072563Y-43739731D01*
X24048615Y-43739731D01*
G37*
G36*
X23459185Y-51172782D02*
G01*
X23467817Y-51180592D01*
X23471352Y-51200163D01*
X23472049Y-51236860D01*
X23472050Y-51239865D01*
X23472050Y-51308360D01*
X23705503Y-51308360D01*
X23938956Y-51308360D01*
X23942379Y-51242719D01*
X23945064Y-51205707D01*
X23949931Y-51186068D01*
X23959638Y-51178346D01*
X23974342Y-51177079D01*
X23988364Y-51178124D01*
X23997040Y-51184316D01*
X24001919Y-51200236D01*
X24004552Y-51230467D01*
X24006197Y-51271259D01*
X24009513Y-51365438D01*
X23740781Y-51365438D01*
X23472050Y-51365438D01*
X23472050Y-51434727D01*
X23471451Y-51472862D01*
X23468347Y-51493184D01*
X23460776Y-51500701D01*
X23446779Y-51500426D01*
X23446365Y-51500367D01*
X23436268Y-51498077D01*
X23429148Y-51492175D01*
X23424386Y-51479092D01*
X23421361Y-51455258D01*
X23419456Y-51417105D01*
X23418050Y-51361063D01*
X23417512Y-51334045D01*
X23414345Y-51171371D01*
X23443197Y-51171371D01*
X23459185Y-51172782D01*
G37*
G36*
X21662308Y-69841285D02*
G01*
X21667143Y-69858250D01*
X21668239Y-69889093D01*
X21668113Y-69944539D01*
X21467886Y-70007009D01*
X21403559Y-70027256D01*
X21346584Y-70045524D01*
X21300627Y-70060610D01*
X21269353Y-70071313D01*
X21256591Y-70076319D01*
X21263441Y-70081663D01*
X21289031Y-70092546D01*
X21330268Y-70107830D01*
X21384059Y-70126375D01*
X21447310Y-70147042D01*
X21456944Y-70150103D01*
X21668365Y-70217047D01*
X21668365Y-70270597D01*
X21668365Y-70324148D01*
X21396098Y-70235962D01*
X21320852Y-70211442D01*
X21252528Y-70188894D01*
X21194224Y-70169363D01*
X21149038Y-70153895D01*
X21120066Y-70143535D01*
X21110705Y-70139664D01*
X21103043Y-70124357D01*
X21098314Y-70094545D01*
X21097578Y-70075700D01*
X21097578Y-70019848D01*
X21367080Y-69932846D01*
X21442114Y-69908585D01*
X21510397Y-69886435D01*
X21568775Y-69867426D01*
X21614093Y-69852585D01*
X21643194Y-69842943D01*
X21652473Y-69839746D01*
X21662308Y-69841285D01*
G37*
G36*
X22752368Y-63985001D02*
G01*
X22753358Y-63998731D01*
X22752894Y-64018692D01*
X22752859Y-64023663D01*
X22752859Y-64079724D01*
X22650117Y-64139020D01*
X22607658Y-64163922D01*
X22573742Y-64184570D01*
X22552503Y-64198401D01*
X22547376Y-64202736D01*
X22556592Y-64209936D01*
X22581496Y-64225920D01*
X22617973Y-64248111D01*
X22650117Y-64267083D01*
X22752859Y-64327010D01*
X22752859Y-64381730D01*
X22751936Y-64413520D01*
X22749584Y-64433258D01*
X22747929Y-64436450D01*
X22736928Y-64430934D01*
X22709768Y-64415706D01*
X22669902Y-64392747D01*
X22620781Y-64364036D01*
X22588726Y-64345124D01*
X22434454Y-64253798D01*
X22308263Y-64253798D01*
X22182073Y-64253798D01*
X22182073Y-64202427D01*
X22182073Y-64151056D01*
X22308385Y-64151056D01*
X22434697Y-64151056D01*
X22568093Y-64072742D01*
X22633233Y-64034360D01*
X22681083Y-64006417D01*
X22714282Y-63988210D01*
X22735470Y-63979039D01*
X22747285Y-63978203D01*
X22752368Y-63985001D01*
G37*
G36*
X21388679Y-62872495D02*
G01*
X21668365Y-62872495D01*
X21668365Y-63026607D01*
X21668365Y-63180719D01*
X21622702Y-63226382D01*
X21577039Y-63272045D01*
X21389077Y-63272045D01*
X21201114Y-63272045D01*
X21161039Y-63236859D01*
X21135943Y-63210567D01*
X21118193Y-63180012D01*
X21106665Y-63140908D01*
X21100233Y-63088968D01*
X21097773Y-63019906D01*
X21097642Y-62995214D01*
X21097632Y-62975236D01*
X21200320Y-62975236D01*
X21200320Y-63054331D01*
X21202402Y-63104696D01*
X21209144Y-63136586D01*
X21218259Y-63151365D01*
X21230191Y-63159018D01*
X21250490Y-63164233D01*
X21282934Y-63167413D01*
X21331304Y-63168964D01*
X21385742Y-63169304D01*
X21455830Y-63168780D01*
X21506305Y-63165910D01*
X21540384Y-63158745D01*
X21561281Y-63145337D01*
X21572211Y-63123737D01*
X21576391Y-63091996D01*
X21577039Y-63053377D01*
X21577039Y-62975236D01*
X21388679Y-62975236D01*
X21200320Y-62975236D01*
X21097632Y-62975236D01*
X21097578Y-62872495D01*
X21382971Y-62872495D01*
X21388679Y-62872495D01*
G37*
G36*
X21666360Y-45245462D02*
G01*
X21697774Y-45262031D01*
X21723682Y-45285163D01*
X21765398Y-45326861D01*
X21768504Y-45632060D01*
X21769353Y-45723894D01*
X21769698Y-45795775D01*
X21769371Y-45850580D01*
X21768205Y-45891185D01*
X21766035Y-45920467D01*
X21762692Y-45941301D01*
X21758009Y-45956564D01*
X21751821Y-45969132D01*
X21748631Y-45974464D01*
X21709350Y-46019346D01*
X21660991Y-46046451D01*
X21608199Y-46055706D01*
X21555618Y-46047037D01*
X21507893Y-46020372D01*
X21471623Y-45978852D01*
X21463470Y-45964774D01*
X21457194Y-45950002D01*
X21452513Y-45931414D01*
X21449142Y-45905887D01*
X21446801Y-45870299D01*
X21445204Y-45821529D01*
X21444070Y-45756452D01*
X21443116Y-45671948D01*
X21443030Y-45663281D01*
X21442431Y-45568753D01*
X21442808Y-45494393D01*
X21444269Y-45437556D01*
X21446923Y-45395594D01*
X21450877Y-45365863D01*
X21455991Y-45346386D01*
X21484832Y-45290650D01*
X21524072Y-45254967D01*
X21575278Y-45238337D01*
X21625685Y-45238058D01*
X21666360Y-45245462D01*
G37*
G36*
X24328230Y-58956899D02*
G01*
X24465219Y-58956899D01*
X24465219Y-59744584D01*
X24465219Y-60532270D01*
X24602207Y-60532270D01*
X24739196Y-60532270D01*
X24739196Y-61319955D01*
X24739196Y-62107641D01*
X24596500Y-62107641D01*
X24453803Y-62107641D01*
X24453803Y-61319955D01*
X24453803Y-60532270D01*
X24322522Y-60532270D01*
X24191241Y-60532270D01*
X24191241Y-59744584D01*
X24191241Y-58956899D01*
X24328230Y-58956899D01*
G37*
G36*
X23917264Y-56582427D02*
G01*
X23917264Y-57370113D01*
X24054252Y-57370113D01*
X24191241Y-57370113D01*
X24191241Y-56582427D01*
X24191241Y-55794742D01*
X24328230Y-55794742D01*
X24465219Y-55794742D01*
X24465219Y-56588135D01*
X24465219Y-57381528D01*
X24328230Y-57381528D01*
X24191241Y-57381528D01*
X24191241Y-58169214D01*
X24191241Y-58956899D01*
X24054252Y-58956899D01*
X23917264Y-58956899D01*
X23917264Y-58169214D01*
X23917264Y-57381528D01*
X23780275Y-57381528D01*
X23643286Y-57381528D01*
X23643286Y-56588135D01*
X23643286Y-55794742D01*
X23780275Y-55794742D01*
X23917264Y-55794742D01*
X23917264Y-56582427D01*
G37*
G36*
X22576377Y-69253888D02*
G01*
X22752859Y-69253888D01*
X22752859Y-69409343D01*
X22752859Y-69564799D01*
X22708539Y-69609118D01*
X22684921Y-69631732D01*
X22665442Y-69644949D01*
X22642707Y-69651292D01*
X22609319Y-69653283D01*
X22578587Y-69653438D01*
X22534626Y-69652995D01*
X22506351Y-69649950D01*
X22486617Y-69641730D01*
X22468278Y-69625763D01*
X22451671Y-69607743D01*
X22432100Y-69585262D01*
X22419962Y-69566426D01*
X22413480Y-69544855D01*
X22410881Y-69514169D01*
X22410389Y-69467987D01*
X22410387Y-69459338D01*
X22410387Y-69356629D01*
X22501713Y-69356629D01*
X22501713Y-69440850D01*
X22503649Y-69493036D01*
X22509744Y-69525298D01*
X22517950Y-69538545D01*
X22538860Y-69546018D01*
X22572849Y-69548969D01*
X22589298Y-69548505D01*
X22644410Y-69544989D01*
X22647725Y-69450809D01*
X22651041Y-69356629D01*
X22576377Y-69356629D01*
X22501713Y-69356629D01*
X22410387Y-69356629D01*
X22296230Y-69356629D01*
X22182073Y-69356629D01*
X22182073Y-69305259D01*
X22182073Y-69253888D01*
X22467466Y-69253888D01*
X22576377Y-69253888D01*
G37*
G36*
X21388679Y-68820090D02*
G01*
X21668365Y-68820090D01*
X21668365Y-68969997D01*
X21668365Y-69119903D01*
X21618496Y-69169772D01*
X21568627Y-69219641D01*
X21394383Y-69219641D01*
X21326097Y-69219347D01*
X21276458Y-69218162D01*
X21241289Y-69215625D01*
X21216408Y-69211277D01*
X21197637Y-69204661D01*
X21182500Y-69196379D01*
X21148139Y-69168499D01*
X21123648Y-69131625D01*
X21107852Y-69082316D01*
X21099577Y-69017135D01*
X21097578Y-68947767D01*
X21097578Y-68922832D01*
X21200320Y-68922832D01*
X21200320Y-68998989D01*
X21202611Y-69048998D01*
X21210086Y-69081213D01*
X21219213Y-69096023D01*
X21229582Y-69104632D01*
X21245042Y-69110526D01*
X21269623Y-69114198D01*
X21307361Y-69116142D01*
X21362286Y-69116851D01*
X21389801Y-69116899D01*
X21459044Y-69116280D01*
X21508708Y-69113007D01*
X21542042Y-69104958D01*
X21562293Y-69090010D01*
X21572709Y-69066039D01*
X21576537Y-69030922D01*
X21577039Y-68994494D01*
X21577039Y-68922832D01*
X21388679Y-68922832D01*
X21200320Y-68922832D01*
X21097578Y-68922832D01*
X21097578Y-68820090D01*
X21382971Y-68820090D01*
X21388679Y-68820090D01*
G37*
G36*
X24572721Y-46679423D02*
G01*
X24623501Y-46701083D01*
X24664931Y-46738045D01*
X24676410Y-46754774D01*
X24683436Y-46768056D01*
X24688857Y-46783141D01*
X24692881Y-46803007D01*
X24695712Y-46830630D01*
X24697558Y-46868988D01*
X24698624Y-46921057D01*
X24699116Y-46989816D01*
X24699241Y-47078241D01*
X24699241Y-47084539D01*
X24699137Y-47174237D01*
X24698684Y-47244095D01*
X24697672Y-47297103D01*
X24695893Y-47336252D01*
X24693135Y-47364533D01*
X24689190Y-47384937D01*
X24683848Y-47400454D01*
X24676898Y-47414075D01*
X24676021Y-47415596D01*
X24638034Y-47459963D01*
X24587318Y-47485940D01*
X24525938Y-47492527D01*
X24518350Y-47492001D01*
X24478585Y-47485133D01*
X24447766Y-47469101D01*
X24421317Y-47445534D01*
X24379601Y-47403836D01*
X24377380Y-47098637D01*
X24377025Y-47016741D01*
X24377160Y-46941865D01*
X24377741Y-46877191D01*
X24378727Y-46825899D01*
X24380074Y-46791170D01*
X24381687Y-46776315D01*
X24400675Y-46746169D01*
X24431710Y-46714621D01*
X24466304Y-46690246D01*
X24467506Y-46689612D01*
X24518690Y-46674965D01*
X24572721Y-46679423D01*
G37*
G36*
X22484190Y-55908899D02*
G01*
X22718612Y-55908899D01*
X22718612Y-56114949D01*
X22718300Y-56195394D01*
X22716722Y-56256801D01*
X22712913Y-56302962D01*
X22705908Y-56337671D01*
X22694742Y-56364718D01*
X22678452Y-56387896D01*
X22656072Y-56410997D01*
X22639408Y-56426319D01*
X22592973Y-56468270D01*
X22486245Y-56468270D01*
X22433199Y-56467520D01*
X22396804Y-56464543D01*
X22370907Y-56458243D01*
X22349354Y-56447528D01*
X22341777Y-56442584D01*
X22302170Y-56410472D01*
X22273693Y-56373577D01*
X22254809Y-56327784D01*
X22243980Y-56268980D01*
X22239670Y-56193051D01*
X22239424Y-56168607D01*
X22239151Y-56068719D01*
X22398173Y-56068719D01*
X22401426Y-56185731D01*
X22404679Y-56302742D01*
X22471283Y-56306194D01*
X22513163Y-56307048D01*
X22541199Y-56302024D01*
X22558153Y-56287480D01*
X22566790Y-56259772D01*
X22569873Y-56215256D01*
X22570207Y-56175771D01*
X22570207Y-56068719D01*
X22484190Y-56068719D01*
X22398173Y-56068719D01*
X22239151Y-56068719D01*
X22096455Y-56068719D01*
X21953758Y-56068719D01*
X21953758Y-55988809D01*
X21953758Y-55908899D01*
X22336185Y-55908899D01*
X22484190Y-55908899D01*
G37*
G36*
X24630747Y-69573528D02*
G01*
X24637601Y-69573528D01*
X24924141Y-69573528D01*
X24920140Y-69719375D01*
X24918105Y-69780779D01*
X24915424Y-69823992D01*
X24911310Y-69853655D01*
X24904973Y-69874407D01*
X24895624Y-69890888D01*
X24889617Y-69898923D01*
X24867316Y-69925529D01*
X24845882Y-69944876D01*
X24821228Y-69958116D01*
X24789266Y-69966398D01*
X24745910Y-69970873D01*
X24687074Y-69972690D01*
X24626391Y-69973004D01*
X24450799Y-69973079D01*
X24400930Y-69923210D01*
X24351061Y-69873341D01*
X24351061Y-69723435D01*
X24351061Y-69676270D01*
X24442387Y-69676270D01*
X24442387Y-69752427D01*
X24444678Y-69802436D01*
X24452154Y-69834651D01*
X24461280Y-69849461D01*
X24471773Y-69858152D01*
X24487431Y-69864073D01*
X24512335Y-69867733D01*
X24550569Y-69869640D01*
X24606215Y-69870304D01*
X24628763Y-69870337D01*
X24698652Y-69869804D01*
X24748936Y-69866897D01*
X24782839Y-69859651D01*
X24803584Y-69846105D01*
X24814394Y-69824295D01*
X24818492Y-69792258D01*
X24819106Y-69754411D01*
X24819106Y-69676270D01*
X24630747Y-69676270D01*
X24442387Y-69676270D01*
X24351061Y-69676270D01*
X24351061Y-69573528D01*
X24630747Y-69573528D01*
G37*
G36*
X24581313Y-45240459D02*
G01*
X24621631Y-45256882D01*
X24643842Y-45271866D01*
X24661363Y-45287582D01*
X24674749Y-45306810D01*
X24684552Y-45332328D01*
X24691329Y-45366916D01*
X24695631Y-45413354D01*
X24698015Y-45474422D01*
X24699033Y-45552897D01*
X24699241Y-45646157D01*
X24699171Y-45735354D01*
X24698804Y-45804719D01*
X24697909Y-45857250D01*
X24696251Y-45895946D01*
X24693597Y-45923807D01*
X24689715Y-45943832D01*
X24684371Y-45959019D01*
X24677331Y-45972368D01*
X24673376Y-45978852D01*
X24634467Y-46022445D01*
X24586316Y-46048019D01*
X24533607Y-46055648D01*
X24481022Y-46045408D01*
X24433245Y-46017371D01*
X24396663Y-45974464D01*
X24389688Y-45961661D01*
X24384317Y-45947003D01*
X24380351Y-45927526D01*
X24377591Y-45900268D01*
X24375838Y-45862267D01*
X24374895Y-45810561D01*
X24374562Y-45742187D01*
X24374641Y-45654184D01*
X24374659Y-45646157D01*
X24375207Y-45565801D01*
X24376394Y-45492136D01*
X24378109Y-45428515D01*
X24380246Y-45378288D01*
X24382693Y-45344807D01*
X24384846Y-45332225D01*
X24399106Y-45309885D01*
X24422684Y-45282838D01*
X24429533Y-45276106D01*
X24473662Y-45248706D01*
X24527042Y-45236544D01*
X24581313Y-45240459D01*
G37*
G36*
X24762970Y-51143141D02*
G01*
X24773443Y-51148274D01*
X24797493Y-51160061D01*
X24844895Y-51186184D01*
X24902095Y-51219813D01*
X24966014Y-51259248D01*
X24966957Y-51259843D01*
X25161468Y-51382562D01*
X25161523Y-51425371D01*
X25161578Y-51468180D01*
X24967511Y-51468180D01*
X24773443Y-51468180D01*
X24773443Y-51502427D01*
X24770372Y-51526903D01*
X24757315Y-51535856D01*
X24744904Y-51536674D01*
X24724508Y-51532988D01*
X24717046Y-51517320D01*
X24716365Y-51502427D01*
X24716365Y-51468180D01*
X24647870Y-51468180D01*
X24609910Y-51467576D01*
X24589415Y-51464274D01*
X24581025Y-51456040D01*
X24579377Y-51440641D01*
X24579376Y-51439641D01*
X24580826Y-51423824D01*
X24588751Y-51415284D01*
X24608512Y-51411788D01*
X24645470Y-51411102D01*
X24647870Y-51411101D01*
X24716365Y-51411101D01*
X24716365Y-51308281D01*
X24773443Y-51308281D01*
X24773443Y-51411101D01*
X24936117Y-51410862D01*
X25098792Y-51410622D01*
X25030297Y-51366902D01*
X24988088Y-51340102D01*
X24935862Y-51307143D01*
X24882983Y-51273932D01*
X24867623Y-51264321D01*
X24773443Y-51205462D01*
X24773443Y-51308281D01*
X24716365Y-51308281D01*
X24716365Y-51274113D01*
X24716365Y-51137124D01*
X24744405Y-51137124D01*
X24762970Y-51143141D01*
G37*
G36*
X21102147Y-60498353D02*
G01*
X21120254Y-60500282D01*
X21139179Y-60505213D01*
X21161664Y-60514552D01*
X21175790Y-60521988D01*
X21190447Y-60529704D01*
X21228271Y-60552075D01*
X21277875Y-60583069D01*
X21342001Y-60624091D01*
X21396523Y-60659220D01*
X21646478Y-60820418D01*
X21643152Y-60901805D01*
X21639825Y-60983191D01*
X21402949Y-60986277D01*
X21166073Y-60989362D01*
X21166073Y-61029086D01*
X21166073Y-61068809D01*
X21091870Y-61068809D01*
X21017668Y-61068809D01*
X21017668Y-61028854D01*
X21017668Y-60988899D01*
X20943466Y-60988899D01*
X20869264Y-60988899D01*
X20869264Y-60908989D01*
X20869264Y-60829079D01*
X20943466Y-60829079D01*
X21017668Y-60829079D01*
X21017668Y-60726979D01*
X21165886Y-60726979D01*
X21166048Y-60759237D01*
X21169199Y-60791280D01*
X21175024Y-60815540D01*
X21181296Y-60824222D01*
X21199214Y-60826537D01*
X21233499Y-60827564D01*
X21277716Y-60827157D01*
X21292443Y-60826717D01*
X21388366Y-60823371D01*
X21286937Y-60757731D01*
X21244293Y-60730695D01*
X21208529Y-60709068D01*
X21184067Y-60695461D01*
X21175790Y-60692090D01*
X21169028Y-60702074D01*
X21165886Y-60726979D01*
X21017668Y-60726979D01*
X21017668Y-60663551D01*
X21017668Y-60498023D01*
X21082118Y-60498023D01*
X21102147Y-60498353D01*
G37*
G36*
X22576377Y-70315551D02*
G01*
X22752859Y-70315551D01*
X22752859Y-70471006D01*
X22752859Y-70626461D01*
X22708539Y-70670781D01*
X22684462Y-70693752D01*
X22664575Y-70706993D01*
X22641209Y-70713182D01*
X22606695Y-70714997D01*
X22581623Y-70715101D01*
X22538205Y-70714504D01*
X22509959Y-70710935D01*
X22489227Y-70701732D01*
X22468350Y-70684233D01*
X22454987Y-70671061D01*
X22430169Y-70647461D01*
X22412604Y-70633034D01*
X22407274Y-70630694D01*
X22396042Y-70636711D01*
X22368506Y-70650137D01*
X22329106Y-70668834D01*
X22292837Y-70685776D01*
X22182073Y-70737185D01*
X22182073Y-70682209D01*
X22182073Y-70627233D01*
X22296230Y-70574628D01*
X22410387Y-70522024D01*
X22410387Y-70470158D01*
X22410387Y-70418292D01*
X22501713Y-70418292D01*
X22501713Y-70496021D01*
X22503924Y-70542055D01*
X22509860Y-70577714D01*
X22516361Y-70593781D01*
X22531975Y-70606337D01*
X22558343Y-70610957D01*
X22587709Y-70610232D01*
X22644410Y-70606652D01*
X22647725Y-70512472D01*
X22651041Y-70418292D01*
X22576377Y-70418292D01*
X22501713Y-70418292D01*
X22410387Y-70418292D01*
X22296230Y-70418292D01*
X22182073Y-70418292D01*
X22182073Y-70366922D01*
X22182073Y-70315551D01*
X22467466Y-70315551D01*
X22576377Y-70315551D01*
G37*
G36*
X23586011Y-45241071D02*
G01*
X23636039Y-45262815D01*
X23678254Y-45302111D01*
X23689011Y-45317851D01*
X23695991Y-45330695D01*
X23701378Y-45345467D01*
X23705376Y-45365129D01*
X23708189Y-45392643D01*
X23710023Y-45430971D01*
X23711082Y-45483076D01*
X23711571Y-45551919D01*
X23711695Y-45640461D01*
X23711695Y-45646157D01*
X23711586Y-45735911D01*
X23711124Y-45805796D01*
X23710102Y-45858774D01*
X23708318Y-45897808D01*
X23705566Y-45925858D01*
X23701641Y-45945888D01*
X23696339Y-45960859D01*
X23689454Y-45973733D01*
X23689011Y-45974464D01*
X23649004Y-46021504D01*
X23599056Y-46048054D01*
X23539639Y-46053868D01*
X23536840Y-46053645D01*
X23477625Y-46039677D01*
X23432113Y-46008107D01*
X23401860Y-45965609D01*
X23395190Y-45951189D01*
X23390076Y-45933921D01*
X23386316Y-45910756D01*
X23383707Y-45878647D01*
X23382050Y-45834546D01*
X23381141Y-45775403D01*
X23380780Y-45698172D01*
X23380742Y-45646336D01*
X23380925Y-45557001D01*
X23381587Y-45487470D01*
X23382917Y-45434716D01*
X23385104Y-45395712D01*
X23388338Y-45367434D01*
X23392808Y-45346853D01*
X23398703Y-45330944D01*
X23400720Y-45326745D01*
X23435526Y-45279715D01*
X23481108Y-45249664D01*
X23532819Y-45236735D01*
X23586011Y-45241071D01*
G37*
G36*
X23596659Y-46681955D02*
G01*
X23647031Y-46707606D01*
X23687480Y-46753758D01*
X23689011Y-46756233D01*
X23695991Y-46769077D01*
X23701378Y-46783849D01*
X23705376Y-46803511D01*
X23708189Y-46831025D01*
X23710023Y-46869353D01*
X23711082Y-46921458D01*
X23711571Y-46990301D01*
X23711695Y-47078843D01*
X23711695Y-47084539D01*
X23711586Y-47174293D01*
X23711124Y-47244178D01*
X23710102Y-47297156D01*
X23708318Y-47336190D01*
X23705566Y-47364240D01*
X23701641Y-47384270D01*
X23696339Y-47399241D01*
X23689454Y-47412115D01*
X23689011Y-47412846D01*
X23650155Y-47457603D01*
X23602048Y-47484764D01*
X23549339Y-47494472D01*
X23496673Y-47486870D01*
X23448698Y-47462103D01*
X23410060Y-47420312D01*
X23400720Y-47403952D01*
X23394373Y-47388837D01*
X23389507Y-47369933D01*
X23385932Y-47344214D01*
X23383458Y-47308655D01*
X23381897Y-47260228D01*
X23381060Y-47195908D01*
X23380757Y-47112668D01*
X23380742Y-47084361D01*
X23380886Y-46995765D01*
X23381466Y-46926951D01*
X23382682Y-46874871D01*
X23384738Y-46836477D01*
X23387833Y-46808720D01*
X23392170Y-46788553D01*
X23397951Y-46772928D01*
X23401860Y-46765088D01*
X23437852Y-46716961D01*
X23485140Y-46688004D01*
X23536840Y-46677052D01*
X23596659Y-46681955D01*
G37*
G36*
X21099143Y-61263293D02*
G01*
X21117093Y-61265474D01*
X21136299Y-61270814D01*
X21159481Y-61280710D01*
X21173398Y-61288093D01*
X21189356Y-61296558D01*
X21228643Y-61319752D01*
X21280059Y-61351691D01*
X21346324Y-61393768D01*
X21394131Y-61424328D01*
X21646468Y-61585780D01*
X21643146Y-61666912D01*
X21639825Y-61748045D01*
X21402949Y-61751131D01*
X21166073Y-61754216D01*
X21166073Y-61799648D01*
X21166073Y-61845079D01*
X21091870Y-61845079D01*
X21017668Y-61845079D01*
X21017668Y-61799416D01*
X21017668Y-61753753D01*
X20943466Y-61753753D01*
X20869264Y-61753753D01*
X20869264Y-61673843D01*
X20869264Y-61593933D01*
X20943466Y-61593933D01*
X21017668Y-61593933D01*
X21017668Y-61525438D01*
X21166073Y-61525438D01*
X21166073Y-61593933D01*
X21274522Y-61593933D01*
X21321125Y-61593475D01*
X21357696Y-61592245D01*
X21379277Y-61590457D01*
X21382971Y-61589245D01*
X21373999Y-61581549D01*
X21350336Y-61565174D01*
X21316860Y-61543198D01*
X21278449Y-61518704D01*
X21239984Y-61494769D01*
X21206342Y-61474475D01*
X21182402Y-61460901D01*
X21173398Y-61456944D01*
X21169534Y-61467317D01*
X21166880Y-61494278D01*
X21166073Y-61525438D01*
X21017668Y-61525438D01*
X21017668Y-61428405D01*
X21017668Y-61262877D01*
X21079731Y-61262877D01*
X21099143Y-61263293D01*
G37*
G36*
X22653324Y-45250144D02*
G01*
X22699938Y-45280846D01*
X22730089Y-45317851D01*
X22737070Y-45330695D01*
X22742456Y-45345467D01*
X22746454Y-45365129D01*
X22749268Y-45392643D01*
X22751102Y-45430971D01*
X22752161Y-45483076D01*
X22752650Y-45551919D01*
X22752773Y-45640461D01*
X22752774Y-45646157D01*
X22752665Y-45735911D01*
X22752202Y-45805796D01*
X22751181Y-45858774D01*
X22749397Y-45897808D01*
X22746644Y-45925858D01*
X22742719Y-45945888D01*
X22737417Y-45960859D01*
X22730533Y-45973733D01*
X22730089Y-45974464D01*
X22690889Y-46019923D01*
X22642920Y-46047122D01*
X22590689Y-46056205D01*
X22538702Y-46047318D01*
X22491467Y-46020605D01*
X22453491Y-45976211D01*
X22447488Y-45965388D01*
X22439333Y-45948496D01*
X22433134Y-45931601D01*
X22428645Y-45911448D01*
X22425615Y-45884781D01*
X22423797Y-45848348D01*
X22422940Y-45798891D01*
X22422798Y-45733158D01*
X22423121Y-45647893D01*
X22423127Y-45646593D01*
X22423739Y-45569371D01*
X22424736Y-45498861D01*
X22426032Y-45438578D01*
X22427543Y-45392041D01*
X22429184Y-45362765D01*
X22430168Y-45355056D01*
X22440771Y-45329686D01*
X22458250Y-45300706D01*
X22458283Y-45300659D01*
X22498616Y-45261417D01*
X22547806Y-45240122D01*
X22600994Y-45236466D01*
X22653324Y-45250144D01*
G37*
G36*
X22631887Y-46679985D02*
G01*
X22681141Y-46703359D01*
X22722585Y-46744852D01*
X22730089Y-46756233D01*
X22737070Y-46769077D01*
X22742456Y-46783849D01*
X22746454Y-46803511D01*
X22749268Y-46831025D01*
X22751102Y-46869353D01*
X22752161Y-46921458D01*
X22752650Y-46990301D01*
X22752773Y-47078843D01*
X22752774Y-47084539D01*
X22752665Y-47174293D01*
X22752202Y-47244178D01*
X22751181Y-47297156D01*
X22749397Y-47336190D01*
X22746644Y-47364240D01*
X22742719Y-47384270D01*
X22737417Y-47399241D01*
X22730533Y-47412115D01*
X22730089Y-47412846D01*
X22690651Y-47458383D01*
X22641866Y-47485897D01*
X22588366Y-47495194D01*
X22534786Y-47486082D01*
X22485758Y-47458367D01*
X22454096Y-47424330D01*
X22445884Y-47412070D01*
X22439522Y-47399177D01*
X22434731Y-47382655D01*
X22431235Y-47359512D01*
X22428756Y-47326754D01*
X22427016Y-47281388D01*
X22425738Y-47220421D01*
X22424644Y-47140859D01*
X22424179Y-47101663D01*
X22423218Y-47013431D01*
X22422793Y-46944898D01*
X22423115Y-46892936D01*
X22424397Y-46854415D01*
X22426850Y-46826205D01*
X22430688Y-46805177D01*
X22436121Y-46788202D01*
X22443363Y-46772149D01*
X22447010Y-46764899D01*
X22482384Y-46717185D01*
X22527997Y-46687035D01*
X22579335Y-46674589D01*
X22631887Y-46679985D01*
G37*
G36*
X23550005Y-69813259D02*
G01*
X23551960Y-69813259D01*
X23737616Y-69813259D01*
X23787485Y-69863127D01*
X23837353Y-69912996D01*
X23837353Y-70030157D01*
X23837353Y-70147319D01*
X23787485Y-70197188D01*
X23737616Y-70247056D01*
X23551960Y-70247056D01*
X23366304Y-70247056D01*
X23316436Y-70197188D01*
X23266567Y-70147319D01*
X23266567Y-70030157D01*
X23266567Y-70028174D01*
X23357893Y-70028174D01*
X23360350Y-70078092D01*
X23368315Y-70110146D01*
X23376786Y-70123438D01*
X23386940Y-70131905D01*
X23402057Y-70137750D01*
X23426081Y-70141442D01*
X23462958Y-70143447D01*
X23516632Y-70144233D01*
X23553082Y-70144315D01*
X23623538Y-70143721D01*
X23674367Y-70140650D01*
X23708766Y-70133168D01*
X23729933Y-70119342D01*
X23741066Y-70097236D01*
X23745362Y-70064916D01*
X23746028Y-70027617D01*
X23744691Y-69987075D01*
X23738578Y-69957726D01*
X23724535Y-69937775D01*
X23699407Y-69925426D01*
X23660041Y-69918883D01*
X23603281Y-69916350D01*
X23550005Y-69916000D01*
X23479734Y-69916542D01*
X23429084Y-69919414D01*
X23394847Y-69926490D01*
X23373816Y-69939642D01*
X23362786Y-69960741D01*
X23358549Y-69991662D01*
X23357893Y-70028174D01*
X23266567Y-70028174D01*
X23266567Y-69912996D01*
X23316436Y-69863127D01*
X23366304Y-69813259D01*
X23550005Y-69813259D01*
G37*
G36*
X22210179Y-70836731D02*
G01*
X22243166Y-70848277D01*
X22291524Y-70865186D01*
X22352161Y-70886376D01*
X22413241Y-70907713D01*
X22421985Y-70910767D01*
X22481735Y-70931632D01*
X22752859Y-71026298D01*
X22752859Y-71086267D01*
X22751146Y-71123572D01*
X22744897Y-71143717D01*
X22732882Y-71152067D01*
X22716869Y-71157319D01*
X22682501Y-71168974D01*
X22632987Y-71185932D01*
X22571535Y-71207090D01*
X22501354Y-71231348D01*
X22447488Y-71250021D01*
X22182073Y-71342143D01*
X22182073Y-71287330D01*
X22182073Y-71232517D01*
X22244859Y-71211176D01*
X22307646Y-71189834D01*
X22307646Y-71085178D01*
X22307646Y-71084167D01*
X22398971Y-71084167D01*
X22398971Y-71158867D01*
X22493151Y-71127139D01*
X22537938Y-71112069D01*
X22575643Y-71099414D01*
X22600097Y-71091244D01*
X22604455Y-71089804D01*
X22602174Y-71084142D01*
X22581873Y-71073597D01*
X22547360Y-71059967D01*
X22524544Y-71052086D01*
X22479530Y-71037134D01*
X22442049Y-71024580D01*
X22417954Y-71016387D01*
X22413241Y-71014723D01*
X22405101Y-71018367D01*
X22400546Y-71038673D01*
X22398986Y-71078509D01*
X22398971Y-71084167D01*
X22307646Y-71084167D01*
X22307646Y-70980523D01*
X22247713Y-70959037D01*
X22187780Y-70937551D01*
X22184240Y-70881920D01*
X22183591Y-70847819D01*
X22187882Y-70832577D01*
X22195656Y-70831628D01*
X22210179Y-70836731D01*
G37*
G36*
X22210179Y-63473585D02*
G01*
X22243166Y-63485131D01*
X22291524Y-63502040D01*
X22352161Y-63523230D01*
X22413241Y-63544567D01*
X22421985Y-63547621D01*
X22481735Y-63568486D01*
X22752859Y-63663152D01*
X22752859Y-63724452D01*
X22752132Y-63758381D01*
X22750262Y-63780643D01*
X22748540Y-63785753D01*
X22737027Y-63789314D01*
X22706820Y-63799345D01*
X22660809Y-63814867D01*
X22601883Y-63834901D01*
X22532931Y-63858469D01*
X22463147Y-63882423D01*
X22182073Y-63979094D01*
X22182073Y-63924743D01*
X22182073Y-63870391D01*
X22244859Y-63849049D01*
X22307646Y-63827708D01*
X22307646Y-63722542D01*
X22307646Y-63721021D01*
X22398971Y-63721021D01*
X22398971Y-63795721D01*
X22493151Y-63763993D01*
X22537938Y-63748923D01*
X22575643Y-63736268D01*
X22600097Y-63728098D01*
X22604455Y-63726657D01*
X22602174Y-63720996D01*
X22581873Y-63710451D01*
X22547360Y-63696821D01*
X22524544Y-63688940D01*
X22479530Y-63673988D01*
X22442049Y-63661434D01*
X22417954Y-63653241D01*
X22413241Y-63651577D01*
X22405101Y-63655221D01*
X22400546Y-63675527D01*
X22398986Y-63715363D01*
X22398971Y-63721021D01*
X22307646Y-63721021D01*
X22307646Y-63617377D01*
X22247713Y-63595891D01*
X22187780Y-63574405D01*
X22184240Y-63518774D01*
X22183591Y-63484673D01*
X22187882Y-63469431D01*
X22195656Y-63468482D01*
X22210179Y-63473585D01*
G37*
G36*
X22702990Y-65399577D02*
G01*
X22752859Y-65449445D01*
X22752859Y-65555032D01*
X22752859Y-65660619D01*
X22708539Y-65704939D01*
X22681826Y-65729562D01*
X22660359Y-65745654D01*
X22651901Y-65749259D01*
X22641550Y-65739322D01*
X22630551Y-65714466D01*
X22627379Y-65703942D01*
X22620912Y-65672857D01*
X22624164Y-65653204D01*
X22638355Y-65635448D01*
X22654469Y-65605930D01*
X22661571Y-65564607D01*
X22659340Y-65520788D01*
X22647459Y-65483779D01*
X22643762Y-65477821D01*
X22635334Y-65467579D01*
X22624231Y-65460539D01*
X22606421Y-65456104D01*
X22577872Y-65453675D01*
X22534551Y-65452656D01*
X22472526Y-65452450D01*
X22409633Y-65452753D01*
X22365413Y-65454023D01*
X22335709Y-65456797D01*
X22316367Y-65461614D01*
X22303231Y-65469011D01*
X22296230Y-65475281D01*
X22278737Y-65506766D01*
X22272368Y-65548907D01*
X22277064Y-65592453D01*
X22292768Y-65628154D01*
X22297224Y-65633539D01*
X22312787Y-65655552D01*
X22315150Y-65679977D01*
X22311273Y-65700454D01*
X22301228Y-65728790D01*
X22289021Y-65745554D01*
X22286792Y-65746697D01*
X22271518Y-65741707D01*
X22247368Y-65723714D01*
X22227081Y-65704285D01*
X22182073Y-65656971D01*
X22182073Y-65553208D01*
X22182073Y-65449445D01*
X22231941Y-65399577D01*
X22281810Y-65349708D01*
X22467466Y-65349708D01*
X22653122Y-65349708D01*
X22702990Y-65399577D01*
G37*
G36*
X23549106Y-72738340D02*
G01*
X23660410Y-72739543D01*
X23831646Y-72741393D01*
X23831646Y-72899204D01*
X23831646Y-73057016D01*
X23783571Y-73101834D01*
X23756191Y-73126000D01*
X23733864Y-73139426D01*
X23707884Y-73145256D01*
X23669550Y-73146634D01*
X23659509Y-73146652D01*
X23617896Y-73145866D01*
X23590693Y-73141414D01*
X23569483Y-73130150D01*
X23545849Y-73108934D01*
X23538223Y-73101353D01*
X23492925Y-73056055D01*
X23405431Y-73099850D01*
X23349901Y-73127401D01*
X23311586Y-73144888D01*
X23287293Y-73152479D01*
X23273828Y-73150344D01*
X23267994Y-73138650D01*
X23266598Y-73117564D01*
X23266567Y-73107154D01*
X23266567Y-73054703D01*
X23377870Y-73000790D01*
X23489174Y-72946877D01*
X23489174Y-72895506D01*
X23489174Y-72844135D01*
X23377870Y-72840868D01*
X23294733Y-72838427D01*
X23586207Y-72838427D01*
X23586207Y-72927470D01*
X23588016Y-72977601D01*
X23593043Y-73013572D01*
X23599906Y-73030211D01*
X23619426Y-73038937D01*
X23650969Y-73043644D01*
X23660410Y-73043910D01*
X23693383Y-73040751D01*
X23717319Y-73032897D01*
X23720913Y-73030211D01*
X23728347Y-73011020D01*
X23733108Y-72973584D01*
X23734612Y-72927470D01*
X23734612Y-72838427D01*
X23660410Y-72838427D01*
X23586207Y-72838427D01*
X23294733Y-72838427D01*
X23266567Y-72837600D01*
X23266567Y-72786444D01*
X23266567Y-72735287D01*
X23549106Y-72738340D01*
G37*
G36*
X23660410Y-63945573D02*
G01*
X23837353Y-63945573D01*
X23837353Y-64092289D01*
X23837015Y-64153952D01*
X23835554Y-64197564D01*
X23832304Y-64227899D01*
X23826598Y-64249734D01*
X23817769Y-64267843D01*
X23811441Y-64277795D01*
X23770954Y-64319865D01*
X23719758Y-64345992D01*
X23663143Y-64355904D01*
X23606400Y-64349330D01*
X23554820Y-64325995D01*
X23519043Y-64292851D01*
X23493709Y-64260644D01*
X23385695Y-64314299D01*
X23340796Y-64336357D01*
X23303911Y-64354016D01*
X23279528Y-64365155D01*
X23272124Y-64367955D01*
X23268891Y-64357711D01*
X23266907Y-64331651D01*
X23266607Y-64313731D01*
X23266647Y-64259506D01*
X23380764Y-64206214D01*
X23494882Y-64152923D01*
X23494882Y-64100619D01*
X23494882Y-64048315D01*
X23586207Y-64048315D01*
X23586207Y-64130180D01*
X23588075Y-64180720D01*
X23594273Y-64213560D01*
X23605100Y-64232922D01*
X23633429Y-64249250D01*
X23671445Y-64253113D01*
X23709186Y-64243672D01*
X23712531Y-64241981D01*
X23723779Y-64232923D01*
X23730463Y-64217168D01*
X23733700Y-64189515D01*
X23734606Y-64144768D01*
X23734612Y-64139239D01*
X23734612Y-64048315D01*
X23660410Y-64048315D01*
X23586207Y-64048315D01*
X23494882Y-64048315D01*
X23380724Y-64048315D01*
X23266567Y-64048315D01*
X23266567Y-63996944D01*
X23266567Y-63945573D01*
X23551960Y-63945573D01*
X23660410Y-63945573D01*
G37*
G36*
X21125691Y-64222840D02*
G01*
X21158641Y-64232961D01*
X21206957Y-64248640D01*
X21267554Y-64268862D01*
X21334971Y-64291806D01*
X21337349Y-64292615D01*
X21397712Y-64313470D01*
X21669306Y-64407910D01*
X21665982Y-64469163D01*
X21662657Y-64530416D01*
X21388679Y-64625922D01*
X21313791Y-64651913D01*
X21245986Y-64675230D01*
X21188254Y-64694862D01*
X21143583Y-64709798D01*
X21114962Y-64719029D01*
X21105514Y-64721635D01*
X21100795Y-64711579D01*
X21099177Y-64685794D01*
X21099807Y-64668544D01*
X21102810Y-64637245D01*
X21110431Y-64619245D01*
X21128466Y-64607623D01*
X21160365Y-64596237D01*
X21217443Y-64577227D01*
X21220444Y-64471918D01*
X21325893Y-64471918D01*
X21327303Y-64512376D01*
X21331947Y-64532949D01*
X21340162Y-64536533D01*
X21357007Y-64530480D01*
X21389269Y-64518861D01*
X21430888Y-64503861D01*
X21444682Y-64498887D01*
X21534931Y-64466342D01*
X21439490Y-64434272D01*
X21395732Y-64419894D01*
X21360275Y-64408851D01*
X21338619Y-64402829D01*
X21334971Y-64402202D01*
X21330220Y-64412583D01*
X21326933Y-64439605D01*
X21325893Y-64471918D01*
X21220444Y-64471918D01*
X21220506Y-64469737D01*
X21223568Y-64362247D01*
X21163427Y-64339416D01*
X21129145Y-64325456D01*
X21110808Y-64312908D01*
X21102850Y-64295533D01*
X21099776Y-64268068D01*
X21099971Y-64234424D01*
X21107333Y-64220163D01*
X21111191Y-64219290D01*
X21125691Y-64222840D01*
G37*
G36*
X22575915Y-73260809D02*
G01*
X22752859Y-73260809D01*
X22752859Y-73415364D01*
X22752859Y-73569918D01*
X22708015Y-73617993D01*
X22683651Y-73643112D01*
X22664111Y-73657479D01*
X22641583Y-73664097D01*
X22608256Y-73665971D01*
X22582992Y-73666068D01*
X22540214Y-73665403D01*
X22512227Y-73661490D01*
X22490994Y-73651452D01*
X22468476Y-73632414D01*
X22456424Y-73620770D01*
X22410035Y-73575472D01*
X22301611Y-73629332D01*
X22256546Y-73651445D01*
X22219405Y-73669158D01*
X22194700Y-73680350D01*
X22187004Y-73683191D01*
X22184050Y-73672989D01*
X22183505Y-73647053D01*
X22184301Y-73629504D01*
X22187780Y-73575816D01*
X22299084Y-73521303D01*
X22410387Y-73466789D01*
X22410387Y-73415170D01*
X22410387Y-73363551D01*
X22501713Y-73363551D01*
X22501713Y-73448521D01*
X22502506Y-73493428D01*
X22505861Y-73521455D01*
X22513241Y-73538528D01*
X22526109Y-73550573D01*
X22527085Y-73551263D01*
X22568778Y-73567509D01*
X22613280Y-73563545D01*
X22628037Y-73557216D01*
X22639285Y-73548159D01*
X22645969Y-73532404D01*
X22649205Y-73504751D01*
X22650112Y-73460004D01*
X22650117Y-73454475D01*
X22650117Y-73363551D01*
X22575915Y-73363551D01*
X22501713Y-73363551D01*
X22410387Y-73363551D01*
X22296230Y-73363551D01*
X22182073Y-73363551D01*
X22182073Y-73312180D01*
X22182073Y-73260809D01*
X22467466Y-73260809D01*
X22575915Y-73260809D01*
G37*
G36*
X23551960Y-66582607D02*
G01*
X23837353Y-66582607D01*
X23837278Y-66728157D01*
X23836392Y-66797397D01*
X23832765Y-66848469D01*
X23824823Y-66886008D01*
X23810991Y-66914648D01*
X23789694Y-66939024D01*
X23759358Y-66963768D01*
X23756492Y-66965904D01*
X23741036Y-66976812D01*
X23726143Y-66984484D01*
X23707737Y-66989395D01*
X23681745Y-66992020D01*
X23644095Y-66992837D01*
X23590712Y-66992320D01*
X23538577Y-66991357D01*
X23470769Y-66989880D01*
X23421864Y-66988117D01*
X23387936Y-66985466D01*
X23365059Y-66981328D01*
X23349307Y-66975102D01*
X23336754Y-66966186D01*
X23329155Y-66959326D01*
X23304563Y-66933860D01*
X23287316Y-66907996D01*
X23276156Y-66877035D01*
X23269822Y-66836281D01*
X23267057Y-66781037D01*
X23266567Y-66725870D01*
X23266567Y-66685348D01*
X23369309Y-66685348D01*
X23369309Y-66767214D01*
X23371176Y-66817754D01*
X23377375Y-66850594D01*
X23388201Y-66869955D01*
X23398935Y-66878803D01*
X23414980Y-66884774D01*
X23440516Y-66888408D01*
X23479721Y-66890243D01*
X23536776Y-66890820D01*
X23549977Y-66890832D01*
X23618646Y-66890279D01*
X23667762Y-66887182D01*
X23700596Y-66879384D01*
X23720424Y-66864729D01*
X23730519Y-66841060D01*
X23734154Y-66806221D01*
X23734612Y-66769197D01*
X23734612Y-66685348D01*
X23551960Y-66685348D01*
X23369309Y-66685348D01*
X23266567Y-66685348D01*
X23266567Y-66582607D01*
X23551960Y-66582607D01*
G37*
G36*
X22484190Y-56673753D02*
G01*
X22718612Y-56673753D01*
X22718612Y-56879803D01*
X22718300Y-56960247D01*
X22716722Y-57021655D01*
X22712913Y-57067816D01*
X22705908Y-57102525D01*
X22694742Y-57129572D01*
X22678452Y-57152750D01*
X22656072Y-57175851D01*
X22639408Y-57191173D01*
X22616689Y-57211002D01*
X22597806Y-57223327D01*
X22576393Y-57229933D01*
X22546083Y-57232603D01*
X22500507Y-57233121D01*
X22489697Y-57233124D01*
X22425525Y-57231126D01*
X22378119Y-57223688D01*
X22341650Y-57208643D01*
X22310289Y-57183826D01*
X22286795Y-57157715D01*
X22252474Y-57116078D01*
X22151633Y-57170574D01*
X22102097Y-57197522D01*
X22054194Y-57223887D01*
X22015390Y-57245547D01*
X22002275Y-57253013D01*
X21953758Y-57280956D01*
X21953758Y-57191085D01*
X21953758Y-57101213D01*
X22096252Y-57027326D01*
X22238746Y-56953438D01*
X22238949Y-56893506D01*
X22239151Y-56833573D01*
X22398173Y-56833573D01*
X22401426Y-56950584D01*
X22404679Y-57067596D01*
X22471283Y-57071048D01*
X22513163Y-57071901D01*
X22541199Y-57066878D01*
X22558153Y-57052334D01*
X22566790Y-57024626D01*
X22569873Y-56980110D01*
X22570207Y-56940625D01*
X22570207Y-56833573D01*
X22484190Y-56833573D01*
X22398173Y-56833573D01*
X22239151Y-56833573D01*
X22096455Y-56833573D01*
X21953758Y-56833573D01*
X21953758Y-56753663D01*
X21953758Y-56673753D01*
X22336185Y-56673753D01*
X22484190Y-56673753D01*
G37*
G36*
X24630747Y-68751596D02*
G01*
X24636455Y-68751596D01*
X24921848Y-68751596D01*
X24921848Y-68883243D01*
X24920394Y-68956299D01*
X24915177Y-69011152D01*
X24904909Y-69052297D01*
X24888306Y-69084227D01*
X24864082Y-69111437D01*
X24854030Y-69120286D01*
X24839815Y-69131755D01*
X24826125Y-69139959D01*
X24809033Y-69145445D01*
X24784610Y-69148760D01*
X24748928Y-69150450D01*
X24698059Y-69151063D01*
X24632411Y-69151146D01*
X24557376Y-69150792D01*
X24501428Y-69149026D01*
X24460828Y-69144793D01*
X24431832Y-69137036D01*
X24410701Y-69124700D01*
X24393694Y-69106729D01*
X24377069Y-69082068D01*
X24374829Y-69078459D01*
X24364723Y-69059479D01*
X24357924Y-69038050D01*
X24353803Y-69009335D01*
X24351730Y-68968497D01*
X24351077Y-68910700D01*
X24351061Y-68895799D01*
X24351061Y-68854337D01*
X24442387Y-68854337D01*
X24442387Y-68930495D01*
X24444678Y-68980503D01*
X24452154Y-69012719D01*
X24461280Y-69027528D01*
X24471656Y-69036142D01*
X24487126Y-69042038D01*
X24511725Y-69045709D01*
X24549489Y-69047651D01*
X24604452Y-69048357D01*
X24631701Y-69048405D01*
X24700946Y-69047982D01*
X24750612Y-69045383D01*
X24783953Y-69038612D01*
X24804221Y-69025675D01*
X24814667Y-69004576D01*
X24818544Y-68973319D01*
X24819106Y-68933432D01*
X24819106Y-68854337D01*
X24630747Y-68854337D01*
X24442387Y-68854337D01*
X24351061Y-68854337D01*
X24351061Y-68751596D01*
X24630747Y-68751596D01*
G37*
G36*
X23671954Y-71666744D02*
G01*
X23717541Y-71672907D01*
X23751547Y-71683968D01*
X23777696Y-71700941D01*
X23799711Y-71724839D01*
X23811441Y-71741351D01*
X23824829Y-71765141D01*
X23832727Y-71791468D01*
X23836459Y-71827209D01*
X23837353Y-71875787D01*
X23837353Y-71971432D01*
X23784552Y-72024234D01*
X23753580Y-72053346D01*
X23733699Y-72064489D01*
X23720962Y-72056877D01*
X23711421Y-72029720D01*
X23706639Y-72008676D01*
X23704889Y-71977100D01*
X23718492Y-71952883D01*
X23722452Y-71948744D01*
X23741142Y-71915820D01*
X23747510Y-71873017D01*
X23741722Y-71829567D01*
X23723944Y-71794705D01*
X23719606Y-71790170D01*
X23706836Y-71779827D01*
X23691600Y-71772825D01*
X23669463Y-71768522D01*
X23635992Y-71766274D01*
X23586752Y-71765439D01*
X23548371Y-71765348D01*
X23487403Y-71765691D01*
X23444948Y-71767110D01*
X23416693Y-71770193D01*
X23398325Y-71775528D01*
X23385532Y-71783701D01*
X23380724Y-71788180D01*
X23363579Y-71819156D01*
X23356715Y-71861432D01*
X23360065Y-71905959D01*
X23373565Y-71943684D01*
X23381948Y-71955010D01*
X23396222Y-71972491D01*
X23400179Y-71988990D01*
X23394720Y-72013600D01*
X23389361Y-72029948D01*
X23372720Y-72079281D01*
X23319644Y-72026558D01*
X23266567Y-71973836D01*
X23266567Y-71869150D01*
X23266567Y-71764464D01*
X23311382Y-71716390D01*
X23356196Y-71668315D01*
X23531134Y-71665056D01*
X23611060Y-71664465D01*
X23671954Y-71666744D01*
G37*
G36*
X23787485Y-62922363D02*
G01*
X23837353Y-62972232D01*
X23837353Y-63065627D01*
X23834433Y-63130983D01*
X23824432Y-63179161D01*
X23805493Y-63215209D01*
X23775759Y-63244175D01*
X23770123Y-63248314D01*
X23746434Y-63264041D01*
X23731523Y-63271855D01*
X23730454Y-63272045D01*
X23723601Y-63262228D01*
X23713992Y-63237602D01*
X23710387Y-63226235D01*
X23702823Y-63195462D01*
X23704971Y-63175878D01*
X23718372Y-63157354D01*
X23721345Y-63154150D01*
X23739963Y-63120532D01*
X23747015Y-63077682D01*
X23742392Y-63034799D01*
X23725985Y-63001084D01*
X23723196Y-62998068D01*
X23711796Y-62988725D01*
X23696803Y-62982325D01*
X23674043Y-62978323D01*
X23639339Y-62976175D01*
X23588519Y-62975337D01*
X23548022Y-62975236D01*
X23478101Y-62975872D01*
X23427788Y-62978913D01*
X23393873Y-62986063D01*
X23373142Y-62999024D01*
X23362384Y-63019498D01*
X23358388Y-63049189D01*
X23357893Y-63076023D01*
X23361028Y-63118840D01*
X23371841Y-63147013D01*
X23381071Y-63158234D01*
X23395414Y-63176298D01*
X23398479Y-63196068D01*
X23392047Y-63226729D01*
X23381743Y-63254964D01*
X23370721Y-63270803D01*
X23367525Y-63272045D01*
X23353161Y-63264525D01*
X23329349Y-63245185D01*
X23310887Y-63227725D01*
X23266567Y-63183405D01*
X23266567Y-63077819D01*
X23266567Y-62972232D01*
X23316436Y-62922363D01*
X23366304Y-62872495D01*
X23551960Y-62872495D01*
X23737616Y-62872495D01*
X23787485Y-62922363D01*
G37*
G36*
X23787485Y-68481824D02*
G01*
X23837353Y-68531693D01*
X23837353Y-68625087D01*
X23834433Y-68690443D01*
X23824432Y-68738621D01*
X23805493Y-68774669D01*
X23775759Y-68803635D01*
X23770123Y-68807774D01*
X23746434Y-68823501D01*
X23731523Y-68831316D01*
X23730454Y-68831506D01*
X23723601Y-68821688D01*
X23713992Y-68797063D01*
X23710387Y-68785695D01*
X23702823Y-68754922D01*
X23704971Y-68735339D01*
X23718372Y-68716815D01*
X23721345Y-68713611D01*
X23739963Y-68679993D01*
X23747015Y-68637143D01*
X23742392Y-68594260D01*
X23725985Y-68560544D01*
X23723196Y-68557528D01*
X23711796Y-68548186D01*
X23696803Y-68541786D01*
X23674043Y-68537784D01*
X23639339Y-68535636D01*
X23588519Y-68534797D01*
X23548022Y-68534697D01*
X23478101Y-68535332D01*
X23427788Y-68538373D01*
X23393873Y-68545523D01*
X23373142Y-68558484D01*
X23362384Y-68578959D01*
X23358388Y-68608650D01*
X23357893Y-68635483D01*
X23361028Y-68678301D01*
X23371841Y-68706473D01*
X23381071Y-68717695D01*
X23395414Y-68735759D01*
X23398479Y-68755529D01*
X23392047Y-68786190D01*
X23381743Y-68814425D01*
X23370721Y-68830264D01*
X23367525Y-68831506D01*
X23353161Y-68823986D01*
X23329349Y-68804646D01*
X23310887Y-68787186D01*
X23266567Y-68742866D01*
X23266567Y-68637279D01*
X23266567Y-68531693D01*
X23316436Y-68481824D01*
X23366304Y-68431955D01*
X23551960Y-68431955D01*
X23737616Y-68431955D01*
X23787485Y-68481824D01*
G37*
G36*
X22210660Y-64748203D02*
G01*
X22243441Y-64758354D01*
X22291609Y-64774044D01*
X22352086Y-64794261D01*
X22413202Y-64815064D01*
X22421796Y-64817989D01*
X22482055Y-64838787D01*
X22753497Y-64933034D01*
X22750324Y-64994300D01*
X22747151Y-65055566D01*
X22473174Y-65150828D01*
X22398273Y-65176767D01*
X22330459Y-65200052D01*
X22272722Y-65219673D01*
X22228052Y-65234620D01*
X22199440Y-65243882D01*
X22190009Y-65246528D01*
X22185273Y-65236626D01*
X22183674Y-65210993D01*
X22184301Y-65194262D01*
X22187246Y-65163941D01*
X22194678Y-65145865D01*
X22212145Y-65133471D01*
X22245192Y-65120200D01*
X22247713Y-65119262D01*
X22307646Y-65096966D01*
X22307646Y-64997042D01*
X22398971Y-64997042D01*
X22400370Y-65037434D01*
X22404979Y-65057957D01*
X22413241Y-65061499D01*
X22430611Y-65055556D01*
X22462994Y-65044829D01*
X22503672Y-65031542D01*
X22507421Y-65030325D01*
X22547722Y-65016532D01*
X22579435Y-65004343D01*
X22596267Y-64996192D01*
X22596902Y-64995681D01*
X22590852Y-64989119D01*
X22568594Y-64978000D01*
X22535760Y-64964420D01*
X22497985Y-64950476D01*
X22460899Y-64938264D01*
X22430137Y-64929879D01*
X22413202Y-64927326D01*
X22404353Y-64936814D01*
X22399788Y-64966297D01*
X22398971Y-64997042D01*
X22307646Y-64997042D01*
X22307646Y-64991399D01*
X22307646Y-64885833D01*
X22244859Y-64866041D01*
X22182073Y-64846249D01*
X22182073Y-64795462D01*
X22185125Y-64760036D01*
X22194003Y-64745027D01*
X22196342Y-64744607D01*
X22210660Y-64748203D01*
G37*
G36*
X24467593Y-66863203D02*
G01*
X24476941Y-66891969D01*
X24483737Y-66923653D01*
X24481178Y-66943799D01*
X24467767Y-66962304D01*
X24466004Y-66964198D01*
X24451562Y-66991130D01*
X24443346Y-67029077D01*
X24441928Y-67069214D01*
X24447883Y-67102716D01*
X24456086Y-67116863D01*
X24475149Y-67125125D01*
X24507276Y-67130002D01*
X24522811Y-67130562D01*
X24559724Y-67128218D01*
X24585162Y-67118875D01*
X24601188Y-67099067D01*
X24609867Y-67065331D01*
X24613261Y-67014199D01*
X24613623Y-66978073D01*
X24613623Y-66867337D01*
X24764882Y-66870523D01*
X24916140Y-66873708D01*
X24916140Y-67039236D01*
X24916140Y-67204764D01*
X24867623Y-67208275D01*
X24819106Y-67211785D01*
X24819106Y-67091263D01*
X24819106Y-66970742D01*
X24762028Y-66970742D01*
X24704949Y-66970742D01*
X24704949Y-67045511D01*
X24699922Y-67110577D01*
X24683536Y-67159849D01*
X24653830Y-67198338D01*
X24640851Y-67209464D01*
X24619367Y-67222613D01*
X24592334Y-67229980D01*
X24552900Y-67232989D01*
X24526024Y-67233304D01*
X24481883Y-67232699D01*
X24452877Y-67229185D01*
X24431312Y-67220212D01*
X24409494Y-67203230D01*
X24394916Y-67189847D01*
X24370137Y-67165357D01*
X24355728Y-67144512D01*
X24348333Y-67119270D01*
X24344599Y-67081590D01*
X24343718Y-67067128D01*
X24344080Y-67000955D01*
X24354090Y-66955095D01*
X24355287Y-66952339D01*
X24384558Y-66907272D01*
X24425032Y-66868365D01*
X24444762Y-66855506D01*
X24458053Y-66852259D01*
X24467593Y-66863203D01*
G37*
G36*
X25094344Y-51655729D02*
G01*
X25138742Y-51699096D01*
X25165268Y-51755764D01*
X25172994Y-51815598D01*
X25164367Y-51882678D01*
X25139326Y-51937269D01*
X25110051Y-51968555D01*
X25075304Y-51984956D01*
X25029054Y-51993177D01*
X24980621Y-51992835D01*
X24939326Y-51983548D01*
X24925253Y-51976138D01*
X24910291Y-51959527D01*
X24888096Y-51927324D01*
X24861761Y-51884301D01*
X24836525Y-51839247D01*
X24809503Y-51791190D01*
X24784163Y-51750257D01*
X24763444Y-51720948D01*
X24750793Y-51708007D01*
X24725587Y-51700522D01*
X24690614Y-51696644D01*
X24682868Y-51696495D01*
X24636455Y-51696495D01*
X24636455Y-51839191D01*
X24636455Y-51981888D01*
X24607915Y-51981888D01*
X24579376Y-51981888D01*
X24579376Y-51810652D01*
X24579376Y-51639416D01*
X24665561Y-51639416D01*
X24717970Y-51640842D01*
X24757317Y-51647226D01*
X24788074Y-51661727D01*
X24814712Y-51687505D01*
X24841704Y-51727719D01*
X24873521Y-51785528D01*
X24874202Y-51786818D01*
X24900120Y-51834653D01*
X24923817Y-51876052D01*
X24942421Y-51906138D01*
X24952074Y-51919157D01*
X24979638Y-51932920D01*
X25017247Y-51936027D01*
X25054995Y-51928916D01*
X25081668Y-51913393D01*
X25095063Y-51894599D01*
X25102121Y-51867892D01*
X25104456Y-51826487D01*
X25104500Y-51817374D01*
X25103567Y-51776393D01*
X25099031Y-51750597D01*
X25088282Y-51732365D01*
X25069318Y-51714583D01*
X25046773Y-51692463D01*
X25040103Y-51673932D01*
X25043670Y-51656377D01*
X25053204Y-51627774D01*
X25094344Y-51655729D01*
G37*
G36*
X24747758Y-50166844D02*
G01*
X24770548Y-50173438D01*
X24785776Y-50180770D01*
X24810564Y-50192706D01*
X24866521Y-50223957D01*
X24937136Y-50266496D01*
X24967511Y-50285455D01*
X25155870Y-50404008D01*
X25159381Y-50450926D01*
X25162891Y-50497843D01*
X24968167Y-50497843D01*
X24773443Y-50497843D01*
X24773443Y-50526382D01*
X24768728Y-50548106D01*
X24750163Y-50554801D01*
X24744904Y-50554922D01*
X24723180Y-50550207D01*
X24716485Y-50531642D01*
X24716365Y-50526382D01*
X24714914Y-50510565D01*
X24706989Y-50502026D01*
X24687229Y-50498530D01*
X24650271Y-50497843D01*
X24647870Y-50497843D01*
X24609857Y-50497174D01*
X24589329Y-50493784D01*
X24580948Y-50485598D01*
X24579376Y-50471206D01*
X24582327Y-50447232D01*
X24586986Y-50436959D01*
X24601849Y-50432683D01*
X24631772Y-50429922D01*
X24655481Y-50429348D01*
X24716365Y-50429348D01*
X24716365Y-50331913D01*
X24773443Y-50331913D01*
X24773443Y-50429348D01*
X24929458Y-50429348D01*
X24985660Y-50429046D01*
X25032164Y-50428215D01*
X25065001Y-50426972D01*
X25080204Y-50425433D01*
X25080717Y-50424914D01*
X25069023Y-50416855D01*
X25042227Y-50399519D01*
X25004656Y-50375618D01*
X24960636Y-50347867D01*
X24914495Y-50318976D01*
X24870561Y-50291659D01*
X24833160Y-50268628D01*
X24806621Y-50252597D01*
X24797298Y-50247244D01*
X24785776Y-50242088D01*
X24778729Y-50244339D01*
X24775057Y-50257896D01*
X24773661Y-50286660D01*
X24773443Y-50331913D01*
X24716365Y-50331913D01*
X24716365Y-50298068D01*
X24716365Y-50166787D01*
X24747758Y-50166844D01*
G37*
G36*
X21210754Y-51638168D02*
G01*
X21212857Y-51640840D01*
X21222148Y-51666352D01*
X21213483Y-51690477D01*
X21188904Y-51715370D01*
X21170502Y-51732698D01*
X21160218Y-51750388D01*
X21155716Y-51775662D01*
X21154662Y-51815742D01*
X21154657Y-51821313D01*
X21157173Y-51873472D01*
X21167323Y-51907167D01*
X21189011Y-51926268D01*
X21226141Y-51934645D01*
X21270577Y-51936225D01*
X21313575Y-51934933D01*
X21341030Y-51929774D01*
X21360148Y-51918826D01*
X21369566Y-51909804D01*
X21381257Y-51894862D01*
X21388608Y-51876659D01*
X21392591Y-51849828D01*
X21394179Y-51809001D01*
X21394387Y-51772815D01*
X21394387Y-51662247D01*
X21537084Y-51662247D01*
X21679780Y-51662247D01*
X21679780Y-51816360D01*
X21679780Y-51970472D01*
X21651241Y-51970472D01*
X21622702Y-51970472D01*
X21622702Y-51844899D01*
X21622702Y-51719326D01*
X21538255Y-51719326D01*
X21453809Y-51719326D01*
X21449783Y-51815731D01*
X21447259Y-51863545D01*
X21443142Y-51895158D01*
X21435334Y-51917197D01*
X21421739Y-51936286D01*
X21406417Y-51952720D01*
X21386364Y-51972494D01*
X21369017Y-51984504D01*
X21347924Y-51990685D01*
X21316632Y-51992973D01*
X21271141Y-51993304D01*
X21223885Y-51992889D01*
X21192990Y-51990402D01*
X21171987Y-51983980D01*
X21154407Y-51971760D01*
X21136392Y-51954490D01*
X21117507Y-51934600D01*
X21106022Y-51917045D01*
X21100099Y-51895402D01*
X21097897Y-51863249D01*
X21097578Y-51818955D01*
X21097578Y-51722234D01*
X21150245Y-51673687D01*
X21180804Y-51647295D01*
X21199778Y-51636082D01*
X21210754Y-51638168D01*
G37*
G36*
X21030894Y-56673008D02*
G01*
X21044992Y-56702265D01*
X21054231Y-56733686D01*
X21073181Y-56805034D01*
X21045424Y-56825964D01*
X21030805Y-56839353D01*
X21022437Y-56856117D01*
X21018624Y-56882565D01*
X21017671Y-56925007D01*
X21017668Y-56929276D01*
X21019586Y-56976065D01*
X21024821Y-57010237D01*
X21031367Y-57025357D01*
X21049757Y-57032931D01*
X21082578Y-57037906D01*
X21109508Y-57039056D01*
X21146456Y-57037977D01*
X21173239Y-57032635D01*
X21191487Y-57019876D01*
X21202831Y-56996547D01*
X21208899Y-56959492D01*
X21211323Y-56905559D01*
X21211735Y-56841236D01*
X21211735Y-56685169D01*
X21428866Y-56685169D01*
X21645996Y-56685169D01*
X21642911Y-56922045D01*
X21639825Y-57158922D01*
X21562769Y-57162297D01*
X21485713Y-57165673D01*
X21485713Y-57005331D01*
X21485713Y-56844989D01*
X21422926Y-56844989D01*
X21360140Y-56844989D01*
X21360140Y-56948297D01*
X21358312Y-57011016D01*
X21351468Y-57057221D01*
X21337569Y-57093037D01*
X21314574Y-57124587D01*
X21294659Y-57144877D01*
X21254358Y-57173837D01*
X21204332Y-57191193D01*
X21139583Y-57198445D01*
X21114702Y-57198877D01*
X21035383Y-57192270D01*
X20972442Y-57171576D01*
X20923337Y-57135479D01*
X20885524Y-57082666D01*
X20883972Y-57079732D01*
X20874499Y-57049632D01*
X20867250Y-57004271D01*
X20862709Y-56951154D01*
X20861360Y-56897784D01*
X20863687Y-56851665D01*
X20867723Y-56827865D01*
X20883266Y-56783330D01*
X20906747Y-56746743D01*
X20943900Y-56709536D01*
X20951091Y-56703299D01*
X20987775Y-56674654D01*
X21013099Y-56664180D01*
X21030894Y-56673008D01*
G37*
G36*
X21208560Y-52124163D02*
G01*
X21217114Y-52140725D01*
X21217806Y-52142851D01*
X21217633Y-52165036D01*
X21201329Y-52190977D01*
X21190036Y-52203327D01*
X21170012Y-52226495D01*
X21159370Y-52248822D01*
X21155230Y-52279009D01*
X21154657Y-52310189D01*
X21158394Y-52362718D01*
X21171885Y-52397324D01*
X21198550Y-52417307D01*
X21241811Y-52425967D01*
X21275846Y-52427101D01*
X21316615Y-52425997D01*
X21341925Y-52421136D01*
X21359103Y-52410194D01*
X21370727Y-52397022D01*
X21381935Y-52379672D01*
X21388989Y-52358527D01*
X21392793Y-52328129D01*
X21394253Y-52283018D01*
X21394387Y-52254326D01*
X21394387Y-52141708D01*
X21537084Y-52141708D01*
X21679780Y-52141708D01*
X21679780Y-52295820D01*
X21679780Y-52449933D01*
X21651241Y-52449933D01*
X21622702Y-52449933D01*
X21622702Y-52330068D01*
X21622702Y-52210202D01*
X21538255Y-52210202D01*
X21453809Y-52210202D01*
X21449783Y-52308114D01*
X21447433Y-52355832D01*
X21443714Y-52387079D01*
X21436465Y-52408201D01*
X21423524Y-52425545D01*
X21403117Y-52445102D01*
X21380475Y-52464694D01*
X21360789Y-52476328D01*
X21337003Y-52482073D01*
X21302060Y-52483998D01*
X21269795Y-52484180D01*
X21223769Y-52483641D01*
X21193620Y-52480669D01*
X21172397Y-52473231D01*
X21153149Y-52459293D01*
X21138346Y-52445731D01*
X21118861Y-52426604D01*
X21106850Y-52410059D01*
X21100505Y-52389942D01*
X21098017Y-52360099D01*
X21097579Y-52314376D01*
X21097578Y-52306975D01*
X21097578Y-52206667D01*
X21143722Y-52162772D01*
X21175576Y-52134189D01*
X21195951Y-52121652D01*
X21208560Y-52124163D01*
G37*
G36*
X22378929Y-50191119D02*
G01*
X22381440Y-50210297D01*
X22371699Y-50230788D01*
X22347970Y-50257734D01*
X22322959Y-50286514D01*
X22311094Y-50312627D01*
X22307714Y-50347542D01*
X22307646Y-50356942D01*
X22312424Y-50405555D01*
X22328106Y-50440647D01*
X22331306Y-50444933D01*
X22346344Y-50461164D01*
X22363780Y-50470229D01*
X22390456Y-50474165D01*
X22432278Y-50475011D01*
X22478078Y-50473643D01*
X22509816Y-50467196D01*
X22530052Y-50452155D01*
X22541349Y-50425006D01*
X22546269Y-50382236D01*
X22547375Y-50320330D01*
X22547376Y-50317146D01*
X22547376Y-50201034D01*
X22695780Y-50201034D01*
X22844185Y-50201034D01*
X22844185Y-50355146D01*
X22844185Y-50509259D01*
X22815646Y-50509259D01*
X22787106Y-50509259D01*
X22787106Y-50383686D01*
X22787106Y-50258113D01*
X22695780Y-50258113D01*
X22604455Y-50258113D01*
X22604455Y-50356288D01*
X22604071Y-50404135D01*
X22601725Y-50435488D01*
X22595619Y-50456687D01*
X22583959Y-50474068D01*
X22565641Y-50493277D01*
X22545288Y-50512515D01*
X22527278Y-50524044D01*
X22504934Y-50529834D01*
X22471578Y-50531858D01*
X22434193Y-50532090D01*
X22387605Y-50531576D01*
X22356947Y-50528716D01*
X22335323Y-50521531D01*
X22315834Y-50508044D01*
X22299362Y-50493421D01*
X22276730Y-50471072D01*
X22263646Y-50450910D01*
X22257016Y-50425078D01*
X22253742Y-50385716D01*
X22253261Y-50376409D01*
X22252968Y-50323848D01*
X22259060Y-50285477D01*
X22269939Y-50258340D01*
X22293813Y-50225060D01*
X22325399Y-50195479D01*
X22330043Y-50192207D01*
X22369563Y-50165801D01*
X22378929Y-50191119D01*
G37*
G36*
X24690358Y-52124163D02*
G01*
X24698912Y-52140725D01*
X24699604Y-52142851D01*
X24699431Y-52165036D01*
X24683126Y-52190977D01*
X24671834Y-52203327D01*
X24651809Y-52226495D01*
X24641168Y-52248822D01*
X24637028Y-52279009D01*
X24636455Y-52310189D01*
X24640192Y-52362718D01*
X24653683Y-52397324D01*
X24680348Y-52417307D01*
X24723609Y-52425967D01*
X24757644Y-52427101D01*
X24798413Y-52425997D01*
X24823722Y-52421136D01*
X24840901Y-52410194D01*
X24852525Y-52397022D01*
X24863733Y-52379672D01*
X24870787Y-52358527D01*
X24874591Y-52328129D01*
X24876051Y-52283018D01*
X24876185Y-52254326D01*
X24876185Y-52141708D01*
X25018882Y-52141708D01*
X25161578Y-52141708D01*
X25161578Y-52295820D01*
X25161578Y-52449933D01*
X25133039Y-52449933D01*
X25104500Y-52449933D01*
X25104500Y-52330068D01*
X25104500Y-52210202D01*
X25020053Y-52210202D01*
X24935606Y-52210202D01*
X24931581Y-52308114D01*
X24929230Y-52355832D01*
X24925512Y-52387079D01*
X24918263Y-52408201D01*
X24905322Y-52425545D01*
X24884914Y-52445102D01*
X24862273Y-52464694D01*
X24842587Y-52476328D01*
X24818800Y-52482073D01*
X24783857Y-52483998D01*
X24751592Y-52484180D01*
X24705567Y-52483641D01*
X24675418Y-52480669D01*
X24654195Y-52473231D01*
X24634947Y-52459293D01*
X24620144Y-52445731D01*
X24600659Y-52426604D01*
X24588648Y-52410059D01*
X24582302Y-52389942D01*
X24579815Y-52360099D01*
X24579377Y-52314376D01*
X24579376Y-52306975D01*
X24579376Y-52206667D01*
X24625520Y-52162772D01*
X24657374Y-52134189D01*
X24677749Y-52121652D01*
X24690358Y-52124163D01*
G37*
G36*
X21506790Y-57435448D02*
G01*
X21535664Y-57456810D01*
X21567402Y-57486169D01*
X21596556Y-57518413D01*
X21617676Y-57548432D01*
X21619848Y-57552493D01*
X21637666Y-57605762D01*
X21646324Y-57671313D01*
X21645770Y-57740494D01*
X21635955Y-57804652D01*
X21621533Y-57846279D01*
X21583049Y-57903382D01*
X21532158Y-57941319D01*
X21468858Y-57960091D01*
X21456879Y-57961375D01*
X21399054Y-57963702D01*
X21351875Y-57958463D01*
X21312222Y-57943300D01*
X21276976Y-57915854D01*
X21243018Y-57873768D01*
X21207228Y-57814683D01*
X21170961Y-57745196D01*
X21142062Y-57687834D01*
X21120965Y-57647786D01*
X21105268Y-57621940D01*
X21092566Y-57607188D01*
X21080457Y-57600418D01*
X21066536Y-57598521D01*
X21057541Y-57598427D01*
X21017668Y-57598427D01*
X21017668Y-57775371D01*
X21017668Y-57952315D01*
X20943466Y-57952315D01*
X20869264Y-57952315D01*
X20869264Y-57695461D01*
X20869264Y-57438607D01*
X21004564Y-57438607D01*
X21067776Y-57439208D01*
X21116491Y-57442756D01*
X21154389Y-57451870D01*
X21185149Y-57469165D01*
X21212450Y-57497260D01*
X21239969Y-57538772D01*
X21271388Y-57596319D01*
X21297353Y-57646923D01*
X21377264Y-57803868D01*
X21419257Y-57803889D01*
X21457321Y-57798918D01*
X21481330Y-57781775D01*
X21493768Y-57749188D01*
X21497129Y-57701229D01*
X21495017Y-57657905D01*
X21487006Y-57628134D01*
X21470583Y-57602892D01*
X21469337Y-57601397D01*
X21454518Y-57582600D01*
X21447748Y-57566598D01*
X21448305Y-57545938D01*
X21455471Y-57513167D01*
X21459326Y-57497780D01*
X21469798Y-57461418D01*
X21479644Y-57435934D01*
X21486230Y-57427191D01*
X21506790Y-57435448D01*
G37*
G36*
X22751574Y-51638728D02*
G01*
X22771700Y-51653963D01*
X22797776Y-51679164D01*
X22808372Y-51690748D01*
X22826530Y-51713062D01*
X22837228Y-51733411D01*
X22842424Y-51758927D01*
X22844076Y-51796738D01*
X22844185Y-51821136D01*
X22844185Y-51910737D01*
X22798489Y-51952020D01*
X22767945Y-51976979D01*
X22741338Y-51989230D01*
X22707424Y-51993116D01*
X22691579Y-51993304D01*
X22651456Y-51990511D01*
X22619056Y-51980084D01*
X22590828Y-51958951D01*
X22563226Y-51924039D01*
X22532701Y-51872277D01*
X22516631Y-51841825D01*
X22486044Y-51784150D01*
X22461911Y-51744044D01*
X22441071Y-51718367D01*
X22420366Y-51703979D01*
X22396636Y-51697739D01*
X22370432Y-51696495D01*
X22319061Y-51696495D01*
X22319061Y-51839191D01*
X22319061Y-51981888D01*
X22290522Y-51981888D01*
X22261983Y-51981888D01*
X22261983Y-51810652D01*
X22261983Y-51639416D01*
X22351769Y-51639416D01*
X22399967Y-51640815D01*
X22436789Y-51647040D01*
X22466243Y-51661133D01*
X22492339Y-51686136D01*
X22519084Y-51725089D01*
X22550486Y-51781036D01*
X22558685Y-51796431D01*
X22584380Y-51843123D01*
X22608083Y-51882989D01*
X22626800Y-51911171D01*
X22636060Y-51921955D01*
X22669468Y-51935214D01*
X22710009Y-51934751D01*
X22747362Y-51921561D01*
X22762285Y-51909804D01*
X22777137Y-51888791D01*
X22784743Y-51861379D01*
X22787085Y-51819904D01*
X22787106Y-51813785D01*
X22786029Y-51773785D01*
X22780893Y-51748577D01*
X22768846Y-51730151D01*
X22751685Y-51714382D01*
X22728368Y-51690782D01*
X22721450Y-51669909D01*
X22723426Y-51656037D01*
X22731589Y-51636385D01*
X22745073Y-51635616D01*
X22751574Y-51638728D01*
G37*
G36*
X22357826Y-51150222D02*
G01*
X22412521Y-51154037D01*
X22448931Y-51160601D01*
X22471528Y-51170819D01*
X22475606Y-51174108D01*
X22490026Y-51192396D01*
X22511284Y-51225745D01*
X22536069Y-51268762D01*
X22552675Y-51299681D01*
X22582954Y-51356873D01*
X22606006Y-51396749D01*
X22624802Y-51422421D01*
X22642315Y-51436998D01*
X22661517Y-51443592D01*
X22685380Y-51445314D01*
X22691842Y-51445348D01*
X22736252Y-51440113D01*
X22765331Y-51422485D01*
X22781464Y-51389579D01*
X22787034Y-51338511D01*
X22787106Y-51330063D01*
X22785918Y-51289603D01*
X22780439Y-51263566D01*
X22767801Y-51243590D01*
X22751966Y-51227615D01*
X22728428Y-51198394D01*
X22721427Y-51172619D01*
X22731717Y-51154686D01*
X22738883Y-51151290D01*
X22754338Y-51156105D01*
X22778901Y-51173617D01*
X22798816Y-51191810D01*
X22844185Y-51237179D01*
X22844185Y-51330990D01*
X22843737Y-51377684D01*
X22841107Y-51408149D01*
X22834361Y-51428987D01*
X22821568Y-51446798D01*
X22805371Y-51463614D01*
X22782095Y-51484991D01*
X22761079Y-51496639D01*
X22733900Y-51501478D01*
X22693367Y-51502427D01*
X22657119Y-51501462D01*
X22628905Y-51496636D01*
X22605451Y-51485058D01*
X22583483Y-51463834D01*
X22559726Y-51430071D01*
X22530906Y-51380876D01*
X22507182Y-51337929D01*
X22440990Y-51217034D01*
X22380377Y-51217034D01*
X22319764Y-51217034D01*
X22316559Y-51356877D01*
X22315029Y-51415378D01*
X22313096Y-51454913D01*
X22309984Y-51479344D01*
X22304913Y-51492532D01*
X22297108Y-51498339D01*
X22287668Y-51500367D01*
X22261983Y-51504015D01*
X22261983Y-51325106D01*
X22261983Y-51146197D01*
X22357826Y-51150222D01*
G37*
G36*
X21208973Y-50176705D02*
G01*
X21217995Y-50193504D01*
X21218337Y-50194823D01*
X21219141Y-50217706D01*
X21205746Y-50238772D01*
X21190079Y-50253168D01*
X21171199Y-50270729D01*
X21160575Y-50288161D01*
X21155851Y-50312645D01*
X21154674Y-50351362D01*
X21154657Y-50361222D01*
X21157482Y-50412205D01*
X21168461Y-50445521D01*
X21191347Y-50464717D01*
X21229895Y-50473341D01*
X21275072Y-50475011D01*
X21317073Y-50473477D01*
X21343948Y-50467462D01*
X21363284Y-50454844D01*
X21369566Y-50448590D01*
X21381257Y-50433649D01*
X21388608Y-50415446D01*
X21392591Y-50388615D01*
X21394179Y-50347787D01*
X21394387Y-50311601D01*
X21394387Y-50201034D01*
X21537084Y-50201034D01*
X21679780Y-50201034D01*
X21679780Y-50355146D01*
X21679780Y-50509259D01*
X21651241Y-50509259D01*
X21622702Y-50509259D01*
X21622702Y-50383686D01*
X21622702Y-50258113D01*
X21538255Y-50258113D01*
X21453809Y-50258113D01*
X21449783Y-50354518D01*
X21447259Y-50402331D01*
X21443142Y-50433945D01*
X21435334Y-50455983D01*
X21421739Y-50475072D01*
X21406417Y-50491507D01*
X21386364Y-50511281D01*
X21369017Y-50523291D01*
X21347924Y-50529472D01*
X21316632Y-50531759D01*
X21271141Y-50532090D01*
X21223885Y-50531675D01*
X21192990Y-50529189D01*
X21171987Y-50522767D01*
X21154407Y-50510546D01*
X21136392Y-50493277D01*
X21117447Y-50473308D01*
X21105954Y-50455677D01*
X21100053Y-50433917D01*
X21097882Y-50401563D01*
X21097578Y-50358455D01*
X21098045Y-50310971D01*
X21100613Y-50279882D01*
X21107035Y-50258754D01*
X21119065Y-50241155D01*
X21133843Y-50225354D01*
X21169219Y-50191792D01*
X21193489Y-50175855D01*
X21208973Y-50176705D01*
G37*
G36*
X24694794Y-52612493D02*
G01*
X24695310Y-52612530D01*
X24733741Y-52616073D01*
X24763276Y-52622433D01*
X24787328Y-52634652D01*
X24809311Y-52655775D01*
X24832639Y-52688843D01*
X24860727Y-52736901D01*
X24885667Y-52782227D01*
X24950387Y-52900854D01*
X25005821Y-52904383D01*
X25050336Y-52903610D01*
X25079549Y-52892337D01*
X25096331Y-52867277D01*
X25103556Y-52825143D01*
X25104500Y-52791463D01*
X25103759Y-52749556D01*
X25099944Y-52723388D01*
X25090659Y-52705874D01*
X25073511Y-52689933D01*
X25068984Y-52686354D01*
X25045437Y-52663829D01*
X25039214Y-52644113D01*
X25041214Y-52634156D01*
X25049929Y-52616075D01*
X25062693Y-52612126D01*
X25083079Y-52623246D01*
X25114660Y-52650371D01*
X25119211Y-52654597D01*
X25167286Y-52699440D01*
X25167286Y-52790951D01*
X25166792Y-52837071D01*
X25163951Y-52867211D01*
X25156722Y-52888224D01*
X25143065Y-52906959D01*
X25127946Y-52923052D01*
X25105118Y-52944980D01*
X25085049Y-52957146D01*
X25059638Y-52962410D01*
X25020782Y-52963630D01*
X25012924Y-52963641D01*
X24977200Y-52962819D01*
X24949527Y-52958432D01*
X24926681Y-52947598D01*
X24905439Y-52927436D01*
X24882575Y-52895064D01*
X24854867Y-52847599D01*
X24827746Y-52798113D01*
X24765762Y-52683955D01*
X24701109Y-52680532D01*
X24636455Y-52677108D01*
X24636455Y-52820374D01*
X24636455Y-52963641D01*
X24607915Y-52963641D01*
X24579376Y-52963641D01*
X24579376Y-52792046D01*
X24579701Y-52724571D01*
X24580898Y-52676578D01*
X24583302Y-52644727D01*
X24587244Y-52625674D01*
X24593060Y-52616078D01*
X24597186Y-52613618D01*
X24617051Y-52610969D01*
X24652101Y-52610566D01*
X24694794Y-52612493D01*
G37*
G36*
X21508083Y-64824584D02*
G01*
X21668365Y-64824584D01*
X21668365Y-64979139D01*
X21668365Y-65133693D01*
X21623521Y-65181768D01*
X21597953Y-65207888D01*
X21577374Y-65222274D01*
X21553192Y-65228420D01*
X21516820Y-65229823D01*
X21505410Y-65229843D01*
X21459485Y-65227382D01*
X21425929Y-65220697D01*
X21414073Y-65214846D01*
X21399155Y-65206933D01*
X21378630Y-65207566D01*
X21345238Y-65217113D01*
X21340971Y-65218552D01*
X21277426Y-65230973D01*
X21218474Y-65225413D01*
X21167963Y-65203451D01*
X21129741Y-65166666D01*
X21109392Y-65123514D01*
X21104818Y-65096529D01*
X21101309Y-65055830D01*
X21098946Y-65006923D01*
X21097807Y-64955317D01*
X21097901Y-64927326D01*
X21200320Y-64927326D01*
X21200495Y-65010090D01*
X21201829Y-65052959D01*
X21205175Y-65087719D01*
X21209828Y-65107245D01*
X21210161Y-65107821D01*
X21229654Y-65117810D01*
X21269884Y-65119557D01*
X21275626Y-65119236D01*
X21331601Y-65115686D01*
X21334916Y-65021506D01*
X21338232Y-64927326D01*
X21439127Y-64927326D01*
X21442442Y-65021506D01*
X21445758Y-65115686D01*
X21495118Y-65119237D01*
X21532592Y-65119355D01*
X21556689Y-65110745D01*
X21570233Y-65089694D01*
X21576050Y-65052490D01*
X21577039Y-65011546D01*
X21577039Y-64927326D01*
X21508083Y-64927326D01*
X21439127Y-64927326D01*
X21338232Y-64927326D01*
X21269276Y-64927326D01*
X21200320Y-64927326D01*
X21097901Y-64927326D01*
X21097971Y-64906520D01*
X21099519Y-64866040D01*
X21102529Y-64839385D01*
X21105189Y-64832195D01*
X21118266Y-64830082D01*
X21150963Y-64828194D01*
X21200065Y-64826617D01*
X21262362Y-64825437D01*
X21269276Y-64825370D01*
X21334640Y-64824740D01*
X21390582Y-64824584D01*
X21508083Y-64824584D01*
G37*
G36*
X21459083Y-70693119D02*
G01*
X21518796Y-70696364D01*
X21563180Y-70703054D01*
X21595967Y-70714239D01*
X21620887Y-70730967D01*
X21641673Y-70754286D01*
X21651521Y-70768502D01*
X21665534Y-70803053D01*
X21674610Y-70851325D01*
X21678031Y-70904598D01*
X21675075Y-70954153D01*
X21669098Y-70981149D01*
X21654817Y-71008705D01*
X21631485Y-71039553D01*
X21604724Y-71067625D01*
X21580150Y-71086853D01*
X21566614Y-71091820D01*
X21558080Y-71081882D01*
X21548411Y-71057035D01*
X21545533Y-71046703D01*
X21539616Y-71015510D01*
X21543291Y-70996364D01*
X21555560Y-70982147D01*
X21570263Y-70956200D01*
X21577547Y-70917509D01*
X21577381Y-70874832D01*
X21569734Y-70836933D01*
X21556162Y-70813904D01*
X21534881Y-70805143D01*
X21496680Y-70798753D01*
X21447067Y-70794750D01*
X21391550Y-70793150D01*
X21335635Y-70793968D01*
X21284831Y-70797220D01*
X21244645Y-70802922D01*
X21220584Y-70811088D01*
X21218259Y-70812950D01*
X21206282Y-70837533D01*
X21200448Y-70875317D01*
X21200742Y-70917516D01*
X21207148Y-70955349D01*
X21218567Y-70978905D01*
X21230361Y-71000907D01*
X21230821Y-71032885D01*
X21228980Y-71045444D01*
X21222864Y-71074201D01*
X21216967Y-71090463D01*
X21215347Y-71091820D01*
X21196248Y-71084471D01*
X21169297Y-71066299D01*
X21142281Y-71043114D01*
X21126117Y-71025216D01*
X21110499Y-70990721D01*
X21101004Y-70942107D01*
X21097873Y-70887318D01*
X21101349Y-70834296D01*
X21111673Y-70790983D01*
X21118556Y-70776875D01*
X21138814Y-70746719D01*
X21158755Y-70724710D01*
X21182321Y-70709574D01*
X21213456Y-70700037D01*
X21256100Y-70694824D01*
X21314197Y-70692662D01*
X21380310Y-70692270D01*
X21459083Y-70693119D01*
G37*
G36*
X24379650Y-67580208D02*
G01*
X24412386Y-67590663D01*
X24460447Y-67606700D01*
X24520744Y-67627278D01*
X24577038Y-67646796D01*
X24590187Y-67651355D01*
X24647870Y-67671597D01*
X24916140Y-67766214D01*
X24919545Y-67823798D01*
X24920685Y-67858153D01*
X24916500Y-67877038D01*
X24903484Y-67887743D01*
X24885298Y-67894975D01*
X24851092Y-67907160D01*
X24803474Y-67923896D01*
X24745980Y-67943964D01*
X24682145Y-67966144D01*
X24615505Y-67989214D01*
X24549596Y-68011956D01*
X24487953Y-68033148D01*
X24434111Y-68051571D01*
X24391608Y-68066005D01*
X24363977Y-68075229D01*
X24354758Y-68078068D01*
X24352529Y-68067858D01*
X24352421Y-68041891D01*
X24353290Y-68024109D01*
X24356639Y-67991095D01*
X24365234Y-67972481D01*
X24385196Y-67960134D01*
X24408140Y-67951260D01*
X24459511Y-67932369D01*
X24462697Y-67826922D01*
X24567960Y-67826922D01*
X24568522Y-67863053D01*
X24569982Y-67887873D01*
X24571669Y-67895416D01*
X24583521Y-67892019D01*
X24610818Y-67883204D01*
X24647437Y-67871035D01*
X24687251Y-67857576D01*
X24724136Y-67844893D01*
X24751967Y-67835048D01*
X24762028Y-67831260D01*
X24758162Y-67825569D01*
X24737967Y-67814804D01*
X24706784Y-67801070D01*
X24669958Y-67786470D01*
X24632833Y-67773108D01*
X24600751Y-67763088D01*
X24579057Y-67758514D01*
X24577038Y-67758427D01*
X24572250Y-67768799D01*
X24568961Y-67795756D01*
X24567960Y-67826922D01*
X24462697Y-67826922D01*
X24462744Y-67825381D01*
X24465978Y-67718393D01*
X24408519Y-67697985D01*
X24375314Y-67685381D01*
X24358254Y-67673713D01*
X24351963Y-67656307D01*
X24351061Y-67626677D01*
X24354090Y-67591112D01*
X24363015Y-67576666D01*
X24365331Y-67576377D01*
X24379650Y-67580208D01*
G37*
G36*
X22567022Y-68661583D02*
G01*
X22613522Y-68666412D01*
X22648904Y-68675678D01*
X22677038Y-68690151D01*
X22701797Y-68710606D01*
X22710034Y-68718954D01*
X22752859Y-68763973D01*
X22752859Y-68882877D01*
X22752859Y-69001780D01*
X22708964Y-69047924D01*
X22665068Y-69094068D01*
X22473888Y-69094068D01*
X22397176Y-69093664D01*
X22339533Y-69091733D01*
X22297204Y-69087198D01*
X22266431Y-69078981D01*
X22243458Y-69066003D01*
X22224527Y-69047188D01*
X22205881Y-69021457D01*
X22202375Y-69016174D01*
X22189673Y-68982870D01*
X22182456Y-68934801D01*
X22180689Y-68880893D01*
X22273398Y-68880893D01*
X22276557Y-68930868D01*
X22286549Y-68962491D01*
X22292291Y-68970450D01*
X22302561Y-68978993D01*
X22317861Y-68984865D01*
X22342183Y-68988546D01*
X22379520Y-68990519D01*
X22433864Y-68991263D01*
X22465482Y-68991326D01*
X22536593Y-68990782D01*
X22588049Y-68988002D01*
X22623023Y-68981264D01*
X22644687Y-68968845D01*
X22656211Y-68949023D01*
X22660768Y-68920075D01*
X22661533Y-68884860D01*
X22660586Y-68844461D01*
X22655606Y-68815342D01*
X22643388Y-68795660D01*
X22620724Y-68783571D01*
X22584410Y-68777232D01*
X22531237Y-68774800D01*
X22469449Y-68774427D01*
X22398339Y-68774971D01*
X22346882Y-68777751D01*
X22311908Y-68784489D01*
X22290245Y-68796908D01*
X22278721Y-68816730D01*
X22274164Y-68845678D01*
X22273398Y-68880893D01*
X22180689Y-68880893D01*
X22180638Y-68879341D01*
X22184130Y-68823865D01*
X22192846Y-68775747D01*
X22205592Y-68744022D01*
X22227747Y-68713549D01*
X22251751Y-68692001D01*
X22282141Y-68677688D01*
X22323452Y-68668918D01*
X22380218Y-68664002D01*
X22425179Y-68662146D01*
X22469449Y-68661195D01*
X22505531Y-68660419D01*
X22567022Y-68661583D01*
G37*
G36*
X22708964Y-72724751D02*
G01*
X22752859Y-72770894D01*
X22752859Y-72889798D01*
X22752859Y-73008702D01*
X22710034Y-73053720D01*
X22685540Y-73076357D01*
X22658972Y-73092754D01*
X22626456Y-73103683D01*
X22584123Y-73109916D01*
X22528100Y-73112226D01*
X22454517Y-73111383D01*
X22425179Y-73110528D01*
X22356241Y-73107110D01*
X22305620Y-73100819D01*
X22268830Y-73089956D01*
X22241387Y-73072821D01*
X22218807Y-73047713D01*
X22205105Y-73027112D01*
X22191609Y-72991640D01*
X22183367Y-72942257D01*
X22180532Y-72887814D01*
X22273398Y-72887814D01*
X22276557Y-72937790D01*
X22286549Y-72969412D01*
X22292291Y-72977371D01*
X22302561Y-72985914D01*
X22317861Y-72991786D01*
X22342183Y-72995467D01*
X22379520Y-72997440D01*
X22433864Y-72998185D01*
X22465482Y-72998247D01*
X22536593Y-72997703D01*
X22588049Y-72994924D01*
X22623023Y-72988185D01*
X22644687Y-72975766D01*
X22656211Y-72955944D01*
X22660768Y-72926996D01*
X22661533Y-72891781D01*
X22660586Y-72851382D01*
X22655606Y-72822264D01*
X22643388Y-72802581D01*
X22620724Y-72790493D01*
X22584410Y-72784154D01*
X22531237Y-72781721D01*
X22469449Y-72781348D01*
X22398339Y-72781892D01*
X22346882Y-72784672D01*
X22311908Y-72791411D01*
X22290245Y-72803830D01*
X22278721Y-72823652D01*
X22274164Y-72852599D01*
X22273398Y-72887814D01*
X22180532Y-72887814D01*
X22180456Y-72886363D01*
X22182950Y-72831358D01*
X22190922Y-72784643D01*
X22202375Y-72756501D01*
X22221356Y-72729451D01*
X22239966Y-72709506D01*
X22261963Y-72695587D01*
X22291103Y-72686616D01*
X22331143Y-72681515D01*
X22385840Y-72679208D01*
X22458951Y-72678615D01*
X22469449Y-72678609D01*
X22473888Y-72678607D01*
X22665068Y-72678607D01*
X22708964Y-72724751D01*
G37*
G36*
X21163219Y-59732609D02*
G01*
X21180342Y-59738519D01*
X21246479Y-59761347D01*
X21327750Y-59789460D01*
X21402990Y-59815545D01*
X21468158Y-59838200D01*
X21519214Y-59856022D01*
X21548500Y-59866324D01*
X21639825Y-59898697D01*
X21643166Y-59980799D01*
X21644135Y-60024712D01*
X21641909Y-60051400D01*
X21635425Y-60066370D01*
X21625096Y-60074359D01*
X21609353Y-60080774D01*
X21574769Y-60093583D01*
X21524107Y-60111805D01*
X21460135Y-60134457D01*
X21385616Y-60160557D01*
X21303316Y-60189123D01*
X21256452Y-60205284D01*
X21171198Y-60234648D01*
X21092294Y-60261887D01*
X21022490Y-60286048D01*
X20964531Y-60306175D01*
X20921168Y-60321317D01*
X20895148Y-60330520D01*
X20889241Y-60332698D01*
X20879068Y-60334549D01*
X20873067Y-60327272D01*
X20870166Y-60306681D01*
X20869291Y-60268586D01*
X20869264Y-60254737D01*
X20869264Y-60168828D01*
X20943466Y-60144135D01*
X21017668Y-60119442D01*
X21017668Y-59986136D01*
X21017668Y-59983478D01*
X21166073Y-59983478D01*
X21167181Y-60023105D01*
X21170102Y-60051928D01*
X21174224Y-60064195D01*
X21174634Y-60064290D01*
X21190231Y-60060707D01*
X21220188Y-60051211D01*
X21258972Y-60037827D01*
X21301049Y-60022582D01*
X21340886Y-60007503D01*
X21372950Y-59994616D01*
X21391706Y-59985948D01*
X21394366Y-59983814D01*
X21384436Y-59978289D01*
X21358247Y-59967576D01*
X21321223Y-59953634D01*
X21278791Y-59938423D01*
X21236375Y-59923901D01*
X21199399Y-59912029D01*
X21180342Y-59906524D01*
X21172373Y-59911336D01*
X21167800Y-59932844D01*
X21166110Y-59973810D01*
X21166073Y-59983478D01*
X21017668Y-59983478D01*
X21017668Y-59852830D01*
X20943466Y-59826218D01*
X20869264Y-59799606D01*
X20869264Y-59715436D01*
X20869264Y-59631265D01*
X21163219Y-59732609D01*
G37*
G36*
X22547644Y-65909565D02*
G01*
X22603250Y-65911808D01*
X22643872Y-65916985D01*
X22673430Y-65926274D01*
X22695845Y-65940850D01*
X22715036Y-65961892D01*
X22732557Y-65986973D01*
X22744385Y-66018387D01*
X22751383Y-66064361D01*
X22753443Y-66117118D01*
X22750458Y-66168881D01*
X22742319Y-66211872D01*
X22735908Y-66228386D01*
X22719378Y-66251388D01*
X22694914Y-66276552D01*
X22669437Y-66297610D01*
X22649870Y-66308290D01*
X22647308Y-66308629D01*
X22641320Y-66298814D01*
X22632157Y-66274127D01*
X22628264Y-66261730D01*
X22620487Y-66230601D01*
X22622098Y-66211076D01*
X22634397Y-66193410D01*
X22637873Y-66189646D01*
X22654269Y-66163358D01*
X22661026Y-66126033D01*
X22661533Y-66107034D01*
X22660238Y-66072456D01*
X22654248Y-66047426D01*
X22640405Y-66030413D01*
X22615552Y-66019881D01*
X22576531Y-66014297D01*
X22520185Y-66012128D01*
X22465482Y-66011820D01*
X22395142Y-66012449D01*
X22344427Y-66015432D01*
X22310145Y-66022416D01*
X22289099Y-66035048D01*
X22278096Y-66054974D01*
X22273942Y-66083842D01*
X22273398Y-66110838D01*
X22276387Y-66151761D01*
X22286888Y-66178121D01*
X22297032Y-66189490D01*
X22312953Y-66210097D01*
X22315365Y-66236338D01*
X22313119Y-66251105D01*
X22305336Y-66285608D01*
X22296171Y-66300800D01*
X22281424Y-66300027D01*
X22263529Y-66290603D01*
X22224310Y-66260107D01*
X22198974Y-66220999D01*
X22185564Y-66168890D01*
X22182073Y-66107987D01*
X22183186Y-66058407D01*
X22187471Y-66024594D01*
X22196343Y-65999553D01*
X22207758Y-65981045D01*
X22227428Y-65955598D01*
X22247532Y-65936946D01*
X22271919Y-65924045D01*
X22304433Y-65915852D01*
X22348923Y-65911324D01*
X22409234Y-65909417D01*
X22473134Y-65909079D01*
X22547644Y-65909565D01*
G37*
G36*
X24867789Y-65828092D02*
G01*
X24892095Y-65851758D01*
X24906662Y-65871403D01*
X24914395Y-65894352D01*
X24918200Y-65927929D01*
X24919980Y-65959668D01*
X24920238Y-66023266D01*
X24912211Y-66071033D01*
X24893843Y-66109100D01*
X24863078Y-66143603D01*
X24856253Y-66149743D01*
X24827819Y-66171284D01*
X24809618Y-66173901D01*
X24797945Y-66156213D01*
X24790583Y-66125246D01*
X24788517Y-66092068D01*
X24798651Y-66071824D01*
X24801110Y-66069623D01*
X24811293Y-66049678D01*
X24817505Y-66015356D01*
X24819538Y-65974797D01*
X24817187Y-65936144D01*
X24810245Y-65907537D01*
X24805407Y-65899946D01*
X24788429Y-65893626D01*
X24751510Y-65889291D01*
X24693653Y-65886866D01*
X24628865Y-65886247D01*
X24559822Y-65886551D01*
X24510350Y-65888610D01*
X24477186Y-65894146D01*
X24457069Y-65904878D01*
X24446738Y-65922529D01*
X24442931Y-65948819D01*
X24442387Y-65984649D01*
X24447204Y-66030030D01*
X24462826Y-66060543D01*
X24464959Y-66062915D01*
X24478918Y-66081721D01*
X24481639Y-66102127D01*
X24475181Y-66132145D01*
X24466509Y-66161456D01*
X24459878Y-66179660D01*
X24458627Y-66181794D01*
X24446504Y-66179888D01*
X24425288Y-66165059D01*
X24400177Y-66142195D01*
X24376366Y-66116181D01*
X24359053Y-66091903D01*
X24355558Y-66084884D01*
X24344771Y-66042127D01*
X24340682Y-65988308D01*
X24343283Y-65933598D01*
X24352566Y-65888171D01*
X24355703Y-65879974D01*
X24374784Y-65849407D01*
X24402241Y-65818976D01*
X24407503Y-65814333D01*
X24421592Y-65802955D01*
X24435162Y-65794790D01*
X24452099Y-65789306D01*
X24476286Y-65785968D01*
X24511609Y-65784245D01*
X24561953Y-65783602D01*
X24631201Y-65783506D01*
X24632065Y-65783506D01*
X24819990Y-65783506D01*
X24867789Y-65828092D01*
G37*
G36*
X22441867Y-50653036D02*
G01*
X22461278Y-50662892D01*
X22474827Y-50669771D01*
X22520174Y-50695208D01*
X22574547Y-50727450D01*
X22634584Y-50764601D01*
X22644410Y-50770823D01*
X22710223Y-50812771D01*
X22759246Y-50844673D01*
X22794012Y-50868644D01*
X22817055Y-50886798D01*
X22830908Y-50901249D01*
X22838105Y-50914111D01*
X22841180Y-50927497D01*
X22842020Y-50935701D01*
X22845563Y-50977304D01*
X22650807Y-50977304D01*
X22456050Y-50977304D01*
X22456050Y-51011551D01*
X22452978Y-51036026D01*
X22439921Y-51044980D01*
X22427511Y-51045798D01*
X22407115Y-51042112D01*
X22399653Y-51026443D01*
X22398971Y-51011551D01*
X22398971Y-50977304D01*
X22330477Y-50977304D01*
X22292517Y-50976699D01*
X22272022Y-50973397D01*
X22263631Y-50965164D01*
X22261984Y-50949765D01*
X22261983Y-50948764D01*
X22263433Y-50932947D01*
X22271358Y-50924408D01*
X22291119Y-50920912D01*
X22328076Y-50920226D01*
X22330477Y-50920225D01*
X22398971Y-50920225D01*
X22398971Y-50823191D01*
X22456050Y-50823191D01*
X22456050Y-50920225D01*
X22612703Y-50920225D01*
X22674913Y-50919973D01*
X22717106Y-50918999D01*
X22742091Y-50916974D01*
X22752680Y-50913568D01*
X22751682Y-50908453D01*
X22746837Y-50904529D01*
X22723899Y-50889202D01*
X22689125Y-50866749D01*
X22646667Y-50839762D01*
X22600674Y-50810835D01*
X22555298Y-50782559D01*
X22514688Y-50757528D01*
X22482996Y-50738334D01*
X22464372Y-50727569D01*
X22461278Y-50726157D01*
X22458915Y-50736699D01*
X22457108Y-50764828D01*
X22456140Y-50805304D01*
X22456050Y-50823191D01*
X22398971Y-50823191D01*
X22398971Y-50783236D01*
X22399128Y-50725519D01*
X22400074Y-50686849D01*
X22402521Y-50663440D01*
X22407184Y-50651508D01*
X22414775Y-50647267D01*
X22424657Y-50646898D01*
X22441867Y-50653036D01*
G37*
G36*
X22437527Y-52113351D02*
G01*
X22468383Y-52129179D01*
X22469571Y-52129788D01*
X22514240Y-52154917D01*
X22568263Y-52186887D01*
X22628366Y-52223845D01*
X22641135Y-52231865D01*
X22707648Y-52273938D01*
X22757312Y-52305998D01*
X22792648Y-52330124D01*
X22816175Y-52348391D01*
X22830414Y-52362876D01*
X22837885Y-52375655D01*
X22841107Y-52388806D01*
X22842020Y-52397393D01*
X22845563Y-52438517D01*
X22650807Y-52438517D01*
X22456050Y-52438517D01*
X22456050Y-52472764D01*
X22452932Y-52497287D01*
X22439881Y-52506239D01*
X22428269Y-52507011D01*
X22406784Y-52501762D01*
X22397734Y-52481785D01*
X22396876Y-52475618D01*
X22393239Y-52457827D01*
X22383699Y-52448003D01*
X22362460Y-52443232D01*
X22327623Y-52440801D01*
X22290590Y-52438094D01*
X22270938Y-52433196D01*
X22263223Y-52423503D01*
X22261983Y-52409408D01*
X22263508Y-52393902D01*
X22271652Y-52385529D01*
X22291773Y-52382104D01*
X22329224Y-52381439D01*
X22330477Y-52381438D01*
X22398971Y-52381438D01*
X22398971Y-52284003D01*
X22456050Y-52284003D01*
X22456050Y-52381438D01*
X22612065Y-52381438D01*
X22668267Y-52381135D01*
X22714770Y-52380304D01*
X22747608Y-52379061D01*
X22762811Y-52377523D01*
X22763323Y-52377004D01*
X22751630Y-52368945D01*
X22724834Y-52351609D01*
X22687262Y-52327708D01*
X22643243Y-52299956D01*
X22597102Y-52271066D01*
X22553168Y-52243749D01*
X22515767Y-52220718D01*
X22489227Y-52204687D01*
X22479904Y-52199334D01*
X22468383Y-52194178D01*
X22461336Y-52196429D01*
X22457664Y-52209986D01*
X22456268Y-52238749D01*
X22456050Y-52284003D01*
X22398971Y-52284003D01*
X22398971Y-52244450D01*
X22399206Y-52186594D01*
X22400322Y-52147790D01*
X22402938Y-52124261D01*
X22407671Y-52112229D01*
X22415140Y-52107915D01*
X22421382Y-52107461D01*
X22437527Y-52113351D01*
G37*
G36*
X24708597Y-65225099D02*
G01*
X24767642Y-65228596D01*
X24811457Y-65235828D01*
X24843819Y-65247961D01*
X24868508Y-65266155D01*
X24889302Y-65291573D01*
X24899078Y-65306795D01*
X24912171Y-65341858D01*
X24920204Y-65390500D01*
X24922665Y-65443923D01*
X24919041Y-65493331D01*
X24911702Y-65523313D01*
X24897717Y-65547390D01*
X24875206Y-65574641D01*
X24849806Y-65599488D01*
X24827152Y-65616350D01*
X24813911Y-65620135D01*
X24803599Y-65607494D01*
X24793287Y-65581208D01*
X24791459Y-65574514D01*
X24786445Y-65542499D01*
X24792795Y-65520969D01*
X24800021Y-65511696D01*
X24813889Y-65482638D01*
X24819049Y-65434662D01*
X24819106Y-65427635D01*
X24817890Y-65390595D01*
X24812102Y-65363937D01*
X24798532Y-65345960D01*
X24773972Y-65334968D01*
X24735213Y-65329260D01*
X24679045Y-65327138D01*
X24628763Y-65326877D01*
X24559655Y-65327523D01*
X24510121Y-65330679D01*
X24476916Y-65338168D01*
X24456791Y-65351815D01*
X24446501Y-65373445D01*
X24442799Y-65404881D01*
X24442387Y-65431602D01*
X24444949Y-65474601D01*
X24453755Y-65501677D01*
X24463866Y-65514012D01*
X24477148Y-65530235D01*
X24479572Y-65550356D01*
X24473893Y-65578568D01*
X24464730Y-65606731D01*
X24455694Y-65622481D01*
X24453290Y-65623686D01*
X24434518Y-65615246D01*
X24408991Y-65593991D01*
X24382749Y-65566014D01*
X24361829Y-65537412D01*
X24355217Y-65524698D01*
X24343931Y-65479824D01*
X24340407Y-65424749D01*
X24344468Y-65369478D01*
X24355938Y-65324018D01*
X24358857Y-65317484D01*
X24380977Y-65285998D01*
X24411767Y-65256606D01*
X24418326Y-65251844D01*
X24435316Y-65241135D01*
X24452389Y-65233609D01*
X24473821Y-65228709D01*
X24503888Y-65225877D01*
X24546868Y-65224555D01*
X24607038Y-65224186D01*
X24630543Y-65224178D01*
X24708597Y-65225099D01*
G37*
G36*
X22291420Y-66969188D02*
G01*
X22302655Y-66993880D01*
X22306191Y-67004636D01*
X22313668Y-67035210D01*
X22311469Y-67054246D01*
X22298228Y-67071471D01*
X22296582Y-67073131D01*
X22283487Y-67090930D01*
X22276331Y-67115595D01*
X22273595Y-67153737D01*
X22273398Y-67174072D01*
X22278171Y-67233376D01*
X22293145Y-67273369D01*
X22319307Y-67295626D01*
X22353270Y-67301798D01*
X22365009Y-67301776D01*
X22374290Y-67299830D01*
X22382360Y-67293140D01*
X22390465Y-67278883D01*
X22399854Y-67254240D01*
X22411772Y-67216390D01*
X22427468Y-67162512D01*
X22448189Y-67089785D01*
X22450322Y-67082293D01*
X22470830Y-67028531D01*
X22498283Y-66994176D01*
X22536715Y-66975992D01*
X22589272Y-66970742D01*
X22646024Y-66976734D01*
X22688601Y-66996762D01*
X22722861Y-67033905D01*
X22729827Y-67044619D01*
X22741452Y-67067959D01*
X22748505Y-67095984D01*
X22751976Y-67134829D01*
X22752859Y-67187226D01*
X22750732Y-67250469D01*
X22742950Y-67296216D01*
X22727411Y-67329522D01*
X22702014Y-67355444D01*
X22675738Y-67372788D01*
X22642101Y-67392407D01*
X22628157Y-67345866D01*
X22620448Y-67314834D01*
X22622212Y-67295313D01*
X22634779Y-67277484D01*
X22637873Y-67274141D01*
X22652290Y-67252879D01*
X22659554Y-67223782D01*
X22661533Y-67180112D01*
X22656941Y-67127472D01*
X22642173Y-67093731D01*
X22615746Y-67076678D01*
X22589977Y-67073483D01*
X22575366Y-67075137D01*
X22564275Y-67082884D01*
X22554216Y-67100907D01*
X22542701Y-67133384D01*
X22530535Y-67173371D01*
X22509270Y-67243970D01*
X22492471Y-67295902D01*
X22478492Y-67332497D01*
X22465688Y-67357087D01*
X22452412Y-67373002D01*
X22437019Y-67383572D01*
X22423595Y-67389788D01*
X22371830Y-67401750D01*
X22326856Y-67401612D01*
X22286381Y-67394132D01*
X22254854Y-67377275D01*
X22229496Y-67354579D01*
X22187780Y-67312893D01*
X22183935Y-67181421D01*
X22180091Y-67049948D01*
X22225401Y-67004637D01*
X22252106Y-66979745D01*
X22273237Y-66963287D01*
X22281664Y-66959326D01*
X22291420Y-66969188D01*
G37*
G36*
X25084058Y-50671578D02*
G01*
X25105176Y-50688523D01*
X25146496Y-50737079D01*
X25168661Y-50797484D01*
X25172994Y-50846023D01*
X25164736Y-50913573D01*
X25140163Y-50965227D01*
X25099576Y-51000676D01*
X25043275Y-51019612D01*
X25000444Y-51022924D01*
X24953467Y-51019739D01*
X24920522Y-51008763D01*
X24906264Y-50999306D01*
X24876185Y-50975646D01*
X24846106Y-50999306D01*
X24820956Y-51013831D01*
X24788027Y-51021119D01*
X24744240Y-51022966D01*
X24700945Y-51021405D01*
X24671421Y-51015025D01*
X24646721Y-51001283D01*
X24634477Y-50991757D01*
X24608820Y-50969935D01*
X24592766Y-50951637D01*
X24584051Y-50930669D01*
X24580411Y-50900833D01*
X24579584Y-50855935D01*
X24579551Y-50841401D01*
X24579376Y-50745454D01*
X24625520Y-50701558D01*
X24657374Y-50672975D01*
X24677749Y-50660439D01*
X24690358Y-50662950D01*
X24698912Y-50679511D01*
X24699604Y-50681637D01*
X24699431Y-50703822D01*
X24683126Y-50729763D01*
X24671834Y-50742113D01*
X24651585Y-50765635D01*
X24640950Y-50788382D01*
X24636935Y-50819273D01*
X24636455Y-50847430D01*
X24641628Y-50902188D01*
X24658501Y-50938579D01*
X24689103Y-50958918D01*
X24735462Y-50965521D01*
X24739932Y-50965525D01*
X24790850Y-50957814D01*
X24826016Y-50934716D01*
X24846494Y-50895009D01*
X24853347Y-50837475D01*
X24853353Y-50835357D01*
X24854497Y-50803366D01*
X24860147Y-50788096D01*
X24873632Y-50783469D01*
X24881893Y-50783236D01*
X24897749Y-50784699D01*
X24906287Y-50792674D01*
X24909763Y-50812537D01*
X24910432Y-50849668D01*
X24910432Y-50851286D01*
X24915508Y-50905094D01*
X24932090Y-50940529D01*
X24962212Y-50959994D01*
X25007466Y-50965888D01*
X25051958Y-50960449D01*
X25081479Y-50942316D01*
X25098216Y-50908766D01*
X25104352Y-50857073D01*
X25104500Y-50844934D01*
X25103516Y-50803230D01*
X25098917Y-50776645D01*
X25088233Y-50757499D01*
X25070625Y-50739593D01*
X25047495Y-50713084D01*
X25042177Y-50689755D01*
X25043417Y-50683158D01*
X25051163Y-50663858D01*
X25063263Y-50659872D01*
X25084058Y-50671578D01*
G37*
G36*
X24632730Y-62872621D02*
G01*
X24698669Y-62872921D01*
X24747981Y-62874183D01*
X24782899Y-62876857D01*
X24807639Y-62881400D01*
X24826417Y-62888270D01*
X24839188Y-62895264D01*
X24877467Y-62924967D01*
X24902638Y-62961706D01*
X24916715Y-63010158D01*
X24921713Y-63075003D01*
X24921805Y-63087106D01*
X24919308Y-63150668D01*
X24910302Y-63197788D01*
X24892610Y-63234438D01*
X24864059Y-63266593D01*
X24852888Y-63276393D01*
X24838759Y-63287674D01*
X24824840Y-63295685D01*
X24807125Y-63300985D01*
X24781607Y-63304130D01*
X24744279Y-63305677D01*
X24691134Y-63306184D01*
X24638433Y-63306217D01*
X24563732Y-63305718D01*
X24507822Y-63303546D01*
X24466666Y-63298579D01*
X24436230Y-63289695D01*
X24412479Y-63275775D01*
X24391377Y-63255696D01*
X24371877Y-63232144D01*
X24358287Y-63211443D01*
X24349876Y-63187383D01*
X24345228Y-63153567D01*
X24342925Y-63103595D01*
X24342860Y-63101113D01*
X24342757Y-63087410D01*
X24442387Y-63087410D01*
X24444844Y-63137328D01*
X24452810Y-63169382D01*
X24461280Y-63182674D01*
X24471773Y-63191365D01*
X24487431Y-63197286D01*
X24512335Y-63200946D01*
X24550569Y-63202854D01*
X24606215Y-63203518D01*
X24628763Y-63203551D01*
X24698665Y-63202992D01*
X24748962Y-63200050D01*
X24782874Y-63192826D01*
X24803623Y-63179423D01*
X24814429Y-63157942D01*
X24818513Y-63126484D01*
X24819106Y-63091377D01*
X24818201Y-63048347D01*
X24813315Y-63017512D01*
X24801192Y-62996844D01*
X24778574Y-62984312D01*
X24742206Y-62977887D01*
X24688830Y-62975541D01*
X24632730Y-62975236D01*
X24562828Y-62975795D01*
X24512531Y-62978737D01*
X24478619Y-62985961D01*
X24457871Y-62999364D01*
X24447064Y-63020845D01*
X24442980Y-63052302D01*
X24442387Y-63087410D01*
X24342757Y-63087410D01*
X24342508Y-63054481D01*
X24343751Y-63015474D01*
X24346328Y-62990616D01*
X24347419Y-62986652D01*
X24369283Y-62950664D01*
X24402259Y-62914234D01*
X24428955Y-62892797D01*
X24444396Y-62884768D01*
X24464979Y-62879141D01*
X24494680Y-62875517D01*
X24537472Y-62873499D01*
X24597331Y-62872689D01*
X24630747Y-62872612D01*
X24632730Y-62872621D01*
G37*
G36*
X22291241Y-67539983D02*
G01*
X22302644Y-67564715D01*
X22306294Y-67575764D01*
X22313831Y-67606610D01*
X22311681Y-67626180D01*
X22298487Y-67644459D01*
X22296685Y-67646411D01*
X22283434Y-67665586D01*
X22276236Y-67691586D01*
X22273554Y-67731182D01*
X22273398Y-67749164D01*
X22277812Y-67806684D01*
X22291945Y-67845042D01*
X22317130Y-67866314D01*
X22352825Y-67872584D01*
X22364711Y-67872581D01*
X22374089Y-67870693D01*
X22382211Y-67864099D01*
X22390330Y-67849979D01*
X22399698Y-67825514D01*
X22411569Y-67787885D01*
X22427193Y-67734271D01*
X22447825Y-67661852D01*
X22450322Y-67653080D01*
X22471094Y-67599024D01*
X22498977Y-67564479D01*
X22537709Y-67546376D01*
X22586017Y-67541603D01*
X22647822Y-67550562D01*
X22697121Y-67578080D01*
X22731193Y-67617344D01*
X22741796Y-67638084D01*
X22748378Y-67664875D01*
X22751765Y-67703220D01*
X22752781Y-67758622D01*
X22752784Y-67761281D01*
X22752859Y-67872584D01*
X22707196Y-67918247D01*
X22680658Y-67943212D01*
X22660011Y-67959797D01*
X22651924Y-67963910D01*
X22643091Y-67954045D01*
X22632264Y-67929247D01*
X22628264Y-67917011D01*
X22620487Y-67885882D01*
X22622098Y-67866357D01*
X22634397Y-67848691D01*
X22637873Y-67844927D01*
X22652290Y-67823666D01*
X22659554Y-67794568D01*
X22661533Y-67750899D01*
X22656951Y-67698287D01*
X22642202Y-67664565D01*
X22615784Y-67647500D01*
X22589769Y-67644270D01*
X22573856Y-67646183D01*
X22562300Y-67654992D01*
X22552095Y-67675300D01*
X22540238Y-67711710D01*
X22535743Y-67727034D01*
X22513815Y-67801575D01*
X22496365Y-67857250D01*
X22481877Y-67897221D01*
X22468832Y-67924651D01*
X22455715Y-67942705D01*
X22441007Y-67954544D01*
X22423191Y-67963333D01*
X22422209Y-67963742D01*
X22385228Y-67972112D01*
X22338238Y-67973298D01*
X22328238Y-67972531D01*
X22290108Y-67966523D01*
X22262332Y-67953951D01*
X22234521Y-67929515D01*
X22225628Y-67920163D01*
X22182073Y-67873469D01*
X22182073Y-67747934D01*
X22182073Y-67622400D01*
X22225968Y-67576256D01*
X22252046Y-67550835D01*
X22272871Y-67534075D01*
X22281240Y-67530113D01*
X22291241Y-67539983D01*
G37*
G36*
X22373972Y-52619293D02*
G01*
X22379820Y-52634008D01*
X22378192Y-52656170D01*
X22360100Y-52682069D01*
X22346904Y-52695288D01*
X22323607Y-52719793D01*
X22311922Y-52742524D01*
X22307954Y-52773321D01*
X22307646Y-52794454D01*
X22312246Y-52846507D01*
X22328119Y-52880444D01*
X22358374Y-52899353D01*
X22406118Y-52906323D01*
X22420478Y-52906562D01*
X22469653Y-52903064D01*
X22500875Y-52890064D01*
X22517817Y-52863803D01*
X22524153Y-52820523D01*
X22524544Y-52800068D01*
X22525234Y-52763414D01*
X22528921Y-52744078D01*
X22538033Y-52736553D01*
X22553084Y-52735326D01*
X22569684Y-52737048D01*
X22578172Y-52746012D01*
X22581247Y-52767913D01*
X22581623Y-52795572D01*
X22585326Y-52847433D01*
X22598556Y-52880840D01*
X22624499Y-52899270D01*
X22666340Y-52906203D01*
X22683243Y-52906562D01*
X22731508Y-52903291D01*
X22762431Y-52890959D01*
X22779553Y-52865785D01*
X22786416Y-52823990D01*
X22787106Y-52795714D01*
X22785839Y-52755170D01*
X22780079Y-52728775D01*
X22766887Y-52707904D01*
X22751811Y-52692112D01*
X22728365Y-52661800D01*
X22721177Y-52635094D01*
X22730966Y-52616431D01*
X22738883Y-52612504D01*
X22754338Y-52617319D01*
X22778901Y-52634830D01*
X22798816Y-52653024D01*
X22844185Y-52698393D01*
X22844185Y-52791229D01*
X22843682Y-52837841D01*
X22840845Y-52868523D01*
X22833685Y-52890173D01*
X22820213Y-52909689D01*
X22805107Y-52926707D01*
X22783387Y-52949112D01*
X22764744Y-52961866D01*
X22741606Y-52967685D01*
X22706398Y-52969283D01*
X22686162Y-52969348D01*
X22640853Y-52968124D01*
X22611322Y-52963344D01*
X22590590Y-52953346D01*
X22579169Y-52943866D01*
X22552044Y-52918383D01*
X22527322Y-52943105D01*
X22502709Y-52959735D01*
X22466164Y-52969370D01*
X22434301Y-52972768D01*
X22367798Y-52969204D01*
X22315853Y-52948129D01*
X22278870Y-52909947D01*
X22257254Y-52855062D01*
X22251291Y-52789917D01*
X22253478Y-52750621D01*
X22258244Y-52717732D01*
X22261514Y-52706163D01*
X22274664Y-52686316D01*
X22297738Y-52660894D01*
X22324515Y-52635756D01*
X22348780Y-52616764D01*
X22363790Y-52609753D01*
X22373972Y-52619293D01*
G37*
G36*
X24453885Y-70688773D02*
G01*
X24462949Y-70705271D01*
X24473644Y-70732619D01*
X24474156Y-70734142D01*
X24480443Y-70761714D01*
X24474133Y-70779921D01*
X24464298Y-70790136D01*
X24452668Y-70804837D01*
X24445930Y-70826590D01*
X24442914Y-70861154D01*
X24442387Y-70897753D01*
X24445138Y-70954351D01*
X24454693Y-70991864D01*
X24473003Y-71013516D01*
X24502020Y-71022532D01*
X24518390Y-71023326D01*
X24533788Y-71022504D01*
X24545047Y-71017436D01*
X24554384Y-71004219D01*
X24564016Y-70978949D01*
X24576160Y-70937725D01*
X24584857Y-70906315D01*
X24606836Y-70831097D01*
X24626889Y-70775506D01*
X24647203Y-70736710D01*
X24669967Y-70711878D01*
X24697371Y-70698181D01*
X24731602Y-70692786D01*
X24750298Y-70692312D01*
X24811665Y-70702970D01*
X24863818Y-70733375D01*
X24899078Y-70774930D01*
X24912750Y-70811724D01*
X24920648Y-70862606D01*
X24922605Y-70919531D01*
X24918456Y-70974454D01*
X24908036Y-71019331D01*
X24904290Y-71028337D01*
X24885910Y-71056614D01*
X24860854Y-71082967D01*
X24834928Y-71102534D01*
X24813940Y-71110450D01*
X24807888Y-71109066D01*
X24794832Y-71089703D01*
X24788797Y-71058611D01*
X24790474Y-71025998D01*
X24800556Y-71002072D01*
X24800627Y-71001993D01*
X24812388Y-70978868D01*
X24818175Y-70939962D01*
X24819106Y-70906231D01*
X24815410Y-70851642D01*
X24803470Y-70816718D01*
X24782014Y-70799383D01*
X24752247Y-70797246D01*
X24739313Y-70800282D01*
X24728787Y-70808401D01*
X24718811Y-70825289D01*
X24707528Y-70854631D01*
X24693079Y-70900112D01*
X24682334Y-70935956D01*
X24660121Y-71006017D01*
X24639680Y-71056700D01*
X24618341Y-71091024D01*
X24593436Y-71112004D01*
X24562294Y-71122660D01*
X24522248Y-71126008D01*
X24514176Y-71126068D01*
X24451288Y-71117017D01*
X24401730Y-71089543D01*
X24364709Y-71043159D01*
X24358376Y-71030807D01*
X24347655Y-70993598D01*
X24341565Y-70942344D01*
X24340193Y-70885375D01*
X24343628Y-70831021D01*
X24351958Y-70787613D01*
X24355703Y-70777322D01*
X24371602Y-70751187D01*
X24394625Y-70724564D01*
X24419535Y-70702177D01*
X24441096Y-70688746D01*
X24453885Y-70688773D01*
G37*
G36*
X21210555Y-63692850D02*
G01*
X21220900Y-63717510D01*
X21224491Y-63728643D01*
X21232041Y-63760037D01*
X21230016Y-63779683D01*
X21219241Y-63795182D01*
X21208389Y-63814618D01*
X21202380Y-63846238D01*
X21200340Y-63894984D01*
X21200320Y-63901894D01*
X21203663Y-63959775D01*
X21214625Y-63997957D01*
X21234603Y-64018707D01*
X21264995Y-64024292D01*
X21275242Y-64023485D01*
X21294978Y-64018020D01*
X21308151Y-64003504D01*
X21319382Y-63974018D01*
X21322687Y-63962697D01*
X21346736Y-63879018D01*
X21366659Y-63814820D01*
X21384226Y-63767526D01*
X21401209Y-63734560D01*
X21419380Y-63713346D01*
X21440510Y-63701308D01*
X21466369Y-63695869D01*
X21498730Y-63694454D01*
X21507150Y-63694427D01*
X21549724Y-63696235D01*
X21578944Y-63703486D01*
X21604127Y-63718924D01*
X21611962Y-63725287D01*
X21649844Y-63767993D01*
X21671843Y-63820900D01*
X21679651Y-63888286D01*
X21679717Y-63896690D01*
X21675553Y-63965912D01*
X21662081Y-64018410D01*
X21637601Y-64058986D01*
X21614170Y-64081915D01*
X21586096Y-64102956D01*
X21568591Y-64106869D01*
X21556052Y-64091945D01*
X21544244Y-64060578D01*
X21537103Y-64031898D01*
X21541645Y-64012549D01*
X21554102Y-63997056D01*
X21568653Y-63974565D01*
X21575640Y-63942565D01*
X21577039Y-63906986D01*
X21574377Y-63854590D01*
X21565092Y-63821116D01*
X21547240Y-63803137D01*
X21518874Y-63797229D01*
X21514661Y-63797169D01*
X21492758Y-63798454D01*
X21479087Y-63805787D01*
X21469082Y-63824388D01*
X21458177Y-63859474D01*
X21457225Y-63862809D01*
X21433992Y-63943597D01*
X21415065Y-64005154D01*
X21398591Y-64050234D01*
X21382716Y-64081592D01*
X21365586Y-64101981D01*
X21345348Y-64114156D01*
X21320148Y-64120869D01*
X21288131Y-64124877D01*
X21280311Y-64125637D01*
X21219699Y-64121006D01*
X21167318Y-64095383D01*
X21124909Y-64049662D01*
X21120985Y-64043538D01*
X21106959Y-64006574D01*
X21098507Y-63955040D01*
X21095669Y-63896426D01*
X21098484Y-63838220D01*
X21106992Y-63787910D01*
X21119474Y-63755692D01*
X21141835Y-63726392D01*
X21168721Y-63700890D01*
X21193222Y-63685244D01*
X21202402Y-63683011D01*
X21210555Y-63692850D01*
G37*
G36*
X22414307Y-59858804D02*
G01*
X22474737Y-59859225D01*
X22519103Y-59860359D01*
X22550788Y-59862556D01*
X22573178Y-59866171D01*
X22589655Y-59871554D01*
X22603604Y-59879060D01*
X22617194Y-59888198D01*
X22651099Y-59917040D01*
X22683611Y-59952902D01*
X22691395Y-59963392D01*
X22707590Y-59989757D01*
X22717786Y-60016496D01*
X22723784Y-60050765D01*
X22727385Y-60099720D01*
X22727794Y-60108025D01*
X22728457Y-60162334D01*
X22725762Y-60213368D01*
X22720233Y-60252057D01*
X22719233Y-60256085D01*
X22694526Y-60310356D01*
X22652687Y-60362504D01*
X22599040Y-60406273D01*
X22583318Y-60415788D01*
X22537030Y-60441804D01*
X22515474Y-60370025D01*
X22493919Y-60298247D01*
X22532063Y-60266023D01*
X22551269Y-60248704D01*
X22562627Y-60232632D01*
X22568196Y-60211280D01*
X22570036Y-60178115D01*
X22570207Y-60145073D01*
X22569886Y-60102737D01*
X22566988Y-60071085D01*
X22558617Y-60048565D01*
X22541874Y-60033623D01*
X22513861Y-60024705D01*
X22471680Y-60020258D01*
X22412433Y-60018728D01*
X22334201Y-60018562D01*
X22255976Y-60018735D01*
X22197659Y-60020333D01*
X22156328Y-60024971D01*
X22129059Y-60034265D01*
X22112931Y-60049833D01*
X22105020Y-60073288D01*
X22102405Y-60106249D01*
X22102162Y-60146873D01*
X22102723Y-60191509D01*
X22105737Y-60219889D01*
X22113201Y-60238583D01*
X22127111Y-60254161D01*
X22137504Y-60263169D01*
X22157662Y-60281242D01*
X22166645Y-60296551D01*
X22166433Y-60317391D01*
X22159007Y-60352055D01*
X22158866Y-60352656D01*
X22147627Y-60398005D01*
X22137514Y-60423498D01*
X22124572Y-60431535D01*
X22104846Y-60424519D01*
X22074381Y-60404851D01*
X22073690Y-60404383D01*
X22035147Y-60374547D01*
X21998660Y-60340381D01*
X21983381Y-60323196D01*
X21967514Y-60302044D01*
X21957224Y-60282522D01*
X21951142Y-60258798D01*
X21947896Y-60225044D01*
X21946118Y-60175428D01*
X21945824Y-60163375D01*
X21945573Y-60110846D01*
X21947130Y-60064092D01*
X21950191Y-60029655D01*
X21952639Y-60017575D01*
X21984810Y-59954772D01*
X22037293Y-59900366D01*
X22049206Y-59891315D01*
X22094172Y-59858742D01*
X22334430Y-59858742D01*
X22414307Y-59858804D01*
G37*
G36*
X23375266Y-73313588D02*
G01*
X23388446Y-73344685D01*
X23390687Y-73351287D01*
X23397829Y-73379968D01*
X23393286Y-73399317D01*
X23380830Y-73414809D01*
X23367982Y-73433314D01*
X23360888Y-73458696D01*
X23358114Y-73497494D01*
X23357893Y-73519483D01*
X23361150Y-73574250D01*
X23372280Y-73610064D01*
X23393324Y-73630048D01*
X23426321Y-73637323D01*
X23435038Y-73637528D01*
X23455225Y-73635919D01*
X23468189Y-73627609D01*
X23478233Y-73607378D01*
X23489122Y-73571888D01*
X23512448Y-73490635D01*
X23531369Y-73428640D01*
X23547712Y-73383197D01*
X23563300Y-73351599D01*
X23579961Y-73331141D01*
X23599518Y-73319115D01*
X23623798Y-73312814D01*
X23654625Y-73309533D01*
X23666667Y-73308643D01*
X23704293Y-73306613D01*
X23729097Y-73309547D01*
X23749725Y-73320799D01*
X23774824Y-73343721D01*
X23786104Y-73354960D01*
X23837353Y-73406210D01*
X23837353Y-73511020D01*
X23835120Y-73577514D01*
X23827291Y-73626402D01*
X23812172Y-73662574D01*
X23788071Y-73690920D01*
X23770123Y-73705123D01*
X23746434Y-73720850D01*
X23731523Y-73728664D01*
X23730454Y-73728854D01*
X23723601Y-73719037D01*
X23713992Y-73694411D01*
X23710387Y-73683044D01*
X23702823Y-73652271D01*
X23704971Y-73632687D01*
X23718372Y-73614163D01*
X23721345Y-73610959D01*
X23737217Y-73587462D01*
X23744635Y-73555903D01*
X23746028Y-73522321D01*
X23740753Y-73466086D01*
X23724718Y-73429658D01*
X23697603Y-73412541D01*
X23674907Y-73411426D01*
X23659775Y-73413861D01*
X23648358Y-73420153D01*
X23638544Y-73434139D01*
X23628218Y-73459650D01*
X23615266Y-73500522D01*
X23603123Y-73541630D01*
X23583243Y-73607837D01*
X23567358Y-73655443D01*
X23553741Y-73687950D01*
X23540667Y-73708860D01*
X23526409Y-73721675D01*
X23510568Y-73729401D01*
X23465490Y-73739064D01*
X23414419Y-73739058D01*
X23367488Y-73730034D01*
X23342382Y-73718604D01*
X23311184Y-73694754D01*
X23289723Y-73668348D01*
X23276296Y-73634646D01*
X23269201Y-73588906D01*
X23266735Y-73526389D01*
X23266642Y-73507758D01*
X23266567Y-73383696D01*
X23312700Y-73337563D01*
X23341941Y-73310827D01*
X23361280Y-73302569D01*
X23375266Y-73313588D01*
G37*
G36*
X21224395Y-68009224D02*
G01*
X21232008Y-68040693D01*
X21230123Y-68060338D01*
X21219241Y-68076081D01*
X21208846Y-68094261D01*
X21202863Y-68123628D01*
X21200465Y-68169110D01*
X21200320Y-68188872D01*
X21202035Y-68243213D01*
X21208590Y-68278363D01*
X21222102Y-68297800D01*
X21244687Y-68305003D01*
X21270563Y-68304307D01*
X21286861Y-68302075D01*
X21298835Y-68296531D01*
X21308684Y-68283820D01*
X21318609Y-68260090D01*
X21330809Y-68221487D01*
X21344323Y-68175101D01*
X21362207Y-68113440D01*
X21375439Y-68069904D01*
X21385776Y-68040705D01*
X21394972Y-68022054D01*
X21404783Y-68010162D01*
X21416964Y-68001241D01*
X21427900Y-67994699D01*
X21479892Y-67976379D01*
X21535295Y-67978038D01*
X21589192Y-67998400D01*
X21636662Y-68036187D01*
X21650212Y-68052439D01*
X21664049Y-68083391D01*
X21673698Y-68129223D01*
X21678545Y-68182265D01*
X21677971Y-68234846D01*
X21671362Y-68279296D01*
X21669069Y-68287126D01*
X21654798Y-68314643D01*
X21631471Y-68345464D01*
X21604713Y-68373520D01*
X21580144Y-68392741D01*
X21566614Y-68397708D01*
X21558080Y-68387770D01*
X21548411Y-68362922D01*
X21545533Y-68352591D01*
X21539616Y-68321398D01*
X21543291Y-68302251D01*
X21555560Y-68288035D01*
X21567893Y-68271502D01*
X21574566Y-68246095D01*
X21576951Y-68205689D01*
X21577039Y-68192225D01*
X21573229Y-68137684D01*
X21560721Y-68102229D01*
X21537892Y-68083243D01*
X21506402Y-68078068D01*
X21493881Y-68079449D01*
X21483854Y-68086007D01*
X21474514Y-68101366D01*
X21464050Y-68129148D01*
X21450651Y-68172977D01*
X21439393Y-68212202D01*
X21417714Y-68283708D01*
X21397702Y-68335757D01*
X21376785Y-68371327D01*
X21352390Y-68393398D01*
X21321945Y-68404946D01*
X21282875Y-68408949D01*
X21269250Y-68409124D01*
X21228823Y-68407965D01*
X21201581Y-68402052D01*
X21177906Y-68387726D01*
X21151361Y-68364305D01*
X21103286Y-68319487D01*
X21099825Y-68195923D01*
X21098661Y-68140271D01*
X21099380Y-68102092D01*
X21102744Y-68076060D01*
X21109515Y-68056844D01*
X21120453Y-68039115D01*
X21122657Y-68036037D01*
X21148657Y-68006599D01*
X21177048Y-67983189D01*
X21179789Y-67981494D01*
X21210628Y-67963274D01*
X21224395Y-68009224D01*
G37*
G36*
X23540002Y-52617983D02*
G01*
X23539626Y-52638480D01*
X23529247Y-52664950D01*
X23510514Y-52691102D01*
X23506297Y-52695371D01*
X23486962Y-52716370D01*
X23476659Y-52737447D01*
X23472625Y-52766922D01*
X23472050Y-52798479D01*
X23475060Y-52848464D01*
X23486651Y-52880504D01*
X23510670Y-52898325D01*
X23550960Y-52905652D01*
X23583605Y-52906562D01*
X23632688Y-52902785D01*
X23664266Y-52889072D01*
X23681734Y-52861845D01*
X23688487Y-52817528D01*
X23688949Y-52795572D01*
X23689765Y-52760530D01*
X23694011Y-52742611D01*
X23704386Y-52736121D01*
X23717488Y-52735326D01*
X23733463Y-52736828D01*
X23741996Y-52744954D01*
X23745410Y-52765132D01*
X23746028Y-52802051D01*
X23749721Y-52851932D01*
X23763155Y-52883504D01*
X23789860Y-52900427D01*
X23833369Y-52906365D01*
X23846814Y-52906562D01*
X23895518Y-52902068D01*
X23927171Y-52886438D01*
X23944758Y-52856450D01*
X23951265Y-52808882D01*
X23951511Y-52793587D01*
X23950314Y-52754161D01*
X23944610Y-52728988D01*
X23931227Y-52709531D01*
X23914410Y-52693700D01*
X23887211Y-52662721D01*
X23880956Y-52635438D01*
X23885909Y-52616088D01*
X23896476Y-52611663D01*
X23917700Y-52621770D01*
X23932774Y-52631419D01*
X23972772Y-52665611D01*
X23996794Y-52707360D01*
X24007336Y-52761982D01*
X24008346Y-52792405D01*
X24004893Y-52850859D01*
X23992947Y-52893325D01*
X23969869Y-52925884D01*
X23939929Y-52950039D01*
X23911518Y-52966147D01*
X23882563Y-52973095D01*
X23842983Y-52973035D01*
X23834656Y-52972496D01*
X23785753Y-52965441D01*
X23752803Y-52951193D01*
X23742810Y-52943149D01*
X23716448Y-52918383D01*
X23690966Y-52943866D01*
X23674302Y-52957303D01*
X23653569Y-52965050D01*
X23622336Y-52968575D01*
X23579305Y-52969348D01*
X23535032Y-52968865D01*
X23506549Y-52965815D01*
X23486813Y-52957803D01*
X23468784Y-52942431D01*
X23454049Y-52926707D01*
X23433658Y-52902908D01*
X23421961Y-52882104D01*
X23416561Y-52856582D01*
X23415062Y-52818628D01*
X23415014Y-52801134D01*
X23417431Y-52746004D01*
X23425372Y-52706970D01*
X23436239Y-52683467D01*
X23459722Y-52653883D01*
X23489188Y-52628143D01*
X23517170Y-52612198D01*
X23528727Y-52609753D01*
X23540002Y-52617983D01*
G37*
G36*
X22335880Y-59025930D02*
G01*
X22386082Y-59026225D01*
X22451461Y-59027947D01*
X22507925Y-59030978D01*
X22550190Y-59035311D01*
X22564886Y-59038097D01*
X22612627Y-59059929D01*
X22658397Y-59097617D01*
X22695735Y-59144630D01*
X22717682Y-59192580D01*
X22724633Y-59232282D01*
X22728570Y-59285331D01*
X22729510Y-59344088D01*
X22727467Y-59400915D01*
X22722458Y-59448172D01*
X22717099Y-59471757D01*
X22695392Y-59513187D01*
X22660420Y-59556429D01*
X22619550Y-59593521D01*
X22584844Y-59614632D01*
X22560073Y-59620176D01*
X22517217Y-59624611D01*
X22460999Y-59627900D01*
X22396139Y-59630010D01*
X22327360Y-59630902D01*
X22259384Y-59630543D01*
X22196932Y-59628896D01*
X22144725Y-59625925D01*
X22107486Y-59621594D01*
X22094344Y-59618348D01*
X22058632Y-59597712D01*
X22020051Y-59564481D01*
X21985096Y-59525462D01*
X21960262Y-59487461D01*
X21953657Y-59470923D01*
X21945844Y-59426405D01*
X21942258Y-59369678D01*
X21942539Y-59327011D01*
X22102521Y-59327011D01*
X22103387Y-59380701D01*
X22106925Y-59416470D01*
X22113864Y-59439147D01*
X22121055Y-59449730D01*
X22130106Y-59457430D01*
X22143499Y-59462985D01*
X22164721Y-59466737D01*
X22197259Y-59469028D01*
X22244598Y-59470198D01*
X22310226Y-59470590D01*
X22334201Y-59470607D01*
X22413206Y-59470514D01*
X22472277Y-59469066D01*
X22514310Y-59464506D01*
X22542198Y-59455079D01*
X22558838Y-59439029D01*
X22567124Y-59414599D01*
X22569950Y-59380035D01*
X22570211Y-59333580D01*
X22570207Y-59327454D01*
X22569794Y-59279710D01*
X22566613Y-59244059D01*
X22557756Y-59218736D01*
X22540313Y-59201973D01*
X22511376Y-59192005D01*
X22468035Y-59187067D01*
X22407380Y-59185391D01*
X22335880Y-59185214D01*
X22257507Y-59185508D01*
X22199040Y-59187576D01*
X22157555Y-59193194D01*
X22130127Y-59204141D01*
X22113830Y-59222193D01*
X22105741Y-59249128D01*
X22102934Y-59286722D01*
X22102521Y-59327011D01*
X21942539Y-59327011D01*
X21942664Y-59307922D01*
X21946825Y-59248318D01*
X21954504Y-59198046D01*
X21963632Y-59167992D01*
X21996103Y-59117559D01*
X22041644Y-59073886D01*
X22092766Y-59043632D01*
X22110412Y-59037496D01*
X22141101Y-59032568D01*
X22189297Y-59028983D01*
X22249715Y-59026736D01*
X22317072Y-59025819D01*
X22335880Y-59025930D01*
G37*
G36*
X25084142Y-49701639D02*
G01*
X25116370Y-49729527D01*
X25119211Y-49732170D01*
X25167286Y-49777013D01*
X25167286Y-49868968D01*
X25166872Y-49914939D01*
X25164171Y-49944939D01*
X25156998Y-49965828D01*
X25143168Y-49984467D01*
X25124287Y-50003922D01*
X25099123Y-50027492D01*
X25077823Y-50040375D01*
X25051721Y-50045781D01*
X25012152Y-50046919D01*
X25008195Y-50046922D01*
X24964945Y-50045489D01*
X24936609Y-50039787D01*
X24915372Y-50027706D01*
X24905644Y-50019246D01*
X24876185Y-49991571D01*
X24846726Y-50019246D01*
X24827452Y-50034326D01*
X24805316Y-50042741D01*
X24773105Y-50046317D01*
X24737399Y-50046922D01*
X24694853Y-50046287D01*
X24667562Y-50042574D01*
X24647952Y-50033068D01*
X24628449Y-50015052D01*
X24618454Y-50004280D01*
X24599065Y-49981927D01*
X24587453Y-49962517D01*
X24581628Y-49939153D01*
X24579601Y-49904934D01*
X24579376Y-49868802D01*
X24579376Y-49775966D01*
X24624745Y-49730597D01*
X24659294Y-49700977D01*
X24683721Y-49691554D01*
X24698420Y-49702261D01*
X24702562Y-49717121D01*
X24695263Y-49741201D01*
X24671169Y-49765086D01*
X24652672Y-49780360D01*
X24642264Y-49796302D01*
X24637635Y-49819800D01*
X24636474Y-49857739D01*
X24636455Y-49868550D01*
X24639140Y-49921264D01*
X24649517Y-49955348D01*
X24671070Y-49974612D01*
X24707282Y-49982866D01*
X24742120Y-49984135D01*
X24780994Y-49982642D01*
X24805174Y-49976320D01*
X24822708Y-49962406D01*
X24829693Y-49954056D01*
X24847811Y-49917670D01*
X24853353Y-49868438D01*
X24854340Y-49835140D01*
X24859323Y-49818742D01*
X24871342Y-49813332D01*
X24881893Y-49812899D01*
X24897867Y-49814401D01*
X24906401Y-49822527D01*
X24909815Y-49842705D01*
X24910432Y-49879624D01*
X24914180Y-49929572D01*
X24927707Y-49961204D01*
X24954436Y-49978135D01*
X24997791Y-49983978D01*
X25009449Y-49984135D01*
X25052866Y-49980631D01*
X25081077Y-49967692D01*
X25097040Y-49941680D01*
X25103715Y-49898956D01*
X25104500Y-49867240D01*
X25103635Y-49825715D01*
X25099380Y-49799572D01*
X25089248Y-49781378D01*
X25070748Y-49763700D01*
X25069461Y-49762614D01*
X25045754Y-49737724D01*
X25040306Y-49716360D01*
X25041691Y-49710228D01*
X25050306Y-49692982D01*
X25063288Y-49689788D01*
X25084142Y-49701639D01*
G37*
G36*
X21257949Y-58181044D02*
G01*
X21314338Y-58181515D01*
X21377499Y-58183213D01*
X21430763Y-58185825D01*
X21469429Y-58189133D01*
X21486029Y-58191945D01*
X21520957Y-58209257D01*
X21560316Y-58239948D01*
X21597301Y-58277522D01*
X21625104Y-58315485D01*
X21633454Y-58332631D01*
X21640648Y-58366160D01*
X21644500Y-58414261D01*
X21645107Y-58469229D01*
X21642570Y-58523361D01*
X21636986Y-58568952D01*
X21630095Y-58594816D01*
X21607633Y-58631188D01*
X21572890Y-58669251D01*
X21532490Y-58703173D01*
X21493058Y-58727121D01*
X21471420Y-58734514D01*
X21447546Y-58736676D01*
X21405335Y-58738164D01*
X21349273Y-58738912D01*
X21283848Y-58738857D01*
X21221182Y-58738078D01*
X21010118Y-58734292D01*
X20967781Y-58701975D01*
X20918402Y-58657175D01*
X20886189Y-58608738D01*
X20868186Y-58550623D01*
X20861692Y-58485131D01*
X20861105Y-58460315D01*
X21017668Y-58460315D01*
X21018476Y-58505045D01*
X21021886Y-58532929D01*
X21029378Y-58549922D01*
X21042434Y-58561982D01*
X21043040Y-58562409D01*
X21057155Y-58569313D01*
X21078998Y-58574250D01*
X21112010Y-58577506D01*
X21159629Y-58579369D01*
X21225295Y-58580124D01*
X21256349Y-58580180D01*
X21326292Y-58580010D01*
X21377139Y-58579213D01*
X21412623Y-58577356D01*
X21436477Y-58574006D01*
X21452435Y-58568732D01*
X21464231Y-58561101D01*
X21470708Y-58555359D01*
X21489384Y-58524353D01*
X21498428Y-58481065D01*
X21497770Y-58433945D01*
X21487337Y-58391443D01*
X21472307Y-58366871D01*
X21462215Y-58357131D01*
X21450651Y-58350135D01*
X21433935Y-58345430D01*
X21408392Y-58342562D01*
X21370344Y-58341078D01*
X21316115Y-58340526D01*
X21257949Y-58340450D01*
X21178171Y-58340710D01*
X21118353Y-58342445D01*
X21075619Y-58347090D01*
X21047097Y-58356076D01*
X21029914Y-58370838D01*
X21021197Y-58392809D01*
X21018073Y-58423421D01*
X21017668Y-58460315D01*
X20861105Y-58460315D01*
X20860634Y-58440378D01*
X20860826Y-58404208D01*
X20862201Y-58382864D01*
X20862786Y-58380405D01*
X20868437Y-58361411D01*
X20874138Y-58337805D01*
X20890999Y-58300467D01*
X20922517Y-58260604D01*
X20962463Y-58224917D01*
X21000447Y-58201920D01*
X21020869Y-58194120D01*
X21045149Y-58188487D01*
X21077194Y-58184686D01*
X21120914Y-58182383D01*
X21180219Y-58181245D01*
X21245983Y-58180944D01*
X21257949Y-58181044D01*
G37*
G36*
X24826116Y-66328365D02*
G01*
X24851735Y-66349351D01*
X24878627Y-66377045D01*
X24900824Y-66405485D01*
X24910325Y-66422529D01*
X24917989Y-66456426D01*
X24920753Y-66505321D01*
X24919851Y-66537971D01*
X24916687Y-66581238D01*
X24911052Y-66609546D01*
X24899683Y-66630752D01*
X24879316Y-66652715D01*
X24867622Y-66663749D01*
X24838131Y-66689325D01*
X24813721Y-66702595D01*
X24784178Y-66707540D01*
X24753594Y-66708180D01*
X24703003Y-66704364D01*
X24667273Y-66693685D01*
X24661826Y-66690409D01*
X24640823Y-66678866D01*
X24623369Y-66682468D01*
X24611083Y-66690409D01*
X24578252Y-66702735D01*
X24526448Y-66708016D01*
X24513607Y-66708180D01*
X24472580Y-66707129D01*
X24445184Y-66701728D01*
X24422238Y-66688606D01*
X24394696Y-66664519D01*
X24370589Y-66640913D01*
X24356261Y-66621054D01*
X24348728Y-66597455D01*
X24345004Y-66562628D01*
X24343504Y-66536092D01*
X24343731Y-66468895D01*
X24352470Y-66422707D01*
X24354993Y-66416513D01*
X24371665Y-66390366D01*
X24396600Y-66361900D01*
X24423613Y-66337129D01*
X24446520Y-66322064D01*
X24454221Y-66320045D01*
X24463488Y-66329886D01*
X24474361Y-66354464D01*
X24477567Y-66364318D01*
X24484828Y-66394544D01*
X24482073Y-66413647D01*
X24467683Y-66431733D01*
X24466609Y-66432812D01*
X24450831Y-66455415D01*
X24443595Y-66486931D01*
X24442387Y-66517537D01*
X24444835Y-66554395D01*
X24451097Y-66582574D01*
X24456086Y-66591739D01*
X24475459Y-66600317D01*
X24507201Y-66605089D01*
X24518471Y-66605438D01*
X24553565Y-66601542D01*
X24575506Y-66587314D01*
X24586995Y-66558946D01*
X24590733Y-66512629D01*
X24590792Y-66503447D01*
X24590792Y-66445618D01*
X24636455Y-66445618D01*
X24682117Y-66445618D01*
X24682117Y-66511829D01*
X24684860Y-66558722D01*
X24695054Y-66587264D01*
X24715652Y-66601491D01*
X24749605Y-66605437D01*
X24750612Y-66605438D01*
X24785025Y-66601658D01*
X24805930Y-66587629D01*
X24816299Y-66559316D01*
X24819106Y-66512684D01*
X24819106Y-66512477D01*
X24817468Y-66472235D01*
X24811249Y-66447873D01*
X24798495Y-66432588D01*
X24795502Y-66430379D01*
X24781136Y-66417466D01*
X24777385Y-66401331D01*
X24782783Y-66373517D01*
X24784526Y-66366946D01*
X24794518Y-66338161D01*
X24804604Y-66321611D01*
X24807733Y-66320045D01*
X24826116Y-66328365D01*
G37*
G36*
X21271552Y-51142832D02*
G01*
X21387612Y-51142832D01*
X21599490Y-51142832D01*
X21642489Y-51185831D01*
X21663792Y-51208020D01*
X21676557Y-51226561D01*
X21682971Y-51248314D01*
X21685220Y-51280139D01*
X21685488Y-51320785D01*
X21685488Y-51412740D01*
X21637413Y-51457583D01*
X21604282Y-51486636D01*
X21582765Y-51499577D01*
X21569312Y-51497362D01*
X21560369Y-51480945D01*
X21559569Y-51478504D01*
X21559347Y-51458042D01*
X21574759Y-51436474D01*
X21589072Y-51423613D01*
X21611910Y-51401125D01*
X21624247Y-51376670D01*
X21630340Y-51340859D01*
X21631265Y-51330524D01*
X21632628Y-51290010D01*
X21627190Y-51262536D01*
X21613001Y-51238832D01*
X21611580Y-51237011D01*
X21596302Y-51220230D01*
X21579298Y-51210789D01*
X21553734Y-51206612D01*
X21512781Y-51205622D01*
X21508298Y-51205618D01*
X21429799Y-51205618D01*
X21447533Y-51248060D01*
X21460463Y-51305067D01*
X21460482Y-51356636D01*
X21455403Y-51398578D01*
X21444884Y-51427818D01*
X21424793Y-51454448D01*
X21417096Y-51462599D01*
X21397931Y-51481548D01*
X21381221Y-51493270D01*
X21360853Y-51499499D01*
X21330713Y-51501972D01*
X21284688Y-51502426D01*
X21276849Y-51502427D01*
X21228090Y-51502088D01*
X21196015Y-51499937D01*
X21174475Y-51494277D01*
X21157323Y-51483407D01*
X21138410Y-51465630D01*
X21136392Y-51463614D01*
X21117641Y-51443898D01*
X21106175Y-51426512D01*
X21100203Y-51405127D01*
X21097934Y-51373417D01*
X21097579Y-51326605D01*
X21154657Y-51326605D01*
X21155491Y-51371031D01*
X21159000Y-51398666D01*
X21166694Y-51415525D01*
X21180028Y-51427578D01*
X21213211Y-51439962D01*
X21266186Y-51445193D01*
X21279180Y-51445348D01*
X21335627Y-51441300D01*
X21373406Y-51427431D01*
X21395506Y-51401156D01*
X21404914Y-51359890D01*
X21405803Y-51335785D01*
X21402922Y-51293438D01*
X21392091Y-51262889D01*
X21376249Y-51240741D01*
X21358359Y-51221675D01*
X21340388Y-51211129D01*
X21314900Y-51206609D01*
X21274457Y-51205620D01*
X21271552Y-51205618D01*
X21219467Y-51207870D01*
X21185485Y-51217216D01*
X21165857Y-51237535D01*
X21156831Y-51272712D01*
X21154657Y-51326605D01*
X21097579Y-51326605D01*
X21097578Y-51326457D01*
X21097992Y-51278425D01*
X21100441Y-51246687D01*
X21106736Y-51224707D01*
X21118690Y-51205952D01*
X21136656Y-51185473D01*
X21175734Y-51142832D01*
X21271552Y-51142832D01*
G37*
G36*
X21271552Y-49681618D02*
G01*
X21389123Y-49681618D01*
X21599490Y-49681618D01*
X21642489Y-49724617D01*
X21663792Y-49746806D01*
X21676557Y-49765347D01*
X21682971Y-49787100D01*
X21685220Y-49818925D01*
X21685488Y-49859571D01*
X21685488Y-49951526D01*
X21637413Y-49996370D01*
X21604567Y-50025307D01*
X21583507Y-50038231D01*
X21570680Y-50036038D01*
X21562529Y-50019623D01*
X21561365Y-50015528D01*
X21561545Y-49993623D01*
X21577388Y-49971655D01*
X21590346Y-49960150D01*
X21612635Y-49938073D01*
X21624674Y-49913284D01*
X21630634Y-49876490D01*
X21631305Y-49868824D01*
X21632613Y-49828373D01*
X21627005Y-49800870D01*
X21612499Y-49776971D01*
X21611580Y-49775798D01*
X21596302Y-49759016D01*
X21579298Y-49749575D01*
X21553734Y-49745398D01*
X21512781Y-49744408D01*
X21508298Y-49744405D01*
X21429799Y-49744405D01*
X21447533Y-49786846D01*
X21460463Y-49843854D01*
X21460482Y-49895423D01*
X21455403Y-49937365D01*
X21444884Y-49966605D01*
X21424793Y-49993235D01*
X21417096Y-50001386D01*
X21397931Y-50020335D01*
X21381221Y-50032056D01*
X21360853Y-50038285D01*
X21330713Y-50040759D01*
X21284688Y-50041212D01*
X21276849Y-50041214D01*
X21228090Y-50040874D01*
X21196015Y-50038724D01*
X21174475Y-50033063D01*
X21157323Y-50022194D01*
X21138410Y-50004417D01*
X21136392Y-50002400D01*
X21117902Y-49983022D01*
X21106475Y-49965964D01*
X21100412Y-49945077D01*
X21098013Y-49914213D01*
X21097579Y-49867224D01*
X21097579Y-49865392D01*
X21154657Y-49865392D01*
X21155491Y-49909817D01*
X21159000Y-49937453D01*
X21166694Y-49954311D01*
X21180028Y-49966364D01*
X21213211Y-49978749D01*
X21266186Y-49983979D01*
X21279180Y-49984135D01*
X21335627Y-49980086D01*
X21373406Y-49966217D01*
X21395506Y-49939943D01*
X21404914Y-49898677D01*
X21405803Y-49874572D01*
X21402922Y-49832225D01*
X21392091Y-49801676D01*
X21376249Y-49779528D01*
X21358359Y-49760461D01*
X21340388Y-49749915D01*
X21314900Y-49745395D01*
X21274457Y-49744406D01*
X21271552Y-49744405D01*
X21219467Y-49746657D01*
X21185485Y-49756002D01*
X21165857Y-49776322D01*
X21156831Y-49811499D01*
X21154657Y-49865392D01*
X21097579Y-49865392D01*
X21097578Y-49861943D01*
X21097880Y-49813318D01*
X21099962Y-49781391D01*
X21105590Y-49760030D01*
X21116530Y-49743100D01*
X21134548Y-49724470D01*
X21138167Y-49720959D01*
X21178756Y-49681618D01*
X21271552Y-49681618D01*
G37*
G36*
X23919071Y-52132248D02*
G01*
X23949822Y-52159939D01*
X23958721Y-52168745D01*
X24008589Y-52218614D01*
X24008589Y-52307077D01*
X24008130Y-52352048D01*
X24005156Y-52381351D01*
X23997278Y-52402150D01*
X23982104Y-52421609D01*
X23964270Y-52439860D01*
X23937442Y-52464899D01*
X23915006Y-52478153D01*
X23887516Y-52483339D01*
X23851652Y-52484180D01*
X23804118Y-52481447D01*
X23771453Y-52472084D01*
X23754328Y-52461348D01*
X23732037Y-52445537D01*
X23717833Y-52438536D01*
X23717488Y-52438517D01*
X23703941Y-52444916D01*
X23681846Y-52460412D01*
X23680648Y-52461348D01*
X23656185Y-52475220D01*
X23623252Y-52482296D01*
X23577617Y-52484180D01*
X23536461Y-52483302D01*
X23509510Y-52478517D01*
X23488151Y-52466599D01*
X23463767Y-52444320D01*
X23459291Y-52439860D01*
X23436783Y-52416377D01*
X23423574Y-52397016D01*
X23417187Y-52374463D01*
X23415144Y-52341398D01*
X23414971Y-52308976D01*
X23415698Y-52263555D01*
X23419260Y-52233575D01*
X23427732Y-52211659D01*
X23443189Y-52190430D01*
X23450784Y-52181624D01*
X23485910Y-52145180D01*
X23511360Y-52127729D01*
X23528918Y-52128515D01*
X23539397Y-52144062D01*
X23542733Y-52163400D01*
X23533434Y-52181241D01*
X23510675Y-52202472D01*
X23489333Y-52221982D01*
X23477758Y-52240404D01*
X23472985Y-52265693D01*
X23472050Y-52305800D01*
X23472050Y-52306077D01*
X23476625Y-52361058D01*
X23492068Y-52397600D01*
X23520958Y-52418540D01*
X23565874Y-52426714D01*
X23582099Y-52427101D01*
X23631372Y-52421489D01*
X23664064Y-52402967D01*
X23682468Y-52369011D01*
X23688877Y-52317094D01*
X23688949Y-52309354D01*
X23689634Y-52272643D01*
X23693303Y-52253256D01*
X23702375Y-52245693D01*
X23717488Y-52244450D01*
X23733483Y-52245959D01*
X23742015Y-52254110D01*
X23745419Y-52274342D01*
X23746028Y-52310954D01*
X23747777Y-52352308D01*
X23754545Y-52378875D01*
X23768611Y-52398533D01*
X23772449Y-52402280D01*
X23808805Y-52422222D01*
X23853642Y-52427170D01*
X23898163Y-52417056D01*
X23921432Y-52403441D01*
X23938104Y-52387815D01*
X23947178Y-52369525D01*
X23950893Y-52341385D01*
X23951511Y-52306894D01*
X23950670Y-52266355D01*
X23946269Y-52241000D01*
X23935492Y-52223192D01*
X23915520Y-52205295D01*
X23913403Y-52203600D01*
X23887832Y-52178765D01*
X23879580Y-52156568D01*
X23880486Y-52146035D01*
X23887275Y-52126129D01*
X23899180Y-52121256D01*
X23919071Y-52132248D01*
G37*
G36*
X21431008Y-55887884D02*
G01*
X21474488Y-55888917D01*
X21500196Y-55890466D01*
X21504305Y-55891124D01*
X21541552Y-55909353D01*
X21579801Y-55942328D01*
X21612086Y-55983398D01*
X21624075Y-56005460D01*
X21636905Y-56045012D01*
X21643664Y-56096461D01*
X21645283Y-56149064D01*
X21640937Y-56225265D01*
X21626056Y-56284886D01*
X21598539Y-56332562D01*
X21556282Y-56372931D01*
X21537840Y-56386045D01*
X21506800Y-56405879D01*
X21486691Y-56413208D01*
X21473542Y-56405621D01*
X21463384Y-56380707D01*
X21452243Y-56336054D01*
X21451700Y-56333734D01*
X21444177Y-56298370D01*
X21443672Y-56277016D01*
X21451632Y-56261542D01*
X21467355Y-56245808D01*
X21485163Y-56225596D01*
X21494125Y-56202176D01*
X21497024Y-56166979D01*
X21497129Y-56154132D01*
X21494965Y-56103374D01*
X21486466Y-56071207D01*
X21468621Y-56053634D01*
X21438419Y-56046657D01*
X21415596Y-56045888D01*
X21381769Y-56046847D01*
X21366070Y-56050973D01*
X21363830Y-56060136D01*
X21365751Y-56065865D01*
X21378534Y-56117761D01*
X21381660Y-56179467D01*
X21375778Y-56242674D01*
X21361538Y-56299073D01*
X21344849Y-56333287D01*
X21315763Y-56370680D01*
X21284407Y-56396292D01*
X21245771Y-56412139D01*
X21194847Y-56420237D01*
X21126625Y-56422603D01*
X21122923Y-56422607D01*
X21054721Y-56420770D01*
X21004007Y-56413865D01*
X20965632Y-56399805D01*
X20934448Y-56376499D01*
X20905306Y-56341860D01*
X20897796Y-56331271D01*
X20882239Y-56306281D01*
X20872296Y-56281388D01*
X20866375Y-56249916D01*
X20862883Y-56205187D01*
X20861722Y-56179963D01*
X20861210Y-56124218D01*
X21019546Y-56124218D01*
X21020104Y-56165600D01*
X21023376Y-56257079D01*
X21097226Y-56260542D01*
X21152112Y-56262489D01*
X21188159Y-56260109D01*
X21209328Y-56250307D01*
X21219577Y-56229988D01*
X21222868Y-56196056D01*
X21223151Y-56162111D01*
X21221339Y-56112087D01*
X21216305Y-56076175D01*
X21209452Y-56059587D01*
X21189865Y-56051679D01*
X21155585Y-56047171D01*
X21114495Y-56046046D01*
X21074476Y-56048283D01*
X21043409Y-56053865D01*
X21030949Y-56060005D01*
X21022794Y-56081300D01*
X21019546Y-56124218D01*
X20861210Y-56124218D01*
X20861090Y-56111121D01*
X20865965Y-56060254D01*
X20874089Y-56029575D01*
X20892180Y-55995319D01*
X20919888Y-55957427D01*
X20937259Y-55938249D01*
X20983708Y-55891775D01*
X21114495Y-55889925D01*
X21231351Y-55888273D01*
X21305697Y-55887523D01*
X21373496Y-55887406D01*
X21431008Y-55887884D01*
G37*
G36*
X22339102Y-60646448D02*
G01*
X22406619Y-60646938D01*
X22470597Y-60648359D01*
X22524071Y-60650525D01*
X22562994Y-60653269D01*
X22583318Y-60656427D01*
X22583734Y-60656577D01*
X22617571Y-60677364D01*
X22654584Y-60711808D01*
X22688501Y-60752780D01*
X22713053Y-60793151D01*
X22720032Y-60811522D01*
X22724989Y-60843100D01*
X22728040Y-60889767D01*
X22728799Y-60943835D01*
X22728134Y-60973022D01*
X22725550Y-61027465D01*
X22721681Y-61065199D01*
X22715151Y-61092348D01*
X22704585Y-61115035D01*
X22691778Y-61134842D01*
X22662264Y-61170361D01*
X22627542Y-61202803D01*
X22617194Y-61210589D01*
X22602573Y-61220370D01*
X22588554Y-61227703D01*
X22571754Y-61232942D01*
X22548789Y-61236438D01*
X22516277Y-61238545D01*
X22470833Y-61239613D01*
X22409076Y-61239996D01*
X22334359Y-61240045D01*
X22094030Y-61240045D01*
X22042231Y-61200494D01*
X21999854Y-61162485D01*
X21970751Y-61121002D01*
X21952989Y-61071105D01*
X21944630Y-61007853D01*
X21943372Y-60948194D01*
X21943643Y-60938360D01*
X22102162Y-60938360D01*
X22102162Y-60941253D01*
X22103367Y-60994252D01*
X22107499Y-61029375D01*
X22115334Y-61051475D01*
X22121055Y-61059348D01*
X22130106Y-61067048D01*
X22143499Y-61072603D01*
X22164721Y-61076355D01*
X22197259Y-61078645D01*
X22244598Y-61079816D01*
X22310226Y-61080208D01*
X22334201Y-61080225D01*
X22413192Y-61080094D01*
X22472249Y-61078596D01*
X22514270Y-61074074D01*
X22542151Y-61064871D01*
X22558789Y-61049330D01*
X22567080Y-61025795D01*
X22569921Y-60992608D01*
X22570208Y-60948112D01*
X22570207Y-60945220D01*
X22570004Y-60898360D01*
X22567445Y-60863424D01*
X22559612Y-60838662D01*
X22543584Y-60822326D01*
X22516439Y-60812665D01*
X22475257Y-60807931D01*
X22417118Y-60806375D01*
X22339102Y-60806247D01*
X22338168Y-60806247D01*
X22259178Y-60806379D01*
X22200121Y-60807877D01*
X22158100Y-60812399D01*
X22130218Y-60821601D01*
X22113581Y-60837142D01*
X22105290Y-60860677D01*
X22102449Y-60893865D01*
X22102162Y-60938360D01*
X21943643Y-60938360D01*
X21944823Y-60895447D01*
X21947867Y-60847716D01*
X21951978Y-60812026D01*
X21954439Y-60800291D01*
X21969941Y-60770263D01*
X21997901Y-60733974D01*
X22032016Y-60698173D01*
X22065985Y-60669611D01*
X22088636Y-60656577D01*
X22108019Y-60653405D01*
X22146185Y-60650638D01*
X22199087Y-60648442D01*
X22262675Y-60646984D01*
X22332904Y-60646428D01*
X22336185Y-60646427D01*
X22339102Y-60646448D01*
G37*
G36*
X23539176Y-50682251D02*
G01*
X23542803Y-50701768D01*
X23534052Y-50719370D01*
X23510675Y-50741258D01*
X23489485Y-50760583D01*
X23477908Y-50778793D01*
X23473059Y-50803717D01*
X23472051Y-50843185D01*
X23472050Y-50846025D01*
X23473100Y-50887148D01*
X23477754Y-50912694D01*
X23488268Y-50929877D01*
X23502129Y-50942228D01*
X23545271Y-50962091D01*
X23580500Y-50965888D01*
X23632185Y-50957123D01*
X23658870Y-50942228D01*
X23676131Y-50925789D01*
X23685196Y-50906292D01*
X23688588Y-50876080D01*
X23688949Y-50850902D01*
X23689571Y-50813227D01*
X23692952Y-50792986D01*
X23701368Y-50784787D01*
X23717093Y-50783236D01*
X23717488Y-50783236D01*
X23733483Y-50784745D01*
X23742015Y-50792897D01*
X23745419Y-50813128D01*
X23746028Y-50849741D01*
X23747777Y-50891095D01*
X23754545Y-50917662D01*
X23768611Y-50937319D01*
X23772449Y-50941066D01*
X23808805Y-50961009D01*
X23853642Y-50965957D01*
X23898163Y-50955842D01*
X23921432Y-50942228D01*
X23938104Y-50926602D01*
X23947178Y-50908312D01*
X23950893Y-50880172D01*
X23951511Y-50845681D01*
X23950670Y-50805142D01*
X23946269Y-50779786D01*
X23935492Y-50761978D01*
X23915520Y-50744081D01*
X23913403Y-50742387D01*
X23887832Y-50717551D01*
X23879580Y-50695355D01*
X23880486Y-50684821D01*
X23887275Y-50664916D01*
X23899180Y-50660042D01*
X23919071Y-50671034D01*
X23949822Y-50698725D01*
X23958721Y-50707532D01*
X24008589Y-50757401D01*
X24008589Y-50845864D01*
X24008130Y-50890834D01*
X24005156Y-50920137D01*
X23997278Y-50940937D01*
X23982104Y-50960395D01*
X23964270Y-50978647D01*
X23937442Y-51003686D01*
X23915006Y-51016940D01*
X23887516Y-51022126D01*
X23851652Y-51022966D01*
X23804118Y-51020233D01*
X23771453Y-51010870D01*
X23754328Y-51000135D01*
X23732037Y-50984323D01*
X23717833Y-50977323D01*
X23717488Y-50977304D01*
X23703941Y-50983703D01*
X23681846Y-50999198D01*
X23680648Y-51000135D01*
X23656185Y-51014007D01*
X23623252Y-51021083D01*
X23577617Y-51022966D01*
X23536461Y-51022089D01*
X23509510Y-51017304D01*
X23488151Y-51005385D01*
X23463767Y-50983106D01*
X23459291Y-50978647D01*
X23436505Y-50954811D01*
X23423281Y-50935151D01*
X23417027Y-50912141D01*
X23415151Y-50878254D01*
X23415047Y-50850220D01*
X23417024Y-50797782D01*
X23423670Y-50761291D01*
X23436219Y-50734123D01*
X23436909Y-50733064D01*
X23462635Y-50703175D01*
X23493874Y-50677743D01*
X23529053Y-50655469D01*
X23539176Y-50682251D01*
G37*
G36*
X22339102Y-57473131D02*
G01*
X22398591Y-57473421D01*
X22461920Y-57474519D01*
X22516586Y-57476386D01*
X22558097Y-57479022D01*
X22581956Y-57482427D01*
X22583734Y-57483004D01*
X22617571Y-57503791D01*
X22654584Y-57538235D01*
X22688501Y-57579207D01*
X22713053Y-57619578D01*
X22720032Y-57637949D01*
X22724989Y-57669527D01*
X22728040Y-57716194D01*
X22728799Y-57770262D01*
X22728134Y-57799449D01*
X22725550Y-57853892D01*
X22721681Y-57891626D01*
X22715151Y-57918775D01*
X22704585Y-57941462D01*
X22691778Y-57961269D01*
X22662264Y-57996788D01*
X22627542Y-58029230D01*
X22617194Y-58037016D01*
X22602517Y-58046830D01*
X22588442Y-58054179D01*
X22571569Y-58059419D01*
X22548497Y-58062908D01*
X22515825Y-58065001D01*
X22470153Y-58066055D01*
X22408080Y-58066427D01*
X22336185Y-58066472D01*
X22256632Y-58066408D01*
X22196510Y-58065980D01*
X22152418Y-58064830D01*
X22120957Y-58062602D01*
X22098724Y-58058940D01*
X22082321Y-58053487D01*
X22068345Y-58045887D01*
X22055176Y-58037016D01*
X22021539Y-58008375D01*
X21988929Y-57972448D01*
X21980383Y-57960969D01*
X21966103Y-57938848D01*
X21956653Y-57918017D01*
X21950912Y-57892875D01*
X21947755Y-57857820D01*
X21946060Y-57807250D01*
X21945660Y-57787796D01*
X21945650Y-57764787D01*
X22102162Y-57764787D01*
X22102162Y-57767680D01*
X22103367Y-57820679D01*
X22107499Y-57855802D01*
X22115334Y-57877902D01*
X22121055Y-57885775D01*
X22130106Y-57893475D01*
X22143499Y-57899030D01*
X22164721Y-57902782D01*
X22197259Y-57905072D01*
X22244598Y-57906243D01*
X22310226Y-57906635D01*
X22334201Y-57906652D01*
X22413192Y-57906521D01*
X22472249Y-57905023D01*
X22514270Y-57900501D01*
X22542151Y-57891298D01*
X22558789Y-57875757D01*
X22567080Y-57852222D01*
X22569921Y-57819035D01*
X22570208Y-57774539D01*
X22570207Y-57771647D01*
X22570004Y-57724787D01*
X22567445Y-57689851D01*
X22559612Y-57665089D01*
X22543584Y-57648753D01*
X22516439Y-57639092D01*
X22475257Y-57634358D01*
X22417118Y-57632802D01*
X22339102Y-57632674D01*
X22338168Y-57632674D01*
X22259178Y-57632805D01*
X22200121Y-57634304D01*
X22158100Y-57638826D01*
X22130218Y-57648028D01*
X22113581Y-57663569D01*
X22105290Y-57687104D01*
X22102449Y-57720292D01*
X22102162Y-57764787D01*
X21945650Y-57764787D01*
X21945635Y-57732408D01*
X21947480Y-57682037D01*
X21950853Y-57643160D01*
X21954170Y-57625485D01*
X21970546Y-57594315D01*
X21999420Y-57557374D01*
X22034296Y-57521559D01*
X22068678Y-57493767D01*
X22088405Y-57482990D01*
X22109323Y-57479471D01*
X22148546Y-57476722D01*
X22201578Y-57474742D01*
X22263926Y-57473533D01*
X22331095Y-57473092D01*
X22339102Y-57473131D01*
G37*
G36*
X21527652Y-50657670D02*
G01*
X21569008Y-50658780D01*
X21596726Y-50664136D01*
X21619410Y-50676737D01*
X21642847Y-50696741D01*
X21685488Y-50735819D01*
X21685488Y-50833539D01*
X21685488Y-50931260D01*
X21642489Y-50974259D01*
X21617269Y-50997871D01*
X21595915Y-51010754D01*
X21569723Y-51016139D01*
X21529993Y-51017257D01*
X21526676Y-51017259D01*
X21478453Y-51014920D01*
X21447162Y-51007132D01*
X21431788Y-50997281D01*
X21409433Y-50982006D01*
X21394387Y-50977304D01*
X21374781Y-50984442D01*
X21356986Y-50997281D01*
X21336340Y-51009206D01*
X21304080Y-51015493D01*
X21256834Y-51017259D01*
X21214204Y-51016424D01*
X21186378Y-51012149D01*
X21165343Y-51001777D01*
X21143084Y-50982652D01*
X21138167Y-50977918D01*
X21118867Y-50958456D01*
X21106923Y-50941666D01*
X21100572Y-50921415D01*
X21098045Y-50891570D01*
X21097580Y-50845998D01*
X21097578Y-50836934D01*
X21097616Y-50831501D01*
X21154657Y-50831501D01*
X21156565Y-50881966D01*
X21162889Y-50914728D01*
X21173550Y-50933596D01*
X21193976Y-50947228D01*
X21227061Y-50953549D01*
X21255415Y-50954472D01*
X21302796Y-50951593D01*
X21333576Y-50940425D01*
X21351126Y-50917175D01*
X21358816Y-50878050D01*
X21360140Y-50836590D01*
X21359958Y-50832623D01*
X21428634Y-50832623D01*
X21430618Y-50882966D01*
X21437170Y-50915596D01*
X21447527Y-50933596D01*
X21469136Y-50947672D01*
X21504315Y-50953854D01*
X21526609Y-50954472D01*
X21564395Y-50952751D01*
X21588109Y-50945459D01*
X21606387Y-50929408D01*
X21611573Y-50923079D01*
X21626209Y-50899825D01*
X21632485Y-50873400D01*
X21632245Y-50834946D01*
X21631681Y-50826473D01*
X21623855Y-50773667D01*
X21607372Y-50739678D01*
X21579137Y-50721181D01*
X21536052Y-50714848D01*
X21527652Y-50714742D01*
X21482716Y-50717932D01*
X21453491Y-50729978D01*
X21436857Y-50754597D01*
X21429692Y-50795502D01*
X21428634Y-50832623D01*
X21359958Y-50832623D01*
X21357632Y-50781994D01*
X21348176Y-50746198D01*
X21328874Y-50725534D01*
X21296825Y-50716331D01*
X21263877Y-50714742D01*
X21214192Y-50717956D01*
X21181916Y-50730065D01*
X21163592Y-50754764D01*
X21155760Y-50795751D01*
X21154657Y-50831501D01*
X21097616Y-50831501D01*
X21097917Y-50788175D01*
X21100068Y-50756100D01*
X21105728Y-50734560D01*
X21116598Y-50717408D01*
X21134375Y-50698495D01*
X21136392Y-50696477D01*
X21158550Y-50675898D01*
X21178386Y-50664265D01*
X21203629Y-50659042D01*
X21242009Y-50657692D01*
X21254717Y-50657663D01*
X21263877Y-50657974D01*
X21302364Y-50659279D01*
X21334485Y-50665154D01*
X21358224Y-50676830D01*
X21364308Y-50681323D01*
X21394387Y-50704983D01*
X21424466Y-50681323D01*
X21449225Y-50666946D01*
X21481539Y-50659642D01*
X21527375Y-50657663D01*
X21527652Y-50657670D01*
G37*
G36*
X21528592Y-52609779D02*
G01*
X21569804Y-52610461D01*
X21597441Y-52614330D01*
X21617608Y-52623975D01*
X21637983Y-52642012D01*
X21646148Y-52650342D01*
X21665373Y-52671207D01*
X21677025Y-52689390D01*
X21682998Y-52711462D01*
X21685187Y-52743989D01*
X21685488Y-52786697D01*
X21685066Y-52833933D01*
X21682534Y-52864908D01*
X21675999Y-52886190D01*
X21663564Y-52904348D01*
X21646148Y-52923052D01*
X21623998Y-52944467D01*
X21604615Y-52956619D01*
X21580321Y-52962123D01*
X21543438Y-52963594D01*
X21527018Y-52963641D01*
X21481500Y-52962374D01*
X21451834Y-52957501D01*
X21431125Y-52947409D01*
X21420808Y-52938819D01*
X21394387Y-52913998D01*
X21367966Y-52938819D01*
X21349857Y-52952260D01*
X21326990Y-52959858D01*
X21292693Y-52963123D01*
X21258375Y-52963641D01*
X21214493Y-52962974D01*
X21186043Y-52959406D01*
X21165634Y-52950584D01*
X21145872Y-52934156D01*
X21136392Y-52924827D01*
X21117719Y-52905213D01*
X21106265Y-52887926D01*
X21100265Y-52866692D01*
X21097957Y-52835239D01*
X21097619Y-52792507D01*
X21153263Y-52792507D01*
X21156555Y-52836445D01*
X21165333Y-52871653D01*
X21173550Y-52885686D01*
X21198719Y-52899631D01*
X21236913Y-52906613D01*
X21279377Y-52906527D01*
X21317358Y-52899267D01*
X21339264Y-52887669D01*
X21351968Y-52863989D01*
X21359417Y-52825814D01*
X21361354Y-52784713D01*
X21428634Y-52784713D01*
X21430618Y-52835056D01*
X21437170Y-52867686D01*
X21447527Y-52885686D01*
X21469136Y-52899762D01*
X21504315Y-52905944D01*
X21526609Y-52906562D01*
X21575996Y-52900462D01*
X21609064Y-52880704D01*
X21627774Y-52845102D01*
X21634089Y-52791467D01*
X21634117Y-52786697D01*
X21628529Y-52731479D01*
X21610569Y-52694456D01*
X21578440Y-52673588D01*
X21530349Y-52666837D01*
X21528592Y-52666832D01*
X21483255Y-52669967D01*
X21453775Y-52681858D01*
X21436990Y-52706235D01*
X21429736Y-52746827D01*
X21428634Y-52784713D01*
X21361354Y-52784713D01*
X21361534Y-52780887D01*
X21358242Y-52736948D01*
X21349464Y-52701741D01*
X21341247Y-52687708D01*
X21316078Y-52673763D01*
X21277884Y-52666781D01*
X21235420Y-52666867D01*
X21197439Y-52674126D01*
X21175533Y-52685725D01*
X21162829Y-52709405D01*
X21155380Y-52747580D01*
X21153263Y-52792507D01*
X21097619Y-52792507D01*
X21097578Y-52787292D01*
X21097578Y-52786697D01*
X21097946Y-52738549D01*
X21100225Y-52706959D01*
X21106179Y-52685653D01*
X21117569Y-52668358D01*
X21136159Y-52648799D01*
X21136392Y-52648566D01*
X21157988Y-52628399D01*
X21177246Y-52616787D01*
X21201557Y-52611379D01*
X21238314Y-52609824D01*
X21258375Y-52609753D01*
X21277884Y-52610231D01*
X21304620Y-52610887D01*
X21334773Y-52615298D01*
X21355506Y-52624497D01*
X21367966Y-52634574D01*
X21394387Y-52659396D01*
X21420808Y-52634574D01*
X21439506Y-52620834D01*
X21463278Y-52613218D01*
X21499017Y-52610118D01*
X21527018Y-52609753D01*
X21528592Y-52609779D01*
G37*
%TD*%
D11*
%TO.C,OL1*%
X114632500Y-73021250D03*
D12*
X112092500Y-73021250D03*
X109552500Y-73021250D03*
X107012500Y-73021250D03*
%TD*%
D13*
%TO.C,REF\u002A\u002A*%
X113650000Y-38546000D03*
%TD*%
%TO.C,REF\u002A\u002A*%
X23650000Y-38546000D03*
%TD*%
D14*
%TO.C,RE1*%
X29686250Y-30403125D03*
D15*
X29686250Y-35403125D03*
X29686250Y-32903125D03*
D16*
X37186250Y-27303125D03*
X37186250Y-38503125D03*
D15*
X44186250Y-35403125D03*
X44186250Y-30403125D03*
%TD*%
D13*
%TO.C,REF\u002A\u002A*%
X23650000Y-78546000D03*
%TD*%
D17*
%TO.C,MX4*%
X88239375Y-52786875D03*
D18*
X93319375Y-52786875D03*
D17*
X98399375Y-52786875D03*
%TD*%
%TO.C,MX8*%
X88239375Y-71836875D03*
D18*
X93319375Y-71836875D03*
D17*
X98399375Y-71836875D03*
%TD*%
%TO.C,MX7*%
X69189375Y-71836875D03*
D18*
X74269375Y-71836875D03*
D17*
X79349375Y-71836875D03*
%TD*%
%TO.C,MX3*%
X69189375Y-52786875D03*
D18*
X74269375Y-52786875D03*
D17*
X79349375Y-52786875D03*
%TD*%
%TO.C,MX6*%
X50139375Y-71836875D03*
D18*
X55219375Y-71836875D03*
D17*
X60299375Y-71836875D03*
%TD*%
%TO.C,MX1*%
X31089375Y-52786875D03*
D18*
X36169375Y-52786875D03*
D17*
X41249375Y-52786875D03*
%TD*%
D13*
%TO.C,REF\u002A\u002A*%
X113650000Y-78546000D03*
%TD*%
D17*
%TO.C,MX2*%
X50139375Y-52786875D03*
D18*
X55219375Y-52786875D03*
D17*
X60299375Y-52786875D03*
%TD*%
D13*
%TO.C,REF\u002A\u002A*%
X23650000Y-28546000D03*
%TD*%
D17*
%TO.C,MX5*%
X31089375Y-71836875D03*
D18*
X36169375Y-71836875D03*
D17*
X41249375Y-71836875D03*
%TD*%
D13*
%TO.C,REF\u002A\u002A*%
X113650000Y-28546000D03*
%TD*%
D19*
%TO.C,J1*%
X65690000Y-29222000D03*
X71470000Y-29222000D03*
D20*
X64260000Y-25572000D03*
D21*
X64260000Y-29752000D03*
D20*
X72900000Y-25572000D03*
D21*
X72900000Y-29752000D03*
%TD*%
M02*
