M48
; DRILL file {KiCad 8.0.2-1} date 2024-05-13T14:31:14+0100
; FORMAT={-:-/ absolute / inch / decimal}
; #@! TF.CreationDate,2024-05-13T14:31:14+01:00
; #@! TF.GenerationSoftware,Kicad,Pcbnew,8.0.2-1
; #@! TF.FileFunction,Plated,1,2,PTH
FMAT,2
INCH
; #@! TA.AperFunction,Plated,PTH,ViaDrill
T1C0.0157
; #@! TA.AperFunction,Plated,PTH,ComponentDrill
T2C0.0236
; #@! TA.AperFunction,Plated,PTH,ComponentDrill
T3C0.0394
; #@! TA.AperFunction,Plated,PTH,ComponentDrill
T4C0.0591
; #@! TA.AperFunction,Plated,PTH,ComponentDrill
T5C0.0600
%
G90
G05
T1
X1.8543Y-2.4664
X1.8988Y-1.707
X1.8992Y-1.8361
X2.0464Y-1.6727
X2.0464Y-1.8782
X2.0468Y-1.7404
X2.0917Y-2.4999
X2.0917Y-2.6302
X2.6492Y-1.4455
X2.7815Y-1.3227
X3.1327Y-1.303
X3.1355Y-1.1233
X3.2531Y-2.1247
X3.259Y-1.2148
X3.3078Y-2.4999
X3.5012Y-1.8365
X3.5464Y-1.6731
X3.5921Y-2.4999
X4.1181Y-1.7964
X4.148Y-1.5455
X4.2455Y-2.2938
X4.2535Y-1.87
X4.2945Y-1.8117
X4.2945Y-1.9625
X4.3212Y-2.2515
X4.3212Y-2.3274
X4.3645Y-1.8511
X4.4024Y-2.3732
X4.4547Y-1.8117
X4.4708Y-2.1203
X4.5838Y-2.2322
X4.587Y-2.2751
T3
X1.1687Y-1.197
X1.1687Y-1.2954
X1.1687Y-1.3938
X1.7396Y-1.197
X1.7396Y-1.3938
X4.2131Y-2.8749
X4.3131Y-2.8749
X4.4131Y-2.8749
X4.5131Y-2.8749
T5
X1.274Y-1.9782
X1.274Y-2.7282
X1.524Y-1.8782
X1.524Y-2.6282
X2.024Y-1.9782
X2.024Y-2.7282
X2.274Y-1.8782
X2.274Y-2.6282
X2.774Y-1.9782
X2.774Y-2.7282
X3.024Y-1.8782
X3.024Y-2.6282
X3.524Y-1.9782
X3.524Y-2.7282
X3.774Y-1.8782
X3.774Y-2.6282
T2
G00X2.5299Y-0.995
M15
G01X2.5299Y-1.0186
M16
G05
G00X2.5299Y-1.1497
M15
G01X2.5299Y-1.193
M16
G05
G00X2.8701Y-0.995
M15
G01X2.8701Y-1.0186
M16
G05
G00X2.8701Y-1.1497
M15
G01X2.8701Y-1.193
M16
G05
T4
G00X1.4384Y-1.0749
M15
G01X1.4896Y-1.0749
M16
G05
G00X1.4384Y-1.5159
M15
G01X1.4896Y-1.5159
M16
G05
M30
