M48
; DRILL file {KiCad 8.0.2-1} date 2024-05-13T14:31:14+0100
; FORMAT={-:-/ absolute / inch / decimal}
; #@! TF.CreationDate,2024-05-13T14:31:14+01:00
; #@! TF.GenerationSoftware,Kicad,Pcbnew,8.0.2-1
; #@! TF.FileFunction,NonPlated,1,2,NPTH
FMAT,2
INCH
; #@! TA.AperFunction,NonPlated,NPTH,ComponentDrill
T1C0.0256
; #@! TA.AperFunction,NonPlated,NPTH,ComponentDrill
T2C0.0689
; #@! TA.AperFunction,NonPlated,NPTH,ComponentDrill
T3C0.0866
; #@! TA.AperFunction,NonPlated,NPTH,ComponentDrill
T4C0.1570
%
G90
G05
T1
X2.5862Y-1.1505
X2.8138Y-1.1505
T2
X1.224Y-2.0782
X1.224Y-2.8282
X1.624Y-2.0782
X1.624Y-2.8282
X1.974Y-2.0782
X1.974Y-2.8282
X2.374Y-2.0782
X2.374Y-2.8282
X2.724Y-2.0782
X2.724Y-2.8282
X3.124Y-2.0782
X3.124Y-2.8282
X3.474Y-2.0782
X3.474Y-2.8282
X3.874Y-2.0782
X3.874Y-2.8282
T3
X0.9311Y-1.1239
X0.9311Y-1.5176
X0.9311Y-3.0924
X4.4744Y-1.1239
X4.4744Y-1.5176
X4.4744Y-3.0924
T4
X1.424Y-2.0782
X1.424Y-2.8282
X2.174Y-2.0782
X2.174Y-2.8282
X2.924Y-2.0782
X2.924Y-2.8282
X3.674Y-2.0782
X3.674Y-2.8282
M30
